G04 #@! TF.GenerationSoftware,KiCad,Pcbnew,(5.0.0)*
G04 #@! TF.CreationDate,2018-09-16T22:23:12+09:00*
G04 #@! TF.ProjectId,ergodash,6572676F646173682E6B696361645F70,2.0*
G04 #@! TF.SameCoordinates,Original*
G04 #@! TF.FileFunction,Soldermask,Top*
G04 #@! TF.FilePolarity,Negative*
%FSLAX46Y46*%
G04 Gerber Fmt 4.6, Leading zero omitted, Abs format (unit mm)*
G04 Created by KiCad (PCBNEW (5.0.0)) date 09/16/18 22:23:12*
%MOMM*%
%LPD*%
G01*
G04 APERTURE LIST*
%ADD10C,1.600000*%
%ADD11C,0.100000*%
%ADD12C,2.000000*%
%ADD13C,2.000000*%
%ADD14R,2.000000X1.600000*%
%ADD15O,2.000000X2.000000*%
%ADD16R,2.000000X2.000000*%
%ADD17R,1.600000X2.000000*%
%ADD18R,1.800000X1.600000*%
%ADD19R,1.600000X1.800000*%
%ADD20C,4.387800*%
%ADD21C,3.448000*%
%ADD22R,1.800000X2.200000*%
%ADD23C,1.800000*%
%ADD24R,2.200000X1.800000*%
%ADD25C,2.305000*%
%ADD26R,1.924000X1.924000*%
%ADD27C,4.400000*%
%ADD28C,2.300000*%
%ADD29C,2.800000*%
%ADD30C,2.800000*%
%ADD31C,2.700000*%
%ADD32C,2.700000*%
%ADD33C,2.100000*%
%ADD34O,2.700000X3.737000*%
%ADD35R,1.300000X1.200000*%
%ADD36R,2.305000X2.305000*%
%ADD37C,1.924000*%
%ADD38C,5.400000*%
%ADD39C,2.200000*%
%ADD40R,2.800000X4.400000*%
%ADD41C,1.610000*%
%ADD42O,1.700000X2.600000*%
G04 APERTURE END LIST*
D10*
G04 #@! TO.C,D68*
X204290000Y-142173212D03*
D11*
G36*
X204482820Y-143439237D02*
X203097180Y-142639237D01*
X204097180Y-140907187D01*
X205482820Y-141707187D01*
X204482820Y-143439237D01*
X204482820Y-143439237D01*
G37*
D12*
X207645000Y-136362182D03*
D13*
X207645000Y-136362182D02*
X207645000Y-136362182D01*
D12*
X202565000Y-145161000D03*
D11*
G36*
X202931025Y-146527025D02*
X201198975Y-145527025D01*
X202198975Y-143794975D01*
X203931025Y-144794975D01*
X202931025Y-146527025D01*
X202931025Y-146527025D01*
G37*
D10*
X205920000Y-139349970D03*
D11*
G36*
X206112820Y-140615995D02*
X204727180Y-139815995D01*
X205727180Y-138083945D01*
X207112820Y-138883945D01*
X206112820Y-140615995D01*
X206112820Y-140615995D01*
G37*
G04 #@! TD*
D14*
G04 #@! TO.C,D1*
X180488000Y-120523000D03*
D15*
X187198000Y-120523000D03*
D16*
X177038000Y-120523000D03*
D14*
X183748000Y-120523000D03*
G04 #@! TD*
D10*
G04 #@! TO.C,D34*
X180668000Y-139125212D03*
D11*
G36*
X180860820Y-140391237D02*
X179475180Y-139591237D01*
X180475180Y-137859187D01*
X181860820Y-138659187D01*
X180860820Y-140391237D01*
X180860820Y-140391237D01*
G37*
D12*
X184023000Y-133314182D03*
D13*
X184023000Y-133314182D02*
X184023000Y-133314182D01*
D12*
X178943000Y-142113000D03*
D11*
G36*
X179309025Y-143479025D02*
X177576975Y-142479025D01*
X178576975Y-140746975D01*
X180309025Y-141746975D01*
X179309025Y-143479025D01*
X179309025Y-143479025D01*
G37*
D10*
X182298000Y-136301970D03*
D11*
G36*
X182490820Y-137567995D02*
X181105180Y-136767995D01*
X182105180Y-135035945D01*
X183490820Y-135835945D01*
X182490820Y-137567995D01*
X182490820Y-137567995D01*
G37*
G04 #@! TD*
D10*
G04 #@! TO.C,D33*
X179892212Y-128069000D03*
D11*
G36*
X181158237Y-127876180D02*
X180358237Y-129261820D01*
X178626187Y-128261820D01*
X179426187Y-126876180D01*
X181158237Y-127876180D01*
X181158237Y-127876180D01*
G37*
D12*
X174081182Y-124714000D03*
D13*
X174081182Y-124714000D02*
X174081182Y-124714000D01*
D12*
X182880000Y-129794000D03*
D11*
G36*
X184246025Y-129427975D02*
X183246025Y-131160025D01*
X181513975Y-130160025D01*
X182513975Y-128427975D01*
X184246025Y-129427975D01*
X184246025Y-129427975D01*
G37*
D10*
X177068970Y-126439000D03*
D11*
G36*
X178334995Y-126246180D02*
X177534995Y-127631820D01*
X175802945Y-126631820D01*
X176602945Y-125246180D01*
X178334995Y-126246180D01*
X178334995Y-126246180D01*
G37*
G04 #@! TD*
D17*
G04 #@! TO.C,D32*
X133477000Y-128884000D03*
D15*
X133477000Y-122174000D03*
D16*
X133477000Y-132334000D03*
D17*
X133477000Y-125624000D03*
G04 #@! TD*
G04 #@! TO.C,D31*
X116713000Y-131170000D03*
D15*
X116713000Y-124460000D03*
D16*
X116713000Y-134620000D03*
D17*
X116713000Y-127910000D03*
G04 #@! TD*
G04 #@! TO.C,D30*
X114427000Y-131170000D03*
D15*
X114427000Y-124460000D03*
D16*
X114427000Y-134620000D03*
D17*
X114427000Y-127910000D03*
G04 #@! TD*
G04 #@! TO.C,D29*
X97663000Y-116184000D03*
D15*
X97663000Y-109474000D03*
D16*
X97663000Y-119634000D03*
D17*
X97663000Y-112924000D03*
G04 #@! TD*
G04 #@! TO.C,D28*
X190627000Y-121497000D03*
D15*
X190627000Y-114787000D03*
D16*
X190627000Y-124947000D03*
D17*
X190627000Y-118237000D03*
G04 #@! TD*
G04 #@! TO.C,D27*
X190627000Y-107569000D03*
D15*
X190627000Y-100859000D03*
D16*
X190627000Y-111019000D03*
D17*
X190627000Y-104309000D03*
G04 #@! TD*
G04 #@! TO.C,D26*
X190627000Y-95102000D03*
D15*
X190627000Y-88392000D03*
D16*
X190627000Y-98552000D03*
D17*
X190627000Y-91842000D03*
G04 #@! TD*
G04 #@! TO.C,D24*
X173990000Y-114406000D03*
D15*
X173990000Y-107696000D03*
D16*
X173990000Y-117856000D03*
D17*
X173990000Y-111146000D03*
G04 #@! TD*
G04 #@! TO.C,D23*
X173990000Y-96774000D03*
D15*
X173990000Y-90064000D03*
D16*
X173990000Y-100224000D03*
D17*
X173990000Y-93514000D03*
G04 #@! TD*
G04 #@! TO.C,D22*
X173990000Y-78719000D03*
D15*
X173990000Y-72009000D03*
D16*
X173990000Y-82169000D03*
D17*
X173990000Y-75459000D03*
G04 #@! TD*
G04 #@! TO.C,D20*
X171323000Y-114385000D03*
D15*
X171323000Y-107675000D03*
D16*
X171323000Y-117835000D03*
D17*
X171323000Y-111125000D03*
G04 #@! TD*
G04 #@! TO.C,D15*
X152273000Y-101346000D03*
D15*
X152273000Y-94636000D03*
D16*
X152273000Y-104796000D03*
D17*
X152273000Y-98086000D03*
G04 #@! TD*
G04 #@! TO.C,D14*
X133731000Y-88011000D03*
D15*
X133731000Y-81301000D03*
D16*
X133731000Y-91461000D03*
D17*
X133731000Y-84751000D03*
G04 #@! TD*
G04 #@! TO.C,D12*
X133477000Y-112395000D03*
D15*
X133477000Y-105685000D03*
D16*
X133477000Y-115845000D03*
D17*
X133477000Y-109135000D03*
G04 #@! TD*
G04 #@! TO.C,D11*
X116840000Y-97642000D03*
D15*
X116840000Y-90932000D03*
D16*
X116840000Y-101092000D03*
D17*
X116840000Y-94382000D03*
G04 #@! TD*
G04 #@! TO.C,D10*
X116586000Y-78719000D03*
D15*
X116586000Y-72009000D03*
D16*
X116586000Y-82169000D03*
D17*
X116586000Y-75459000D03*
G04 #@! TD*
G04 #@! TO.C,D8*
X116713000Y-116692000D03*
D15*
X116713000Y-109982000D03*
D16*
X116713000Y-120142000D03*
D17*
X116713000Y-113432000D03*
G04 #@! TD*
G04 #@! TO.C,D7*
X114427000Y-97642000D03*
D15*
X114427000Y-90932000D03*
D16*
X114427000Y-101092000D03*
D17*
X114427000Y-94382000D03*
G04 #@! TD*
G04 #@! TO.C,D6*
X114427000Y-78719000D03*
D15*
X114427000Y-72009000D03*
D16*
X114427000Y-82169000D03*
D17*
X114427000Y-75459000D03*
G04 #@! TD*
G04 #@! TO.C,D4*
X114427000Y-116671000D03*
D15*
X114427000Y-109961000D03*
D16*
X114427000Y-120121000D03*
D17*
X114427000Y-113411000D03*
G04 #@! TD*
G04 #@! TO.C,D3*
X97663000Y-97642000D03*
D15*
X97663000Y-90932000D03*
D16*
X97663000Y-101092000D03*
D17*
X97663000Y-94382000D03*
G04 #@! TD*
G04 #@! TO.C,D2*
X97663000Y-78719000D03*
D15*
X97663000Y-72009000D03*
D16*
X97663000Y-82169000D03*
D17*
X97663000Y-75459000D03*
G04 #@! TD*
G04 #@! TO.C,D16*
X135763000Y-112395000D03*
D15*
X135763000Y-105685000D03*
D16*
X135763000Y-115845000D03*
D17*
X135763000Y-109135000D03*
G04 #@! TD*
G04 #@! TO.C,D18*
X155194000Y-101304000D03*
D15*
X155194000Y-94594000D03*
D16*
X155194000Y-104754000D03*
D17*
X155194000Y-98044000D03*
G04 #@! TD*
G04 #@! TO.C,D19*
X171450000Y-96732000D03*
D15*
X171450000Y-90022000D03*
D16*
X171450000Y-100182000D03*
D17*
X171450000Y-93472000D03*
G04 #@! TD*
D10*
G04 #@! TO.C,R39*
X200126070Y-157304000D03*
D11*
G36*
X201305493Y-157061180D02*
X200505493Y-158446820D01*
X198946647Y-157546820D01*
X199746647Y-156161180D01*
X201305493Y-157061180D01*
X201305493Y-157061180D01*
G37*
D12*
X205582030Y-160454000D03*
X196783212Y-155374000D03*
D13*
X196783212Y-155374000D02*
X196783212Y-155374000D01*
D10*
X202204531Y-158504000D03*
D11*
G36*
X203383954Y-158261180D02*
X202583954Y-159646820D01*
X201025108Y-158746820D01*
X201825108Y-157361180D01*
X203383954Y-158261180D01*
X203383954Y-158261180D01*
G37*
G04 #@! TD*
D18*
G04 #@! TO.C,R38*
X199213000Y-115951000D03*
D12*
X192913000Y-115951000D03*
D15*
X203073000Y-115951000D03*
D18*
X196813000Y-115951000D03*
G04 #@! TD*
D10*
G04 #@! TO.C,R37*
X216890070Y-128475000D03*
D11*
G36*
X218069493Y-128232180D02*
X217269493Y-129617820D01*
X215710647Y-128717820D01*
X216510647Y-127332180D01*
X218069493Y-128232180D01*
X218069493Y-128232180D01*
G37*
D12*
X222346030Y-131625000D03*
X213547212Y-126545000D03*
D13*
X213547212Y-126545000D02*
X213547212Y-126545000D01*
D10*
X218968531Y-129675000D03*
D11*
G36*
X220147954Y-129432180D02*
X219347954Y-130817820D01*
X217789108Y-129917820D01*
X218589108Y-128532180D01*
X220147954Y-129432180D01*
X220147954Y-129432180D01*
G37*
G04 #@! TD*
D18*
G04 #@! TO.C,R14*
X199213000Y-113538000D03*
D12*
X192913000Y-113538000D03*
D15*
X203073000Y-113538000D03*
D18*
X196813000Y-113538000D03*
G04 #@! TD*
G04 #@! TO.C,R36*
X142798000Y-118618000D03*
D12*
X149098000Y-118618000D03*
D15*
X138938000Y-118618000D03*
D18*
X145198000Y-118618000D03*
G04 #@! TD*
G04 #@! TO.C,R35*
X123875000Y-121031000D03*
D12*
X130175000Y-121031000D03*
D15*
X120015000Y-121031000D03*
D18*
X126275000Y-121031000D03*
G04 #@! TD*
G04 #@! TO.C,R34*
X107138000Y-125857000D03*
D12*
X100838000Y-125857000D03*
D15*
X110998000Y-125857000D03*
D18*
X104738000Y-125857000D03*
G04 #@! TD*
G04 #@! TO.C,R33*
X107138000Y-123444000D03*
D12*
X100838000Y-123444000D03*
D15*
X110998000Y-123444000D03*
D18*
X104738000Y-123444000D03*
G04 #@! TD*
D10*
G04 #@! TO.C,R32*
X182112960Y-146787000D03*
D11*
G36*
X180933537Y-147029820D02*
X181733537Y-145644180D01*
X183292383Y-146544180D01*
X182492383Y-147929820D01*
X180933537Y-147029820D01*
X180933537Y-147029820D01*
G37*
D12*
X176657000Y-143637000D03*
X185455818Y-148717000D03*
D13*
X185455818Y-148717000D02*
X185455818Y-148717000D01*
D10*
X180034499Y-145587000D03*
D11*
G36*
X178855076Y-145829820D02*
X179655076Y-144444180D01*
X181213922Y-145344180D01*
X180413922Y-146729820D01*
X178855076Y-145829820D01*
X178855076Y-145829820D01*
G37*
G04 #@! TD*
D18*
G04 #@! TO.C,R31*
X181025000Y-104521000D03*
D12*
X187325000Y-104521000D03*
D15*
X177165000Y-104521000D03*
D18*
X183425000Y-104521000D03*
G04 #@! TD*
G04 #@! TO.C,R30*
X164415000Y-102235000D03*
D12*
X158115000Y-102235000D03*
D15*
X168275000Y-102235000D03*
D18*
X162015000Y-102235000D03*
G04 #@! TD*
G04 #@! TO.C,R29*
X142798000Y-116332000D03*
D12*
X149098000Y-116332000D03*
D15*
X138938000Y-116332000D03*
D18*
X145198000Y-116332000D03*
G04 #@! TD*
G04 #@! TO.C,R28*
X123875000Y-118745000D03*
D12*
X130175000Y-118745000D03*
D15*
X120015000Y-118745000D03*
D18*
X126275000Y-118745000D03*
G04 #@! TD*
D19*
G04 #@! TO.C,R27*
X95377000Y-115753000D03*
D12*
X95377000Y-109453000D03*
D15*
X95377000Y-119613000D03*
D19*
X95377000Y-113353000D03*
G04 #@! TD*
D18*
G04 #@! TO.C,R26*
X107392000Y-106807000D03*
D12*
X101092000Y-106807000D03*
D15*
X111252000Y-106807000D03*
D18*
X104992000Y-106807000D03*
G04 #@! TD*
D19*
G04 #@! TO.C,R25*
X192913000Y-104698000D03*
D12*
X192913000Y-110998000D03*
D15*
X192913000Y-100838000D03*
D19*
X192913000Y-107098000D03*
G04 #@! TD*
D18*
G04 #@! TO.C,R24*
X181025000Y-102108000D03*
D12*
X187325000Y-102108000D03*
D15*
X177165000Y-102108000D03*
D18*
X183425000Y-102108000D03*
G04 #@! TD*
G04 #@! TO.C,R23*
X161975000Y-99695000D03*
D12*
X168275000Y-99695000D03*
D15*
X158115000Y-99695000D03*
D18*
X164375000Y-99695000D03*
G04 #@! TD*
G04 #@! TO.C,R22*
X142925000Y-97282000D03*
D12*
X149225000Y-97282000D03*
D15*
X139065000Y-97282000D03*
D18*
X145325000Y-97282000D03*
G04 #@! TD*
G04 #@! TO.C,R21*
X123875000Y-99695000D03*
D12*
X130175000Y-99695000D03*
D15*
X120015000Y-99695000D03*
D18*
X126275000Y-99695000D03*
G04 #@! TD*
G04 #@! TO.C,R20*
X107392000Y-104394000D03*
D12*
X101092000Y-104394000D03*
D15*
X111252000Y-104394000D03*
D18*
X104992000Y-104394000D03*
G04 #@! TD*
D19*
G04 #@! TO.C,R19*
X95377000Y-97232000D03*
D12*
X95377000Y-90932000D03*
D15*
X95377000Y-101092000D03*
D19*
X95377000Y-94832000D03*
G04 #@! TD*
G04 #@! TO.C,R18*
X192913000Y-94713000D03*
D12*
X192913000Y-88413000D03*
D15*
X192913000Y-98573000D03*
D19*
X192913000Y-92313000D03*
G04 #@! TD*
D18*
G04 #@! TO.C,R16*
X161975000Y-80645000D03*
D12*
X168275000Y-80645000D03*
D15*
X158115000Y-80645000D03*
D18*
X164375000Y-80645000D03*
G04 #@! TD*
G04 #@! TO.C,R15*
X142925000Y-78232000D03*
D12*
X149225000Y-78232000D03*
D15*
X139065000Y-78232000D03*
D18*
X145325000Y-78232000D03*
G04 #@! TD*
G04 #@! TO.C,R12*
X123875000Y-80645000D03*
D12*
X130175000Y-80645000D03*
D15*
X120015000Y-80645000D03*
D18*
X126275000Y-80645000D03*
G04 #@! TD*
G04 #@! TO.C,R11*
X104825000Y-85344000D03*
D12*
X111125000Y-85344000D03*
D15*
X100965000Y-85344000D03*
D18*
X107225000Y-85344000D03*
G04 #@! TD*
D19*
G04 #@! TO.C,R10*
X95377000Y-78309000D03*
D12*
X95377000Y-72009000D03*
D15*
X95377000Y-82169000D03*
D19*
X95377000Y-75909000D03*
G04 #@! TD*
G04 #@! TO.C,R13*
X152273000Y-116261000D03*
D12*
X152273000Y-109961000D03*
D15*
X152273000Y-120121000D03*
D19*
X152273000Y-113861000D03*
G04 #@! TD*
D18*
G04 #@! TO.C,R17*
X181025000Y-82931000D03*
D12*
X187325000Y-82931000D03*
D15*
X177165000Y-82931000D03*
D18*
X183425000Y-82931000D03*
G04 #@! TD*
D19*
G04 #@! TO.C,R3*
X155067000Y-116155000D03*
D12*
X155067000Y-109855000D03*
D15*
X155067000Y-120015000D03*
D19*
X155067000Y-113755000D03*
G04 #@! TD*
D20*
G04 #@! TO.C,*
X182434460Y-141662361D03*
X194372460Y-120985139D03*
D21*
X195632687Y-149282361D03*
X207570687Y-128605139D03*
G04 #@! TD*
D22*
G04 #@! TO.C,LED11*
X208787000Y-94856000D03*
X205487000Y-94856000D03*
X205487000Y-90056000D03*
X208787000Y-90056000D03*
G04 #@! TD*
G04 #@! TO.C,LED10*
X208787000Y-115557000D03*
X205487000Y-115557000D03*
X205487000Y-110757000D03*
X208787000Y-110757000D03*
G04 #@! TD*
D23*
G04 #@! TO.C,LED9*
X200634942Y-140571461D03*
D11*
G36*
X201964365Y-140068833D02*
X200864365Y-141974089D01*
X199305519Y-141074089D01*
X200405519Y-139168833D01*
X201964365Y-140068833D01*
X201964365Y-140068833D01*
G37*
D23*
X197777058Y-138921461D03*
D11*
G36*
X199106481Y-138418833D02*
X198006481Y-140324089D01*
X196447635Y-139424089D01*
X197547635Y-137518833D01*
X199106481Y-138418833D01*
X199106481Y-138418833D01*
G37*
D23*
X200177058Y-134764539D03*
D11*
G36*
X201506481Y-134261911D02*
X200406481Y-136167167D01*
X198847635Y-135267167D01*
X199947635Y-133361911D01*
X201506481Y-134261911D01*
X201506481Y-134261911D01*
G37*
D23*
X203034942Y-136414539D03*
D11*
G36*
X204364365Y-135911911D02*
X203264365Y-137817167D01*
X201705519Y-136917167D01*
X202805519Y-135011911D01*
X204364365Y-135911911D01*
X204364365Y-135911911D01*
G37*
G04 #@! TD*
D24*
G04 #@! TO.C,LED8*
X160541000Y-141604000D03*
X160541000Y-138304000D03*
X165341000Y-138304000D03*
X165341000Y-141604000D03*
G04 #@! TD*
G04 #@! TO.C,LED7*
X138400667Y-141604000D03*
X138400667Y-138304000D03*
X143200667Y-138304000D03*
X143200667Y-141604000D03*
G04 #@! TD*
G04 #@! TO.C,LED6*
X116260333Y-141604000D03*
X116260333Y-138304000D03*
X121060333Y-138304000D03*
X121060333Y-141604000D03*
G04 #@! TD*
G04 #@! TO.C,LED5*
X94120000Y-141604000D03*
X94120000Y-138304000D03*
X98920000Y-138304000D03*
X98920000Y-141604000D03*
G04 #@! TD*
D22*
G04 #@! TO.C,LED4*
X79884000Y-121298000D03*
X83184000Y-121298000D03*
X83184000Y-126098000D03*
X79884000Y-126098000D03*
G04 #@! TD*
G04 #@! TO.C,LED3*
X79884000Y-102248000D03*
X83184000Y-102248000D03*
X83184000Y-107048000D03*
X79884000Y-107048000D03*
G04 #@! TD*
G04 #@! TO.C,LED2*
X79884000Y-83198000D03*
X83184000Y-83198000D03*
X83184000Y-87998000D03*
X79884000Y-87998000D03*
G04 #@! TD*
D25*
G04 #@! TO.C,D73*
X215814909Y-148616152D03*
X217084909Y-146416448D03*
D11*
G36*
X217506753Y-147990792D02*
X215510565Y-146838292D01*
X216663065Y-144842104D01*
X218659253Y-145994604D01*
X217506753Y-147990792D01*
X217506753Y-147990792D01*
G37*
G04 #@! TD*
D25*
G04 #@! TO.C,D72*
X203523591Y-149585498D03*
X202253591Y-151785202D03*
D11*
G36*
X201831747Y-150210858D02*
X203827935Y-151363358D01*
X202675435Y-153359546D01*
X200679247Y-152207046D01*
X201831747Y-150210858D01*
X201831747Y-150210858D01*
G37*
G04 #@! TD*
D25*
G04 #@! TO.C,D71*
X187025591Y-140060448D03*
X185755591Y-142260152D03*
D11*
G36*
X185333747Y-140685808D02*
X187329935Y-141838308D01*
X186177435Y-143834496D01*
X184181247Y-142681996D01*
X185333747Y-140685808D01*
X185333747Y-140685808D01*
G37*
G04 #@! TD*
D25*
G04 #@! TO.C,D70*
X213048591Y-133087498D03*
X211778591Y-135287202D03*
D11*
G36*
X211356747Y-133712858D02*
X213352935Y-134865358D01*
X212200435Y-136861546D01*
X210204247Y-135709046D01*
X211356747Y-133712858D01*
X211356747Y-133712858D01*
G37*
G04 #@! TD*
D25*
G04 #@! TO.C,D69*
X196550591Y-123562448D03*
X195280591Y-125762152D03*
D11*
G36*
X194858747Y-124187808D02*
X196854935Y-125340308D01*
X195702435Y-127336496D01*
X193706247Y-126183996D01*
X194858747Y-124187808D01*
X194858747Y-124187808D01*
G37*
G04 #@! TD*
D26*
G04 #@! TO.C,J5*
X115030000Y-68368000D03*
X113030000Y-68368000D03*
X111030000Y-68368000D03*
G04 #@! TD*
G04 #@! TO.C,J4*
X115030000Y-66209000D03*
X113030000Y-66209000D03*
X111030000Y-66209000D03*
G04 #@! TD*
D27*
G04 #@! TO.C,SW41*
X207288000Y-153225350D03*
D28*
X210038000Y-148462210D03*
X204538000Y-157988490D03*
D29*
X211632119Y-151853578D03*
D30*
X211324301Y-151007855D02*
X211939937Y-152699301D01*
D29*
X208272070Y-157673353D03*
D30*
X209158397Y-157517070D02*
X207385743Y-157829636D01*
D31*
X209925114Y-157657734D03*
D32*
X210374148Y-157916984D02*
X209476080Y-157398484D01*
D31*
X212445114Y-153292966D03*
D32*
X212894148Y-153552216D02*
X211996080Y-153033716D01*
D33*
X204748000Y-157624759D03*
X209828000Y-148825941D03*
G04 #@! TD*
D27*
G04 #@! TO.C,SW40*
X212050500Y-144976300D03*
D28*
X209300500Y-149739440D03*
X214800500Y-140213160D03*
D29*
X207706381Y-146348072D03*
D30*
X208014199Y-147193795D02*
X207398563Y-145502349D01*
D29*
X211066430Y-140528297D03*
D30*
X210180103Y-140684580D02*
X211952757Y-140372014D01*
D31*
X209413386Y-140543916D03*
D32*
X208964352Y-140284666D02*
X209862420Y-140803166D01*
D31*
X206893386Y-144908684D03*
D32*
X206444352Y-144649434D02*
X207342420Y-145167934D01*
D33*
X214590500Y-140576891D03*
X209510500Y-149375709D03*
G04 #@! TD*
D27*
G04 #@! TO.C,SW39*
X216813000Y-136727350D03*
D28*
X219563000Y-131964210D03*
X214063000Y-141490490D03*
D29*
X221157119Y-135355578D03*
D30*
X220849301Y-134509855D02*
X221464937Y-136201301D01*
D29*
X217797070Y-141175353D03*
D30*
X218683397Y-141019070D02*
X216910743Y-141331636D01*
D31*
X219450114Y-141159734D03*
D32*
X219899148Y-141418984D02*
X219001080Y-140900484D01*
D31*
X221970114Y-136794966D03*
D32*
X222419148Y-137054216D02*
X221521080Y-136535716D01*
D33*
X214273000Y-141126759D03*
X219353000Y-132327941D03*
G04 #@! TD*
D27*
G04 #@! TO.C,SW36*
X195552500Y-135451250D03*
D28*
X192802500Y-140214390D03*
X198302500Y-130688110D03*
D29*
X191208381Y-136823022D03*
D30*
X191516199Y-137668745D02*
X190900563Y-135977299D01*
D29*
X194568430Y-131003247D03*
D30*
X193682103Y-131159530D02*
X195454757Y-130846964D01*
D31*
X192915386Y-131018866D03*
D32*
X192466352Y-130759616D02*
X193364420Y-131278116D01*
D31*
X190395386Y-135383634D03*
D32*
X189946352Y-135124384D02*
X190844420Y-135642884D01*
D33*
X198092500Y-131051841D03*
X193012500Y-139850659D03*
G04 #@! TD*
D27*
G04 #@! TO.C,SW35*
X190790000Y-143700300D03*
D28*
X193540000Y-138937160D03*
X188040000Y-148463440D03*
D29*
X195134119Y-142328528D03*
D30*
X194826301Y-141482805D02*
X195441937Y-143174251D01*
D29*
X191774070Y-148148303D03*
D30*
X192660397Y-147992020D02*
X190887743Y-148304586D01*
D31*
X193427114Y-148132684D03*
D32*
X193876148Y-148391934D02*
X192978080Y-147873434D01*
D31*
X195947114Y-143767916D03*
D32*
X196396148Y-144027166D02*
X195498080Y-143508666D01*
D33*
X188250000Y-148099709D03*
X193330000Y-139300891D03*
G04 #@! TD*
D27*
G04 #@! TO.C,SW32*
X125095000Y-129413000D03*
D28*
X130595000Y-129413000D03*
X119595000Y-129413000D03*
D29*
X128455049Y-126336769D03*
D30*
X129033558Y-127026209D02*
X127876540Y-125647329D01*
D29*
X121734951Y-126336769D03*
D30*
X122313460Y-125647329D02*
X121156442Y-127026209D01*
D34*
X122575000Y-124913000D03*
X127615000Y-124913000D03*
D33*
X120015000Y-129413000D03*
X130175000Y-129413000D03*
G04 #@! TD*
D27*
G04 #@! TO.C,SW31*
X106045000Y-134175500D03*
D28*
X100545000Y-134175500D03*
X111545000Y-134175500D03*
D29*
X102684951Y-131099269D03*
D30*
X102106442Y-131788709D02*
X103263460Y-130409829D01*
D29*
X109405049Y-131099269D03*
D30*
X108826540Y-130409829D02*
X109983558Y-131788709D01*
D34*
X108565000Y-129675500D03*
X103525000Y-129675500D03*
D33*
X111125000Y-134175500D03*
X100965000Y-134175500D03*
G04 #@! TD*
D27*
G04 #@! TO.C,SW30*
X86995000Y-134175500D03*
D28*
X92495000Y-134175500D03*
X81495000Y-134175500D03*
D29*
X90355049Y-131099269D03*
D30*
X90933558Y-131788709D02*
X89776540Y-130409829D01*
D29*
X83634951Y-131099269D03*
D30*
X84213460Y-130409829D02*
X83056442Y-131788709D01*
D34*
X84475000Y-129675500D03*
X89515000Y-129675500D03*
D33*
X81915000Y-134175500D03*
X92075000Y-134175500D03*
G04 #@! TD*
D27*
G04 #@! TO.C,SW28*
X200315000Y-127202300D03*
D28*
X203065000Y-122439160D03*
X197565000Y-131965440D03*
D29*
X204659119Y-125830528D03*
D30*
X204351301Y-124984805D02*
X204966937Y-126676251D01*
D29*
X201299070Y-131650303D03*
D30*
X202185397Y-131494020D02*
X200412743Y-131806586D01*
D31*
X202952114Y-131634684D03*
D32*
X203401148Y-131893934D02*
X202503080Y-131375434D01*
D31*
X205472114Y-127269916D03*
D32*
X205921148Y-127529166D02*
X205023080Y-127010666D01*
D33*
X197775000Y-131601709D03*
X202855000Y-122802891D03*
G04 #@! TD*
D27*
G04 #@! TO.C,SW26*
X201295000Y-84169250D03*
D28*
X195795000Y-84169250D03*
X206795000Y-84169250D03*
D29*
X197934951Y-81093019D03*
D30*
X197356442Y-81782459D02*
X198513460Y-80403579D01*
D29*
X204655049Y-81093019D03*
D30*
X204076540Y-80403579D02*
X205233558Y-81782459D01*
D34*
X203815000Y-79669250D03*
X198775000Y-79669250D03*
D33*
X206375000Y-84169250D03*
X196215000Y-84169250D03*
G04 #@! TD*
D27*
G04 #@! TO.C,SW24*
X182245000Y-112744250D03*
D28*
X187745000Y-112744250D03*
X176745000Y-112744250D03*
D29*
X185605049Y-109668019D03*
D30*
X186183558Y-110357459D02*
X185026540Y-108978579D01*
D29*
X178884951Y-109668019D03*
D30*
X179463460Y-108978579D02*
X178306442Y-110357459D01*
D34*
X179725000Y-108244250D03*
X184765000Y-108244250D03*
D33*
X177165000Y-112744250D03*
X187325000Y-112744250D03*
G04 #@! TD*
D27*
G04 #@! TO.C,SW22*
X182245000Y-74644250D03*
D28*
X187745000Y-74644250D03*
X176745000Y-74644250D03*
D29*
X185605049Y-71568019D03*
D30*
X186183558Y-72257459D02*
X185026540Y-70878579D01*
D29*
X178884951Y-71568019D03*
D30*
X179463460Y-70878579D02*
X178306442Y-72257459D01*
D34*
X179725000Y-70144250D03*
X184765000Y-70144250D03*
D33*
X177165000Y-74644250D03*
X187325000Y-74644250D03*
G04 #@! TD*
D27*
G04 #@! TO.C,SW20*
X163195000Y-110363000D03*
D28*
X157695000Y-110363000D03*
X168695000Y-110363000D03*
D29*
X159834951Y-107286769D03*
D30*
X159256442Y-107976209D02*
X160413460Y-106597329D01*
D29*
X166555049Y-107286769D03*
D30*
X165976540Y-106597329D02*
X167133558Y-107976209D01*
D34*
X165715000Y-105863000D03*
X160675000Y-105863000D03*
D33*
X168275000Y-110363000D03*
X158115000Y-110363000D03*
G04 #@! TD*
D27*
G04 #@! TO.C,SW18*
X163195000Y-72263000D03*
D28*
X157695000Y-72263000D03*
X168695000Y-72263000D03*
D29*
X159834951Y-69186769D03*
D30*
X159256442Y-69876209D02*
X160413460Y-68497329D01*
D29*
X166555049Y-69186769D03*
D30*
X165976540Y-68497329D02*
X167133558Y-69876209D01*
D34*
X165715000Y-67763000D03*
X160675000Y-67763000D03*
D33*
X168275000Y-72263000D03*
X158115000Y-72263000D03*
G04 #@! TD*
D27*
G04 #@! TO.C,SW16*
X144145000Y-107981750D03*
D28*
X138645000Y-107981750D03*
X149645000Y-107981750D03*
D29*
X140784951Y-104905519D03*
D30*
X140206442Y-105594959D02*
X141363460Y-104216079D01*
D29*
X147505049Y-104905519D03*
D30*
X146926540Y-104216079D02*
X148083558Y-105594959D01*
D34*
X146665000Y-103481750D03*
X141625000Y-103481750D03*
D33*
X149225000Y-107981750D03*
X139065000Y-107981750D03*
G04 #@! TD*
D27*
G04 #@! TO.C,SW14*
X144145000Y-69881750D03*
D28*
X138645000Y-69881750D03*
X149645000Y-69881750D03*
D29*
X140784951Y-66805519D03*
D30*
X140206442Y-67494959D02*
X141363460Y-66116079D01*
D29*
X147505049Y-66805519D03*
D30*
X146926540Y-66116079D02*
X148083558Y-67494959D01*
D34*
X146665000Y-65381750D03*
X141625000Y-65381750D03*
D33*
X149225000Y-69881750D03*
X139065000Y-69881750D03*
G04 #@! TD*
D27*
G04 #@! TO.C,SW8*
X106045000Y-115125500D03*
D28*
X100545000Y-115125500D03*
X111545000Y-115125500D03*
D29*
X102684951Y-112049269D03*
D30*
X102106442Y-112738709D02*
X103263460Y-111359829D01*
D29*
X109405049Y-112049269D03*
D30*
X108826540Y-111359829D02*
X109983558Y-112738709D01*
D34*
X108565000Y-110625500D03*
X103525000Y-110625500D03*
D33*
X111125000Y-115125500D03*
X100965000Y-115125500D03*
G04 #@! TD*
D27*
G04 #@! TO.C,SW7*
X106045000Y-96075500D03*
D28*
X100545000Y-96075500D03*
X111545000Y-96075500D03*
D29*
X102684951Y-92999269D03*
D30*
X102106442Y-93688709D02*
X103263460Y-92309829D01*
D29*
X109405049Y-92999269D03*
D30*
X108826540Y-92309829D02*
X109983558Y-93688709D01*
D34*
X108565000Y-91575500D03*
X103525000Y-91575500D03*
D33*
X111125000Y-96075500D03*
X100965000Y-96075500D03*
G04 #@! TD*
D27*
G04 #@! TO.C,SW6*
X106045000Y-77025500D03*
D28*
X100545000Y-77025500D03*
X111545000Y-77025500D03*
D29*
X102684951Y-73949269D03*
D30*
X102106442Y-74638709D02*
X103263460Y-73259829D01*
D29*
X109405049Y-73949269D03*
D30*
X108826540Y-73259829D02*
X109983558Y-74638709D01*
D34*
X108565000Y-72525500D03*
X103525000Y-72525500D03*
D33*
X111125000Y-77025500D03*
X100965000Y-77025500D03*
G04 #@! TD*
D27*
G04 #@! TO.C,SW3*
X86995000Y-96075500D03*
D28*
X92495000Y-96075500D03*
X81495000Y-96075500D03*
D29*
X90355049Y-92999269D03*
D30*
X90933558Y-93688709D02*
X89776540Y-92309829D01*
D29*
X83634951Y-92999269D03*
D30*
X84213460Y-92309829D02*
X83056442Y-93688709D01*
D34*
X84475000Y-91575500D03*
X89515000Y-91575500D03*
D33*
X81915000Y-96075500D03*
X92075000Y-96075500D03*
G04 #@! TD*
D35*
G04 #@! TO.C,Q1*
X161957000Y-131323000D03*
X161957000Y-133223000D03*
X163957000Y-132273000D03*
G04 #@! TD*
D25*
G04 #@! TO.C,D67*
X153035000Y-124333000D03*
D36*
X150495000Y-124333000D03*
G04 #@! TD*
D37*
G04 #@! TO.C,U3*
X136525000Y-58420000D03*
X136525000Y-60960000D03*
X136525000Y-63500000D03*
X136525000Y-66040000D03*
X136525000Y-68580000D03*
X136525000Y-71120000D03*
X136525000Y-73660000D03*
X136525000Y-76200000D03*
X136525000Y-78740000D03*
X136525000Y-81280000D03*
X136525000Y-83820000D03*
X136525000Y-86360000D03*
X151765000Y-86360000D03*
X151765000Y-83820000D03*
X151765000Y-81280000D03*
X151765000Y-78740000D03*
X151765000Y-76200000D03*
X151765000Y-73660000D03*
X151765000Y-71120000D03*
X151765000Y-68580000D03*
X151765000Y-66040000D03*
X151765000Y-63500000D03*
X151765000Y-60960000D03*
X151765000Y-58420000D03*
G04 #@! TD*
D25*
G04 #@! TO.C,D66*
X142875000Y-132111750D03*
D36*
X145415000Y-132111750D03*
G04 #@! TD*
D25*
G04 #@! TO.C,D65*
X123825000Y-134493000D03*
D36*
X126365000Y-134493000D03*
G04 #@! TD*
D25*
G04 #@! TO.C,D64*
X104775000Y-139255500D03*
D36*
X107315000Y-139255500D03*
G04 #@! TD*
D25*
G04 #@! TO.C,D63*
X85725000Y-139255500D03*
D36*
X88265000Y-139255500D03*
G04 #@! TD*
D25*
G04 #@! TO.C,D62*
X178056409Y-137815102D03*
X179326409Y-135615398D03*
D11*
G36*
X179748253Y-137189742D02*
X177752065Y-136037242D01*
X178904565Y-134041054D01*
X180900753Y-135193554D01*
X179748253Y-137189742D01*
X179748253Y-137189742D01*
G37*
G04 #@! TD*
D25*
G04 #@! TO.C,D61*
X180975000Y-117824250D03*
D36*
X183515000Y-117824250D03*
G04 #@! TD*
D25*
G04 #@! TO.C,D60*
X161925000Y-115443000D03*
D36*
X164465000Y-115443000D03*
G04 #@! TD*
D25*
G04 #@! TO.C,D59*
X142875000Y-113061750D03*
D36*
X145415000Y-113061750D03*
G04 #@! TD*
D25*
G04 #@! TO.C,D58*
X123825000Y-115443000D03*
D36*
X126365000Y-115443000D03*
G04 #@! TD*
D25*
G04 #@! TO.C,D57*
X104775000Y-120205500D03*
D36*
X107315000Y-120205500D03*
G04 #@! TD*
D25*
G04 #@! TO.C,D56*
X85725000Y-120205500D03*
D36*
X88265000Y-120205500D03*
G04 #@! TD*
D25*
G04 #@! TO.C,D55*
X200025000Y-108299250D03*
D36*
X202565000Y-108299250D03*
G04 #@! TD*
D25*
G04 #@! TO.C,D54*
X180975000Y-98774250D03*
D36*
X183515000Y-98774250D03*
G04 #@! TD*
D25*
G04 #@! TO.C,D53*
X161925000Y-96393000D03*
D36*
X164465000Y-96393000D03*
G04 #@! TD*
D25*
G04 #@! TO.C,D52*
X142875000Y-94011750D03*
D36*
X145415000Y-94011750D03*
G04 #@! TD*
D25*
G04 #@! TO.C,D51*
X123825000Y-96393000D03*
D36*
X126365000Y-96393000D03*
G04 #@! TD*
D25*
G04 #@! TO.C,D50*
X104775000Y-101155500D03*
D36*
X107315000Y-101155500D03*
G04 #@! TD*
D25*
G04 #@! TO.C,D49*
X85725000Y-101155500D03*
D36*
X88265000Y-101155500D03*
G04 #@! TD*
D25*
G04 #@! TO.C,D48*
X200025000Y-89249250D03*
D36*
X202565000Y-89249250D03*
G04 #@! TD*
D25*
G04 #@! TO.C,D47*
X180975000Y-79724250D03*
D36*
X183515000Y-79724250D03*
G04 #@! TD*
D25*
G04 #@! TO.C,D46*
X161925000Y-77343000D03*
D36*
X164465000Y-77343000D03*
G04 #@! TD*
D25*
G04 #@! TO.C,D45*
X142875000Y-74961750D03*
D36*
X145415000Y-74961750D03*
G04 #@! TD*
D25*
G04 #@! TO.C,D44*
X123825000Y-77343000D03*
D36*
X126365000Y-77343000D03*
G04 #@! TD*
D25*
G04 #@! TO.C,D43*
X104775000Y-82105500D03*
D36*
X107315000Y-82105500D03*
G04 #@! TD*
D25*
G04 #@! TO.C,D42*
X85725000Y-82105500D03*
D36*
X88265000Y-82105500D03*
G04 #@! TD*
D38*
G04 #@! TO.C,U9*
X128397000Y-61722000D03*
G04 #@! TD*
D37*
G04 #@! TO.C,J3*
X176911000Y-64770000D03*
X174411000Y-64770000D03*
X179411000Y-64770000D03*
G04 #@! TD*
G04 #@! TO.C,J2*
X96139000Y-67183000D03*
X93639000Y-67183000D03*
X98639000Y-67183000D03*
G04 #@! TD*
D26*
G04 #@! TO.C,W1*
X119491000Y-62738000D03*
X117491000Y-62738000D03*
G04 #@! TD*
D38*
G04 #@! TO.C,U7*
X96520000Y-124968000D03*
G04 #@! TD*
G04 #@! TO.C,U5*
X96520000Y-86614000D03*
G04 #@! TD*
G04 #@! TO.C,U4*
X185801000Y-124714000D03*
G04 #@! TD*
G04 #@! TO.C,U2*
X191770000Y-84074000D03*
G04 #@! TD*
G04 #@! TO.C,U1*
X134620000Y-100838000D03*
G04 #@! TD*
D27*
G04 #@! TO.C,SW4*
X86995000Y-115125500D03*
D28*
X92495000Y-115125500D03*
X81495000Y-115125500D03*
D29*
X90355049Y-112049269D03*
D30*
X90933558Y-112738709D02*
X89776540Y-111359829D01*
D29*
X83634951Y-112049269D03*
D30*
X84213460Y-111359829D02*
X83056442Y-112738709D01*
D34*
X84475000Y-110625500D03*
X89515000Y-110625500D03*
D33*
X81915000Y-115125500D03*
X92075000Y-115125500D03*
G04 #@! TD*
D27*
G04 #@! TO.C,SW11*
X125095000Y-91313000D03*
D28*
X119595000Y-91313000D03*
X130595000Y-91313000D03*
D29*
X121734951Y-88236769D03*
D30*
X121156442Y-88926209D02*
X122313460Y-87547329D01*
D29*
X128455049Y-88236769D03*
D30*
X127876540Y-87547329D02*
X129033558Y-88926209D01*
D34*
X127615000Y-86813000D03*
X122575000Y-86813000D03*
D33*
X130175000Y-91313000D03*
X120015000Y-91313000D03*
G04 #@! TD*
D27*
G04 #@! TO.C,SW12*
X125095000Y-110363000D03*
D28*
X119595000Y-110363000D03*
X130595000Y-110363000D03*
D29*
X121734951Y-107286769D03*
D30*
X121156442Y-107976209D02*
X122313460Y-106597329D01*
D29*
X128455049Y-107286769D03*
D30*
X127876540Y-106597329D02*
X129033558Y-107976209D01*
D34*
X127615000Y-105863000D03*
X122575000Y-105863000D03*
D33*
X130175000Y-110363000D03*
X120015000Y-110363000D03*
G04 #@! TD*
D27*
G04 #@! TO.C,SW33*
X144145000Y-127031750D03*
D28*
X149645000Y-127031750D03*
X138645000Y-127031750D03*
D29*
X147505049Y-123955519D03*
D30*
X148083558Y-124644959D02*
X146926540Y-123266079D01*
D29*
X140784951Y-123955519D03*
D30*
X141363460Y-123266079D02*
X140206442Y-124644959D01*
D34*
X141625000Y-122531750D03*
X146665000Y-122531750D03*
D33*
X139065000Y-127031750D03*
X149225000Y-127031750D03*
G04 #@! TD*
D39*
G04 #@! TO.C,SW37*
X140518000Y-61174000D03*
X147518000Y-61174000D03*
D37*
X141518000Y-58674000D03*
X146518000Y-58674000D03*
G04 #@! TD*
D39*
G04 #@! TO.C,SW29*
X166314000Y-61174000D03*
X159314000Y-61174000D03*
D37*
X165314000Y-58674000D03*
X160314000Y-58674000D03*
G04 #@! TD*
D27*
G04 #@! TO.C,SW38*
X151765000Y-129413000D03*
D28*
X157265000Y-129413000D03*
X146265000Y-129413000D03*
D29*
X155125049Y-132489231D03*
D30*
X155703558Y-131799791D02*
X154546540Y-133178671D01*
D29*
X148404951Y-132489231D03*
D30*
X148983460Y-133178671D02*
X147826442Y-131799791D01*
D34*
X149245000Y-133913000D03*
X154285000Y-133913000D03*
D33*
X146685000Y-129413000D03*
X156845000Y-129413000D03*
G04 #@! TD*
D27*
G04 #@! TO.C,SW34*
X174292000Y-134175250D03*
D28*
X171542000Y-138938390D03*
X177042000Y-129412110D03*
D29*
X169947881Y-135547022D03*
D30*
X170255699Y-136392745D02*
X169640063Y-134701299D01*
D29*
X173307930Y-129727247D03*
D30*
X172421603Y-129883530D02*
X174194257Y-129570964D01*
D31*
X171654886Y-129742866D03*
D32*
X171205852Y-129483616D02*
X172103920Y-130002116D01*
D31*
X169134886Y-134107634D03*
D32*
X168685852Y-133848384D02*
X169583920Y-134366884D01*
D33*
X176832000Y-129775841D03*
X171752000Y-138574659D03*
G04 #@! TD*
D12*
G04 #@! TO.C,R1*
X113002647Y-63894735D03*
D13*
X113002647Y-63894735D02*
X113002647Y-63894735D01*
D12*
X102997000Y-65659000D03*
G04 #@! TD*
D15*
G04 #@! TO.C,R2*
X133731000Y-70358000D03*
D12*
X133731000Y-60198000D03*
G04 #@! TD*
D27*
G04 #@! TO.C,SW10*
X125095000Y-72263000D03*
D28*
X130595000Y-72263000D03*
X119595000Y-72263000D03*
D29*
X128455049Y-69186769D03*
D30*
X129033558Y-69876209D02*
X127876540Y-68497329D01*
D29*
X121734951Y-69186769D03*
D30*
X122313460Y-68497329D02*
X121156442Y-69876209D01*
D34*
X122575000Y-67763000D03*
X127615000Y-67763000D03*
D33*
X120015000Y-72263000D03*
X130175000Y-72263000D03*
G04 #@! TD*
D27*
G04 #@! TO.C,SW15*
X144145000Y-88931750D03*
D28*
X138645000Y-88931750D03*
X149645000Y-88931750D03*
D29*
X140784951Y-85855519D03*
D30*
X140206442Y-86544959D02*
X141363460Y-85166079D01*
D29*
X147505049Y-85855519D03*
D30*
X146926540Y-85166079D02*
X148083558Y-86544959D01*
D34*
X146665000Y-84431750D03*
X141625000Y-84431750D03*
D33*
X149225000Y-88931750D03*
X139065000Y-88931750D03*
G04 #@! TD*
D27*
G04 #@! TO.C,SW19*
X163195000Y-91313000D03*
D28*
X157695000Y-91313000D03*
X168695000Y-91313000D03*
D29*
X159834951Y-88236769D03*
D30*
X159256442Y-88926209D02*
X160413460Y-87547329D01*
D29*
X166555049Y-88236769D03*
D30*
X165976540Y-87547329D02*
X167133558Y-88926209D01*
D34*
X165715000Y-86813000D03*
X160675000Y-86813000D03*
D33*
X168275000Y-91313000D03*
X158115000Y-91313000D03*
G04 #@! TD*
D27*
G04 #@! TO.C,SW27*
X201295000Y-103219250D03*
D28*
X195795000Y-103219250D03*
X206795000Y-103219250D03*
D29*
X197934951Y-100143019D03*
D30*
X197356442Y-100832459D02*
X198513460Y-99453579D01*
D29*
X204655049Y-100143019D03*
D30*
X204076540Y-99453579D02*
X205233558Y-100832459D01*
D34*
X203815000Y-98719250D03*
X198775000Y-98719250D03*
D33*
X206375000Y-103219250D03*
X196215000Y-103219250D03*
G04 #@! TD*
D27*
G04 #@! TO.C,SW23*
X182245000Y-93694250D03*
D28*
X187745000Y-93694250D03*
X176745000Y-93694250D03*
D29*
X185605049Y-90618019D03*
D30*
X186183558Y-91307459D02*
X185026540Y-89928579D01*
D29*
X178884951Y-90618019D03*
D30*
X179463460Y-89928579D02*
X178306442Y-91307459D01*
D34*
X179725000Y-89194250D03*
X184765000Y-89194250D03*
D33*
X177165000Y-93694250D03*
X187325000Y-93694250D03*
G04 #@! TD*
D37*
G04 #@! TO.C,U6*
X170815000Y-58420000D03*
X170815000Y-60960000D03*
X170815000Y-63500000D03*
X170815000Y-66040000D03*
X170815000Y-68580000D03*
X170815000Y-71120000D03*
X170815000Y-73660000D03*
X170815000Y-76200000D03*
X170815000Y-78740000D03*
X170815000Y-81280000D03*
X170815000Y-83820000D03*
X170815000Y-86360000D03*
X155575000Y-86360000D03*
X155575000Y-83820000D03*
X155575000Y-81280000D03*
X155575000Y-78740000D03*
X155575000Y-76200000D03*
X155575000Y-73660000D03*
X155575000Y-71120000D03*
X155575000Y-68580000D03*
X155575000Y-66040000D03*
X155575000Y-63500000D03*
X155575000Y-60960000D03*
X155575000Y-58420000D03*
G04 #@! TD*
D40*
G04 #@! TO.C,M1*
X157884000Y-122682000D03*
X170284000Y-122682000D03*
G04 #@! TD*
D21*
G04 #@! TO.C,*
X224068687Y-138130189D03*
X212130687Y-158807411D03*
D20*
X210870460Y-130510189D03*
X198932460Y-151187411D03*
G04 #@! TD*
D27*
G04 #@! TO.C,SW2*
X86995000Y-77025500D03*
D28*
X92495000Y-77025500D03*
X81495000Y-77025500D03*
D29*
X90355049Y-73949269D03*
D30*
X90933558Y-74638709D02*
X89776540Y-73259829D01*
D29*
X83634951Y-73949269D03*
D30*
X84213460Y-73259829D02*
X83056442Y-74638709D01*
D34*
X84475000Y-72525500D03*
X89515000Y-72525500D03*
D33*
X81915000Y-77025500D03*
X92075000Y-77025500D03*
G04 #@! TD*
D41*
G04 #@! TO.C,J1*
X197072000Y-72254000D03*
X193072000Y-72254000D03*
D42*
X195072000Y-67054000D03*
X199072000Y-75554000D03*
X195072000Y-74054000D03*
X191072000Y-75554000D03*
X195072000Y-70054000D03*
D41*
X193072000Y-65254000D03*
X197072000Y-65254000D03*
G04 #@! TD*
M02*
