G04 #@! TF.GenerationSoftware,KiCad,Pcbnew,(5.0.0)*
G04 #@! TF.CreationDate,2018-09-16T22:23:12+09:00*
G04 #@! TF.ProjectId,ergodash,6572676F646173682E6B696361645F70,2.0*
G04 #@! TF.SameCoordinates,Original*
G04 #@! TF.FileFunction,Legend,Top*
G04 #@! TF.FilePolarity,Positive*
%FSLAX46Y46*%
G04 Gerber Fmt 4.6, Leading zero omitted, Abs format (unit mm)*
G04 Created by KiCad (PCBNEW (5.0.0)) date 09/16/18 22:23:12*
%MOMM*%
%LPD*%
G01*
G04 APERTURE LIST*
%ADD10C,0.200000*%
%ADD11C,0.500000*%
%ADD12C,0.300000*%
%ADD13C,2.000000*%
%ADD14C,0.250000*%
%ADD15C,0.150000*%
%ADD16C,0.010000*%
%ADD17C,0.120000*%
%ADD18C,1.600000*%
%ADD19C,0.100000*%
%ADD20C,2.000000*%
%ADD21R,2.000000X1.600000*%
%ADD22O,2.000000X2.000000*%
%ADD23R,2.000000X2.000000*%
%ADD24R,1.600000X2.000000*%
%ADD25R,1.800000X1.600000*%
%ADD26R,1.600000X1.800000*%
%ADD27C,4.387800*%
%ADD28C,3.448000*%
%ADD29R,1.800000X2.200000*%
%ADD30C,1.800000*%
%ADD31R,2.200000X1.800000*%
%ADD32C,2.305000*%
%ADD33R,1.924000X1.924000*%
%ADD34C,4.400000*%
%ADD35C,2.300000*%
%ADD36C,2.800000*%
%ADD37C,2.800000*%
%ADD38C,2.700000*%
%ADD39C,2.700000*%
%ADD40C,2.100000*%
%ADD41O,2.700000X3.737000*%
%ADD42R,1.300000X1.200000*%
%ADD43R,2.305000X2.305000*%
%ADD44C,1.924000*%
%ADD45C,5.400000*%
%ADD46C,2.200000*%
%ADD47R,2.800000X4.400000*%
%ADD48C,1.610000*%
%ADD49O,1.700000X2.600000*%
G04 APERTURE END LIST*
D10*
X185928142Y-118403666D02*
X186309095Y-118403666D01*
X185851952Y-118689380D02*
X186118619Y-117689380D01*
X186385285Y-118689380D01*
X186994809Y-118022714D02*
X186994809Y-118689380D01*
X186651952Y-118022714D02*
X186651952Y-118546523D01*
X186690047Y-118641761D01*
X186766238Y-118689380D01*
X186880523Y-118689380D01*
X186956714Y-118641761D01*
X186994809Y-118594142D01*
X187375761Y-118689380D02*
X187375761Y-117689380D01*
X187566238Y-117689380D01*
X187680523Y-117737000D01*
X187756714Y-117832238D01*
X187794809Y-117927476D01*
X187832904Y-118117952D01*
X187832904Y-118260809D01*
X187794809Y-118451285D01*
X187756714Y-118546523D01*
X187680523Y-118641761D01*
X187566238Y-118689380D01*
X187375761Y-118689380D01*
X188175761Y-118689380D02*
X188175761Y-118022714D01*
X188175761Y-117689380D02*
X188137666Y-117737000D01*
X188175761Y-117784619D01*
X188213857Y-117737000D01*
X188175761Y-117689380D01*
X188175761Y-117784619D01*
D11*
X188468000Y-119253000D02*
X175768000Y-119253000D01*
X188468000Y-121793000D02*
X188468000Y-119253000D01*
X175768000Y-121793000D02*
X188468000Y-121793000D01*
X175768000Y-119253000D02*
X175768000Y-121793000D01*
D10*
X153809857Y-122721666D02*
X154190809Y-122721666D01*
X153733666Y-123007380D02*
X154000333Y-122007380D01*
X154267000Y-123007380D01*
X154876523Y-122340714D02*
X154876523Y-123007380D01*
X154533666Y-122340714D02*
X154533666Y-122864523D01*
X154571761Y-122959761D01*
X154647952Y-123007380D01*
X154762238Y-123007380D01*
X154838428Y-122959761D01*
X154876523Y-122912142D01*
X155676523Y-123007380D02*
X155219380Y-123007380D01*
X155447952Y-123007380D02*
X155447952Y-122007380D01*
X155371761Y-122150238D01*
X155295571Y-122245476D01*
X155219380Y-122293095D01*
X156019380Y-123007380D02*
X156019380Y-122007380D01*
X156095571Y-122626428D02*
X156324142Y-123007380D01*
X156324142Y-122340714D02*
X156019380Y-122721666D01*
D11*
X156337000Y-108585000D02*
X156337000Y-121539000D01*
D10*
X207683238Y-96208904D02*
X208216571Y-97008904D01*
X208216571Y-96208904D02*
X207683238Y-97008904D01*
X208407047Y-96475571D02*
X208711809Y-96475571D01*
X208521333Y-96208904D02*
X208521333Y-96894619D01*
X208559428Y-96970809D01*
X208635619Y-97008904D01*
X208711809Y-97008904D01*
X208978476Y-97008904D02*
X208978476Y-96475571D01*
X208978476Y-96627952D02*
X209016571Y-96551761D01*
X209054666Y-96513666D01*
X209130857Y-96475571D01*
X209207047Y-96475571D01*
X209816571Y-97008904D02*
X209816571Y-96589857D01*
X209778476Y-96513666D01*
X209702285Y-96475571D01*
X209549904Y-96475571D01*
X209473714Y-96513666D01*
X209816571Y-96970809D02*
X209740380Y-97008904D01*
X209549904Y-97008904D01*
X209473714Y-96970809D01*
X209435619Y-96894619D01*
X209435619Y-96818428D01*
X209473714Y-96742238D01*
X209549904Y-96704142D01*
X209740380Y-96704142D01*
X209816571Y-96666047D01*
D12*
X106657976Y-65799449D02*
X106397504Y-64322238D01*
X107055402Y-64351294D02*
X107113342Y-64268547D01*
X107241625Y-64173397D01*
X107593342Y-64111379D01*
X107746432Y-64156916D01*
X107829179Y-64214856D01*
X107924329Y-64343139D01*
X107949136Y-64483826D01*
X107916003Y-64707260D01*
X107220724Y-65700222D01*
X108135188Y-65538977D01*
X109587593Y-65137818D02*
X109529653Y-65220565D01*
X109331026Y-65328119D01*
X109190339Y-65352926D01*
X108966905Y-65319792D01*
X108801412Y-65203913D01*
X108706261Y-65075629D01*
X108586304Y-64806659D01*
X108549094Y-64595629D01*
X108569824Y-64301852D01*
X108615360Y-64148761D01*
X108731240Y-63983268D01*
X108929867Y-63875714D01*
X109070554Y-63850907D01*
X109293987Y-63884040D01*
X109376734Y-63941980D01*
X134568755Y-66722202D02*
X133068755Y-66722202D01*
X133211612Y-66079345D02*
X133140184Y-66007917D01*
X133068755Y-65865059D01*
X133068755Y-65507917D01*
X133140184Y-65365059D01*
X133211612Y-65293631D01*
X133354469Y-65222202D01*
X133497326Y-65222202D01*
X133711612Y-65293631D01*
X134568755Y-66150774D01*
X134568755Y-65222202D01*
X134425898Y-63722202D02*
X134497326Y-63793631D01*
X134568755Y-64007917D01*
X134568755Y-64150774D01*
X134497326Y-64365059D01*
X134354469Y-64507917D01*
X134211612Y-64579345D01*
X133925898Y-64650774D01*
X133711612Y-64650774D01*
X133425898Y-64579345D01*
X133283041Y-64507917D01*
X133140184Y-64365059D01*
X133068755Y-64150774D01*
X133068755Y-64007917D01*
X133140184Y-63793631D01*
X133211612Y-63722202D01*
X120963714Y-63416571D02*
X120963714Y-61916571D01*
X121606571Y-62059428D02*
X121678000Y-61988000D01*
X121820857Y-61916571D01*
X122178000Y-61916571D01*
X122320857Y-61988000D01*
X122392285Y-62059428D01*
X122463714Y-62202285D01*
X122463714Y-62345142D01*
X122392285Y-62559428D01*
X121535142Y-63416571D01*
X122463714Y-63416571D01*
X123963714Y-63273714D02*
X123892285Y-63345142D01*
X123678000Y-63416571D01*
X123535142Y-63416571D01*
X123320857Y-63345142D01*
X123178000Y-63202285D01*
X123106571Y-63059428D01*
X123035142Y-62773714D01*
X123035142Y-62559428D01*
X123106571Y-62273714D01*
X123178000Y-62130857D01*
X123320857Y-61988000D01*
X123535142Y-61916571D01*
X123678000Y-61916571D01*
X123892285Y-61988000D01*
X123963714Y-62059428D01*
D11*
X153543000Y-108458000D02*
X153543000Y-121412000D01*
X151003000Y-108458000D02*
X156210000Y-108458000D01*
X151003000Y-121412000D02*
X151003000Y-108458000D01*
X151003000Y-121539000D02*
X156337000Y-121539000D01*
D13*
X167513000Y-122301000D02*
X166370000Y-123698000D01*
X164084000Y-119380000D02*
X167513000Y-122301000D01*
X164084000Y-125730000D02*
X164084000Y-119380000D01*
X161925000Y-127254000D02*
X164084000Y-125730000D01*
D12*
X123428904Y-138573761D02*
X123428904Y-136573761D01*
X123905095Y-136573761D01*
X124190809Y-136669000D01*
X124381285Y-136859476D01*
X124476523Y-137049952D01*
X124571761Y-137430904D01*
X124571761Y-137716619D01*
X124476523Y-138097571D01*
X124381285Y-138288047D01*
X124190809Y-138478523D01*
X123905095Y-138573761D01*
X123428904Y-138573761D01*
X126190809Y-138478523D02*
X126000333Y-138573761D01*
X125619380Y-138573761D01*
X125428904Y-138478523D01*
X125333666Y-138288047D01*
X125333666Y-137526142D01*
X125428904Y-137335666D01*
X125619380Y-137240428D01*
X126000333Y-137240428D01*
X126190809Y-137335666D01*
X126286047Y-137526142D01*
X126286047Y-137716619D01*
X125333666Y-137907095D01*
X127047952Y-138478523D02*
X127238428Y-138573761D01*
X127619380Y-138573761D01*
X127809857Y-138478523D01*
X127905095Y-138288047D01*
X127905095Y-138192809D01*
X127809857Y-138002333D01*
X127619380Y-137907095D01*
X127333666Y-137907095D01*
X127143190Y-137811857D01*
X127047952Y-137621380D01*
X127047952Y-137526142D01*
X127143190Y-137335666D01*
X127333666Y-137240428D01*
X127619380Y-137240428D01*
X127809857Y-137335666D01*
X128762238Y-138573761D02*
X128762238Y-137240428D01*
X128762238Y-136573761D02*
X128667000Y-136669000D01*
X128762238Y-136764238D01*
X128857476Y-136669000D01*
X128762238Y-136573761D01*
X128762238Y-136764238D01*
X130571761Y-137240428D02*
X130571761Y-138859476D01*
X130476523Y-139049952D01*
X130381285Y-139145190D01*
X130190809Y-139240428D01*
X129905095Y-139240428D01*
X129714619Y-139145190D01*
X130571761Y-138478523D02*
X130381285Y-138573761D01*
X130000333Y-138573761D01*
X129809857Y-138478523D01*
X129714619Y-138383285D01*
X129619380Y-138192809D01*
X129619380Y-137621380D01*
X129714619Y-137430904D01*
X129809857Y-137335666D01*
X130000333Y-137240428D01*
X130381285Y-137240428D01*
X130571761Y-137335666D01*
X131524142Y-137240428D02*
X131524142Y-138573761D01*
X131524142Y-137430904D02*
X131619380Y-137335666D01*
X131809857Y-137240428D01*
X132095571Y-137240428D01*
X132286047Y-137335666D01*
X132381285Y-137526142D01*
X132381285Y-138573761D01*
X134095571Y-138478523D02*
X133905095Y-138573761D01*
X133524142Y-138573761D01*
X133333666Y-138478523D01*
X133238428Y-138288047D01*
X133238428Y-137526142D01*
X133333666Y-137335666D01*
X133524142Y-137240428D01*
X133905095Y-137240428D01*
X134095571Y-137335666D01*
X134190809Y-137526142D01*
X134190809Y-137716619D01*
X133238428Y-137907095D01*
X135905095Y-138573761D02*
X135905095Y-136573761D01*
X135905095Y-138478523D02*
X135714619Y-138573761D01*
X135333666Y-138573761D01*
X135143190Y-138478523D01*
X135047952Y-138383285D01*
X134952714Y-138192809D01*
X134952714Y-137621380D01*
X135047952Y-137430904D01*
X135143190Y-137335666D01*
X135333666Y-137240428D01*
X135714619Y-137240428D01*
X135905095Y-137335666D01*
X122857476Y-141873761D02*
X122857476Y-139873761D01*
X122857476Y-140635666D02*
X123047952Y-140540428D01*
X123428904Y-140540428D01*
X123619380Y-140635666D01*
X123714619Y-140730904D01*
X123809857Y-140921380D01*
X123809857Y-141492809D01*
X123714619Y-141683285D01*
X123619380Y-141778523D01*
X123428904Y-141873761D01*
X123047952Y-141873761D01*
X122857476Y-141778523D01*
X124476523Y-140540428D02*
X124952714Y-141873761D01*
X125428904Y-140540428D02*
X124952714Y-141873761D01*
X124762238Y-142349952D01*
X124667000Y-142445190D01*
X124476523Y-142540428D01*
X128000333Y-141873761D02*
X127809857Y-141778523D01*
X127714619Y-141683285D01*
X127619380Y-141492809D01*
X127619380Y-140921380D01*
X127714619Y-140730904D01*
X127809857Y-140635666D01*
X128000333Y-140540428D01*
X128286047Y-140540428D01*
X128476523Y-140635666D01*
X128571761Y-140730904D01*
X128667000Y-140921380D01*
X128667000Y-141492809D01*
X128571761Y-141683285D01*
X128476523Y-141778523D01*
X128286047Y-141873761D01*
X128000333Y-141873761D01*
X129524142Y-141873761D02*
X129524142Y-140540428D01*
X129524142Y-140730904D02*
X129619380Y-140635666D01*
X129809857Y-140540428D01*
X130095571Y-140540428D01*
X130286047Y-140635666D01*
X130381285Y-140826142D01*
X130381285Y-141873761D01*
X130381285Y-140826142D02*
X130476523Y-140635666D01*
X130667000Y-140540428D01*
X130952714Y-140540428D01*
X131143190Y-140635666D01*
X131238428Y-140826142D01*
X131238428Y-141873761D01*
X132190809Y-141873761D02*
X132190809Y-139873761D01*
X132381285Y-141111857D02*
X132952714Y-141873761D01*
X132952714Y-140540428D02*
X132190809Y-141302333D01*
X133809857Y-141873761D02*
X133809857Y-139873761D01*
X133809857Y-140635666D02*
X134000333Y-140540428D01*
X134381285Y-140540428D01*
X134571761Y-140635666D01*
X134667000Y-140730904D01*
X134762238Y-140921380D01*
X134762238Y-141492809D01*
X134667000Y-141683285D01*
X134571761Y-141778523D01*
X134381285Y-141873761D01*
X134000333Y-141873761D01*
X133809857Y-141778523D01*
X136476523Y-141873761D02*
X136476523Y-139873761D01*
X136476523Y-141778523D02*
X136286047Y-141873761D01*
X135905095Y-141873761D01*
X135714619Y-141778523D01*
X135619380Y-141683285D01*
X135524142Y-141492809D01*
X135524142Y-140921380D01*
X135619380Y-140730904D01*
X135714619Y-140635666D01*
X135905095Y-140540428D01*
X136286047Y-140540428D01*
X136476523Y-140635666D01*
D10*
X151301571Y-122483571D02*
X151415857Y-122531190D01*
X151453952Y-122578809D01*
X151492047Y-122674047D01*
X151492047Y-122816904D01*
X151453952Y-122912142D01*
X151415857Y-122959761D01*
X151339666Y-123007380D01*
X151034904Y-123007380D01*
X151034904Y-122007380D01*
X151301571Y-122007380D01*
X151377761Y-122055000D01*
X151415857Y-122102619D01*
X151453952Y-122197857D01*
X151453952Y-122293095D01*
X151415857Y-122388333D01*
X151377761Y-122435952D01*
X151301571Y-122483571D01*
X151034904Y-122483571D01*
X152215857Y-123007380D02*
X151834904Y-123007380D01*
X151834904Y-122007380D01*
X152901571Y-123007380D02*
X152444428Y-123007380D01*
X152673000Y-123007380D02*
X152673000Y-122007380D01*
X152596809Y-122150238D01*
X152520619Y-122245476D01*
X152444428Y-122293095D01*
X153244428Y-123007380D02*
X153244428Y-122007380D01*
X153320619Y-122626428D02*
X153549190Y-123007380D01*
X153549190Y-122340714D02*
X153244428Y-122721666D01*
X81743619Y-90277904D02*
X81476952Y-89896952D01*
X81286476Y-90277904D02*
X81286476Y-89477904D01*
X81591238Y-89477904D01*
X81667428Y-89516000D01*
X81705523Y-89554095D01*
X81743619Y-89630285D01*
X81743619Y-89744571D01*
X81705523Y-89820761D01*
X81667428Y-89858857D01*
X81591238Y-89896952D01*
X81286476Y-89896952D01*
X82505523Y-89516000D02*
X82429333Y-89477904D01*
X82315047Y-89477904D01*
X82200761Y-89516000D01*
X82124571Y-89592190D01*
X82086476Y-89668380D01*
X82048380Y-89820761D01*
X82048380Y-89935047D01*
X82086476Y-90087428D01*
X82124571Y-90163619D01*
X82200761Y-90239809D01*
X82315047Y-90277904D01*
X82391238Y-90277904D01*
X82505523Y-90239809D01*
X82543619Y-90201714D01*
X82543619Y-89935047D01*
X82391238Y-89935047D01*
X83153142Y-89858857D02*
X83267428Y-89896952D01*
X83305523Y-89935047D01*
X83343619Y-90011238D01*
X83343619Y-90125523D01*
X83305523Y-90201714D01*
X83267428Y-90239809D01*
X83191238Y-90277904D01*
X82886476Y-90277904D01*
X82886476Y-89477904D01*
X83153142Y-89477904D01*
X83229333Y-89516000D01*
X83267428Y-89554095D01*
X83305523Y-89630285D01*
X83305523Y-89706476D01*
X83267428Y-89782666D01*
X83229333Y-89820761D01*
X83153142Y-89858857D01*
X82886476Y-89858857D01*
D12*
X95357285Y-70147571D02*
X94857285Y-69433285D01*
X94500142Y-70147571D02*
X94500142Y-68647571D01*
X95071571Y-68647571D01*
X95214428Y-68719000D01*
X95285857Y-68790428D01*
X95357285Y-68933285D01*
X95357285Y-69147571D01*
X95285857Y-69290428D01*
X95214428Y-69361857D01*
X95071571Y-69433285D01*
X94500142Y-69433285D01*
X96785857Y-68719000D02*
X96643000Y-68647571D01*
X96428714Y-68647571D01*
X96214428Y-68719000D01*
X96071571Y-68861857D01*
X96000142Y-69004714D01*
X95928714Y-69290428D01*
X95928714Y-69504714D01*
X96000142Y-69790428D01*
X96071571Y-69933285D01*
X96214428Y-70076142D01*
X96428714Y-70147571D01*
X96571571Y-70147571D01*
X96785857Y-70076142D01*
X96857285Y-70004714D01*
X96857285Y-69504714D01*
X96571571Y-69504714D01*
X98000142Y-69361857D02*
X98214428Y-69433285D01*
X98285857Y-69504714D01*
X98357285Y-69647571D01*
X98357285Y-69861857D01*
X98285857Y-70004714D01*
X98214428Y-70076142D01*
X98071571Y-70147571D01*
X97500142Y-70147571D01*
X97500142Y-68647571D01*
X98000142Y-68647571D01*
X98143000Y-68719000D01*
X98214428Y-68790428D01*
X98285857Y-68933285D01*
X98285857Y-69076142D01*
X98214428Y-69219000D01*
X98143000Y-69290428D01*
X98000142Y-69361857D01*
X97500142Y-69361857D01*
X174966571Y-61916571D02*
X175966571Y-63416571D01*
X175966571Y-61916571D02*
X174966571Y-63416571D01*
X176323714Y-62416571D02*
X176895142Y-62416571D01*
X176538000Y-61916571D02*
X176538000Y-63202285D01*
X176609428Y-63345142D01*
X176752285Y-63416571D01*
X176895142Y-63416571D01*
X177395142Y-63416571D02*
X177395142Y-62416571D01*
X177395142Y-62702285D02*
X177466571Y-62559428D01*
X177538000Y-62488000D01*
X177680857Y-62416571D01*
X177823714Y-62416571D01*
X178966571Y-63416571D02*
X178966571Y-62630857D01*
X178895142Y-62488000D01*
X178752285Y-62416571D01*
X178466571Y-62416571D01*
X178323714Y-62488000D01*
X178966571Y-63345142D02*
X178823714Y-63416571D01*
X178466571Y-63416571D01*
X178323714Y-63345142D01*
X178252285Y-63202285D01*
X178252285Y-63059428D01*
X178323714Y-62916571D01*
X178466571Y-62845142D01*
X178823714Y-62845142D01*
X178966571Y-62773714D01*
X179716857Y-66052000D02*
X179574000Y-65980571D01*
X179359714Y-65980571D01*
X179145428Y-66052000D01*
X179002571Y-66194857D01*
X178931142Y-66337714D01*
X178859714Y-66623428D01*
X178859714Y-66837714D01*
X178931142Y-67123428D01*
X179002571Y-67266285D01*
X179145428Y-67409142D01*
X179359714Y-67480571D01*
X179502571Y-67480571D01*
X179716857Y-67409142D01*
X179788285Y-67337714D01*
X179788285Y-66837714D01*
X179502571Y-66837714D01*
X173871000Y-66107571D02*
X174371000Y-67607571D01*
X174871000Y-66107571D01*
X100849857Y-66433000D02*
X100707000Y-66361571D01*
X100492714Y-66361571D01*
X100278428Y-66433000D01*
X100135571Y-66575857D01*
X100064142Y-66718714D01*
X99992714Y-67004428D01*
X99992714Y-67218714D01*
X100064142Y-67504428D01*
X100135571Y-67647285D01*
X100278428Y-67790142D01*
X100492714Y-67861571D01*
X100635571Y-67861571D01*
X100849857Y-67790142D01*
X100921285Y-67718714D01*
X100921285Y-67218714D01*
X100635571Y-67218714D01*
X92194000Y-66615571D02*
X91694000Y-68115571D01*
X91194000Y-66615571D01*
D14*
X168235380Y-59785095D02*
X168235380Y-59213666D01*
X169235380Y-59499380D02*
X168235380Y-59499380D01*
X168235380Y-58975571D02*
X169235380Y-58308904D01*
X168235380Y-58308904D02*
X169235380Y-58975571D01*
X168235380Y-57737476D02*
X168235380Y-57642238D01*
X168283000Y-57547000D01*
X168330619Y-57499380D01*
X168425857Y-57451761D01*
X168616333Y-57404142D01*
X168854428Y-57404142D01*
X169044904Y-57451761D01*
X169140142Y-57499380D01*
X169187761Y-57547000D01*
X169235380Y-57642238D01*
X169235380Y-57737476D01*
X169187761Y-57832714D01*
X169140142Y-57880333D01*
X169044904Y-57927952D01*
X168854428Y-57975571D01*
X168616333Y-57975571D01*
X168425857Y-57927952D01*
X168330619Y-57880333D01*
X168283000Y-57832714D01*
X168235380Y-57737476D01*
X137755380Y-59658095D02*
X137755380Y-59086666D01*
X138755380Y-59372380D02*
X137755380Y-59372380D01*
X137755380Y-58848571D02*
X138755380Y-58181904D01*
X137755380Y-58181904D02*
X138755380Y-58848571D01*
X137755380Y-57610476D02*
X137755380Y-57515238D01*
X137803000Y-57420000D01*
X137850619Y-57372380D01*
X137945857Y-57324761D01*
X138136333Y-57277142D01*
X138374428Y-57277142D01*
X138564904Y-57324761D01*
X138660142Y-57372380D01*
X138707761Y-57420000D01*
X138755380Y-57515238D01*
X138755380Y-57610476D01*
X138707761Y-57705714D01*
X138660142Y-57753333D01*
X138564904Y-57800952D01*
X138374428Y-57848571D01*
X138136333Y-57848571D01*
X137945857Y-57800952D01*
X137850619Y-57753333D01*
X137803000Y-57705714D01*
X137755380Y-57610476D01*
D12*
X117232857Y-66433000D02*
X117090000Y-66361571D01*
X116875714Y-66361571D01*
X116661428Y-66433000D01*
X116518571Y-66575857D01*
X116447142Y-66718714D01*
X116375714Y-67004428D01*
X116375714Y-67218714D01*
X116447142Y-67504428D01*
X116518571Y-67647285D01*
X116661428Y-67790142D01*
X116875714Y-67861571D01*
X117018571Y-67861571D01*
X117232857Y-67790142D01*
X117304285Y-67718714D01*
X117304285Y-67218714D01*
X117018571Y-67218714D01*
X108847000Y-66361571D02*
X109347000Y-67861571D01*
X109847000Y-66361571D01*
X144542761Y-138954761D02*
X144542761Y-136954761D01*
X145018952Y-136954761D01*
X145304666Y-137050000D01*
X145495142Y-137240476D01*
X145590380Y-137430952D01*
X145685619Y-137811904D01*
X145685619Y-138097619D01*
X145590380Y-138478571D01*
X145495142Y-138669047D01*
X145304666Y-138859523D01*
X145018952Y-138954761D01*
X144542761Y-138954761D01*
X147399904Y-138954761D02*
X147399904Y-137907142D01*
X147304666Y-137716666D01*
X147114190Y-137621428D01*
X146733238Y-137621428D01*
X146542761Y-137716666D01*
X147399904Y-138859523D02*
X147209428Y-138954761D01*
X146733238Y-138954761D01*
X146542761Y-138859523D01*
X146447523Y-138669047D01*
X146447523Y-138478571D01*
X146542761Y-138288095D01*
X146733238Y-138192857D01*
X147209428Y-138192857D01*
X147399904Y-138097619D01*
X148257047Y-138859523D02*
X148447523Y-138954761D01*
X148828476Y-138954761D01*
X149018952Y-138859523D01*
X149114190Y-138669047D01*
X149114190Y-138573809D01*
X149018952Y-138383333D01*
X148828476Y-138288095D01*
X148542761Y-138288095D01*
X148352285Y-138192857D01*
X148257047Y-138002380D01*
X148257047Y-137907142D01*
X148352285Y-137716666D01*
X148542761Y-137621428D01*
X148828476Y-137621428D01*
X149018952Y-137716666D01*
X149971333Y-138954761D02*
X149971333Y-136954761D01*
X150828476Y-138954761D02*
X150828476Y-137907142D01*
X150733238Y-137716666D01*
X150542761Y-137621428D01*
X150257047Y-137621428D01*
X150066571Y-137716666D01*
X149971333Y-137811904D01*
X153304666Y-138954761D02*
X153304666Y-137621428D01*
X153304666Y-137811904D02*
X153399904Y-137716666D01*
X153590380Y-137621428D01*
X153876095Y-137621428D01*
X154066571Y-137716666D01*
X154161809Y-137907142D01*
X154161809Y-138954761D01*
X154161809Y-137907142D02*
X154257047Y-137716666D01*
X154447523Y-137621428D01*
X154733238Y-137621428D01*
X154923714Y-137716666D01*
X155018952Y-137907142D01*
X155018952Y-138954761D01*
X155971333Y-138954761D02*
X155971333Y-137621428D01*
X155971333Y-136954761D02*
X155876095Y-137050000D01*
X155971333Y-137145238D01*
X156066571Y-137050000D01*
X155971333Y-136954761D01*
X155971333Y-137145238D01*
X156923714Y-137621428D02*
X156923714Y-138954761D01*
X156923714Y-137811904D02*
X157018952Y-137716666D01*
X157209428Y-137621428D01*
X157495142Y-137621428D01*
X157685619Y-137716666D01*
X157780857Y-137907142D01*
X157780857Y-138954761D01*
X158733238Y-138954761D02*
X158733238Y-137621428D01*
X158733238Y-136954761D02*
X158638000Y-137050000D01*
X158733238Y-137145238D01*
X158828476Y-137050000D01*
X158733238Y-136954761D01*
X158733238Y-137145238D01*
X147018952Y-142254761D02*
X146352285Y-141302380D01*
X145876095Y-142254761D02*
X145876095Y-140254761D01*
X146638000Y-140254761D01*
X146828476Y-140350000D01*
X146923714Y-140445238D01*
X147018952Y-140635714D01*
X147018952Y-140921428D01*
X146923714Y-141111904D01*
X146828476Y-141207142D01*
X146638000Y-141302380D01*
X145876095Y-141302380D01*
X148638000Y-142159523D02*
X148447523Y-142254761D01*
X148066571Y-142254761D01*
X147876095Y-142159523D01*
X147780857Y-141969047D01*
X147780857Y-141207142D01*
X147876095Y-141016666D01*
X148066571Y-140921428D01*
X148447523Y-140921428D01*
X148638000Y-141016666D01*
X148733238Y-141207142D01*
X148733238Y-141397619D01*
X147780857Y-141588095D01*
X149399904Y-140921428D02*
X149876095Y-142254761D01*
X150352285Y-140921428D01*
X151114190Y-142064285D02*
X151209428Y-142159523D01*
X151114190Y-142254761D01*
X151018952Y-142159523D01*
X151114190Y-142064285D01*
X151114190Y-142254761D01*
X154638000Y-142254761D02*
X153495142Y-142254761D01*
X154066571Y-142254761D02*
X154066571Y-140254761D01*
X153876095Y-140540476D01*
X153685619Y-140730952D01*
X153495142Y-140826190D01*
X155495142Y-142064285D02*
X155590380Y-142159523D01*
X155495142Y-142254761D01*
X155399904Y-142159523D01*
X155495142Y-142064285D01*
X155495142Y-142254761D01*
X157495142Y-142254761D02*
X156352285Y-142254761D01*
X156923714Y-142254761D02*
X156923714Y-140254761D01*
X156733238Y-140540476D01*
X156542761Y-140730952D01*
X156352285Y-140826190D01*
D15*
G04 #@! TO.C,D68*
X203200000Y-144061148D02*
X203685000Y-143221103D01*
X206525000Y-138302079D02*
X207010000Y-137462034D01*
X205451218Y-141561924D02*
X204238782Y-140861924D01*
X205971218Y-140661258D02*
X204845000Y-141211924D01*
X204758782Y-139961258D02*
X205971218Y-140661258D01*
X204845000Y-141211924D02*
X204758782Y-139961258D01*
G04 #@! TO.C,D1*
X178308000Y-120523000D02*
X179278000Y-120523000D01*
X184958000Y-120523000D02*
X185928000Y-120523000D01*
X181598000Y-121223000D02*
X181598000Y-119823000D01*
X182638000Y-121223000D02*
X181598000Y-120523000D01*
X182638000Y-119823000D02*
X182638000Y-121223000D01*
X181598000Y-120523000D02*
X182638000Y-119823000D01*
G04 #@! TO.C,D34*
X179578000Y-141013148D02*
X180063000Y-140173103D01*
X182903000Y-135254079D02*
X183388000Y-134414034D01*
X181829218Y-138513924D02*
X180616782Y-137813924D01*
X182349218Y-137613258D02*
X181223000Y-138163924D01*
X181136782Y-136913258D02*
X182349218Y-137613258D01*
X181223000Y-138163924D02*
X181136782Y-136913258D01*
G04 #@! TO.C,D33*
X181780148Y-129159000D02*
X180940103Y-128674000D01*
X176021079Y-125834000D02*
X175181034Y-125349000D01*
X179280924Y-126907782D02*
X178580924Y-128120218D01*
X178380258Y-126387782D02*
X178930924Y-127514000D01*
X177680258Y-127600218D02*
X178380258Y-126387782D01*
X178930924Y-127514000D02*
X177680258Y-127600218D01*
G04 #@! TO.C,D32*
X133477000Y-131064000D02*
X133477000Y-130094000D01*
X133477000Y-124414000D02*
X133477000Y-123444000D01*
X134177000Y-127774000D02*
X132777000Y-127774000D01*
X134177000Y-126734000D02*
X133477000Y-127774000D01*
X132777000Y-126734000D02*
X134177000Y-126734000D01*
X133477000Y-127774000D02*
X132777000Y-126734000D01*
G04 #@! TO.C,D31*
X116713000Y-133350000D02*
X116713000Y-132380000D01*
X116713000Y-126700000D02*
X116713000Y-125730000D01*
X117413000Y-130060000D02*
X116013000Y-130060000D01*
X117413000Y-129020000D02*
X116713000Y-130060000D01*
X116013000Y-129020000D02*
X117413000Y-129020000D01*
X116713000Y-130060000D02*
X116013000Y-129020000D01*
G04 #@! TO.C,D30*
X114427000Y-133350000D02*
X114427000Y-132380000D01*
X114427000Y-126700000D02*
X114427000Y-125730000D01*
X115127000Y-130060000D02*
X113727000Y-130060000D01*
X115127000Y-129020000D02*
X114427000Y-130060000D01*
X113727000Y-129020000D02*
X115127000Y-129020000D01*
X114427000Y-130060000D02*
X113727000Y-129020000D01*
G04 #@! TO.C,D29*
X97663000Y-118364000D02*
X97663000Y-117394000D01*
X97663000Y-111714000D02*
X97663000Y-110744000D01*
X98363000Y-115074000D02*
X96963000Y-115074000D01*
X98363000Y-114034000D02*
X97663000Y-115074000D01*
X96963000Y-114034000D02*
X98363000Y-114034000D01*
X97663000Y-115074000D02*
X96963000Y-114034000D01*
G04 #@! TO.C,D28*
X190627000Y-123677000D02*
X190627000Y-122707000D01*
X190627000Y-117027000D02*
X190627000Y-116057000D01*
X191327000Y-120387000D02*
X189927000Y-120387000D01*
X191327000Y-119347000D02*
X190627000Y-120387000D01*
X189927000Y-119347000D02*
X191327000Y-119347000D01*
X190627000Y-120387000D02*
X189927000Y-119347000D01*
G04 #@! TO.C,D27*
X190627000Y-109749000D02*
X190627000Y-108779000D01*
X190627000Y-103099000D02*
X190627000Y-102129000D01*
X191327000Y-106459000D02*
X189927000Y-106459000D01*
X191327000Y-105419000D02*
X190627000Y-106459000D01*
X189927000Y-105419000D02*
X191327000Y-105419000D01*
X190627000Y-106459000D02*
X189927000Y-105419000D01*
G04 #@! TO.C,D26*
X190627000Y-97282000D02*
X190627000Y-96312000D01*
X190627000Y-90632000D02*
X190627000Y-89662000D01*
X191327000Y-93992000D02*
X189927000Y-93992000D01*
X191327000Y-92952000D02*
X190627000Y-93992000D01*
X189927000Y-92952000D02*
X191327000Y-92952000D01*
X190627000Y-93992000D02*
X189927000Y-92952000D01*
G04 #@! TO.C,D24*
X173990000Y-116586000D02*
X173990000Y-115616000D01*
X173990000Y-109936000D02*
X173990000Y-108966000D01*
X174690000Y-113296000D02*
X173290000Y-113296000D01*
X174690000Y-112256000D02*
X173990000Y-113296000D01*
X173290000Y-112256000D02*
X174690000Y-112256000D01*
X173990000Y-113296000D02*
X173290000Y-112256000D01*
G04 #@! TO.C,D23*
X173990000Y-98954000D02*
X173990000Y-97984000D01*
X173990000Y-92304000D02*
X173990000Y-91334000D01*
X174690000Y-95664000D02*
X173290000Y-95664000D01*
X174690000Y-94624000D02*
X173990000Y-95664000D01*
X173290000Y-94624000D02*
X174690000Y-94624000D01*
X173990000Y-95664000D02*
X173290000Y-94624000D01*
G04 #@! TO.C,D22*
X173990000Y-80899000D02*
X173990000Y-79929000D01*
X173990000Y-74249000D02*
X173990000Y-73279000D01*
X174690000Y-77609000D02*
X173290000Y-77609000D01*
X174690000Y-76569000D02*
X173990000Y-77609000D01*
X173290000Y-76569000D02*
X174690000Y-76569000D01*
X173990000Y-77609000D02*
X173290000Y-76569000D01*
G04 #@! TO.C,D20*
X171323000Y-116565000D02*
X171323000Y-115595000D01*
X171323000Y-109915000D02*
X171323000Y-108945000D01*
X172023000Y-113275000D02*
X170623000Y-113275000D01*
X172023000Y-112235000D02*
X171323000Y-113275000D01*
X170623000Y-112235000D02*
X172023000Y-112235000D01*
X171323000Y-113275000D02*
X170623000Y-112235000D01*
G04 #@! TO.C,D15*
X152273000Y-103526000D02*
X152273000Y-102556000D01*
X152273000Y-96876000D02*
X152273000Y-95906000D01*
X152973000Y-100236000D02*
X151573000Y-100236000D01*
X152973000Y-99196000D02*
X152273000Y-100236000D01*
X151573000Y-99196000D02*
X152973000Y-99196000D01*
X152273000Y-100236000D02*
X151573000Y-99196000D01*
G04 #@! TO.C,D14*
X133731000Y-90191000D02*
X133731000Y-89221000D01*
X133731000Y-83541000D02*
X133731000Y-82571000D01*
X134431000Y-86901000D02*
X133031000Y-86901000D01*
X134431000Y-85861000D02*
X133731000Y-86901000D01*
X133031000Y-85861000D02*
X134431000Y-85861000D01*
X133731000Y-86901000D02*
X133031000Y-85861000D01*
G04 #@! TO.C,D12*
X133477000Y-114575000D02*
X133477000Y-113605000D01*
X133477000Y-107925000D02*
X133477000Y-106955000D01*
X134177000Y-111285000D02*
X132777000Y-111285000D01*
X134177000Y-110245000D02*
X133477000Y-111285000D01*
X132777000Y-110245000D02*
X134177000Y-110245000D01*
X133477000Y-111285000D02*
X132777000Y-110245000D01*
G04 #@! TO.C,D11*
X116840000Y-99822000D02*
X116840000Y-98852000D01*
X116840000Y-93172000D02*
X116840000Y-92202000D01*
X117540000Y-96532000D02*
X116140000Y-96532000D01*
X117540000Y-95492000D02*
X116840000Y-96532000D01*
X116140000Y-95492000D02*
X117540000Y-95492000D01*
X116840000Y-96532000D02*
X116140000Y-95492000D01*
G04 #@! TO.C,D10*
X116586000Y-80899000D02*
X116586000Y-79929000D01*
X116586000Y-74249000D02*
X116586000Y-73279000D01*
X117286000Y-77609000D02*
X115886000Y-77609000D01*
X117286000Y-76569000D02*
X116586000Y-77609000D01*
X115886000Y-76569000D02*
X117286000Y-76569000D01*
X116586000Y-77609000D02*
X115886000Y-76569000D01*
G04 #@! TO.C,D8*
X116713000Y-118872000D02*
X116713000Y-117902000D01*
X116713000Y-112222000D02*
X116713000Y-111252000D01*
X117413000Y-115582000D02*
X116013000Y-115582000D01*
X117413000Y-114542000D02*
X116713000Y-115582000D01*
X116013000Y-114542000D02*
X117413000Y-114542000D01*
X116713000Y-115582000D02*
X116013000Y-114542000D01*
G04 #@! TO.C,D7*
X114427000Y-99822000D02*
X114427000Y-98852000D01*
X114427000Y-93172000D02*
X114427000Y-92202000D01*
X115127000Y-96532000D02*
X113727000Y-96532000D01*
X115127000Y-95492000D02*
X114427000Y-96532000D01*
X113727000Y-95492000D02*
X115127000Y-95492000D01*
X114427000Y-96532000D02*
X113727000Y-95492000D01*
G04 #@! TO.C,D6*
X114427000Y-80899000D02*
X114427000Y-79929000D01*
X114427000Y-74249000D02*
X114427000Y-73279000D01*
X115127000Y-77609000D02*
X113727000Y-77609000D01*
X115127000Y-76569000D02*
X114427000Y-77609000D01*
X113727000Y-76569000D02*
X115127000Y-76569000D01*
X114427000Y-77609000D02*
X113727000Y-76569000D01*
G04 #@! TO.C,D4*
X114427000Y-118851000D02*
X114427000Y-117881000D01*
X114427000Y-112201000D02*
X114427000Y-111231000D01*
X115127000Y-115561000D02*
X113727000Y-115561000D01*
X115127000Y-114521000D02*
X114427000Y-115561000D01*
X113727000Y-114521000D02*
X115127000Y-114521000D01*
X114427000Y-115561000D02*
X113727000Y-114521000D01*
G04 #@! TO.C,D3*
X97663000Y-99822000D02*
X97663000Y-98852000D01*
X97663000Y-93172000D02*
X97663000Y-92202000D01*
X98363000Y-96532000D02*
X96963000Y-96532000D01*
X98363000Y-95492000D02*
X97663000Y-96532000D01*
X96963000Y-95492000D02*
X98363000Y-95492000D01*
X97663000Y-96532000D02*
X96963000Y-95492000D01*
G04 #@! TO.C,D2*
X97663000Y-80899000D02*
X97663000Y-79929000D01*
X97663000Y-74249000D02*
X97663000Y-73279000D01*
X98363000Y-77609000D02*
X96963000Y-77609000D01*
X98363000Y-76569000D02*
X97663000Y-77609000D01*
X96963000Y-76569000D02*
X98363000Y-76569000D01*
X97663000Y-77609000D02*
X96963000Y-76569000D01*
G04 #@! TO.C,D16*
X135763000Y-114575000D02*
X135763000Y-113605000D01*
X135763000Y-107925000D02*
X135763000Y-106955000D01*
X136463000Y-111285000D02*
X135063000Y-111285000D01*
X136463000Y-110245000D02*
X135763000Y-111285000D01*
X135063000Y-110245000D02*
X136463000Y-110245000D01*
X135763000Y-111285000D02*
X135063000Y-110245000D01*
G04 #@! TO.C,D18*
X155194000Y-103484000D02*
X155194000Y-102514000D01*
X155194000Y-96834000D02*
X155194000Y-95864000D01*
X155894000Y-100194000D02*
X154494000Y-100194000D01*
X155894000Y-99154000D02*
X155194000Y-100194000D01*
X154494000Y-99154000D02*
X155894000Y-99154000D01*
X155194000Y-100194000D02*
X154494000Y-99154000D01*
G04 #@! TO.C,D19*
X171450000Y-98912000D02*
X171450000Y-97942000D01*
X171450000Y-92262000D02*
X171450000Y-91292000D01*
X172150000Y-95622000D02*
X170750000Y-95622000D01*
X172150000Y-94582000D02*
X171450000Y-95622000D01*
X170750000Y-94582000D02*
X172150000Y-94582000D01*
X171450000Y-95622000D02*
X170750000Y-94582000D01*
G04 #@! TO.C,R39*
X201598313Y-158154000D02*
X200915300Y-158337013D01*
X200915300Y-158337013D02*
X201415300Y-157470987D01*
X201415300Y-157470987D02*
X200732288Y-157654000D01*
X199346647Y-156854000D02*
X197614596Y-155854000D01*
X204802607Y-160004000D02*
X202983954Y-158954000D01*
G04 #@! TO.C,R38*
X197513000Y-115951000D02*
X198013000Y-115451000D01*
X198013000Y-115451000D02*
X198013000Y-116451000D01*
X198013000Y-116451000D02*
X198513000Y-115951000D01*
X200113000Y-115951000D02*
X202113000Y-115951000D01*
X193813000Y-115951000D02*
X195913000Y-115951000D01*
G04 #@! TO.C,R37*
X218362313Y-129325000D02*
X217679300Y-129508013D01*
X217679300Y-129508013D02*
X218179300Y-128641987D01*
X218179300Y-128641987D02*
X217496288Y-128825000D01*
X216110647Y-128025000D02*
X214378596Y-127025000D01*
X221566607Y-131175000D02*
X219747954Y-130125000D01*
G04 #@! TO.C,R14*
X197513000Y-113538000D02*
X198013000Y-113038000D01*
X198013000Y-113038000D02*
X198013000Y-114038000D01*
X198013000Y-114038000D02*
X198513000Y-113538000D01*
X200113000Y-113538000D02*
X202113000Y-113538000D01*
X193813000Y-113538000D02*
X195913000Y-113538000D01*
G04 #@! TO.C,R36*
X144498000Y-118618000D02*
X143998000Y-119118000D01*
X143998000Y-119118000D02*
X143998000Y-118118000D01*
X143998000Y-118118000D02*
X143498000Y-118618000D01*
X141898000Y-118618000D02*
X139898000Y-118618000D01*
X148198000Y-118618000D02*
X146098000Y-118618000D01*
G04 #@! TO.C,R35*
X125575000Y-121031000D02*
X125075000Y-121531000D01*
X125075000Y-121531000D02*
X125075000Y-120531000D01*
X125075000Y-120531000D02*
X124575000Y-121031000D01*
X122975000Y-121031000D02*
X120975000Y-121031000D01*
X129275000Y-121031000D02*
X127175000Y-121031000D01*
G04 #@! TO.C,R34*
X105438000Y-125857000D02*
X105938000Y-125357000D01*
X105938000Y-125357000D02*
X105938000Y-126357000D01*
X105938000Y-126357000D02*
X106438000Y-125857000D01*
X108038000Y-125857000D02*
X110038000Y-125857000D01*
X101738000Y-125857000D02*
X103838000Y-125857000D01*
G04 #@! TO.C,R33*
X105438000Y-123444000D02*
X105938000Y-122944000D01*
X105938000Y-122944000D02*
X105938000Y-123944000D01*
X105938000Y-123944000D02*
X106438000Y-123444000D01*
X108038000Y-123444000D02*
X110038000Y-123444000D01*
X101738000Y-123444000D02*
X103838000Y-123444000D01*
G04 #@! TO.C,R32*
X180640717Y-145937000D02*
X181323730Y-145753987D01*
X181323730Y-145753987D02*
X180823730Y-146620013D01*
X180823730Y-146620013D02*
X181506742Y-146437000D01*
X182892383Y-147237000D02*
X184624434Y-148237000D01*
X177436423Y-144087000D02*
X179255076Y-145137000D01*
G04 #@! TO.C,R31*
X182725000Y-104521000D02*
X182225000Y-105021000D01*
X182225000Y-105021000D02*
X182225000Y-104021000D01*
X182225000Y-104021000D02*
X181725000Y-104521000D01*
X180125000Y-104521000D02*
X178125000Y-104521000D01*
X186425000Y-104521000D02*
X184325000Y-104521000D01*
G04 #@! TO.C,R30*
X162715000Y-102235000D02*
X163215000Y-101735000D01*
X163215000Y-101735000D02*
X163215000Y-102735000D01*
X163215000Y-102735000D02*
X163715000Y-102235000D01*
X165315000Y-102235000D02*
X167315000Y-102235000D01*
X159015000Y-102235000D02*
X161115000Y-102235000D01*
G04 #@! TO.C,R29*
X144498000Y-116332000D02*
X143998000Y-116832000D01*
X143998000Y-116832000D02*
X143998000Y-115832000D01*
X143998000Y-115832000D02*
X143498000Y-116332000D01*
X141898000Y-116332000D02*
X139898000Y-116332000D01*
X148198000Y-116332000D02*
X146098000Y-116332000D01*
G04 #@! TO.C,R28*
X125575000Y-118745000D02*
X125075000Y-119245000D01*
X125075000Y-119245000D02*
X125075000Y-118245000D01*
X125075000Y-118245000D02*
X124575000Y-118745000D01*
X122975000Y-118745000D02*
X120975000Y-118745000D01*
X129275000Y-118745000D02*
X127175000Y-118745000D01*
G04 #@! TO.C,R27*
X95377000Y-114053000D02*
X95877000Y-114553000D01*
X95877000Y-114553000D02*
X94877000Y-114553000D01*
X94877000Y-114553000D02*
X95377000Y-115053000D01*
X95377000Y-116653000D02*
X95377000Y-118653000D01*
X95377000Y-110353000D02*
X95377000Y-112453000D01*
G04 #@! TO.C,R26*
X105692000Y-106807000D02*
X106192000Y-106307000D01*
X106192000Y-106307000D02*
X106192000Y-107307000D01*
X106192000Y-107307000D02*
X106692000Y-106807000D01*
X108292000Y-106807000D02*
X110292000Y-106807000D01*
X101992000Y-106807000D02*
X104092000Y-106807000D01*
G04 #@! TO.C,R25*
X192913000Y-106398000D02*
X192413000Y-105898000D01*
X192413000Y-105898000D02*
X193413000Y-105898000D01*
X193413000Y-105898000D02*
X192913000Y-105398000D01*
X192913000Y-103798000D02*
X192913000Y-101798000D01*
X192913000Y-110098000D02*
X192913000Y-107998000D01*
G04 #@! TO.C,R24*
X182725000Y-102108000D02*
X182225000Y-102608000D01*
X182225000Y-102608000D02*
X182225000Y-101608000D01*
X182225000Y-101608000D02*
X181725000Y-102108000D01*
X180125000Y-102108000D02*
X178125000Y-102108000D01*
X186425000Y-102108000D02*
X184325000Y-102108000D01*
G04 #@! TO.C,R23*
X163675000Y-99695000D02*
X163175000Y-100195000D01*
X163175000Y-100195000D02*
X163175000Y-99195000D01*
X163175000Y-99195000D02*
X162675000Y-99695000D01*
X161075000Y-99695000D02*
X159075000Y-99695000D01*
X167375000Y-99695000D02*
X165275000Y-99695000D01*
G04 #@! TO.C,R22*
X144625000Y-97282000D02*
X144125000Y-97782000D01*
X144125000Y-97782000D02*
X144125000Y-96782000D01*
X144125000Y-96782000D02*
X143625000Y-97282000D01*
X142025000Y-97282000D02*
X140025000Y-97282000D01*
X148325000Y-97282000D02*
X146225000Y-97282000D01*
G04 #@! TO.C,R21*
X125575000Y-99695000D02*
X125075000Y-100195000D01*
X125075000Y-100195000D02*
X125075000Y-99195000D01*
X125075000Y-99195000D02*
X124575000Y-99695000D01*
X122975000Y-99695000D02*
X120975000Y-99695000D01*
X129275000Y-99695000D02*
X127175000Y-99695000D01*
G04 #@! TO.C,R20*
X105692000Y-104394000D02*
X106192000Y-103894000D01*
X106192000Y-103894000D02*
X106192000Y-104894000D01*
X106192000Y-104894000D02*
X106692000Y-104394000D01*
X108292000Y-104394000D02*
X110292000Y-104394000D01*
X101992000Y-104394000D02*
X104092000Y-104394000D01*
G04 #@! TO.C,R19*
X95377000Y-95532000D02*
X95877000Y-96032000D01*
X95877000Y-96032000D02*
X94877000Y-96032000D01*
X94877000Y-96032000D02*
X95377000Y-96532000D01*
X95377000Y-98132000D02*
X95377000Y-100132000D01*
X95377000Y-91832000D02*
X95377000Y-93932000D01*
G04 #@! TO.C,R18*
X192913000Y-93013000D02*
X193413000Y-93513000D01*
X193413000Y-93513000D02*
X192413000Y-93513000D01*
X192413000Y-93513000D02*
X192913000Y-94013000D01*
X192913000Y-95613000D02*
X192913000Y-97613000D01*
X192913000Y-89313000D02*
X192913000Y-91413000D01*
G04 #@! TO.C,R16*
X163675000Y-80645000D02*
X163175000Y-81145000D01*
X163175000Y-81145000D02*
X163175000Y-80145000D01*
X163175000Y-80145000D02*
X162675000Y-80645000D01*
X161075000Y-80645000D02*
X159075000Y-80645000D01*
X167375000Y-80645000D02*
X165275000Y-80645000D01*
G04 #@! TO.C,R15*
X144625000Y-78232000D02*
X144125000Y-78732000D01*
X144125000Y-78732000D02*
X144125000Y-77732000D01*
X144125000Y-77732000D02*
X143625000Y-78232000D01*
X142025000Y-78232000D02*
X140025000Y-78232000D01*
X148325000Y-78232000D02*
X146225000Y-78232000D01*
G04 #@! TO.C,R12*
X125575000Y-80645000D02*
X125075000Y-81145000D01*
X125075000Y-81145000D02*
X125075000Y-80145000D01*
X125075000Y-80145000D02*
X124575000Y-80645000D01*
X122975000Y-80645000D02*
X120975000Y-80645000D01*
X129275000Y-80645000D02*
X127175000Y-80645000D01*
G04 #@! TO.C,R11*
X106525000Y-85344000D02*
X106025000Y-85844000D01*
X106025000Y-85844000D02*
X106025000Y-84844000D01*
X106025000Y-84844000D02*
X105525000Y-85344000D01*
X103925000Y-85344000D02*
X101925000Y-85344000D01*
X110225000Y-85344000D02*
X108125000Y-85344000D01*
G04 #@! TO.C,R10*
X95377000Y-76609000D02*
X95877000Y-77109000D01*
X95877000Y-77109000D02*
X94877000Y-77109000D01*
X94877000Y-77109000D02*
X95377000Y-77609000D01*
X95377000Y-79209000D02*
X95377000Y-81209000D01*
X95377000Y-72909000D02*
X95377000Y-75009000D01*
G04 #@! TO.C,R13*
X152273000Y-114561000D02*
X152773000Y-115061000D01*
X152773000Y-115061000D02*
X151773000Y-115061000D01*
X151773000Y-115061000D02*
X152273000Y-115561000D01*
X152273000Y-117161000D02*
X152273000Y-119161000D01*
X152273000Y-110861000D02*
X152273000Y-112961000D01*
G04 #@! TO.C,R17*
X182725000Y-82931000D02*
X182225000Y-83431000D01*
X182225000Y-83431000D02*
X182225000Y-82431000D01*
X182225000Y-82431000D02*
X181725000Y-82931000D01*
X180125000Y-82931000D02*
X178125000Y-82931000D01*
X186425000Y-82931000D02*
X184325000Y-82931000D01*
G04 #@! TO.C,R3*
X155067000Y-114455000D02*
X155567000Y-114955000D01*
X155567000Y-114955000D02*
X154567000Y-114955000D01*
X154567000Y-114955000D02*
X155067000Y-115455000D01*
X155067000Y-117055000D02*
X155067000Y-119055000D01*
X155067000Y-110755000D02*
X155067000Y-112855000D01*
D16*
G04 #@! TO.C,G\002A\002A\002A*
G36*
X203276199Y-96824799D02*
X203553446Y-97144324D01*
X203679019Y-97447480D01*
X203708000Y-97853500D01*
X203677415Y-98267336D01*
X203548951Y-98569387D01*
X203276199Y-98882200D01*
X202844399Y-99314000D01*
X198735949Y-99308915D01*
X197563065Y-99305664D01*
X196617956Y-99298360D01*
X195874418Y-99285862D01*
X195306242Y-99267032D01*
X194887223Y-99240731D01*
X194591154Y-99205818D01*
X194391828Y-99161155D01*
X194279846Y-99115195D01*
X193861507Y-98755396D01*
X193620653Y-98263479D01*
X193575283Y-97705011D01*
X193740649Y-97150842D01*
X193851205Y-96953183D01*
X193975176Y-96793240D01*
X194138979Y-96667025D01*
X194369028Y-96570552D01*
X194691740Y-96499834D01*
X195133530Y-96450883D01*
X195720814Y-96419713D01*
X196480007Y-96402335D01*
X197437524Y-96394762D01*
X198619781Y-96393008D01*
X198761393Y-96393000D01*
X202844399Y-96393000D01*
X203276199Y-96824799D01*
X203276199Y-96824799D01*
G37*
X203276199Y-96824799D02*
X203553446Y-97144324D01*
X203679019Y-97447480D01*
X203708000Y-97853500D01*
X203677415Y-98267336D01*
X203548951Y-98569387D01*
X203276199Y-98882200D01*
X202844399Y-99314000D01*
X198735949Y-99308915D01*
X197563065Y-99305664D01*
X196617956Y-99298360D01*
X195874418Y-99285862D01*
X195306242Y-99267032D01*
X194887223Y-99240731D01*
X194591154Y-99205818D01*
X194391828Y-99161155D01*
X194279846Y-99115195D01*
X193861507Y-98755396D01*
X193620653Y-98263479D01*
X193575283Y-97705011D01*
X193740649Y-97150842D01*
X193851205Y-96953183D01*
X193975176Y-96793240D01*
X194138979Y-96667025D01*
X194369028Y-96570552D01*
X194691740Y-96499834D01*
X195133530Y-96450883D01*
X195720814Y-96419713D01*
X196480007Y-96402335D01*
X197437524Y-96394762D01*
X198619781Y-96393008D01*
X198761393Y-96393000D01*
X202844399Y-96393000D01*
X203276199Y-96824799D01*
G36*
X200627842Y-102501031D02*
X201308669Y-102512895D01*
X201827267Y-102532997D01*
X202214216Y-102562798D01*
X202500097Y-102603761D01*
X202715491Y-102657347D01*
X202821309Y-102695241D01*
X203300365Y-103008455D01*
X203606179Y-103459152D01*
X203725731Y-103987727D01*
X203646001Y-104534572D01*
X203353970Y-105040081D01*
X203337557Y-105058746D01*
X202967115Y-105473500D01*
X198797307Y-105502863D01*
X197615886Y-105509439D01*
X196662572Y-105510212D01*
X195911518Y-105504298D01*
X195336879Y-105490811D01*
X194912809Y-105468868D01*
X194613462Y-105437585D01*
X194412992Y-105396077D01*
X194294947Y-105348805D01*
X193974044Y-105058081D01*
X193709903Y-104621653D01*
X193561650Y-104147809D01*
X193548000Y-103980837D01*
X193654861Y-103558467D01*
X193930018Y-103131839D01*
X194305323Y-102789502D01*
X194568397Y-102654918D01*
X194850147Y-102601738D01*
X195358271Y-102559627D01*
X196099216Y-102528333D01*
X197079430Y-102507608D01*
X198305359Y-102497199D01*
X198657179Y-102496168D01*
X199754206Y-102495943D01*
X200627842Y-102501031D01*
X200627842Y-102501031D01*
G37*
X200627842Y-102501031D02*
X201308669Y-102512895D01*
X201827267Y-102532997D01*
X202214216Y-102562798D01*
X202500097Y-102603761D01*
X202715491Y-102657347D01*
X202821309Y-102695241D01*
X203300365Y-103008455D01*
X203606179Y-103459152D01*
X203725731Y-103987727D01*
X203646001Y-104534572D01*
X203353970Y-105040081D01*
X203337557Y-105058746D01*
X202967115Y-105473500D01*
X198797307Y-105502863D01*
X197615886Y-105509439D01*
X196662572Y-105510212D01*
X195911518Y-105504298D01*
X195336879Y-105490811D01*
X194912809Y-105468868D01*
X194613462Y-105437585D01*
X194412992Y-105396077D01*
X194294947Y-105348805D01*
X193974044Y-105058081D01*
X193709903Y-104621653D01*
X193561650Y-104147809D01*
X193548000Y-103980837D01*
X193654861Y-103558467D01*
X193930018Y-103131839D01*
X194305323Y-102789502D01*
X194568397Y-102654918D01*
X194850147Y-102601738D01*
X195358271Y-102559627D01*
X196099216Y-102528333D01*
X197079430Y-102507608D01*
X198305359Y-102497199D01*
X198657179Y-102496168D01*
X199754206Y-102495943D01*
X200627842Y-102501031D01*
G36*
X190288948Y-93435128D02*
X190586834Y-93548178D01*
X190883931Y-93797396D01*
X190910307Y-93823597D01*
X191325500Y-94238694D01*
X191360977Y-100014847D01*
X191396455Y-105791000D01*
X192652983Y-105791000D01*
X193239696Y-105795962D01*
X193635373Y-105819204D01*
X193902912Y-105873259D01*
X194105212Y-105970658D01*
X194299353Y-106119030D01*
X194683764Y-106587311D01*
X194842115Y-107121696D01*
X194774160Y-107671989D01*
X194479652Y-108188000D01*
X194310389Y-108362750D01*
X193924992Y-108712000D01*
X191672746Y-108706915D01*
X190778239Y-108699259D01*
X190105160Y-108679327D01*
X189621132Y-108644792D01*
X189293778Y-108593326D01*
X189090720Y-108522602D01*
X189087947Y-108521107D01*
X188927472Y-108430426D01*
X188791556Y-108333180D01*
X188678282Y-108208877D01*
X188585731Y-108037026D01*
X188511984Y-107797136D01*
X188455124Y-107468714D01*
X188413231Y-107031269D01*
X188384389Y-106464309D01*
X188366677Y-105747344D01*
X188358178Y-104859880D01*
X188356974Y-103781427D01*
X188361147Y-102491493D01*
X188368777Y-100969586D01*
X188369433Y-100845933D01*
X188404500Y-94238731D01*
X188819692Y-93823615D01*
X189121902Y-93561870D01*
X189415269Y-93440119D01*
X189825067Y-93408612D01*
X189865000Y-93408500D01*
X190288948Y-93435128D01*
X190288948Y-93435128D01*
G37*
X190288948Y-93435128D02*
X190586834Y-93548178D01*
X190883931Y-93797396D01*
X190910307Y-93823597D01*
X191325500Y-94238694D01*
X191360977Y-100014847D01*
X191396455Y-105791000D01*
X192652983Y-105791000D01*
X193239696Y-105795962D01*
X193635373Y-105819204D01*
X193902912Y-105873259D01*
X194105212Y-105970658D01*
X194299353Y-106119030D01*
X194683764Y-106587311D01*
X194842115Y-107121696D01*
X194774160Y-107671989D01*
X194479652Y-108188000D01*
X194310389Y-108362750D01*
X193924992Y-108712000D01*
X191672746Y-108706915D01*
X190778239Y-108699259D01*
X190105160Y-108679327D01*
X189621132Y-108644792D01*
X189293778Y-108593326D01*
X189090720Y-108522602D01*
X189087947Y-108521107D01*
X188927472Y-108430426D01*
X188791556Y-108333180D01*
X188678282Y-108208877D01*
X188585731Y-108037026D01*
X188511984Y-107797136D01*
X188455124Y-107468714D01*
X188413231Y-107031269D01*
X188384389Y-106464309D01*
X188366677Y-105747344D01*
X188358178Y-104859880D01*
X188356974Y-103781427D01*
X188361147Y-102491493D01*
X188368777Y-100969586D01*
X188369433Y-100845933D01*
X188404500Y-94238731D01*
X188819692Y-93823615D01*
X189121902Y-93561870D01*
X189415269Y-93440119D01*
X189825067Y-93408612D01*
X189865000Y-93408500D01*
X190288948Y-93435128D01*
G36*
X174976115Y-93779475D02*
X175450500Y-94213951D01*
X175489652Y-96763975D01*
X175528804Y-99314000D01*
X178801195Y-99314000D01*
X178840347Y-96776151D01*
X178879500Y-94238303D01*
X179294692Y-93823401D01*
X179596991Y-93561758D01*
X179890535Y-93440071D01*
X180300616Y-93408609D01*
X180340000Y-93408500D01*
X180764028Y-93435149D01*
X181062018Y-93548253D01*
X181359263Y-93797541D01*
X181385307Y-93823401D01*
X181800500Y-94238303D01*
X181839652Y-96776151D01*
X181878804Y-99314000D01*
X184351981Y-99314000D01*
X185324760Y-99319522D01*
X186079678Y-99340225D01*
X186652712Y-99382314D01*
X187079843Y-99451993D01*
X187397050Y-99555467D01*
X187640312Y-99698939D01*
X187845608Y-99888615D01*
X187875512Y-99921614D01*
X188102027Y-100342723D01*
X188184086Y-100869673D01*
X188111070Y-101392425D01*
X188035299Y-101577181D01*
X187891211Y-101821922D01*
X187721629Y-102010058D01*
X187493186Y-102148942D01*
X187172515Y-102245927D01*
X186726251Y-102308366D01*
X186121027Y-102343610D01*
X185323477Y-102359014D01*
X184473806Y-102362000D01*
X181864000Y-102362000D01*
X181864000Y-104715579D01*
X181857919Y-105656527D01*
X181838314Y-106375300D01*
X181803139Y-106903462D01*
X181750349Y-107272578D01*
X181683504Y-107501144D01*
X181373946Y-107940044D01*
X180914251Y-108219914D01*
X180365674Y-108322538D01*
X179789470Y-108229702D01*
X179561688Y-108132064D01*
X179321962Y-107979899D01*
X179138817Y-107780809D01*
X179004949Y-107501332D01*
X178913056Y-107108009D01*
X178855835Y-106567379D01*
X178825982Y-105845981D01*
X178816194Y-104910356D01*
X178816000Y-104715579D01*
X178816000Y-102362000D01*
X175532069Y-102362000D01*
X175491284Y-105102489D01*
X175450500Y-107842978D01*
X174976115Y-108277489D01*
X174445722Y-108620934D01*
X173887473Y-108715669D01*
X173320857Y-108559609D01*
X173164500Y-108471404D01*
X172989561Y-108328190D01*
X172659002Y-108025829D01*
X172195409Y-107586164D01*
X171621370Y-107031040D01*
X170959469Y-106382303D01*
X170232294Y-105661797D01*
X169462431Y-104891368D01*
X169449750Y-104878613D01*
X168589926Y-104013237D01*
X167892320Y-103308091D01*
X167339976Y-102743367D01*
X166975839Y-102362000D01*
X171270115Y-102362000D01*
X171831000Y-102933500D01*
X172126841Y-103229447D01*
X172343588Y-103435965D01*
X172428942Y-103505000D01*
X172451053Y-103391369D01*
X172464307Y-103103905D01*
X172466000Y-102933500D01*
X172466000Y-102362000D01*
X171270115Y-102362000D01*
X166975839Y-102362000D01*
X166915936Y-102299263D01*
X166603243Y-101955972D01*
X166384941Y-101693690D01*
X166244072Y-101492611D01*
X166163679Y-101332931D01*
X166126805Y-101194844D01*
X166116493Y-101058545D01*
X166116000Y-100984927D01*
X166212858Y-100324078D01*
X166501851Y-99826268D01*
X166923348Y-99521625D01*
X167120709Y-99447884D01*
X167382906Y-99393241D01*
X167747104Y-99355114D01*
X168250466Y-99330922D01*
X168930158Y-99318085D01*
X169823344Y-99314023D01*
X169913443Y-99314000D01*
X172466000Y-99314000D01*
X172466000Y-96421098D01*
X171100750Y-96371449D01*
X170336417Y-96324603D01*
X169781297Y-96237447D01*
X169391740Y-96093661D01*
X169124093Y-95876925D01*
X168934707Y-95570921D01*
X168929573Y-95559743D01*
X168805772Y-95091300D01*
X168801568Y-94575505D01*
X168913072Y-94129249D01*
X168981209Y-94007532D01*
X169160334Y-93786389D01*
X169370624Y-93620065D01*
X169649049Y-93500966D01*
X170032581Y-93421503D01*
X170558187Y-93374082D01*
X171262839Y-93351112D01*
X172183507Y-93345002D01*
X172207558Y-93345000D01*
X174501730Y-93345000D01*
X174976115Y-93779475D01*
X174976115Y-93779475D01*
G37*
X174976115Y-93779475D02*
X175450500Y-94213951D01*
X175489652Y-96763975D01*
X175528804Y-99314000D01*
X178801195Y-99314000D01*
X178840347Y-96776151D01*
X178879500Y-94238303D01*
X179294692Y-93823401D01*
X179596991Y-93561758D01*
X179890535Y-93440071D01*
X180300616Y-93408609D01*
X180340000Y-93408500D01*
X180764028Y-93435149D01*
X181062018Y-93548253D01*
X181359263Y-93797541D01*
X181385307Y-93823401D01*
X181800500Y-94238303D01*
X181839652Y-96776151D01*
X181878804Y-99314000D01*
X184351981Y-99314000D01*
X185324760Y-99319522D01*
X186079678Y-99340225D01*
X186652712Y-99382314D01*
X187079843Y-99451993D01*
X187397050Y-99555467D01*
X187640312Y-99698939D01*
X187845608Y-99888615D01*
X187875512Y-99921614D01*
X188102027Y-100342723D01*
X188184086Y-100869673D01*
X188111070Y-101392425D01*
X188035299Y-101577181D01*
X187891211Y-101821922D01*
X187721629Y-102010058D01*
X187493186Y-102148942D01*
X187172515Y-102245927D01*
X186726251Y-102308366D01*
X186121027Y-102343610D01*
X185323477Y-102359014D01*
X184473806Y-102362000D01*
X181864000Y-102362000D01*
X181864000Y-104715579D01*
X181857919Y-105656527D01*
X181838314Y-106375300D01*
X181803139Y-106903462D01*
X181750349Y-107272578D01*
X181683504Y-107501144D01*
X181373946Y-107940044D01*
X180914251Y-108219914D01*
X180365674Y-108322538D01*
X179789470Y-108229702D01*
X179561688Y-108132064D01*
X179321962Y-107979899D01*
X179138817Y-107780809D01*
X179004949Y-107501332D01*
X178913056Y-107108009D01*
X178855835Y-106567379D01*
X178825982Y-105845981D01*
X178816194Y-104910356D01*
X178816000Y-104715579D01*
X178816000Y-102362000D01*
X175532069Y-102362000D01*
X175491284Y-105102489D01*
X175450500Y-107842978D01*
X174976115Y-108277489D01*
X174445722Y-108620934D01*
X173887473Y-108715669D01*
X173320857Y-108559609D01*
X173164500Y-108471404D01*
X172989561Y-108328190D01*
X172659002Y-108025829D01*
X172195409Y-107586164D01*
X171621370Y-107031040D01*
X170959469Y-106382303D01*
X170232294Y-105661797D01*
X169462431Y-104891368D01*
X169449750Y-104878613D01*
X168589926Y-104013237D01*
X167892320Y-103308091D01*
X167339976Y-102743367D01*
X166975839Y-102362000D01*
X171270115Y-102362000D01*
X171831000Y-102933500D01*
X172126841Y-103229447D01*
X172343588Y-103435965D01*
X172428942Y-103505000D01*
X172451053Y-103391369D01*
X172464307Y-103103905D01*
X172466000Y-102933500D01*
X172466000Y-102362000D01*
X171270115Y-102362000D01*
X166975839Y-102362000D01*
X166915936Y-102299263D01*
X166603243Y-101955972D01*
X166384941Y-101693690D01*
X166244072Y-101492611D01*
X166163679Y-101332931D01*
X166126805Y-101194844D01*
X166116493Y-101058545D01*
X166116000Y-100984927D01*
X166212858Y-100324078D01*
X166501851Y-99826268D01*
X166923348Y-99521625D01*
X167120709Y-99447884D01*
X167382906Y-99393241D01*
X167747104Y-99355114D01*
X168250466Y-99330922D01*
X168930158Y-99318085D01*
X169823344Y-99314023D01*
X169913443Y-99314000D01*
X172466000Y-99314000D01*
X172466000Y-96421098D01*
X171100750Y-96371449D01*
X170336417Y-96324603D01*
X169781297Y-96237447D01*
X169391740Y-96093661D01*
X169124093Y-95876925D01*
X168934707Y-95570921D01*
X168929573Y-95559743D01*
X168805772Y-95091300D01*
X168801568Y-94575505D01*
X168913072Y-94129249D01*
X168981209Y-94007532D01*
X169160334Y-93786389D01*
X169370624Y-93620065D01*
X169649049Y-93500966D01*
X170032581Y-93421503D01*
X170558187Y-93374082D01*
X171262839Y-93351112D01*
X172183507Y-93345002D01*
X172207558Y-93345000D01*
X174501730Y-93345000D01*
X174976115Y-93779475D01*
G36*
X148939433Y-93483456D02*
X149131232Y-93580293D01*
X149367841Y-93742987D01*
X149547096Y-93923892D01*
X149676879Y-94158987D01*
X149765070Y-94484246D01*
X149819551Y-94935645D01*
X149848203Y-95549161D01*
X149858907Y-96360771D01*
X149860000Y-96906975D01*
X149860000Y-99314000D01*
X153670000Y-99314000D01*
X153670000Y-96894693D01*
X153675237Y-95939176D01*
X153696327Y-95202879D01*
X153741341Y-94651143D01*
X153818348Y-94249305D01*
X153935417Y-93962707D01*
X154100618Y-93756688D01*
X154322019Y-93596587D01*
X154454818Y-93523700D01*
X154973615Y-93380037D01*
X155532262Y-93420523D01*
X156026960Y-93632111D01*
X156159176Y-93737908D01*
X156346793Y-93952545D01*
X156488489Y-94221071D01*
X156590210Y-94579476D01*
X156657900Y-95063749D01*
X156697505Y-95709881D01*
X156714969Y-96553861D01*
X156717291Y-97116613D01*
X156718000Y-99300726D01*
X162579976Y-99377500D01*
X163014488Y-99851884D01*
X163449000Y-100326269D01*
X163449000Y-102810941D01*
X163449218Y-103835024D01*
X163432141Y-104645069D01*
X163371173Y-105266127D01*
X163239717Y-105723247D01*
X163011178Y-106041478D01*
X162658958Y-106245871D01*
X162156462Y-106361475D01*
X161477092Y-106413341D01*
X160594253Y-106426517D01*
X159610741Y-106426000D01*
X156718000Y-106426000D01*
X156718000Y-106874579D01*
X156619726Y-107535622D01*
X156350371Y-108074627D01*
X155948134Y-108464569D01*
X155451213Y-108678423D01*
X154897808Y-108689166D01*
X154401846Y-108513195D01*
X153996448Y-108153646D01*
X153746856Y-107617343D01*
X153670000Y-107003806D01*
X153670000Y-106426000D01*
X150766127Y-106426000D01*
X149831795Y-106424980D01*
X149116920Y-106419974D01*
X148586960Y-106408058D01*
X148207373Y-106386310D01*
X147943618Y-106351807D01*
X147761153Y-106301626D01*
X147625437Y-106232845D01*
X147512237Y-106150676D01*
X147098095Y-105689610D01*
X146901498Y-105168373D01*
X146912330Y-104637974D01*
X147120479Y-104149424D01*
X147515828Y-103753731D01*
X148034665Y-103515980D01*
X148318671Y-103472539D01*
X148810721Y-103435034D01*
X149464889Y-103405524D01*
X150235249Y-103386066D01*
X151075875Y-103378719D01*
X151098250Y-103378708D01*
X153670000Y-103378000D01*
X153670000Y-102362000D01*
X156718000Y-102362000D01*
X156718000Y-103378000D01*
X160401000Y-103378000D01*
X160401000Y-102362000D01*
X156718000Y-102362000D01*
X153670000Y-102362000D01*
X150766127Y-102362000D01*
X149723811Y-102362748D01*
X148882619Y-102348634D01*
X148221030Y-102295121D01*
X147717524Y-102177672D01*
X147350583Y-101971750D01*
X147098685Y-101652818D01*
X146940310Y-101196339D01*
X146853939Y-100577775D01*
X146818053Y-99772591D01*
X146811129Y-98756247D01*
X146812000Y-97853500D01*
X146815232Y-96783095D01*
X146828015Y-95934893D01*
X146854974Y-95277147D01*
X146900736Y-94778106D01*
X146969925Y-94406023D01*
X147067169Y-94129148D01*
X147197094Y-93915733D01*
X147364325Y-93734029D01*
X147419614Y-93683487D01*
X147865998Y-93441233D01*
X148405240Y-93372588D01*
X148939433Y-93483456D01*
X148939433Y-93483456D01*
G37*
X148939433Y-93483456D02*
X149131232Y-93580293D01*
X149367841Y-93742987D01*
X149547096Y-93923892D01*
X149676879Y-94158987D01*
X149765070Y-94484246D01*
X149819551Y-94935645D01*
X149848203Y-95549161D01*
X149858907Y-96360771D01*
X149860000Y-96906975D01*
X149860000Y-99314000D01*
X153670000Y-99314000D01*
X153670000Y-96894693D01*
X153675237Y-95939176D01*
X153696327Y-95202879D01*
X153741341Y-94651143D01*
X153818348Y-94249305D01*
X153935417Y-93962707D01*
X154100618Y-93756688D01*
X154322019Y-93596587D01*
X154454818Y-93523700D01*
X154973615Y-93380037D01*
X155532262Y-93420523D01*
X156026960Y-93632111D01*
X156159176Y-93737908D01*
X156346793Y-93952545D01*
X156488489Y-94221071D01*
X156590210Y-94579476D01*
X156657900Y-95063749D01*
X156697505Y-95709881D01*
X156714969Y-96553861D01*
X156717291Y-97116613D01*
X156718000Y-99300726D01*
X162579976Y-99377500D01*
X163014488Y-99851884D01*
X163449000Y-100326269D01*
X163449000Y-102810941D01*
X163449218Y-103835024D01*
X163432141Y-104645069D01*
X163371173Y-105266127D01*
X163239717Y-105723247D01*
X163011178Y-106041478D01*
X162658958Y-106245871D01*
X162156462Y-106361475D01*
X161477092Y-106413341D01*
X160594253Y-106426517D01*
X159610741Y-106426000D01*
X156718000Y-106426000D01*
X156718000Y-106874579D01*
X156619726Y-107535622D01*
X156350371Y-108074627D01*
X155948134Y-108464569D01*
X155451213Y-108678423D01*
X154897808Y-108689166D01*
X154401846Y-108513195D01*
X153996448Y-108153646D01*
X153746856Y-107617343D01*
X153670000Y-107003806D01*
X153670000Y-106426000D01*
X150766127Y-106426000D01*
X149831795Y-106424980D01*
X149116920Y-106419974D01*
X148586960Y-106408058D01*
X148207373Y-106386310D01*
X147943618Y-106351807D01*
X147761153Y-106301626D01*
X147625437Y-106232845D01*
X147512237Y-106150676D01*
X147098095Y-105689610D01*
X146901498Y-105168373D01*
X146912330Y-104637974D01*
X147120479Y-104149424D01*
X147515828Y-103753731D01*
X148034665Y-103515980D01*
X148318671Y-103472539D01*
X148810721Y-103435034D01*
X149464889Y-103405524D01*
X150235249Y-103386066D01*
X151075875Y-103378719D01*
X151098250Y-103378708D01*
X153670000Y-103378000D01*
X153670000Y-102362000D01*
X156718000Y-102362000D01*
X156718000Y-103378000D01*
X160401000Y-103378000D01*
X160401000Y-102362000D01*
X156718000Y-102362000D01*
X153670000Y-102362000D01*
X150766127Y-102362000D01*
X149723811Y-102362748D01*
X148882619Y-102348634D01*
X148221030Y-102295121D01*
X147717524Y-102177672D01*
X147350583Y-101971750D01*
X147098685Y-101652818D01*
X146940310Y-101196339D01*
X146853939Y-100577775D01*
X146818053Y-99772591D01*
X146811129Y-98756247D01*
X146812000Y-97853500D01*
X146815232Y-96783095D01*
X146828015Y-95934893D01*
X146854974Y-95277147D01*
X146900736Y-94778106D01*
X146969925Y-94406023D01*
X147067169Y-94129148D01*
X147197094Y-93915733D01*
X147364325Y-93734029D01*
X147419614Y-93683487D01*
X147865998Y-93441233D01*
X148405240Y-93372588D01*
X148939433Y-93483456D01*
G36*
X131585816Y-81855607D02*
X132084538Y-82127297D01*
X132463869Y-82597957D01*
X132539889Y-82757744D01*
X132571004Y-82869309D01*
X132598367Y-83055611D01*
X132622199Y-83331467D01*
X132642721Y-83711695D01*
X132660155Y-84211112D01*
X132674721Y-84844533D01*
X132686642Y-85626777D01*
X132696138Y-86572661D01*
X132703431Y-87697000D01*
X132708742Y-89014613D01*
X132712292Y-90540316D01*
X132714302Y-92288926D01*
X132714994Y-94275260D01*
X132715000Y-94483920D01*
X132715000Y-105791000D01*
X143383000Y-105791000D01*
X143383197Y-103409750D01*
X143389862Y-102435100D01*
X143415751Y-101679760D01*
X143469973Y-101109241D01*
X143561640Y-100689054D01*
X143699863Y-100384711D01*
X143893753Y-100161723D01*
X144152420Y-99985601D01*
X144309272Y-99904152D01*
X144892406Y-99736958D01*
X145437394Y-99820561D01*
X145937142Y-100153663D01*
X145996004Y-100212705D01*
X146367500Y-100600247D01*
X146405201Y-104043952D01*
X146415177Y-105153415D01*
X146415528Y-106038770D01*
X146402341Y-106729842D01*
X146371698Y-107256460D01*
X146319686Y-107648450D01*
X146242388Y-107935639D01*
X146135888Y-108147854D01*
X145996271Y-108314922D01*
X145825182Y-108462304D01*
X145751100Y-108514694D01*
X145659314Y-108559198D01*
X145529848Y-108596458D01*
X145342724Y-108627118D01*
X145077969Y-108651819D01*
X144715605Y-108671203D01*
X144235657Y-108685914D01*
X143618149Y-108696593D01*
X142843106Y-108703883D01*
X141890551Y-108708426D01*
X140740509Y-108710864D01*
X139373003Y-108711840D01*
X138060131Y-108712000D01*
X136477884Y-108711371D01*
X135130278Y-108709156D01*
X133997955Y-108704858D01*
X133061560Y-108697980D01*
X132301735Y-108688026D01*
X131699124Y-108674500D01*
X131234369Y-108656905D01*
X130888113Y-108634746D01*
X130641001Y-108607525D01*
X130473674Y-108574747D01*
X130366776Y-108535915D01*
X130329532Y-108513790D01*
X130221653Y-108440707D01*
X130126150Y-108371554D01*
X130042270Y-108291261D01*
X129969261Y-108184757D01*
X129906370Y-108036973D01*
X129852843Y-107832836D01*
X129807930Y-107557278D01*
X129770875Y-107195227D01*
X129740928Y-106731613D01*
X129717334Y-106151366D01*
X129699342Y-105439414D01*
X129686198Y-104580689D01*
X129677150Y-103560118D01*
X129671445Y-102362632D01*
X129668329Y-100973161D01*
X129667051Y-99376633D01*
X129666858Y-97557978D01*
X129666996Y-95502126D01*
X129667000Y-95249999D01*
X129666794Y-93158421D01*
X129666746Y-91305917D01*
X129667708Y-89677564D01*
X129670533Y-88258437D01*
X129676071Y-87033611D01*
X129685177Y-85988163D01*
X129698702Y-85107168D01*
X129717499Y-84375702D01*
X129742420Y-83778840D01*
X129774317Y-83301659D01*
X129814043Y-82929233D01*
X129862451Y-82646639D01*
X129920391Y-82438952D01*
X129988718Y-82291248D01*
X130068283Y-82188603D01*
X130159938Y-82116092D01*
X130264536Y-82058790D01*
X130382930Y-82001775D01*
X130424842Y-81980649D01*
X131016365Y-81800765D01*
X131585816Y-81855607D01*
X131585816Y-81855607D01*
G37*
X131585816Y-81855607D02*
X132084538Y-82127297D01*
X132463869Y-82597957D01*
X132539889Y-82757744D01*
X132571004Y-82869309D01*
X132598367Y-83055611D01*
X132622199Y-83331467D01*
X132642721Y-83711695D01*
X132660155Y-84211112D01*
X132674721Y-84844533D01*
X132686642Y-85626777D01*
X132696138Y-86572661D01*
X132703431Y-87697000D01*
X132708742Y-89014613D01*
X132712292Y-90540316D01*
X132714302Y-92288926D01*
X132714994Y-94275260D01*
X132715000Y-94483920D01*
X132715000Y-105791000D01*
X143383000Y-105791000D01*
X143383197Y-103409750D01*
X143389862Y-102435100D01*
X143415751Y-101679760D01*
X143469973Y-101109241D01*
X143561640Y-100689054D01*
X143699863Y-100384711D01*
X143893753Y-100161723D01*
X144152420Y-99985601D01*
X144309272Y-99904152D01*
X144892406Y-99736958D01*
X145437394Y-99820561D01*
X145937142Y-100153663D01*
X145996004Y-100212705D01*
X146367500Y-100600247D01*
X146405201Y-104043952D01*
X146415177Y-105153415D01*
X146415528Y-106038770D01*
X146402341Y-106729842D01*
X146371698Y-107256460D01*
X146319686Y-107648450D01*
X146242388Y-107935639D01*
X146135888Y-108147854D01*
X145996271Y-108314922D01*
X145825182Y-108462304D01*
X145751100Y-108514694D01*
X145659314Y-108559198D01*
X145529848Y-108596458D01*
X145342724Y-108627118D01*
X145077969Y-108651819D01*
X144715605Y-108671203D01*
X144235657Y-108685914D01*
X143618149Y-108696593D01*
X142843106Y-108703883D01*
X141890551Y-108708426D01*
X140740509Y-108710864D01*
X139373003Y-108711840D01*
X138060131Y-108712000D01*
X136477884Y-108711371D01*
X135130278Y-108709156D01*
X133997955Y-108704858D01*
X133061560Y-108697980D01*
X132301735Y-108688026D01*
X131699124Y-108674500D01*
X131234369Y-108656905D01*
X130888113Y-108634746D01*
X130641001Y-108607525D01*
X130473674Y-108574747D01*
X130366776Y-108535915D01*
X130329532Y-108513790D01*
X130221653Y-108440707D01*
X130126150Y-108371554D01*
X130042270Y-108291261D01*
X129969261Y-108184757D01*
X129906370Y-108036973D01*
X129852843Y-107832836D01*
X129807930Y-107557278D01*
X129770875Y-107195227D01*
X129740928Y-106731613D01*
X129717334Y-106151366D01*
X129699342Y-105439414D01*
X129686198Y-104580689D01*
X129677150Y-103560118D01*
X129671445Y-102362632D01*
X129668329Y-100973161D01*
X129667051Y-99376633D01*
X129666858Y-97557978D01*
X129666996Y-95502126D01*
X129667000Y-95249999D01*
X129666794Y-93158421D01*
X129666746Y-91305917D01*
X129667708Y-89677564D01*
X129670533Y-88258437D01*
X129676071Y-87033611D01*
X129685177Y-85988163D01*
X129698702Y-85107168D01*
X129717499Y-84375702D01*
X129742420Y-83778840D01*
X129774317Y-83301659D01*
X129814043Y-82929233D01*
X129862451Y-82646639D01*
X129920391Y-82438952D01*
X129988718Y-82291248D01*
X130068283Y-82188603D01*
X130159938Y-82116092D01*
X130264536Y-82058790D01*
X130382930Y-82001775D01*
X130424842Y-81980649D01*
X131016365Y-81800765D01*
X131585816Y-81855607D01*
G36*
X123349324Y-99377724D02*
X124565476Y-99378959D01*
X125571010Y-99382051D01*
X126387619Y-99387843D01*
X127036994Y-99397180D01*
X127540825Y-99410905D01*
X127920805Y-99429865D01*
X128198624Y-99454903D01*
X128395974Y-99486863D01*
X128534547Y-99526591D01*
X128636034Y-99574930D01*
X128722125Y-99632725D01*
X128736896Y-99643629D01*
X129095118Y-100045582D01*
X129304056Y-100560849D01*
X129331100Y-101093071D01*
X129288711Y-101274285D01*
X129155550Y-101484234D01*
X128841195Y-101862269D01*
X128350332Y-102403374D01*
X127687647Y-103102533D01*
X126857826Y-103954731D01*
X125865557Y-104954950D01*
X125628971Y-105191323D01*
X122100043Y-108712000D01*
X118676271Y-108703949D01*
X117755140Y-108697666D01*
X116906457Y-108684065D01*
X116166702Y-108664352D01*
X115572353Y-108639734D01*
X115159891Y-108611416D01*
X114967552Y-108581339D01*
X114570390Y-108297498D01*
X114315736Y-107865115D01*
X114211759Y-107351212D01*
X114266630Y-106822813D01*
X114488516Y-106346944D01*
X114670517Y-106144369D01*
X115066007Y-105791000D01*
X120822017Y-105791000D01*
X122545758Y-104077725D01*
X124269500Y-102364451D01*
X119976943Y-102363225D01*
X118739902Y-102361700D01*
X117731120Y-102355409D01*
X116924857Y-102340619D01*
X116295372Y-102313592D01*
X115816927Y-102270594D01*
X115463781Y-102207889D01*
X115210194Y-102121741D01*
X115030428Y-102008415D01*
X114898743Y-101864175D01*
X114789398Y-101685286D01*
X114746649Y-101604157D01*
X114556372Y-101010112D01*
X114617893Y-100448504D01*
X114931589Y-99916601D01*
X114988717Y-99851884D01*
X115423434Y-99377500D01*
X121900863Y-99377500D01*
X123349324Y-99377724D01*
X123349324Y-99377724D01*
G37*
X123349324Y-99377724D02*
X124565476Y-99378959D01*
X125571010Y-99382051D01*
X126387619Y-99387843D01*
X127036994Y-99397180D01*
X127540825Y-99410905D01*
X127920805Y-99429865D01*
X128198624Y-99454903D01*
X128395974Y-99486863D01*
X128534547Y-99526591D01*
X128636034Y-99574930D01*
X128722125Y-99632725D01*
X128736896Y-99643629D01*
X129095118Y-100045582D01*
X129304056Y-100560849D01*
X129331100Y-101093071D01*
X129288711Y-101274285D01*
X129155550Y-101484234D01*
X128841195Y-101862269D01*
X128350332Y-102403374D01*
X127687647Y-103102533D01*
X126857826Y-103954731D01*
X125865557Y-104954950D01*
X125628971Y-105191323D01*
X122100043Y-108712000D01*
X118676271Y-108703949D01*
X117755140Y-108697666D01*
X116906457Y-108684065D01*
X116166702Y-108664352D01*
X115572353Y-108639734D01*
X115159891Y-108611416D01*
X114967552Y-108581339D01*
X114570390Y-108297498D01*
X114315736Y-107865115D01*
X114211759Y-107351212D01*
X114266630Y-106822813D01*
X114488516Y-106346944D01*
X114670517Y-106144369D01*
X115066007Y-105791000D01*
X120822017Y-105791000D01*
X122545758Y-104077725D01*
X124269500Y-102364451D01*
X119976943Y-102363225D01*
X118739902Y-102361700D01*
X117731120Y-102355409D01*
X116924857Y-102340619D01*
X116295372Y-102313592D01*
X115816927Y-102270594D01*
X115463781Y-102207889D01*
X115210194Y-102121741D01*
X115030428Y-102008415D01*
X114898743Y-101864175D01*
X114789398Y-101685286D01*
X114746649Y-101604157D01*
X114556372Y-101010112D01*
X114617893Y-100448504D01*
X114931589Y-99916601D01*
X114988717Y-99851884D01*
X115423434Y-99377500D01*
X121900863Y-99377500D01*
X123349324Y-99377724D01*
G36*
X113133737Y-106150269D02*
X113477792Y-106623413D01*
X113613646Y-107160788D01*
X113547108Y-107700654D01*
X113283988Y-108181269D01*
X112913102Y-108495330D01*
X112828705Y-108536237D01*
X112712038Y-108571659D01*
X112545568Y-108601973D01*
X112311761Y-108627558D01*
X111993084Y-108648792D01*
X111572002Y-108666054D01*
X111030982Y-108679720D01*
X110352490Y-108690171D01*
X109518992Y-108697783D01*
X108512954Y-108702935D01*
X107316843Y-108706006D01*
X105913125Y-108707373D01*
X104284265Y-108707415D01*
X103104404Y-108706915D01*
X101287710Y-108705302D01*
X99708510Y-108702345D01*
X98350299Y-108697731D01*
X97196575Y-108691146D01*
X96230832Y-108682275D01*
X95436568Y-108670805D01*
X94797277Y-108656423D01*
X94296457Y-108638814D01*
X93917602Y-108617666D01*
X93644210Y-108592663D01*
X93459776Y-108563493D01*
X93347796Y-108529842D01*
X93329947Y-108521107D01*
X92926649Y-108171188D01*
X92695884Y-107695077D01*
X92643617Y-107158344D01*
X92775813Y-106626555D01*
X93098436Y-106165277D01*
X93114262Y-106150269D01*
X93498861Y-105791000D01*
X112749138Y-105791000D01*
X113133737Y-106150269D01*
X113133737Y-106150269D01*
G37*
X113133737Y-106150269D02*
X113477792Y-106623413D01*
X113613646Y-107160788D01*
X113547108Y-107700654D01*
X113283988Y-108181269D01*
X112913102Y-108495330D01*
X112828705Y-108536237D01*
X112712038Y-108571659D01*
X112545568Y-108601973D01*
X112311761Y-108627558D01*
X111993084Y-108648792D01*
X111572002Y-108666054D01*
X111030982Y-108679720D01*
X110352490Y-108690171D01*
X109518992Y-108697783D01*
X108512954Y-108702935D01*
X107316843Y-108706006D01*
X105913125Y-108707373D01*
X104284265Y-108707415D01*
X103104404Y-108706915D01*
X101287710Y-108705302D01*
X99708510Y-108702345D01*
X98350299Y-108697731D01*
X97196575Y-108691146D01*
X96230832Y-108682275D01*
X95436568Y-108670805D01*
X94797277Y-108656423D01*
X94296457Y-108638814D01*
X93917602Y-108617666D01*
X93644210Y-108592663D01*
X93459776Y-108563493D01*
X93347796Y-108529842D01*
X93329947Y-108521107D01*
X92926649Y-108171188D01*
X92695884Y-107695077D01*
X92643617Y-107158344D01*
X92775813Y-106626555D01*
X93098436Y-106165277D01*
X93114262Y-106150269D01*
X93498861Y-105791000D01*
X112749138Y-105791000D01*
X113133737Y-106150269D01*
G36*
X112360651Y-81459663D02*
X112755815Y-81587365D01*
X112774597Y-81596774D01*
X112941200Y-81681704D01*
X113081645Y-81763936D01*
X113198161Y-81864540D01*
X113292980Y-82004583D01*
X113368333Y-82205137D01*
X113426449Y-82487269D01*
X113469559Y-82872049D01*
X113499894Y-83380545D01*
X113519685Y-84033828D01*
X113531162Y-84852966D01*
X113536555Y-85859028D01*
X113538096Y-87073083D01*
X113538014Y-88516201D01*
X113538000Y-88807565D01*
X113537908Y-90315955D01*
X113536117Y-91591143D01*
X113530351Y-92653925D01*
X113518333Y-93525097D01*
X113497788Y-94225455D01*
X113466440Y-94775797D01*
X113422014Y-95196918D01*
X113362234Y-95509616D01*
X113284824Y-95734686D01*
X113187508Y-95892926D01*
X113068010Y-96005131D01*
X112924055Y-96092099D01*
X112753368Y-96174625D01*
X112730651Y-96185374D01*
X112602660Y-96234836D01*
X112430664Y-96275896D01*
X112191764Y-96309312D01*
X111863063Y-96335844D01*
X111421662Y-96356251D01*
X110844663Y-96371291D01*
X110109170Y-96381725D01*
X109192282Y-96388312D01*
X108071103Y-96391809D01*
X106722735Y-96392978D01*
X106468234Y-96393000D01*
X100643356Y-96393000D01*
X99187000Y-97853500D01*
X97730643Y-99314000D01*
X105031071Y-99314197D01*
X106649506Y-99314177D01*
X108033428Y-99315450D01*
X109202326Y-99320159D01*
X110175686Y-99330446D01*
X110972994Y-99348452D01*
X111613737Y-99376320D01*
X112117403Y-99416191D01*
X112503478Y-99470209D01*
X112791448Y-99540514D01*
X113000801Y-99629249D01*
X113151024Y-99738556D01*
X113261602Y-99870577D01*
X113352024Y-100027455D01*
X113441775Y-100211330D01*
X113455847Y-100240272D01*
X113623043Y-100823384D01*
X113539447Y-101368313D01*
X113206355Y-101867972D01*
X113147126Y-101927004D01*
X112759415Y-102298500D01*
X94679919Y-102367028D01*
X91498485Y-105539514D01*
X90656986Y-106377772D01*
X89974677Y-107053687D01*
X89431299Y-107584677D01*
X89006593Y-107988162D01*
X88680301Y-108281561D01*
X88432165Y-108482293D01*
X88241927Y-108607776D01*
X88089327Y-108675430D01*
X87954107Y-108702674D01*
X87816009Y-108706927D01*
X87814775Y-108706915D01*
X87386137Y-108654177D01*
X87001790Y-108531926D01*
X86964846Y-108513195D01*
X86561666Y-108162237D01*
X86313028Y-107675775D01*
X86244673Y-107135321D01*
X86373291Y-106639900D01*
X86487327Y-106499974D01*
X86764454Y-106198058D01*
X87187856Y-105751463D01*
X87740717Y-105177503D01*
X88406223Y-104493490D01*
X89167556Y-103716736D01*
X90007902Y-102864554D01*
X90910445Y-101954257D01*
X91484438Y-101377750D01*
X96455294Y-96393000D01*
X92229068Y-96393000D01*
X91001158Y-96391450D01*
X90000345Y-96384736D01*
X89199733Y-96369762D01*
X88572429Y-96343430D01*
X88091536Y-96302642D01*
X87730160Y-96244303D01*
X87461406Y-96165315D01*
X87258379Y-96062580D01*
X87094184Y-95933003D01*
X86952487Y-95785385D01*
X86719299Y-95354031D01*
X86641849Y-94824860D01*
X86729141Y-94307387D01*
X86815713Y-94122216D01*
X86922193Y-93947654D01*
X87032441Y-93801407D01*
X87168585Y-93680969D01*
X87352753Y-93583834D01*
X87607074Y-93507497D01*
X87953676Y-93449452D01*
X88414687Y-93407194D01*
X89012236Y-93378217D01*
X89768452Y-93360016D01*
X90705461Y-93350085D01*
X91845394Y-93345918D01*
X93210377Y-93345011D01*
X93679911Y-93345000D01*
X103701107Y-93345000D01*
X105918000Y-93345000D01*
X105918000Y-92265500D01*
X105914246Y-91777635D01*
X105904228Y-91404532D01*
X105889814Y-91204505D01*
X105883446Y-91186000D01*
X105785994Y-91270523D01*
X105545989Y-91500762D01*
X105199369Y-91841718D01*
X104782070Y-92258393D01*
X104775000Y-92265500D01*
X103701107Y-93345000D01*
X93679911Y-93345000D01*
X99500937Y-93344999D01*
X104783721Y-88066548D01*
X108966000Y-88066548D01*
X108966000Y-93345000D01*
X110617000Y-93345000D01*
X110617000Y-89979500D01*
X110613694Y-89084816D01*
X110604376Y-88279604D01*
X110589946Y-87596893D01*
X110571300Y-87069710D01*
X110549338Y-86731084D01*
X110525432Y-86614000D01*
X110398614Y-86697451D01*
X110142467Y-86919249D01*
X109805678Y-87236559D01*
X109699932Y-87340274D01*
X108966000Y-88066548D01*
X104783721Y-88066548D01*
X105474837Y-87375999D01*
X106658040Y-86194202D01*
X107675575Y-85179486D01*
X108541187Y-84319139D01*
X109268623Y-83600445D01*
X109871629Y-83010691D01*
X110363949Y-82537162D01*
X110759331Y-82167145D01*
X111071519Y-81887925D01*
X111314260Y-81686788D01*
X111501298Y-81551020D01*
X111646381Y-81467907D01*
X111763254Y-81424735D01*
X111865662Y-81408789D01*
X111928175Y-81407000D01*
X112360651Y-81459663D01*
X112360651Y-81459663D01*
G37*
X112360651Y-81459663D02*
X112755815Y-81587365D01*
X112774597Y-81596774D01*
X112941200Y-81681704D01*
X113081645Y-81763936D01*
X113198161Y-81864540D01*
X113292980Y-82004583D01*
X113368333Y-82205137D01*
X113426449Y-82487269D01*
X113469559Y-82872049D01*
X113499894Y-83380545D01*
X113519685Y-84033828D01*
X113531162Y-84852966D01*
X113536555Y-85859028D01*
X113538096Y-87073083D01*
X113538014Y-88516201D01*
X113538000Y-88807565D01*
X113537908Y-90315955D01*
X113536117Y-91591143D01*
X113530351Y-92653925D01*
X113518333Y-93525097D01*
X113497788Y-94225455D01*
X113466440Y-94775797D01*
X113422014Y-95196918D01*
X113362234Y-95509616D01*
X113284824Y-95734686D01*
X113187508Y-95892926D01*
X113068010Y-96005131D01*
X112924055Y-96092099D01*
X112753368Y-96174625D01*
X112730651Y-96185374D01*
X112602660Y-96234836D01*
X112430664Y-96275896D01*
X112191764Y-96309312D01*
X111863063Y-96335844D01*
X111421662Y-96356251D01*
X110844663Y-96371291D01*
X110109170Y-96381725D01*
X109192282Y-96388312D01*
X108071103Y-96391809D01*
X106722735Y-96392978D01*
X106468234Y-96393000D01*
X100643356Y-96393000D01*
X99187000Y-97853500D01*
X97730643Y-99314000D01*
X105031071Y-99314197D01*
X106649506Y-99314177D01*
X108033428Y-99315450D01*
X109202326Y-99320159D01*
X110175686Y-99330446D01*
X110972994Y-99348452D01*
X111613737Y-99376320D01*
X112117403Y-99416191D01*
X112503478Y-99470209D01*
X112791448Y-99540514D01*
X113000801Y-99629249D01*
X113151024Y-99738556D01*
X113261602Y-99870577D01*
X113352024Y-100027455D01*
X113441775Y-100211330D01*
X113455847Y-100240272D01*
X113623043Y-100823384D01*
X113539447Y-101368313D01*
X113206355Y-101867972D01*
X113147126Y-101927004D01*
X112759415Y-102298500D01*
X94679919Y-102367028D01*
X91498485Y-105539514D01*
X90656986Y-106377772D01*
X89974677Y-107053687D01*
X89431299Y-107584677D01*
X89006593Y-107988162D01*
X88680301Y-108281561D01*
X88432165Y-108482293D01*
X88241927Y-108607776D01*
X88089327Y-108675430D01*
X87954107Y-108702674D01*
X87816009Y-108706927D01*
X87814775Y-108706915D01*
X87386137Y-108654177D01*
X87001790Y-108531926D01*
X86964846Y-108513195D01*
X86561666Y-108162237D01*
X86313028Y-107675775D01*
X86244673Y-107135321D01*
X86373291Y-106639900D01*
X86487327Y-106499974D01*
X86764454Y-106198058D01*
X87187856Y-105751463D01*
X87740717Y-105177503D01*
X88406223Y-104493490D01*
X89167556Y-103716736D01*
X90007902Y-102864554D01*
X90910445Y-101954257D01*
X91484438Y-101377750D01*
X96455294Y-96393000D01*
X92229068Y-96393000D01*
X91001158Y-96391450D01*
X90000345Y-96384736D01*
X89199733Y-96369762D01*
X88572429Y-96343430D01*
X88091536Y-96302642D01*
X87730160Y-96244303D01*
X87461406Y-96165315D01*
X87258379Y-96062580D01*
X87094184Y-95933003D01*
X86952487Y-95785385D01*
X86719299Y-95354031D01*
X86641849Y-94824860D01*
X86729141Y-94307387D01*
X86815713Y-94122216D01*
X86922193Y-93947654D01*
X87032441Y-93801407D01*
X87168585Y-93680969D01*
X87352753Y-93583834D01*
X87607074Y-93507497D01*
X87953676Y-93449452D01*
X88414687Y-93407194D01*
X89012236Y-93378217D01*
X89768452Y-93360016D01*
X90705461Y-93350085D01*
X91845394Y-93345918D01*
X93210377Y-93345011D01*
X93679911Y-93345000D01*
X103701107Y-93345000D01*
X105918000Y-93345000D01*
X105918000Y-92265500D01*
X105914246Y-91777635D01*
X105904228Y-91404532D01*
X105889814Y-91204505D01*
X105883446Y-91186000D01*
X105785994Y-91270523D01*
X105545989Y-91500762D01*
X105199369Y-91841718D01*
X104782070Y-92258393D01*
X104775000Y-92265500D01*
X103701107Y-93345000D01*
X93679911Y-93345000D01*
X99500937Y-93344999D01*
X104783721Y-88066548D01*
X108966000Y-88066548D01*
X108966000Y-93345000D01*
X110617000Y-93345000D01*
X110617000Y-89979500D01*
X110613694Y-89084816D01*
X110604376Y-88279604D01*
X110589946Y-87596893D01*
X110571300Y-87069710D01*
X110549338Y-86731084D01*
X110525432Y-86614000D01*
X110398614Y-86697451D01*
X110142467Y-86919249D01*
X109805678Y-87236559D01*
X109699932Y-87340274D01*
X108966000Y-88066548D01*
X104783721Y-88066548D01*
X105474837Y-87375999D01*
X106658040Y-86194202D01*
X107675575Y-85179486D01*
X108541187Y-84319139D01*
X109268623Y-83600445D01*
X109871629Y-83010691D01*
X110363949Y-82537162D01*
X110759331Y-82167145D01*
X111071519Y-81887925D01*
X111314260Y-81686788D01*
X111501298Y-81551020D01*
X111646381Y-81467907D01*
X111763254Y-81424735D01*
X111865662Y-81408789D01*
X111928175Y-81407000D01*
X112360651Y-81459663D01*
D15*
G04 #@! TO.C,LED11*
X207137000Y-89956000D02*
X209637000Y-92456000D01*
X204637000Y-91456000D02*
X204637000Y-93456000D01*
X207637000Y-89956000D02*
X206637000Y-89956000D01*
X207637000Y-94956000D02*
X206637000Y-94956000D01*
X209637000Y-91456000D02*
X209637000Y-93456000D01*
G04 #@! TO.C,LED10*
X207137000Y-110657000D02*
X209637000Y-113157000D01*
X204637000Y-112157000D02*
X204637000Y-114157000D01*
X207637000Y-110657000D02*
X206637000Y-110657000D01*
X207637000Y-115657000D02*
X206637000Y-115657000D01*
X209637000Y-112157000D02*
X209637000Y-114157000D01*
G04 #@! TO.C,LED9*
X201656000Y-135502936D02*
X202571064Y-138918000D01*
X198740936Y-135551975D02*
X197740936Y-137284025D01*
X202089013Y-135752936D02*
X201222987Y-135252936D01*
X199589013Y-140083064D02*
X198722987Y-139583064D01*
X203071064Y-138051975D02*
X202071064Y-139784025D01*
G04 #@! TO.C,LED8*
X165441000Y-139954000D02*
X162941000Y-142454000D01*
X163941000Y-137454000D02*
X161941000Y-137454000D01*
X165441000Y-140454000D02*
X165441000Y-139454000D01*
X160441000Y-140454000D02*
X160441000Y-139454000D01*
X163941000Y-142454000D02*
X161941000Y-142454000D01*
G04 #@! TO.C,LED7*
X143300667Y-139954000D02*
X140800667Y-142454000D01*
X141800667Y-137454000D02*
X139800667Y-137454000D01*
X143300667Y-140454000D02*
X143300667Y-139454000D01*
X138300667Y-140454000D02*
X138300667Y-139454000D01*
X141800667Y-142454000D02*
X139800667Y-142454000D01*
G04 #@! TO.C,LED6*
X121160333Y-139954000D02*
X118660333Y-142454000D01*
X119660333Y-137454000D02*
X117660333Y-137454000D01*
X121160333Y-140454000D02*
X121160333Y-139454000D01*
X116160333Y-140454000D02*
X116160333Y-139454000D01*
X119660333Y-142454000D02*
X117660333Y-142454000D01*
G04 #@! TO.C,LED5*
X99020000Y-139954000D02*
X96520000Y-142454000D01*
X97520000Y-137454000D02*
X95520000Y-137454000D01*
X99020000Y-140454000D02*
X99020000Y-139454000D01*
X94020000Y-140454000D02*
X94020000Y-139454000D01*
X97520000Y-142454000D02*
X95520000Y-142454000D01*
G04 #@! TO.C,LED4*
X81534000Y-126198000D02*
X79034000Y-123698000D01*
X84034000Y-124698000D02*
X84034000Y-122698000D01*
X81034000Y-126198000D02*
X82034000Y-126198000D01*
X81034000Y-121198000D02*
X82034000Y-121198000D01*
X79034000Y-124698000D02*
X79034000Y-122698000D01*
G04 #@! TO.C,LED3*
X81534000Y-107148000D02*
X79034000Y-104648000D01*
X84034000Y-105648000D02*
X84034000Y-103648000D01*
X81034000Y-107148000D02*
X82034000Y-107148000D01*
X81034000Y-102148000D02*
X82034000Y-102148000D01*
X79034000Y-105648000D02*
X79034000Y-103648000D01*
G04 #@! TO.C,LED2*
X81534000Y-88098000D02*
X79034000Y-85598000D01*
X84034000Y-86598000D02*
X84034000Y-84598000D01*
X81034000Y-88098000D02*
X82034000Y-88098000D01*
X81034000Y-83098000D02*
X82034000Y-83098000D01*
X79034000Y-86598000D02*
X79034000Y-84598000D01*
D17*
G04 #@! TO.C,Q1*
X163717000Y-133853000D02*
X163717000Y-132923000D01*
X163717000Y-130693000D02*
X163717000Y-131623000D01*
X163717000Y-130693000D02*
X161557000Y-130693000D01*
X163717000Y-133853000D02*
X162257000Y-133853000D01*
D15*
G04 #@! TO.C,U9*
X131225427Y-61722000D02*
G75*
G03X131225427Y-61722000I-2828427J0D01*
G01*
G04 #@! TO.C,W1*
X120396000Y-64008000D02*
X120396000Y-61468000D01*
X120396000Y-61468000D02*
X116586000Y-61468000D01*
X116586000Y-61468000D02*
X116586000Y-64008000D01*
X116586000Y-64008000D02*
X120396000Y-64008000D01*
G04 #@! TO.C,U7*
X99348427Y-124968000D02*
G75*
G03X99348427Y-124968000I-2828427J0D01*
G01*
G04 #@! TO.C,U5*
X99348427Y-86614000D02*
G75*
G03X99348427Y-86614000I-2828427J0D01*
G01*
G04 #@! TO.C,U4*
X188629427Y-124714000D02*
G75*
G03X188629427Y-124714000I-2828427J0D01*
G01*
G04 #@! TO.C,U2*
X194598427Y-84074000D02*
G75*
G03X194598427Y-84074000I-2828427J0D01*
G01*
G04 #@! TO.C,U1*
X137448427Y-100838000D02*
G75*
G03X137448427Y-100838000I-2828427J0D01*
G01*
D17*
G04 #@! TO.C,R1*
X112037535Y-64064910D02*
X111161056Y-64219457D01*
X103962112Y-65488825D02*
X104838590Y-65334278D01*
X110933577Y-62929358D02*
X104611111Y-64044180D01*
X111388535Y-65509555D02*
X110933577Y-62929358D01*
X105066070Y-66624376D02*
X111388535Y-65509555D01*
X104611111Y-64044180D02*
X105066070Y-66624376D01*
G04 #@! TO.C,R2*
X133731000Y-69378000D02*
X133731000Y-68488000D01*
X133731000Y-61178000D02*
X133731000Y-62068000D01*
X135041000Y-68488000D02*
X135041000Y-62068000D01*
X132421000Y-68488000D02*
X135041000Y-68488000D01*
X132421000Y-62068000D02*
X132421000Y-68488000D01*
X135041000Y-62068000D02*
X132421000Y-62068000D01*
D15*
G04 #@! TO.C,U6*
X156845000Y-57150000D02*
X154305000Y-57150000D01*
X154305000Y-57150000D02*
X154305000Y-87630000D01*
X154305000Y-87630000D02*
X156845000Y-87630000D01*
X156845000Y-87630000D02*
X156845000Y-57150000D01*
X172085000Y-57150000D02*
X169545000Y-57150000D01*
X169545000Y-57150000D02*
X169545000Y-87630000D01*
X169545000Y-87630000D02*
X172085000Y-87630000D01*
X172085000Y-87630000D02*
X172085000Y-57150000D01*
G04 #@! TO.C,M1*
X170084000Y-116682000D02*
X158084000Y-116682000D01*
X170084000Y-128682000D02*
X170084000Y-116682000D01*
X158084000Y-128682000D02*
X170084000Y-128682000D01*
X158084000Y-116682000D02*
X158084000Y-128682000D01*
G04 #@! TO.C,J1*
X191262000Y-63754000D02*
X189992000Y-63754000D01*
X191262000Y-62484000D02*
X191262000Y-63754000D01*
X195072000Y-62484000D02*
X191262000Y-62484000D01*
X195072000Y-63754000D02*
X195072000Y-62484000D01*
X196342000Y-63754000D02*
X195072000Y-63754000D01*
X196342000Y-76454000D02*
X196342000Y-63754000D01*
X189992000Y-76454000D02*
X196342000Y-76454000D01*
X189992000Y-63754000D02*
X189992000Y-76454000D01*
G04 #@! TO.C,LED11*
X203998904Y-94841714D02*
X204237000Y-95508380D01*
X204475095Y-94841714D01*
X210351285Y-89241714D02*
X210351285Y-90051238D01*
X210303666Y-90146476D01*
X210256047Y-90194095D01*
X210160809Y-90241714D01*
X210017952Y-90241714D01*
X209922714Y-90194095D01*
X210351285Y-89860761D02*
X210256047Y-89908380D01*
X210065571Y-89908380D01*
X209970333Y-89860761D01*
X209922714Y-89813142D01*
X209875095Y-89717904D01*
X209875095Y-89432190D01*
X209922714Y-89336952D01*
X209970333Y-89289333D01*
X210065571Y-89241714D01*
X210256047Y-89241714D01*
X210351285Y-89289333D01*
X210065571Y-95608380D02*
X209970333Y-95560761D01*
X209922714Y-95513142D01*
X209875095Y-95417904D01*
X209875095Y-95132190D01*
X209922714Y-95036952D01*
X209970333Y-94989333D01*
X210065571Y-94941714D01*
X210208428Y-94941714D01*
X210303666Y-94989333D01*
X210351285Y-95036952D01*
X210398904Y-95132190D01*
X210398904Y-95417904D01*
X210351285Y-95513142D01*
X210303666Y-95560761D01*
X210208428Y-95608380D01*
X210065571Y-95608380D01*
X204137000Y-90108380D02*
X204137000Y-89441714D01*
X204137000Y-89108380D02*
X204089380Y-89156000D01*
X204137000Y-89203619D01*
X204184619Y-89156000D01*
X204137000Y-89108380D01*
X204137000Y-89203619D01*
G04 #@! TO.C,LED10*
X203998904Y-115542714D02*
X204237000Y-116209380D01*
X204475095Y-115542714D01*
X210351285Y-109942714D02*
X210351285Y-110752238D01*
X210303666Y-110847476D01*
X210256047Y-110895095D01*
X210160809Y-110942714D01*
X210017952Y-110942714D01*
X209922714Y-110895095D01*
X210351285Y-110561761D02*
X210256047Y-110609380D01*
X210065571Y-110609380D01*
X209970333Y-110561761D01*
X209922714Y-110514142D01*
X209875095Y-110418904D01*
X209875095Y-110133190D01*
X209922714Y-110037952D01*
X209970333Y-109990333D01*
X210065571Y-109942714D01*
X210256047Y-109942714D01*
X210351285Y-109990333D01*
X210065571Y-116309380D02*
X209970333Y-116261761D01*
X209922714Y-116214142D01*
X209875095Y-116118904D01*
X209875095Y-115833190D01*
X209922714Y-115737952D01*
X209970333Y-115690333D01*
X210065571Y-115642714D01*
X210208428Y-115642714D01*
X210303666Y-115690333D01*
X210351285Y-115737952D01*
X210398904Y-115833190D01*
X210398904Y-116118904D01*
X210351285Y-116214142D01*
X210303666Y-116261761D01*
X210208428Y-116309380D01*
X210065571Y-116309380D01*
X204137000Y-110809380D02*
X204137000Y-110142714D01*
X204137000Y-109809380D02*
X204089380Y-109857000D01*
X204137000Y-109904619D01*
X204184619Y-109857000D01*
X204137000Y-109809380D01*
X204137000Y-109904619D01*
G04 #@! TO.C,LED9*
X196495472Y-138165041D02*
X196368335Y-138861439D01*
X196907865Y-138403136D01*
X204796795Y-136491489D02*
X204392033Y-137192558D01*
X204303175Y-137251227D01*
X204238126Y-137268657D01*
X204131838Y-137262277D01*
X204008120Y-137190848D01*
X203949451Y-137101990D01*
X204487271Y-137027600D02*
X204380983Y-137021221D01*
X204216026Y-136925983D01*
X204157357Y-136837124D01*
X204139927Y-136772075D01*
X204146307Y-136665787D01*
X204289164Y-136418351D01*
X204378022Y-136359682D01*
X204443071Y-136342253D01*
X204549359Y-136348632D01*
X204714317Y-136443870D01*
X204772986Y-136532729D01*
X201366026Y-141862328D02*
X201307357Y-141773469D01*
X201289927Y-141708420D01*
X201296307Y-141602132D01*
X201439164Y-141354696D01*
X201528022Y-141296027D01*
X201593071Y-141278598D01*
X201699359Y-141284977D01*
X201823077Y-141356406D01*
X201881746Y-141445264D01*
X201899176Y-141510313D01*
X201892796Y-141616601D01*
X201749939Y-141864037D01*
X201661081Y-141922706D01*
X201596032Y-141940136D01*
X201489744Y-141933756D01*
X201366026Y-141862328D01*
X198981733Y-134134902D02*
X199315066Y-133557552D01*
X199481733Y-133268876D02*
X199416684Y-133286306D01*
X199434114Y-133351355D01*
X199499163Y-133333925D01*
X199481733Y-133268876D01*
X199434114Y-133351355D01*
G04 #@! TO.C,LED8*
X160126714Y-137292095D02*
X160793380Y-137054000D01*
X160126714Y-136815904D01*
X165726714Y-142739714D02*
X166536238Y-142739714D01*
X166631476Y-142787333D01*
X166679095Y-142834952D01*
X166726714Y-142930190D01*
X166726714Y-143073047D01*
X166679095Y-143168285D01*
X166345761Y-142739714D02*
X166393380Y-142834952D01*
X166393380Y-143025428D01*
X166345761Y-143120666D01*
X166298142Y-143168285D01*
X166202904Y-143215904D01*
X165917190Y-143215904D01*
X165821952Y-143168285D01*
X165774333Y-143120666D01*
X165726714Y-143025428D01*
X165726714Y-142834952D01*
X165774333Y-142739714D01*
X160693380Y-143025428D02*
X160645761Y-143120666D01*
X160598142Y-143168285D01*
X160502904Y-143215904D01*
X160217190Y-143215904D01*
X160121952Y-143168285D01*
X160074333Y-143120666D01*
X160026714Y-143025428D01*
X160026714Y-142882571D01*
X160074333Y-142787333D01*
X160121952Y-142739714D01*
X160217190Y-142692095D01*
X160502904Y-142692095D01*
X160598142Y-142739714D01*
X160645761Y-142787333D01*
X160693380Y-142882571D01*
X160693380Y-143025428D01*
X166193380Y-136954000D02*
X165526714Y-136954000D01*
X165193380Y-136954000D02*
X165241000Y-137001619D01*
X165288619Y-136954000D01*
X165241000Y-136906380D01*
X165193380Y-136954000D01*
X165288619Y-136954000D01*
G04 #@! TO.C,LED7*
X137986381Y-137292095D02*
X138653047Y-137054000D01*
X137986381Y-136815904D01*
X143586381Y-142739714D02*
X144395905Y-142739714D01*
X144491143Y-142787333D01*
X144538762Y-142834952D01*
X144586381Y-142930190D01*
X144586381Y-143073047D01*
X144538762Y-143168285D01*
X144205428Y-142739714D02*
X144253047Y-142834952D01*
X144253047Y-143025428D01*
X144205428Y-143120666D01*
X144157809Y-143168285D01*
X144062571Y-143215904D01*
X143776857Y-143215904D01*
X143681619Y-143168285D01*
X143634000Y-143120666D01*
X143586381Y-143025428D01*
X143586381Y-142834952D01*
X143634000Y-142739714D01*
X138553047Y-143025428D02*
X138505428Y-143120666D01*
X138457809Y-143168285D01*
X138362571Y-143215904D01*
X138076857Y-143215904D01*
X137981619Y-143168285D01*
X137934000Y-143120666D01*
X137886381Y-143025428D01*
X137886381Y-142882571D01*
X137934000Y-142787333D01*
X137981619Y-142739714D01*
X138076857Y-142692095D01*
X138362571Y-142692095D01*
X138457809Y-142739714D01*
X138505428Y-142787333D01*
X138553047Y-142882571D01*
X138553047Y-143025428D01*
X144053047Y-136954000D02*
X143386381Y-136954000D01*
X143053047Y-136954000D02*
X143100667Y-137001619D01*
X143148286Y-136954000D01*
X143100667Y-136906380D01*
X143053047Y-136954000D01*
X143148286Y-136954000D01*
G04 #@! TO.C,LED6*
X115846047Y-137292095D02*
X116512713Y-137054000D01*
X115846047Y-136815904D01*
X121446047Y-142739714D02*
X122255571Y-142739714D01*
X122350809Y-142787333D01*
X122398428Y-142834952D01*
X122446047Y-142930190D01*
X122446047Y-143073047D01*
X122398428Y-143168285D01*
X122065094Y-142739714D02*
X122112713Y-142834952D01*
X122112713Y-143025428D01*
X122065094Y-143120666D01*
X122017475Y-143168285D01*
X121922237Y-143215904D01*
X121636523Y-143215904D01*
X121541285Y-143168285D01*
X121493666Y-143120666D01*
X121446047Y-143025428D01*
X121446047Y-142834952D01*
X121493666Y-142739714D01*
X116412713Y-143025428D02*
X116365094Y-143120666D01*
X116317475Y-143168285D01*
X116222237Y-143215904D01*
X115936523Y-143215904D01*
X115841285Y-143168285D01*
X115793666Y-143120666D01*
X115746047Y-143025428D01*
X115746047Y-142882571D01*
X115793666Y-142787333D01*
X115841285Y-142739714D01*
X115936523Y-142692095D01*
X116222237Y-142692095D01*
X116317475Y-142739714D01*
X116365094Y-142787333D01*
X116412713Y-142882571D01*
X116412713Y-143025428D01*
X121912713Y-136954000D02*
X121246047Y-136954000D01*
X120912713Y-136954000D02*
X120960333Y-137001619D01*
X121007952Y-136954000D01*
X120960333Y-136906380D01*
X120912713Y-136954000D01*
X121007952Y-136954000D01*
G04 #@! TO.C,LED5*
X93705714Y-137292095D02*
X94372380Y-137054000D01*
X93705714Y-136815904D01*
X99305714Y-142739714D02*
X100115238Y-142739714D01*
X100210476Y-142787333D01*
X100258095Y-142834952D01*
X100305714Y-142930190D01*
X100305714Y-143073047D01*
X100258095Y-143168285D01*
X99924761Y-142739714D02*
X99972380Y-142834952D01*
X99972380Y-143025428D01*
X99924761Y-143120666D01*
X99877142Y-143168285D01*
X99781904Y-143215904D01*
X99496190Y-143215904D01*
X99400952Y-143168285D01*
X99353333Y-143120666D01*
X99305714Y-143025428D01*
X99305714Y-142834952D01*
X99353333Y-142739714D01*
X94272380Y-143025428D02*
X94224761Y-143120666D01*
X94177142Y-143168285D01*
X94081904Y-143215904D01*
X93796190Y-143215904D01*
X93700952Y-143168285D01*
X93653333Y-143120666D01*
X93605714Y-143025428D01*
X93605714Y-142882571D01*
X93653333Y-142787333D01*
X93700952Y-142739714D01*
X93796190Y-142692095D01*
X94081904Y-142692095D01*
X94177142Y-142739714D01*
X94224761Y-142787333D01*
X94272380Y-142882571D01*
X94272380Y-143025428D01*
X99772380Y-136954000D02*
X99105714Y-136954000D01*
X98772380Y-136954000D02*
X98820000Y-137001619D01*
X98867619Y-136954000D01*
X98820000Y-136906380D01*
X98772380Y-136954000D01*
X98867619Y-136954000D01*
G04 #@! TO.C,LED4*
X84195904Y-120883714D02*
X84434000Y-121550380D01*
X84672095Y-120883714D01*
X78748285Y-126483714D02*
X78748285Y-127293238D01*
X78700666Y-127388476D01*
X78653047Y-127436095D01*
X78557809Y-127483714D01*
X78414952Y-127483714D01*
X78319714Y-127436095D01*
X78748285Y-127102761D02*
X78653047Y-127150380D01*
X78462571Y-127150380D01*
X78367333Y-127102761D01*
X78319714Y-127055142D01*
X78272095Y-126959904D01*
X78272095Y-126674190D01*
X78319714Y-126578952D01*
X78367333Y-126531333D01*
X78462571Y-126483714D01*
X78653047Y-126483714D01*
X78748285Y-126531333D01*
X78462571Y-121450380D02*
X78367333Y-121402761D01*
X78319714Y-121355142D01*
X78272095Y-121259904D01*
X78272095Y-120974190D01*
X78319714Y-120878952D01*
X78367333Y-120831333D01*
X78462571Y-120783714D01*
X78605428Y-120783714D01*
X78700666Y-120831333D01*
X78748285Y-120878952D01*
X78795904Y-120974190D01*
X78795904Y-121259904D01*
X78748285Y-121355142D01*
X78700666Y-121402761D01*
X78605428Y-121450380D01*
X78462571Y-121450380D01*
X84534000Y-126950380D02*
X84534000Y-126283714D01*
X84534000Y-125950380D02*
X84486380Y-125998000D01*
X84534000Y-126045619D01*
X84581619Y-125998000D01*
X84534000Y-125950380D01*
X84534000Y-126045619D01*
G04 #@! TO.C,LED3*
X84195904Y-101833714D02*
X84434000Y-102500380D01*
X84672095Y-101833714D01*
X78748285Y-107433714D02*
X78748285Y-108243238D01*
X78700666Y-108338476D01*
X78653047Y-108386095D01*
X78557809Y-108433714D01*
X78414952Y-108433714D01*
X78319714Y-108386095D01*
X78748285Y-108052761D02*
X78653047Y-108100380D01*
X78462571Y-108100380D01*
X78367333Y-108052761D01*
X78319714Y-108005142D01*
X78272095Y-107909904D01*
X78272095Y-107624190D01*
X78319714Y-107528952D01*
X78367333Y-107481333D01*
X78462571Y-107433714D01*
X78653047Y-107433714D01*
X78748285Y-107481333D01*
X78462571Y-102400380D02*
X78367333Y-102352761D01*
X78319714Y-102305142D01*
X78272095Y-102209904D01*
X78272095Y-101924190D01*
X78319714Y-101828952D01*
X78367333Y-101781333D01*
X78462571Y-101733714D01*
X78605428Y-101733714D01*
X78700666Y-101781333D01*
X78748285Y-101828952D01*
X78795904Y-101924190D01*
X78795904Y-102209904D01*
X78748285Y-102305142D01*
X78700666Y-102352761D01*
X78605428Y-102400380D01*
X78462571Y-102400380D01*
X84534000Y-107900380D02*
X84534000Y-107233714D01*
X84534000Y-106900380D02*
X84486380Y-106948000D01*
X84534000Y-106995619D01*
X84581619Y-106948000D01*
X84534000Y-106900380D01*
X84534000Y-106995619D01*
G04 #@! TO.C,LED2*
X84195904Y-82783714D02*
X84434000Y-83450380D01*
X84672095Y-82783714D01*
X78748285Y-88383714D02*
X78748285Y-89193238D01*
X78700666Y-89288476D01*
X78653047Y-89336095D01*
X78557809Y-89383714D01*
X78414952Y-89383714D01*
X78319714Y-89336095D01*
X78748285Y-89002761D02*
X78653047Y-89050380D01*
X78462571Y-89050380D01*
X78367333Y-89002761D01*
X78319714Y-88955142D01*
X78272095Y-88859904D01*
X78272095Y-88574190D01*
X78319714Y-88478952D01*
X78367333Y-88431333D01*
X78462571Y-88383714D01*
X78653047Y-88383714D01*
X78748285Y-88431333D01*
X78462571Y-83350380D02*
X78367333Y-83302761D01*
X78319714Y-83255142D01*
X78272095Y-83159904D01*
X78272095Y-82874190D01*
X78319714Y-82778952D01*
X78367333Y-82731333D01*
X78462571Y-82683714D01*
X78605428Y-82683714D01*
X78700666Y-82731333D01*
X78748285Y-82778952D01*
X78795904Y-82874190D01*
X78795904Y-83159904D01*
X78748285Y-83255142D01*
X78700666Y-83302761D01*
X78605428Y-83350380D01*
X78462571Y-83350380D01*
X84534000Y-88850380D02*
X84534000Y-88183714D01*
X84534000Y-87850380D02*
X84486380Y-87898000D01*
X84534000Y-87945619D01*
X84581619Y-87898000D01*
X84534000Y-87850380D01*
X84534000Y-87945619D01*
G04 #@! TO.C,U9*
X127635095Y-59174380D02*
X127635095Y-59983904D01*
X127682714Y-60079142D01*
X127730333Y-60126761D01*
X127825571Y-60174380D01*
X128016047Y-60174380D01*
X128111285Y-60126761D01*
X128158904Y-60079142D01*
X128206523Y-59983904D01*
X128206523Y-59174380D01*
X128730333Y-60174380D02*
X128920809Y-60174380D01*
X129016047Y-60126761D01*
X129063666Y-60079142D01*
X129158904Y-59936285D01*
X129206523Y-59745809D01*
X129206523Y-59364857D01*
X129158904Y-59269619D01*
X129111285Y-59222000D01*
X129016047Y-59174380D01*
X128825571Y-59174380D01*
X128730333Y-59222000D01*
X128682714Y-59269619D01*
X128635095Y-59364857D01*
X128635095Y-59602952D01*
X128682714Y-59698190D01*
X128730333Y-59745809D01*
X128825571Y-59793428D01*
X129016047Y-59793428D01*
X129111285Y-59745809D01*
X129158904Y-59698190D01*
X129206523Y-59602952D01*
G04 #@! TO.C,U7*
X95758095Y-122420380D02*
X95758095Y-123229904D01*
X95805714Y-123325142D01*
X95853333Y-123372761D01*
X95948571Y-123420380D01*
X96139047Y-123420380D01*
X96234285Y-123372761D01*
X96281904Y-123325142D01*
X96329523Y-123229904D01*
X96329523Y-122420380D01*
X96710476Y-122420380D02*
X97377142Y-122420380D01*
X96948571Y-123420380D01*
G04 #@! TO.C,U5*
X95758095Y-84066380D02*
X95758095Y-84875904D01*
X95805714Y-84971142D01*
X95853333Y-85018761D01*
X95948571Y-85066380D01*
X96139047Y-85066380D01*
X96234285Y-85018761D01*
X96281904Y-84971142D01*
X96329523Y-84875904D01*
X96329523Y-84066380D01*
X97281904Y-84066380D02*
X96805714Y-84066380D01*
X96758095Y-84542571D01*
X96805714Y-84494952D01*
X96900952Y-84447333D01*
X97139047Y-84447333D01*
X97234285Y-84494952D01*
X97281904Y-84542571D01*
X97329523Y-84637809D01*
X97329523Y-84875904D01*
X97281904Y-84971142D01*
X97234285Y-85018761D01*
X97139047Y-85066380D01*
X96900952Y-85066380D01*
X96805714Y-85018761D01*
X96758095Y-84971142D01*
G04 #@! TO.C,U4*
X185039095Y-122166380D02*
X185039095Y-122975904D01*
X185086714Y-123071142D01*
X185134333Y-123118761D01*
X185229571Y-123166380D01*
X185420047Y-123166380D01*
X185515285Y-123118761D01*
X185562904Y-123071142D01*
X185610523Y-122975904D01*
X185610523Y-122166380D01*
X186515285Y-122499714D02*
X186515285Y-123166380D01*
X186277190Y-122118761D02*
X186039095Y-122833047D01*
X186658142Y-122833047D01*
G04 #@! TO.C,U2*
X191008095Y-81526380D02*
X191008095Y-82335904D01*
X191055714Y-82431142D01*
X191103333Y-82478761D01*
X191198571Y-82526380D01*
X191389047Y-82526380D01*
X191484285Y-82478761D01*
X191531904Y-82431142D01*
X191579523Y-82335904D01*
X191579523Y-81526380D01*
X192008095Y-81621619D02*
X192055714Y-81574000D01*
X192150952Y-81526380D01*
X192389047Y-81526380D01*
X192484285Y-81574000D01*
X192531904Y-81621619D01*
X192579523Y-81716857D01*
X192579523Y-81812095D01*
X192531904Y-81954952D01*
X191960476Y-82526380D01*
X192579523Y-82526380D01*
G04 #@! TO.C,U1*
X133858095Y-98290380D02*
X133858095Y-99099904D01*
X133905714Y-99195142D01*
X133953333Y-99242761D01*
X134048571Y-99290380D01*
X134239047Y-99290380D01*
X134334285Y-99242761D01*
X134381904Y-99195142D01*
X134429523Y-99099904D01*
X134429523Y-98290380D01*
X135429523Y-99290380D02*
X134858095Y-99290380D01*
X135143809Y-99290380D02*
X135143809Y-98290380D01*
X135048571Y-98433238D01*
X134953333Y-98528476D01*
X134858095Y-98576095D01*
G04 #@! TD*
%LPC*%
D18*
G04 #@! TO.C,D68*
X204290000Y-142173212D03*
D19*
G36*
X204482820Y-143439237D02*
X203097180Y-142639237D01*
X204097180Y-140907187D01*
X205482820Y-141707187D01*
X204482820Y-143439237D01*
X204482820Y-143439237D01*
G37*
D20*
X207645000Y-136362182D03*
D13*
X207645000Y-136362182D02*
X207645000Y-136362182D01*
D20*
X202565000Y-145161000D03*
D19*
G36*
X202931025Y-146527025D02*
X201198975Y-145527025D01*
X202198975Y-143794975D01*
X203931025Y-144794975D01*
X202931025Y-146527025D01*
X202931025Y-146527025D01*
G37*
D18*
X205920000Y-139349970D03*
D19*
G36*
X206112820Y-140615995D02*
X204727180Y-139815995D01*
X205727180Y-138083945D01*
X207112820Y-138883945D01*
X206112820Y-140615995D01*
X206112820Y-140615995D01*
G37*
G04 #@! TD*
D21*
G04 #@! TO.C,D1*
X180488000Y-120523000D03*
D22*
X187198000Y-120523000D03*
D23*
X177038000Y-120523000D03*
D21*
X183748000Y-120523000D03*
G04 #@! TD*
D18*
G04 #@! TO.C,D34*
X180668000Y-139125212D03*
D19*
G36*
X180860820Y-140391237D02*
X179475180Y-139591237D01*
X180475180Y-137859187D01*
X181860820Y-138659187D01*
X180860820Y-140391237D01*
X180860820Y-140391237D01*
G37*
D20*
X184023000Y-133314182D03*
D13*
X184023000Y-133314182D02*
X184023000Y-133314182D01*
D20*
X178943000Y-142113000D03*
D19*
G36*
X179309025Y-143479025D02*
X177576975Y-142479025D01*
X178576975Y-140746975D01*
X180309025Y-141746975D01*
X179309025Y-143479025D01*
X179309025Y-143479025D01*
G37*
D18*
X182298000Y-136301970D03*
D19*
G36*
X182490820Y-137567995D02*
X181105180Y-136767995D01*
X182105180Y-135035945D01*
X183490820Y-135835945D01*
X182490820Y-137567995D01*
X182490820Y-137567995D01*
G37*
G04 #@! TD*
D18*
G04 #@! TO.C,D33*
X179892212Y-128069000D03*
D19*
G36*
X181158237Y-127876180D02*
X180358237Y-129261820D01*
X178626187Y-128261820D01*
X179426187Y-126876180D01*
X181158237Y-127876180D01*
X181158237Y-127876180D01*
G37*
D20*
X174081182Y-124714000D03*
D13*
X174081182Y-124714000D02*
X174081182Y-124714000D01*
D20*
X182880000Y-129794000D03*
D19*
G36*
X184246025Y-129427975D02*
X183246025Y-131160025D01*
X181513975Y-130160025D01*
X182513975Y-128427975D01*
X184246025Y-129427975D01*
X184246025Y-129427975D01*
G37*
D18*
X177068970Y-126439000D03*
D19*
G36*
X178334995Y-126246180D02*
X177534995Y-127631820D01*
X175802945Y-126631820D01*
X176602945Y-125246180D01*
X178334995Y-126246180D01*
X178334995Y-126246180D01*
G37*
G04 #@! TD*
D24*
G04 #@! TO.C,D32*
X133477000Y-128884000D03*
D22*
X133477000Y-122174000D03*
D23*
X133477000Y-132334000D03*
D24*
X133477000Y-125624000D03*
G04 #@! TD*
G04 #@! TO.C,D31*
X116713000Y-131170000D03*
D22*
X116713000Y-124460000D03*
D23*
X116713000Y-134620000D03*
D24*
X116713000Y-127910000D03*
G04 #@! TD*
G04 #@! TO.C,D30*
X114427000Y-131170000D03*
D22*
X114427000Y-124460000D03*
D23*
X114427000Y-134620000D03*
D24*
X114427000Y-127910000D03*
G04 #@! TD*
G04 #@! TO.C,D29*
X97663000Y-116184000D03*
D22*
X97663000Y-109474000D03*
D23*
X97663000Y-119634000D03*
D24*
X97663000Y-112924000D03*
G04 #@! TD*
G04 #@! TO.C,D28*
X190627000Y-121497000D03*
D22*
X190627000Y-114787000D03*
D23*
X190627000Y-124947000D03*
D24*
X190627000Y-118237000D03*
G04 #@! TD*
G04 #@! TO.C,D27*
X190627000Y-107569000D03*
D22*
X190627000Y-100859000D03*
D23*
X190627000Y-111019000D03*
D24*
X190627000Y-104309000D03*
G04 #@! TD*
G04 #@! TO.C,D26*
X190627000Y-95102000D03*
D22*
X190627000Y-88392000D03*
D23*
X190627000Y-98552000D03*
D24*
X190627000Y-91842000D03*
G04 #@! TD*
G04 #@! TO.C,D24*
X173990000Y-114406000D03*
D22*
X173990000Y-107696000D03*
D23*
X173990000Y-117856000D03*
D24*
X173990000Y-111146000D03*
G04 #@! TD*
G04 #@! TO.C,D23*
X173990000Y-96774000D03*
D22*
X173990000Y-90064000D03*
D23*
X173990000Y-100224000D03*
D24*
X173990000Y-93514000D03*
G04 #@! TD*
G04 #@! TO.C,D22*
X173990000Y-78719000D03*
D22*
X173990000Y-72009000D03*
D23*
X173990000Y-82169000D03*
D24*
X173990000Y-75459000D03*
G04 #@! TD*
G04 #@! TO.C,D20*
X171323000Y-114385000D03*
D22*
X171323000Y-107675000D03*
D23*
X171323000Y-117835000D03*
D24*
X171323000Y-111125000D03*
G04 #@! TD*
G04 #@! TO.C,D15*
X152273000Y-101346000D03*
D22*
X152273000Y-94636000D03*
D23*
X152273000Y-104796000D03*
D24*
X152273000Y-98086000D03*
G04 #@! TD*
G04 #@! TO.C,D14*
X133731000Y-88011000D03*
D22*
X133731000Y-81301000D03*
D23*
X133731000Y-91461000D03*
D24*
X133731000Y-84751000D03*
G04 #@! TD*
G04 #@! TO.C,D12*
X133477000Y-112395000D03*
D22*
X133477000Y-105685000D03*
D23*
X133477000Y-115845000D03*
D24*
X133477000Y-109135000D03*
G04 #@! TD*
G04 #@! TO.C,D11*
X116840000Y-97642000D03*
D22*
X116840000Y-90932000D03*
D23*
X116840000Y-101092000D03*
D24*
X116840000Y-94382000D03*
G04 #@! TD*
G04 #@! TO.C,D10*
X116586000Y-78719000D03*
D22*
X116586000Y-72009000D03*
D23*
X116586000Y-82169000D03*
D24*
X116586000Y-75459000D03*
G04 #@! TD*
G04 #@! TO.C,D8*
X116713000Y-116692000D03*
D22*
X116713000Y-109982000D03*
D23*
X116713000Y-120142000D03*
D24*
X116713000Y-113432000D03*
G04 #@! TD*
G04 #@! TO.C,D7*
X114427000Y-97642000D03*
D22*
X114427000Y-90932000D03*
D23*
X114427000Y-101092000D03*
D24*
X114427000Y-94382000D03*
G04 #@! TD*
G04 #@! TO.C,D6*
X114427000Y-78719000D03*
D22*
X114427000Y-72009000D03*
D23*
X114427000Y-82169000D03*
D24*
X114427000Y-75459000D03*
G04 #@! TD*
G04 #@! TO.C,D4*
X114427000Y-116671000D03*
D22*
X114427000Y-109961000D03*
D23*
X114427000Y-120121000D03*
D24*
X114427000Y-113411000D03*
G04 #@! TD*
G04 #@! TO.C,D3*
X97663000Y-97642000D03*
D22*
X97663000Y-90932000D03*
D23*
X97663000Y-101092000D03*
D24*
X97663000Y-94382000D03*
G04 #@! TD*
G04 #@! TO.C,D2*
X97663000Y-78719000D03*
D22*
X97663000Y-72009000D03*
D23*
X97663000Y-82169000D03*
D24*
X97663000Y-75459000D03*
G04 #@! TD*
G04 #@! TO.C,D16*
X135763000Y-112395000D03*
D22*
X135763000Y-105685000D03*
D23*
X135763000Y-115845000D03*
D24*
X135763000Y-109135000D03*
G04 #@! TD*
G04 #@! TO.C,D18*
X155194000Y-101304000D03*
D22*
X155194000Y-94594000D03*
D23*
X155194000Y-104754000D03*
D24*
X155194000Y-98044000D03*
G04 #@! TD*
G04 #@! TO.C,D19*
X171450000Y-96732000D03*
D22*
X171450000Y-90022000D03*
D23*
X171450000Y-100182000D03*
D24*
X171450000Y-93472000D03*
G04 #@! TD*
D18*
G04 #@! TO.C,R39*
X200126070Y-157304000D03*
D19*
G36*
X201305493Y-157061180D02*
X200505493Y-158446820D01*
X198946647Y-157546820D01*
X199746647Y-156161180D01*
X201305493Y-157061180D01*
X201305493Y-157061180D01*
G37*
D20*
X205582030Y-160454000D03*
X196783212Y-155374000D03*
D13*
X196783212Y-155374000D02*
X196783212Y-155374000D01*
D18*
X202204531Y-158504000D03*
D19*
G36*
X203383954Y-158261180D02*
X202583954Y-159646820D01*
X201025108Y-158746820D01*
X201825108Y-157361180D01*
X203383954Y-158261180D01*
X203383954Y-158261180D01*
G37*
G04 #@! TD*
D25*
G04 #@! TO.C,R38*
X199213000Y-115951000D03*
D20*
X192913000Y-115951000D03*
D22*
X203073000Y-115951000D03*
D25*
X196813000Y-115951000D03*
G04 #@! TD*
D18*
G04 #@! TO.C,R37*
X216890070Y-128475000D03*
D19*
G36*
X218069493Y-128232180D02*
X217269493Y-129617820D01*
X215710647Y-128717820D01*
X216510647Y-127332180D01*
X218069493Y-128232180D01*
X218069493Y-128232180D01*
G37*
D20*
X222346030Y-131625000D03*
X213547212Y-126545000D03*
D13*
X213547212Y-126545000D02*
X213547212Y-126545000D01*
D18*
X218968531Y-129675000D03*
D19*
G36*
X220147954Y-129432180D02*
X219347954Y-130817820D01*
X217789108Y-129917820D01*
X218589108Y-128532180D01*
X220147954Y-129432180D01*
X220147954Y-129432180D01*
G37*
G04 #@! TD*
D25*
G04 #@! TO.C,R14*
X199213000Y-113538000D03*
D20*
X192913000Y-113538000D03*
D22*
X203073000Y-113538000D03*
D25*
X196813000Y-113538000D03*
G04 #@! TD*
G04 #@! TO.C,R36*
X142798000Y-118618000D03*
D20*
X149098000Y-118618000D03*
D22*
X138938000Y-118618000D03*
D25*
X145198000Y-118618000D03*
G04 #@! TD*
G04 #@! TO.C,R35*
X123875000Y-121031000D03*
D20*
X130175000Y-121031000D03*
D22*
X120015000Y-121031000D03*
D25*
X126275000Y-121031000D03*
G04 #@! TD*
G04 #@! TO.C,R34*
X107138000Y-125857000D03*
D20*
X100838000Y-125857000D03*
D22*
X110998000Y-125857000D03*
D25*
X104738000Y-125857000D03*
G04 #@! TD*
G04 #@! TO.C,R33*
X107138000Y-123444000D03*
D20*
X100838000Y-123444000D03*
D22*
X110998000Y-123444000D03*
D25*
X104738000Y-123444000D03*
G04 #@! TD*
D18*
G04 #@! TO.C,R32*
X182112960Y-146787000D03*
D19*
G36*
X180933537Y-147029820D02*
X181733537Y-145644180D01*
X183292383Y-146544180D01*
X182492383Y-147929820D01*
X180933537Y-147029820D01*
X180933537Y-147029820D01*
G37*
D20*
X176657000Y-143637000D03*
X185455818Y-148717000D03*
D13*
X185455818Y-148717000D02*
X185455818Y-148717000D01*
D18*
X180034499Y-145587000D03*
D19*
G36*
X178855076Y-145829820D02*
X179655076Y-144444180D01*
X181213922Y-145344180D01*
X180413922Y-146729820D01*
X178855076Y-145829820D01*
X178855076Y-145829820D01*
G37*
G04 #@! TD*
D25*
G04 #@! TO.C,R31*
X181025000Y-104521000D03*
D20*
X187325000Y-104521000D03*
D22*
X177165000Y-104521000D03*
D25*
X183425000Y-104521000D03*
G04 #@! TD*
G04 #@! TO.C,R30*
X164415000Y-102235000D03*
D20*
X158115000Y-102235000D03*
D22*
X168275000Y-102235000D03*
D25*
X162015000Y-102235000D03*
G04 #@! TD*
G04 #@! TO.C,R29*
X142798000Y-116332000D03*
D20*
X149098000Y-116332000D03*
D22*
X138938000Y-116332000D03*
D25*
X145198000Y-116332000D03*
G04 #@! TD*
G04 #@! TO.C,R28*
X123875000Y-118745000D03*
D20*
X130175000Y-118745000D03*
D22*
X120015000Y-118745000D03*
D25*
X126275000Y-118745000D03*
G04 #@! TD*
D26*
G04 #@! TO.C,R27*
X95377000Y-115753000D03*
D20*
X95377000Y-109453000D03*
D22*
X95377000Y-119613000D03*
D26*
X95377000Y-113353000D03*
G04 #@! TD*
D25*
G04 #@! TO.C,R26*
X107392000Y-106807000D03*
D20*
X101092000Y-106807000D03*
D22*
X111252000Y-106807000D03*
D25*
X104992000Y-106807000D03*
G04 #@! TD*
D26*
G04 #@! TO.C,R25*
X192913000Y-104698000D03*
D20*
X192913000Y-110998000D03*
D22*
X192913000Y-100838000D03*
D26*
X192913000Y-107098000D03*
G04 #@! TD*
D25*
G04 #@! TO.C,R24*
X181025000Y-102108000D03*
D20*
X187325000Y-102108000D03*
D22*
X177165000Y-102108000D03*
D25*
X183425000Y-102108000D03*
G04 #@! TD*
G04 #@! TO.C,R23*
X161975000Y-99695000D03*
D20*
X168275000Y-99695000D03*
D22*
X158115000Y-99695000D03*
D25*
X164375000Y-99695000D03*
G04 #@! TD*
G04 #@! TO.C,R22*
X142925000Y-97282000D03*
D20*
X149225000Y-97282000D03*
D22*
X139065000Y-97282000D03*
D25*
X145325000Y-97282000D03*
G04 #@! TD*
G04 #@! TO.C,R21*
X123875000Y-99695000D03*
D20*
X130175000Y-99695000D03*
D22*
X120015000Y-99695000D03*
D25*
X126275000Y-99695000D03*
G04 #@! TD*
G04 #@! TO.C,R20*
X107392000Y-104394000D03*
D20*
X101092000Y-104394000D03*
D22*
X111252000Y-104394000D03*
D25*
X104992000Y-104394000D03*
G04 #@! TD*
D26*
G04 #@! TO.C,R19*
X95377000Y-97232000D03*
D20*
X95377000Y-90932000D03*
D22*
X95377000Y-101092000D03*
D26*
X95377000Y-94832000D03*
G04 #@! TD*
G04 #@! TO.C,R18*
X192913000Y-94713000D03*
D20*
X192913000Y-88413000D03*
D22*
X192913000Y-98573000D03*
D26*
X192913000Y-92313000D03*
G04 #@! TD*
D25*
G04 #@! TO.C,R16*
X161975000Y-80645000D03*
D20*
X168275000Y-80645000D03*
D22*
X158115000Y-80645000D03*
D25*
X164375000Y-80645000D03*
G04 #@! TD*
G04 #@! TO.C,R15*
X142925000Y-78232000D03*
D20*
X149225000Y-78232000D03*
D22*
X139065000Y-78232000D03*
D25*
X145325000Y-78232000D03*
G04 #@! TD*
G04 #@! TO.C,R12*
X123875000Y-80645000D03*
D20*
X130175000Y-80645000D03*
D22*
X120015000Y-80645000D03*
D25*
X126275000Y-80645000D03*
G04 #@! TD*
G04 #@! TO.C,R11*
X104825000Y-85344000D03*
D20*
X111125000Y-85344000D03*
D22*
X100965000Y-85344000D03*
D25*
X107225000Y-85344000D03*
G04 #@! TD*
D26*
G04 #@! TO.C,R10*
X95377000Y-78309000D03*
D20*
X95377000Y-72009000D03*
D22*
X95377000Y-82169000D03*
D26*
X95377000Y-75909000D03*
G04 #@! TD*
G04 #@! TO.C,R13*
X152273000Y-116261000D03*
D20*
X152273000Y-109961000D03*
D22*
X152273000Y-120121000D03*
D26*
X152273000Y-113861000D03*
G04 #@! TD*
D25*
G04 #@! TO.C,R17*
X181025000Y-82931000D03*
D20*
X187325000Y-82931000D03*
D22*
X177165000Y-82931000D03*
D25*
X183425000Y-82931000D03*
G04 #@! TD*
D26*
G04 #@! TO.C,R3*
X155067000Y-116155000D03*
D20*
X155067000Y-109855000D03*
D22*
X155067000Y-120015000D03*
D26*
X155067000Y-113755000D03*
G04 #@! TD*
D27*
G04 #@! TO.C,*
X182434460Y-141662361D03*
X194372460Y-120985139D03*
D28*
X195632687Y-149282361D03*
X207570687Y-128605139D03*
G04 #@! TD*
D29*
G04 #@! TO.C,LED11*
X208787000Y-94856000D03*
X205487000Y-94856000D03*
X205487000Y-90056000D03*
X208787000Y-90056000D03*
G04 #@! TD*
G04 #@! TO.C,LED10*
X208787000Y-115557000D03*
X205487000Y-115557000D03*
X205487000Y-110757000D03*
X208787000Y-110757000D03*
G04 #@! TD*
D30*
G04 #@! TO.C,LED9*
X200634942Y-140571461D03*
D19*
G36*
X201964365Y-140068833D02*
X200864365Y-141974089D01*
X199305519Y-141074089D01*
X200405519Y-139168833D01*
X201964365Y-140068833D01*
X201964365Y-140068833D01*
G37*
D30*
X197777058Y-138921461D03*
D19*
G36*
X199106481Y-138418833D02*
X198006481Y-140324089D01*
X196447635Y-139424089D01*
X197547635Y-137518833D01*
X199106481Y-138418833D01*
X199106481Y-138418833D01*
G37*
D30*
X200177058Y-134764539D03*
D19*
G36*
X201506481Y-134261911D02*
X200406481Y-136167167D01*
X198847635Y-135267167D01*
X199947635Y-133361911D01*
X201506481Y-134261911D01*
X201506481Y-134261911D01*
G37*
D30*
X203034942Y-136414539D03*
D19*
G36*
X204364365Y-135911911D02*
X203264365Y-137817167D01*
X201705519Y-136917167D01*
X202805519Y-135011911D01*
X204364365Y-135911911D01*
X204364365Y-135911911D01*
G37*
G04 #@! TD*
D31*
G04 #@! TO.C,LED8*
X160541000Y-141604000D03*
X160541000Y-138304000D03*
X165341000Y-138304000D03*
X165341000Y-141604000D03*
G04 #@! TD*
G04 #@! TO.C,LED7*
X138400667Y-141604000D03*
X138400667Y-138304000D03*
X143200667Y-138304000D03*
X143200667Y-141604000D03*
G04 #@! TD*
G04 #@! TO.C,LED6*
X116260333Y-141604000D03*
X116260333Y-138304000D03*
X121060333Y-138304000D03*
X121060333Y-141604000D03*
G04 #@! TD*
G04 #@! TO.C,LED5*
X94120000Y-141604000D03*
X94120000Y-138304000D03*
X98920000Y-138304000D03*
X98920000Y-141604000D03*
G04 #@! TD*
D29*
G04 #@! TO.C,LED4*
X79884000Y-121298000D03*
X83184000Y-121298000D03*
X83184000Y-126098000D03*
X79884000Y-126098000D03*
G04 #@! TD*
G04 #@! TO.C,LED3*
X79884000Y-102248000D03*
X83184000Y-102248000D03*
X83184000Y-107048000D03*
X79884000Y-107048000D03*
G04 #@! TD*
G04 #@! TO.C,LED2*
X79884000Y-83198000D03*
X83184000Y-83198000D03*
X83184000Y-87998000D03*
X79884000Y-87998000D03*
G04 #@! TD*
D32*
G04 #@! TO.C,D73*
X215814909Y-148616152D03*
X217084909Y-146416448D03*
D19*
G36*
X217506753Y-147990792D02*
X215510565Y-146838292D01*
X216663065Y-144842104D01*
X218659253Y-145994604D01*
X217506753Y-147990792D01*
X217506753Y-147990792D01*
G37*
G04 #@! TD*
D32*
G04 #@! TO.C,D72*
X203523591Y-149585498D03*
X202253591Y-151785202D03*
D19*
G36*
X201831747Y-150210858D02*
X203827935Y-151363358D01*
X202675435Y-153359546D01*
X200679247Y-152207046D01*
X201831747Y-150210858D01*
X201831747Y-150210858D01*
G37*
G04 #@! TD*
D32*
G04 #@! TO.C,D71*
X187025591Y-140060448D03*
X185755591Y-142260152D03*
D19*
G36*
X185333747Y-140685808D02*
X187329935Y-141838308D01*
X186177435Y-143834496D01*
X184181247Y-142681996D01*
X185333747Y-140685808D01*
X185333747Y-140685808D01*
G37*
G04 #@! TD*
D32*
G04 #@! TO.C,D70*
X213048591Y-133087498D03*
X211778591Y-135287202D03*
D19*
G36*
X211356747Y-133712858D02*
X213352935Y-134865358D01*
X212200435Y-136861546D01*
X210204247Y-135709046D01*
X211356747Y-133712858D01*
X211356747Y-133712858D01*
G37*
G04 #@! TD*
D32*
G04 #@! TO.C,D69*
X196550591Y-123562448D03*
X195280591Y-125762152D03*
D19*
G36*
X194858747Y-124187808D02*
X196854935Y-125340308D01*
X195702435Y-127336496D01*
X193706247Y-126183996D01*
X194858747Y-124187808D01*
X194858747Y-124187808D01*
G37*
G04 #@! TD*
D33*
G04 #@! TO.C,J5*
X115030000Y-68368000D03*
X113030000Y-68368000D03*
X111030000Y-68368000D03*
G04 #@! TD*
G04 #@! TO.C,J4*
X115030000Y-66209000D03*
X113030000Y-66209000D03*
X111030000Y-66209000D03*
G04 #@! TD*
D34*
G04 #@! TO.C,SW41*
X207288000Y-153225350D03*
D35*
X210038000Y-148462210D03*
X204538000Y-157988490D03*
D36*
X211632119Y-151853578D03*
D37*
X211324301Y-151007855D02*
X211939937Y-152699301D01*
D36*
X208272070Y-157673353D03*
D37*
X209158397Y-157517070D02*
X207385743Y-157829636D01*
D38*
X209925114Y-157657734D03*
D39*
X210374148Y-157916984D02*
X209476080Y-157398484D01*
D38*
X212445114Y-153292966D03*
D39*
X212894148Y-153552216D02*
X211996080Y-153033716D01*
D40*
X204748000Y-157624759D03*
X209828000Y-148825941D03*
G04 #@! TD*
D34*
G04 #@! TO.C,SW40*
X212050500Y-144976300D03*
D35*
X209300500Y-149739440D03*
X214800500Y-140213160D03*
D36*
X207706381Y-146348072D03*
D37*
X208014199Y-147193795D02*
X207398563Y-145502349D01*
D36*
X211066430Y-140528297D03*
D37*
X210180103Y-140684580D02*
X211952757Y-140372014D01*
D38*
X209413386Y-140543916D03*
D39*
X208964352Y-140284666D02*
X209862420Y-140803166D01*
D38*
X206893386Y-144908684D03*
D39*
X206444352Y-144649434D02*
X207342420Y-145167934D01*
D40*
X214590500Y-140576891D03*
X209510500Y-149375709D03*
G04 #@! TD*
D34*
G04 #@! TO.C,SW39*
X216813000Y-136727350D03*
D35*
X219563000Y-131964210D03*
X214063000Y-141490490D03*
D36*
X221157119Y-135355578D03*
D37*
X220849301Y-134509855D02*
X221464937Y-136201301D01*
D36*
X217797070Y-141175353D03*
D37*
X218683397Y-141019070D02*
X216910743Y-141331636D01*
D38*
X219450114Y-141159734D03*
D39*
X219899148Y-141418984D02*
X219001080Y-140900484D01*
D38*
X221970114Y-136794966D03*
D39*
X222419148Y-137054216D02*
X221521080Y-136535716D01*
D40*
X214273000Y-141126759D03*
X219353000Y-132327941D03*
G04 #@! TD*
D34*
G04 #@! TO.C,SW36*
X195552500Y-135451250D03*
D35*
X192802500Y-140214390D03*
X198302500Y-130688110D03*
D36*
X191208381Y-136823022D03*
D37*
X191516199Y-137668745D02*
X190900563Y-135977299D01*
D36*
X194568430Y-131003247D03*
D37*
X193682103Y-131159530D02*
X195454757Y-130846964D01*
D38*
X192915386Y-131018866D03*
D39*
X192466352Y-130759616D02*
X193364420Y-131278116D01*
D38*
X190395386Y-135383634D03*
D39*
X189946352Y-135124384D02*
X190844420Y-135642884D01*
D40*
X198092500Y-131051841D03*
X193012500Y-139850659D03*
G04 #@! TD*
D34*
G04 #@! TO.C,SW35*
X190790000Y-143700300D03*
D35*
X193540000Y-138937160D03*
X188040000Y-148463440D03*
D36*
X195134119Y-142328528D03*
D37*
X194826301Y-141482805D02*
X195441937Y-143174251D01*
D36*
X191774070Y-148148303D03*
D37*
X192660397Y-147992020D02*
X190887743Y-148304586D01*
D38*
X193427114Y-148132684D03*
D39*
X193876148Y-148391934D02*
X192978080Y-147873434D01*
D38*
X195947114Y-143767916D03*
D39*
X196396148Y-144027166D02*
X195498080Y-143508666D01*
D40*
X188250000Y-148099709D03*
X193330000Y-139300891D03*
G04 #@! TD*
D34*
G04 #@! TO.C,SW32*
X125095000Y-129413000D03*
D35*
X130595000Y-129413000D03*
X119595000Y-129413000D03*
D36*
X128455049Y-126336769D03*
D37*
X129033558Y-127026209D02*
X127876540Y-125647329D01*
D36*
X121734951Y-126336769D03*
D37*
X122313460Y-125647329D02*
X121156442Y-127026209D01*
D41*
X122575000Y-124913000D03*
X127615000Y-124913000D03*
D40*
X120015000Y-129413000D03*
X130175000Y-129413000D03*
G04 #@! TD*
D34*
G04 #@! TO.C,SW31*
X106045000Y-134175500D03*
D35*
X100545000Y-134175500D03*
X111545000Y-134175500D03*
D36*
X102684951Y-131099269D03*
D37*
X102106442Y-131788709D02*
X103263460Y-130409829D01*
D36*
X109405049Y-131099269D03*
D37*
X108826540Y-130409829D02*
X109983558Y-131788709D01*
D41*
X108565000Y-129675500D03*
X103525000Y-129675500D03*
D40*
X111125000Y-134175500D03*
X100965000Y-134175500D03*
G04 #@! TD*
D34*
G04 #@! TO.C,SW30*
X86995000Y-134175500D03*
D35*
X92495000Y-134175500D03*
X81495000Y-134175500D03*
D36*
X90355049Y-131099269D03*
D37*
X90933558Y-131788709D02*
X89776540Y-130409829D01*
D36*
X83634951Y-131099269D03*
D37*
X84213460Y-130409829D02*
X83056442Y-131788709D01*
D41*
X84475000Y-129675500D03*
X89515000Y-129675500D03*
D40*
X81915000Y-134175500D03*
X92075000Y-134175500D03*
G04 #@! TD*
D34*
G04 #@! TO.C,SW28*
X200315000Y-127202300D03*
D35*
X203065000Y-122439160D03*
X197565000Y-131965440D03*
D36*
X204659119Y-125830528D03*
D37*
X204351301Y-124984805D02*
X204966937Y-126676251D01*
D36*
X201299070Y-131650303D03*
D37*
X202185397Y-131494020D02*
X200412743Y-131806586D01*
D38*
X202952114Y-131634684D03*
D39*
X203401148Y-131893934D02*
X202503080Y-131375434D01*
D38*
X205472114Y-127269916D03*
D39*
X205921148Y-127529166D02*
X205023080Y-127010666D01*
D40*
X197775000Y-131601709D03*
X202855000Y-122802891D03*
G04 #@! TD*
D34*
G04 #@! TO.C,SW26*
X201295000Y-84169250D03*
D35*
X195795000Y-84169250D03*
X206795000Y-84169250D03*
D36*
X197934951Y-81093019D03*
D37*
X197356442Y-81782459D02*
X198513460Y-80403579D01*
D36*
X204655049Y-81093019D03*
D37*
X204076540Y-80403579D02*
X205233558Y-81782459D01*
D41*
X203815000Y-79669250D03*
X198775000Y-79669250D03*
D40*
X206375000Y-84169250D03*
X196215000Y-84169250D03*
G04 #@! TD*
D34*
G04 #@! TO.C,SW24*
X182245000Y-112744250D03*
D35*
X187745000Y-112744250D03*
X176745000Y-112744250D03*
D36*
X185605049Y-109668019D03*
D37*
X186183558Y-110357459D02*
X185026540Y-108978579D01*
D36*
X178884951Y-109668019D03*
D37*
X179463460Y-108978579D02*
X178306442Y-110357459D01*
D41*
X179725000Y-108244250D03*
X184765000Y-108244250D03*
D40*
X177165000Y-112744250D03*
X187325000Y-112744250D03*
G04 #@! TD*
D34*
G04 #@! TO.C,SW22*
X182245000Y-74644250D03*
D35*
X187745000Y-74644250D03*
X176745000Y-74644250D03*
D36*
X185605049Y-71568019D03*
D37*
X186183558Y-72257459D02*
X185026540Y-70878579D01*
D36*
X178884951Y-71568019D03*
D37*
X179463460Y-70878579D02*
X178306442Y-72257459D01*
D41*
X179725000Y-70144250D03*
X184765000Y-70144250D03*
D40*
X177165000Y-74644250D03*
X187325000Y-74644250D03*
G04 #@! TD*
D34*
G04 #@! TO.C,SW20*
X163195000Y-110363000D03*
D35*
X157695000Y-110363000D03*
X168695000Y-110363000D03*
D36*
X159834951Y-107286769D03*
D37*
X159256442Y-107976209D02*
X160413460Y-106597329D01*
D36*
X166555049Y-107286769D03*
D37*
X165976540Y-106597329D02*
X167133558Y-107976209D01*
D41*
X165715000Y-105863000D03*
X160675000Y-105863000D03*
D40*
X168275000Y-110363000D03*
X158115000Y-110363000D03*
G04 #@! TD*
D34*
G04 #@! TO.C,SW18*
X163195000Y-72263000D03*
D35*
X157695000Y-72263000D03*
X168695000Y-72263000D03*
D36*
X159834951Y-69186769D03*
D37*
X159256442Y-69876209D02*
X160413460Y-68497329D01*
D36*
X166555049Y-69186769D03*
D37*
X165976540Y-68497329D02*
X167133558Y-69876209D01*
D41*
X165715000Y-67763000D03*
X160675000Y-67763000D03*
D40*
X168275000Y-72263000D03*
X158115000Y-72263000D03*
G04 #@! TD*
D34*
G04 #@! TO.C,SW16*
X144145000Y-107981750D03*
D35*
X138645000Y-107981750D03*
X149645000Y-107981750D03*
D36*
X140784951Y-104905519D03*
D37*
X140206442Y-105594959D02*
X141363460Y-104216079D01*
D36*
X147505049Y-104905519D03*
D37*
X146926540Y-104216079D02*
X148083558Y-105594959D01*
D41*
X146665000Y-103481750D03*
X141625000Y-103481750D03*
D40*
X149225000Y-107981750D03*
X139065000Y-107981750D03*
G04 #@! TD*
D34*
G04 #@! TO.C,SW14*
X144145000Y-69881750D03*
D35*
X138645000Y-69881750D03*
X149645000Y-69881750D03*
D36*
X140784951Y-66805519D03*
D37*
X140206442Y-67494959D02*
X141363460Y-66116079D01*
D36*
X147505049Y-66805519D03*
D37*
X146926540Y-66116079D02*
X148083558Y-67494959D01*
D41*
X146665000Y-65381750D03*
X141625000Y-65381750D03*
D40*
X149225000Y-69881750D03*
X139065000Y-69881750D03*
G04 #@! TD*
D34*
G04 #@! TO.C,SW8*
X106045000Y-115125500D03*
D35*
X100545000Y-115125500D03*
X111545000Y-115125500D03*
D36*
X102684951Y-112049269D03*
D37*
X102106442Y-112738709D02*
X103263460Y-111359829D01*
D36*
X109405049Y-112049269D03*
D37*
X108826540Y-111359829D02*
X109983558Y-112738709D01*
D41*
X108565000Y-110625500D03*
X103525000Y-110625500D03*
D40*
X111125000Y-115125500D03*
X100965000Y-115125500D03*
G04 #@! TD*
D34*
G04 #@! TO.C,SW7*
X106045000Y-96075500D03*
D35*
X100545000Y-96075500D03*
X111545000Y-96075500D03*
D36*
X102684951Y-92999269D03*
D37*
X102106442Y-93688709D02*
X103263460Y-92309829D01*
D36*
X109405049Y-92999269D03*
D37*
X108826540Y-92309829D02*
X109983558Y-93688709D01*
D41*
X108565000Y-91575500D03*
X103525000Y-91575500D03*
D40*
X111125000Y-96075500D03*
X100965000Y-96075500D03*
G04 #@! TD*
D34*
G04 #@! TO.C,SW6*
X106045000Y-77025500D03*
D35*
X100545000Y-77025500D03*
X111545000Y-77025500D03*
D36*
X102684951Y-73949269D03*
D37*
X102106442Y-74638709D02*
X103263460Y-73259829D01*
D36*
X109405049Y-73949269D03*
D37*
X108826540Y-73259829D02*
X109983558Y-74638709D01*
D41*
X108565000Y-72525500D03*
X103525000Y-72525500D03*
D40*
X111125000Y-77025500D03*
X100965000Y-77025500D03*
G04 #@! TD*
D34*
G04 #@! TO.C,SW3*
X86995000Y-96075500D03*
D35*
X92495000Y-96075500D03*
X81495000Y-96075500D03*
D36*
X90355049Y-92999269D03*
D37*
X90933558Y-93688709D02*
X89776540Y-92309829D01*
D36*
X83634951Y-92999269D03*
D37*
X84213460Y-92309829D02*
X83056442Y-93688709D01*
D41*
X84475000Y-91575500D03*
X89515000Y-91575500D03*
D40*
X81915000Y-96075500D03*
X92075000Y-96075500D03*
G04 #@! TD*
D42*
G04 #@! TO.C,Q1*
X161957000Y-131323000D03*
X161957000Y-133223000D03*
X163957000Y-132273000D03*
G04 #@! TD*
D32*
G04 #@! TO.C,D67*
X153035000Y-124333000D03*
D43*
X150495000Y-124333000D03*
G04 #@! TD*
D44*
G04 #@! TO.C,U3*
X136525000Y-58420000D03*
X136525000Y-60960000D03*
X136525000Y-63500000D03*
X136525000Y-66040000D03*
X136525000Y-68580000D03*
X136525000Y-71120000D03*
X136525000Y-73660000D03*
X136525000Y-76200000D03*
X136525000Y-78740000D03*
X136525000Y-81280000D03*
X136525000Y-83820000D03*
X136525000Y-86360000D03*
X151765000Y-86360000D03*
X151765000Y-83820000D03*
X151765000Y-81280000D03*
X151765000Y-78740000D03*
X151765000Y-76200000D03*
X151765000Y-73660000D03*
X151765000Y-71120000D03*
X151765000Y-68580000D03*
X151765000Y-66040000D03*
X151765000Y-63500000D03*
X151765000Y-60960000D03*
X151765000Y-58420000D03*
G04 #@! TD*
D32*
G04 #@! TO.C,D66*
X142875000Y-132111750D03*
D43*
X145415000Y-132111750D03*
G04 #@! TD*
D32*
G04 #@! TO.C,D65*
X123825000Y-134493000D03*
D43*
X126365000Y-134493000D03*
G04 #@! TD*
D32*
G04 #@! TO.C,D64*
X104775000Y-139255500D03*
D43*
X107315000Y-139255500D03*
G04 #@! TD*
D32*
G04 #@! TO.C,D63*
X85725000Y-139255500D03*
D43*
X88265000Y-139255500D03*
G04 #@! TD*
D32*
G04 #@! TO.C,D62*
X178056409Y-137815102D03*
X179326409Y-135615398D03*
D19*
G36*
X179748253Y-137189742D02*
X177752065Y-136037242D01*
X178904565Y-134041054D01*
X180900753Y-135193554D01*
X179748253Y-137189742D01*
X179748253Y-137189742D01*
G37*
G04 #@! TD*
D32*
G04 #@! TO.C,D61*
X180975000Y-117824250D03*
D43*
X183515000Y-117824250D03*
G04 #@! TD*
D32*
G04 #@! TO.C,D60*
X161925000Y-115443000D03*
D43*
X164465000Y-115443000D03*
G04 #@! TD*
D32*
G04 #@! TO.C,D59*
X142875000Y-113061750D03*
D43*
X145415000Y-113061750D03*
G04 #@! TD*
D32*
G04 #@! TO.C,D58*
X123825000Y-115443000D03*
D43*
X126365000Y-115443000D03*
G04 #@! TD*
D32*
G04 #@! TO.C,D57*
X104775000Y-120205500D03*
D43*
X107315000Y-120205500D03*
G04 #@! TD*
D32*
G04 #@! TO.C,D56*
X85725000Y-120205500D03*
D43*
X88265000Y-120205500D03*
G04 #@! TD*
D32*
G04 #@! TO.C,D55*
X200025000Y-108299250D03*
D43*
X202565000Y-108299250D03*
G04 #@! TD*
D32*
G04 #@! TO.C,D54*
X180975000Y-98774250D03*
D43*
X183515000Y-98774250D03*
G04 #@! TD*
D32*
G04 #@! TO.C,D53*
X161925000Y-96393000D03*
D43*
X164465000Y-96393000D03*
G04 #@! TD*
D32*
G04 #@! TO.C,D52*
X142875000Y-94011750D03*
D43*
X145415000Y-94011750D03*
G04 #@! TD*
D32*
G04 #@! TO.C,D51*
X123825000Y-96393000D03*
D43*
X126365000Y-96393000D03*
G04 #@! TD*
D32*
G04 #@! TO.C,D50*
X104775000Y-101155500D03*
D43*
X107315000Y-101155500D03*
G04 #@! TD*
D32*
G04 #@! TO.C,D49*
X85725000Y-101155500D03*
D43*
X88265000Y-101155500D03*
G04 #@! TD*
D32*
G04 #@! TO.C,D48*
X200025000Y-89249250D03*
D43*
X202565000Y-89249250D03*
G04 #@! TD*
D32*
G04 #@! TO.C,D47*
X180975000Y-79724250D03*
D43*
X183515000Y-79724250D03*
G04 #@! TD*
D32*
G04 #@! TO.C,D46*
X161925000Y-77343000D03*
D43*
X164465000Y-77343000D03*
G04 #@! TD*
D32*
G04 #@! TO.C,D45*
X142875000Y-74961750D03*
D43*
X145415000Y-74961750D03*
G04 #@! TD*
D32*
G04 #@! TO.C,D44*
X123825000Y-77343000D03*
D43*
X126365000Y-77343000D03*
G04 #@! TD*
D32*
G04 #@! TO.C,D43*
X104775000Y-82105500D03*
D43*
X107315000Y-82105500D03*
G04 #@! TD*
D32*
G04 #@! TO.C,D42*
X85725000Y-82105500D03*
D43*
X88265000Y-82105500D03*
G04 #@! TD*
D45*
G04 #@! TO.C,U9*
X128397000Y-61722000D03*
G04 #@! TD*
D44*
G04 #@! TO.C,J3*
X176911000Y-64770000D03*
X174411000Y-64770000D03*
X179411000Y-64770000D03*
G04 #@! TD*
G04 #@! TO.C,J2*
X96139000Y-67183000D03*
X93639000Y-67183000D03*
X98639000Y-67183000D03*
G04 #@! TD*
D33*
G04 #@! TO.C,W1*
X119491000Y-62738000D03*
X117491000Y-62738000D03*
G04 #@! TD*
D45*
G04 #@! TO.C,U7*
X96520000Y-124968000D03*
G04 #@! TD*
G04 #@! TO.C,U5*
X96520000Y-86614000D03*
G04 #@! TD*
G04 #@! TO.C,U4*
X185801000Y-124714000D03*
G04 #@! TD*
G04 #@! TO.C,U2*
X191770000Y-84074000D03*
G04 #@! TD*
G04 #@! TO.C,U1*
X134620000Y-100838000D03*
G04 #@! TD*
D34*
G04 #@! TO.C,SW4*
X86995000Y-115125500D03*
D35*
X92495000Y-115125500D03*
X81495000Y-115125500D03*
D36*
X90355049Y-112049269D03*
D37*
X90933558Y-112738709D02*
X89776540Y-111359829D01*
D36*
X83634951Y-112049269D03*
D37*
X84213460Y-111359829D02*
X83056442Y-112738709D01*
D41*
X84475000Y-110625500D03*
X89515000Y-110625500D03*
D40*
X81915000Y-115125500D03*
X92075000Y-115125500D03*
G04 #@! TD*
D34*
G04 #@! TO.C,SW11*
X125095000Y-91313000D03*
D35*
X119595000Y-91313000D03*
X130595000Y-91313000D03*
D36*
X121734951Y-88236769D03*
D37*
X121156442Y-88926209D02*
X122313460Y-87547329D01*
D36*
X128455049Y-88236769D03*
D37*
X127876540Y-87547329D02*
X129033558Y-88926209D01*
D41*
X127615000Y-86813000D03*
X122575000Y-86813000D03*
D40*
X130175000Y-91313000D03*
X120015000Y-91313000D03*
G04 #@! TD*
D34*
G04 #@! TO.C,SW12*
X125095000Y-110363000D03*
D35*
X119595000Y-110363000D03*
X130595000Y-110363000D03*
D36*
X121734951Y-107286769D03*
D37*
X121156442Y-107976209D02*
X122313460Y-106597329D01*
D36*
X128455049Y-107286769D03*
D37*
X127876540Y-106597329D02*
X129033558Y-107976209D01*
D41*
X127615000Y-105863000D03*
X122575000Y-105863000D03*
D40*
X130175000Y-110363000D03*
X120015000Y-110363000D03*
G04 #@! TD*
D34*
G04 #@! TO.C,SW33*
X144145000Y-127031750D03*
D35*
X149645000Y-127031750D03*
X138645000Y-127031750D03*
D36*
X147505049Y-123955519D03*
D37*
X148083558Y-124644959D02*
X146926540Y-123266079D01*
D36*
X140784951Y-123955519D03*
D37*
X141363460Y-123266079D02*
X140206442Y-124644959D01*
D41*
X141625000Y-122531750D03*
X146665000Y-122531750D03*
D40*
X139065000Y-127031750D03*
X149225000Y-127031750D03*
G04 #@! TD*
D46*
G04 #@! TO.C,SW37*
X140518000Y-61174000D03*
X147518000Y-61174000D03*
D44*
X141518000Y-58674000D03*
X146518000Y-58674000D03*
G04 #@! TD*
D46*
G04 #@! TO.C,SW29*
X166314000Y-61174000D03*
X159314000Y-61174000D03*
D44*
X165314000Y-58674000D03*
X160314000Y-58674000D03*
G04 #@! TD*
D34*
G04 #@! TO.C,SW38*
X151765000Y-129413000D03*
D35*
X157265000Y-129413000D03*
X146265000Y-129413000D03*
D36*
X155125049Y-132489231D03*
D37*
X155703558Y-131799791D02*
X154546540Y-133178671D01*
D36*
X148404951Y-132489231D03*
D37*
X148983460Y-133178671D02*
X147826442Y-131799791D01*
D41*
X149245000Y-133913000D03*
X154285000Y-133913000D03*
D40*
X146685000Y-129413000D03*
X156845000Y-129413000D03*
G04 #@! TD*
D34*
G04 #@! TO.C,SW34*
X174292000Y-134175250D03*
D35*
X171542000Y-138938390D03*
X177042000Y-129412110D03*
D36*
X169947881Y-135547022D03*
D37*
X170255699Y-136392745D02*
X169640063Y-134701299D01*
D36*
X173307930Y-129727247D03*
D37*
X172421603Y-129883530D02*
X174194257Y-129570964D01*
D38*
X171654886Y-129742866D03*
D39*
X171205852Y-129483616D02*
X172103920Y-130002116D01*
D38*
X169134886Y-134107634D03*
D39*
X168685852Y-133848384D02*
X169583920Y-134366884D01*
D40*
X176832000Y-129775841D03*
X171752000Y-138574659D03*
G04 #@! TD*
D20*
G04 #@! TO.C,R1*
X113002647Y-63894735D03*
D13*
X113002647Y-63894735D02*
X113002647Y-63894735D01*
D20*
X102997000Y-65659000D03*
G04 #@! TD*
D22*
G04 #@! TO.C,R2*
X133731000Y-70358000D03*
D20*
X133731000Y-60198000D03*
G04 #@! TD*
D34*
G04 #@! TO.C,SW10*
X125095000Y-72263000D03*
D35*
X130595000Y-72263000D03*
X119595000Y-72263000D03*
D36*
X128455049Y-69186769D03*
D37*
X129033558Y-69876209D02*
X127876540Y-68497329D01*
D36*
X121734951Y-69186769D03*
D37*
X122313460Y-68497329D02*
X121156442Y-69876209D01*
D41*
X122575000Y-67763000D03*
X127615000Y-67763000D03*
D40*
X120015000Y-72263000D03*
X130175000Y-72263000D03*
G04 #@! TD*
D34*
G04 #@! TO.C,SW15*
X144145000Y-88931750D03*
D35*
X138645000Y-88931750D03*
X149645000Y-88931750D03*
D36*
X140784951Y-85855519D03*
D37*
X140206442Y-86544959D02*
X141363460Y-85166079D01*
D36*
X147505049Y-85855519D03*
D37*
X146926540Y-85166079D02*
X148083558Y-86544959D01*
D41*
X146665000Y-84431750D03*
X141625000Y-84431750D03*
D40*
X149225000Y-88931750D03*
X139065000Y-88931750D03*
G04 #@! TD*
D34*
G04 #@! TO.C,SW19*
X163195000Y-91313000D03*
D35*
X157695000Y-91313000D03*
X168695000Y-91313000D03*
D36*
X159834951Y-88236769D03*
D37*
X159256442Y-88926209D02*
X160413460Y-87547329D01*
D36*
X166555049Y-88236769D03*
D37*
X165976540Y-87547329D02*
X167133558Y-88926209D01*
D41*
X165715000Y-86813000D03*
X160675000Y-86813000D03*
D40*
X168275000Y-91313000D03*
X158115000Y-91313000D03*
G04 #@! TD*
D34*
G04 #@! TO.C,SW27*
X201295000Y-103219250D03*
D35*
X195795000Y-103219250D03*
X206795000Y-103219250D03*
D36*
X197934951Y-100143019D03*
D37*
X197356442Y-100832459D02*
X198513460Y-99453579D01*
D36*
X204655049Y-100143019D03*
D37*
X204076540Y-99453579D02*
X205233558Y-100832459D01*
D41*
X203815000Y-98719250D03*
X198775000Y-98719250D03*
D40*
X206375000Y-103219250D03*
X196215000Y-103219250D03*
G04 #@! TD*
D34*
G04 #@! TO.C,SW23*
X182245000Y-93694250D03*
D35*
X187745000Y-93694250D03*
X176745000Y-93694250D03*
D36*
X185605049Y-90618019D03*
D37*
X186183558Y-91307459D02*
X185026540Y-89928579D01*
D36*
X178884951Y-90618019D03*
D37*
X179463460Y-89928579D02*
X178306442Y-91307459D01*
D41*
X179725000Y-89194250D03*
X184765000Y-89194250D03*
D40*
X177165000Y-93694250D03*
X187325000Y-93694250D03*
G04 #@! TD*
D44*
G04 #@! TO.C,U6*
X170815000Y-58420000D03*
X170815000Y-60960000D03*
X170815000Y-63500000D03*
X170815000Y-66040000D03*
X170815000Y-68580000D03*
X170815000Y-71120000D03*
X170815000Y-73660000D03*
X170815000Y-76200000D03*
X170815000Y-78740000D03*
X170815000Y-81280000D03*
X170815000Y-83820000D03*
X170815000Y-86360000D03*
X155575000Y-86360000D03*
X155575000Y-83820000D03*
X155575000Y-81280000D03*
X155575000Y-78740000D03*
X155575000Y-76200000D03*
X155575000Y-73660000D03*
X155575000Y-71120000D03*
X155575000Y-68580000D03*
X155575000Y-66040000D03*
X155575000Y-63500000D03*
X155575000Y-60960000D03*
X155575000Y-58420000D03*
G04 #@! TD*
D47*
G04 #@! TO.C,M1*
X157884000Y-122682000D03*
X170284000Y-122682000D03*
G04 #@! TD*
D28*
G04 #@! TO.C,*
X224068687Y-138130189D03*
X212130687Y-158807411D03*
D27*
X210870460Y-130510189D03*
X198932460Y-151187411D03*
G04 #@! TD*
D34*
G04 #@! TO.C,SW2*
X86995000Y-77025500D03*
D35*
X92495000Y-77025500D03*
X81495000Y-77025500D03*
D36*
X90355049Y-73949269D03*
D37*
X90933558Y-74638709D02*
X89776540Y-73259829D01*
D36*
X83634951Y-73949269D03*
D37*
X84213460Y-73259829D02*
X83056442Y-74638709D01*
D41*
X84475000Y-72525500D03*
X89515000Y-72525500D03*
D40*
X81915000Y-77025500D03*
X92075000Y-77025500D03*
G04 #@! TD*
D48*
G04 #@! TO.C,J1*
X197072000Y-72254000D03*
X193072000Y-72254000D03*
D49*
X195072000Y-67054000D03*
X199072000Y-75554000D03*
X195072000Y-74054000D03*
X191072000Y-75554000D03*
X195072000Y-70054000D03*
D48*
X193072000Y-65254000D03*
X197072000Y-65254000D03*
G04 #@! TD*
M02*
