M48
;DRILL file {KiCad (5.0.0)} date 09/16/18 22:23:19
;FORMAT={3:3/ absolute / metric / suppress leading zeros}
FMAT,2
METRIC,TZ
T1C0.400
T2C0.500
T3C0.600
T4C0.762
T5C0.800
T6C0.813
T7C0.991
T8C1.300
T9C1.500
T10C1.513
T11C1.200
T12C1.700
T13C1.900
T14C3.048
T15C3.988
T16C4.000
T17C5.000
%
G90
G05
M71
T1
X79883Y-85979
X79883Y-104140
X79883Y-118999
X80264Y-84836
X80518Y-109474
X80518Y-128397
X80645Y-80010
X80772Y-91059
X81915Y-89789
X82042Y-123317
X82677Y-104648
X83185Y-100076
X83439Y-124206
X84963Y-69723
X91059Y-140843
X93091Y-118110
X93091Y-126873
X93599Y-82169
X93599Y-101219
X95377Y-104013
X96393Y-141097
X97028Y-138303
X99060Y-117856
X101219Y-140716
X104140Y-117856
X106045Y-66209
X112776Y-121666
X113030Y-140716
X117475Y-69342
X118745Y-83185
X118872Y-140589
X120015Y-104394
X121031Y-139954
X121666Y-122428
X123063Y-138303
X128524Y-84074
X129540Y-77724
X131699Y-66802
X131826Y-78740
X131826Y-82169
X133731Y-76962
X133731Y-96247
X135636Y-138430
X139319Y-74930
X140081Y-79737
X140335Y-133858
X140716Y-120269
X140843Y-140716
X143256Y-139954
X144145Y-62611
X144145Y-66040
X145669Y-138303
X147447Y-94615
X147574Y-75819
X147574Y-79121
X148844Y-75692
X153670Y-72390
X153670Y-77470
X155575Y-122555
X156591Y-108077
X157861Y-140208
X158115Y-74930
X159893Y-135001
X161163Y-94615
X162941Y-119126
X162941Y-130429
X162941Y-132207
X162941Y-134220
X163068Y-140589
X163449Y-137541
X165989Y-135890
X167513Y-140589
X167767Y-74930
X168910Y-139065
X170815Y-127381
X171450Y-103505
X172593Y-122682
X173736Y-61849
X174752Y-140843
X175895Y-138684
X180594Y-122682
X181991Y-132842
X182245Y-100584
X182245Y-106045
X184785Y-130156
X185547Y-76327
X186563Y-85344
X187198Y-129159
X187198Y-135636
X187833Y-145415
X188233Y-132842
X188849Y-130156
X188976Y-102616
X189252Y-137725
X189357Y-78105
X189738Y-130937
X189992Y-113030
X189992Y-133312
X191897Y-127889
X193675Y-145923
X195072Y-78105
X196723Y-147193
X198247Y-120904
X198755Y-133477
X199136Y-139827
X199600Y-123825
X200177Y-137287
X200787Y-123444
X201295Y-138557
X201422Y-119888
X201930Y-135001
X202311Y-133731
X202819Y-147447
X204031Y-153563
X205486Y-91948
X205740Y-112395
X205867Y-132842
X206375Y-118618
X206502Y-108966
X207137Y-119615
X207518Y-112776
X207899Y-92202
X208026Y-88138
X208026Y-97409
X208026Y-120396
X208407Y-113792
X212725Y-156464
X215519Y-132842
X217034Y-133087
X173990Y-75459
X173990Y-78719
X196813Y-115951
X199213Y-115951
X123875Y-118745
X126275Y-118745
X181025Y-104521
X183425Y-104521
X161975Y-80645
X164375Y-80645
X111030Y-66209
X113030Y-66209
X115030Y-66209
X114427Y-113411
X114427Y-116671
X173990Y-93514
X173990Y-96774
X173990Y-111146
X173990Y-114406
X111030Y-68368
X113030Y-68368
X115030Y-68368
X180488Y-120523
X183748Y-120523
X116713Y-113432
X116713Y-116692
X142798Y-118618
X145198Y-118618
X192913Y-104698
X192913Y-107098
X162015Y-102235
X164415Y-102235
X95377Y-75909
X95377Y-78309
X152273Y-113861
X152273Y-116261
X133477Y-109135
X133477Y-112395
X116713Y-127910
X116713Y-131170
X157884Y-122682
X170284Y-122682
X142925Y-78232
X145325Y-78232
X181025Y-102108
X183425Y-102108
X123875Y-121031
X126275Y-121031
X142798Y-116332
X145198Y-116332
X123875Y-80645
X126275Y-80645
X181025Y-82931
X183425Y-82931
X171323Y-111125
X171323Y-114385
X152273Y-98086
X152273Y-101346
X190627Y-104309
X190627Y-107569
X180668Y-139125
X182298Y-136302
X123875Y-99695
X126275Y-99695
X104738Y-125857
X107138Y-125857
X161975Y-99695
X164375Y-99695
X104825Y-85344
X107225Y-85344
X114427Y-75459
X114427Y-78719
X97663Y-75459
X97663Y-78719
X116840Y-94382
X116840Y-97642
X97663Y-112924
X97663Y-116184
X177069Y-126439
X179892Y-128069
X216890Y-128475
X218969Y-129675
X104738Y-123444
X107138Y-123444
X142925Y-97282
X145325Y-97282
X190627Y-118237
X190627Y-121497
X97663Y-94382
X97663Y-97642
X135763Y-109135
X135763Y-112395
X116586Y-75459
X116586Y-78719
X171450Y-93472
X171450Y-96732
X133477Y-125624
X133477Y-128884
X200126Y-157304
X202205Y-158504
X95377Y-113353
X95377Y-115753
X104992Y-106807
X107392Y-106807
X95377Y-94832
X95377Y-97232
X190627Y-91842
X190627Y-95102
X155194Y-98044
X155194Y-101304
X155067Y-113755
X155067Y-116155
X104992Y-104394
X107392Y-104394
X114427Y-94382
X114427Y-97642
X196813Y-113538
X199213Y-113538
X180034Y-145587
X182113Y-146787
X192913Y-92313
X192913Y-94713
X133731Y-84751
X133731Y-88011
X114427Y-127910
X114427Y-131170
X204290Y-142173
X205920Y-139350
T2
X117491Y-62738
X119491Y-62738
T4
X93639Y-67183
X96139Y-67183
X98639Y-67183
X160314Y-58674
X165314Y-58674
X174411Y-64770
X176911Y-64770
X179411Y-64770
X141518Y-58674
X146518Y-58674
T5
X114427Y-90932
X114427Y-101092
X192913Y-113538
X203073Y-113538
X176657Y-143637
X185456Y-148717
X192913Y-88413
X192913Y-98573
X133731Y-81301
X133731Y-91461
X114427Y-124460
X114427Y-134620
X202565Y-145161
X207645Y-136362
X173990Y-72009
X173990Y-82169
X192913Y-115951
X203073Y-115951
X120015Y-118745
X130175Y-118745
X177165Y-104521
X187325Y-104521
X158115Y-80645
X168275Y-80645
X114427Y-109961
X114427Y-120121
X173990Y-90064
X173990Y-100224
X173990Y-107696
X173990Y-117856
X177038Y-120523
X187198Y-120523
X116713Y-109982
X116713Y-120142
X138938Y-118618
X149098Y-118618
X192913Y-100838
X192913Y-110998
X158115Y-102235
X168275Y-102235
X95377Y-72009
X95377Y-82169
X152273Y-109961
X152273Y-120121
X133477Y-105685
X133477Y-115845
X116713Y-124460
X116713Y-134620
X139065Y-78232
X149225Y-78232
X177165Y-102108
X187325Y-102108
X120015Y-121031
X130175Y-121031
X138938Y-116332
X149098Y-116332
X120015Y-80645
X130175Y-80645
X177165Y-82931
X187325Y-82931
X171323Y-107675
X171323Y-117835
X152273Y-94636
X152273Y-104796
X190627Y-100859
X190627Y-111019
X178943Y-142113
X184023Y-133314
X120015Y-99695
X130175Y-99695
X100838Y-125857
X110998Y-125857
X158115Y-99695
X168275Y-99695
X100965Y-85344
X111125Y-85344
X114427Y-72009
X114427Y-82169
X97663Y-72009
X97663Y-82169
X116840Y-90932
X116840Y-101092
X97663Y-109474
X97663Y-119634
X174081Y-124714
X182880Y-129794
X102997Y-65659
X113003Y-63895
X213547Y-126545
X222346Y-131625
X100838Y-123444
X110998Y-123444
X139065Y-97282
X149225Y-97282
X190627Y-114787
X190627Y-124947
X97663Y-90932
X97663Y-101092
X135763Y-105685
X135763Y-115845
X116586Y-72009
X116586Y-82169
X133731Y-60198
X133731Y-70358
X171450Y-90022
X171450Y-100182
X133477Y-122174
X133477Y-132334
X196783Y-155374
X205582Y-160454
X95377Y-109453
X95377Y-119613
X101092Y-106807
X111252Y-106807
X95377Y-90932
X95377Y-101092
X190627Y-88392
X190627Y-98552
X155194Y-94594
X155194Y-104754
X155067Y-109855
X155067Y-120015
X101092Y-104394
X111252Y-104394
T6
X136525Y-58420
X136525Y-60960
X136525Y-63500
X136525Y-66040
X136525Y-68580
X136525Y-71120
X136525Y-73660
X136525Y-76200
X136525Y-78740
X136525Y-81280
X136525Y-83820
X136525Y-86360
X151765Y-58420
X151765Y-60960
X151765Y-63500
X151765Y-66040
X151765Y-68580
X151765Y-71120
X151765Y-73660
X151765Y-76200
X151765Y-78740
X151765Y-81280
X151765Y-83820
X151765Y-86360
X155575Y-58420
X155575Y-60960
X155575Y-63500
X155575Y-66040
X155575Y-68580
X155575Y-71120
X155575Y-73660
X155575Y-76200
X155575Y-78740
X155575Y-81280
X155575Y-83820
X155575Y-86360
X170815Y-58420
X170815Y-60960
X170815Y-63500
X170815Y-66040
X170815Y-68580
X170815Y-71120
X170815Y-73660
X170815Y-76200
X170815Y-78740
X170815Y-81280
X170815Y-83820
X170815Y-86360
T7
X85725Y-120206
X88265Y-120206
X123825Y-77343
X126365Y-77343
X142875Y-132112
X145415Y-132112
X202254Y-151785
X203524Y-149585
X211779Y-135287
X213049Y-133087
X185756Y-142260
X187026Y-140060
X161925Y-115443
X164465Y-115443
X142875Y-113062
X145415Y-113062
X123825Y-134493
X126365Y-134493
X180975Y-79724
X183515Y-79724
X161925Y-77343
X164465Y-77343
X195281Y-125762
X196551Y-123562
X123825Y-115443
X126365Y-115443
X200025Y-108299
X202565Y-108299
X104775Y-101156
X107315Y-101156
X104775Y-139256
X107315Y-139256
X104775Y-82106
X107315Y-82106
X142875Y-74962
X145415Y-74962
X150495Y-124333
X153035Y-124333
X123825Y-96393
X126365Y-96393
X161925Y-96393
X164465Y-96393
X85725Y-101156
X88265Y-101156
X180975Y-117824
X183515Y-117824
X200025Y-89249
X202565Y-89249
X104775Y-120206
X107315Y-120206
X85725Y-82106
X88265Y-82106
X85725Y-139256
X88265Y-139256
X180975Y-98774
X183515Y-98774
X178056Y-137815
X179326Y-135615
X142875Y-94012
X145415Y-94012
X215815Y-148616
X217085Y-146416
T8
X159314Y-61174
X166314Y-61174
X140518Y-61174
X147518Y-61174
T9
X178435Y-72104
X186055Y-72104
X147955Y-131953
X155575Y-131953
X121285Y-69723
X128905Y-69723
X140335Y-67342
X147955Y-67342
X121285Y-107823
X128905Y-107823
X197485Y-100679
X205105Y-100679
X121285Y-126873
X128905Y-126873
X191448Y-137481
X195258Y-130882
X159385Y-69723
X167005Y-69723
X83185Y-74486
X90805Y-74486
X102235Y-93536
X109855Y-93536
X102235Y-112586
X109855Y-112586
X191085Y-148270
X194895Y-141671
X197485Y-81629
X205105Y-81629
X83185Y-112586
X90805Y-112586
X170187Y-136205
X173997Y-129606
X83185Y-93536
X90805Y-93536
X159385Y-107823
X167005Y-107823
X178435Y-110204
X186055Y-110204
X207583Y-157795
X211393Y-151196
X102235Y-74486
X109855Y-74486
X102235Y-131636
X109855Y-131636
X207946Y-147006
X211756Y-140407
X83185Y-131636
X90805Y-131636
X159385Y-88773
X167005Y-88773
X200610Y-131772
X204420Y-125173
X140335Y-86392
X147955Y-86392
X178435Y-91154
X186055Y-91154
X140335Y-105442
X147955Y-105442
X217108Y-141297
X220918Y-134698
X121285Y-88773
X128905Y-88773
X140335Y-124492
X147955Y-124492
T11
X193072Y-65254
X193072Y-72254
X197072Y-65254
X197072Y-72254
T12
X120015Y-129413
X130175Y-129413
X193013Y-139851
X198093Y-131052
X158115Y-72263
X168275Y-72263
X81915Y-77026
X92075Y-77026
X100965Y-96076
X111125Y-96076
X100965Y-115126
X111125Y-115126
X188250Y-148100
X193330Y-139301
X196215Y-84169
X206375Y-84169
X81915Y-115126
X92075Y-115126
X171752Y-138575
X176832Y-129776
X81915Y-96076
X92075Y-96076
X158115Y-110363
X168275Y-110363
X177165Y-112744
X187325Y-112744
X204748Y-157625
X209828Y-148826
X100965Y-77026
X111125Y-77026
X100965Y-134176
X111125Y-134176
X209510Y-149376
X214590Y-140577
X81915Y-134176
X92075Y-134176
X158115Y-91313
X168275Y-91313
X197775Y-131602
X202855Y-122803
X139065Y-88932
X149225Y-88932
X177165Y-93694
X187325Y-93694
X139065Y-107982
X149225Y-107982
X214273Y-141127
X219353Y-132328
X120015Y-91313
X130175Y-91313
X139065Y-127032
X149225Y-127032
X177165Y-74644
X187325Y-74644
X146685Y-129413
X156845Y-129413
X120015Y-72263
X130175Y-72263
X139065Y-69882
X149225Y-69882
X120015Y-110363
X130175Y-110363
X196215Y-103219
X206375Y-103219
T13
X138645Y-69882
X149645Y-69882
X119595Y-110363
X130595Y-110363
X195795Y-103219
X206795Y-103219
X119595Y-129413
X130595Y-129413
X192803Y-140214
X198303Y-130688
X157695Y-72263
X168695Y-72263
X81495Y-77026
X92495Y-77026
X100545Y-96076
X111545Y-96076
X100545Y-115126
X111545Y-115126
X188040Y-148463
X193540Y-138937
X195795Y-84169
X206795Y-84169
X81495Y-115126
X92495Y-115126
X171542Y-138938
X177042Y-129412
X81495Y-96076
X92495Y-96076
X157695Y-110363
X168695Y-110363
X176745Y-112744
X187745Y-112744
X204538Y-157988
X210038Y-148462
X100545Y-77026
X111545Y-77026
X100545Y-134176
X111545Y-134176
X209301Y-149739
X214801Y-140213
X81495Y-134176
X92495Y-134176
X157695Y-91313
X168695Y-91313
X197565Y-131965
X203065Y-122439
X138645Y-88932
X149645Y-88932
X176745Y-93694
X187745Y-93694
X138645Y-107982
X149645Y-107982
X214063Y-141490
X219563Y-131964
X119595Y-91313
X130595Y-91313
X138645Y-127032
X149645Y-127032
X176745Y-74644
X187745Y-74644
X146265Y-129413
X157265Y-129413
X119595Y-72263
X130595Y-72263
T14
X212131Y-158807
X224069Y-138130
X195633Y-149282
X207571Y-128605
T15
X198932Y-151187
X210870Y-130510
X182434Y-141662
X194372Y-120985
T16
X125095Y-129413
X195553Y-135451
X163195Y-72263
X86995Y-77026
X106045Y-96076
X106045Y-115126
X190790Y-143700
X201295Y-84169
X86995Y-115126
X174292Y-134175
X86995Y-96076
X163195Y-110363
X182245Y-112744
X207288Y-153225
X106045Y-77026
X106045Y-134176
X212051Y-144976
X86995Y-134176
X163195Y-91313
X200315Y-127202
X144145Y-88932
X182245Y-93694
X144145Y-107982
X216813Y-136727
X125095Y-91313
X144145Y-127032
X182245Y-74644
X151765Y-129413
X125095Y-72263
X144145Y-69882
X125095Y-110363
X201295Y-103219
T17
X128397Y-61722
X134620Y-100838
X96520Y-86614
X96520Y-124968
X185801Y-124714
X191770Y-84074
T3
X191072Y-75104G85X191072Y-76004
G05
X195072Y-66604G85X195072Y-67504
G05
X195072Y-69604G85X195072Y-70504
G05
X195072Y-73604G85X195072Y-74504
G05
X199072Y-75104G85X199072Y-76004
G05
T10
X179725Y-70663G85X179725Y-69626
G05
X184765Y-70663G85X184765Y-69626
G05
X149245Y-134432G85X149245Y-133395
G05
X154285Y-134432G85X154285Y-133395
G05
X122575Y-68282G85X122575Y-67245
G05
X127615Y-68282G85X127615Y-67245
G05
X141625Y-64863G85X141625Y-65900
G05
X146665Y-64863G85X146665Y-65900
G05
X122575Y-105344G85X122575Y-106381
G05
X127615Y-105344G85X127615Y-106381
G05
X198775Y-98201G85X198775Y-99238
G05
X203815Y-98201G85X203815Y-99238
G05
X122575Y-125432G85X122575Y-124394
G05
X127615Y-125432G85X127615Y-124394
G05
X189946Y-135124G85X190844Y-135643
G05
X192466Y-130760G85X193364Y-131278
G05
X160675Y-67245G85X160675Y-68282
G05
X165715Y-67245G85X165715Y-68282
G05
X84475Y-73044G85X84475Y-72007
G05
X89515Y-73044G85X89515Y-72007
G05
X103525Y-91057G85X103525Y-92094
G05
X108565Y-91057G85X108565Y-92094
G05
X103525Y-110107G85X103525Y-111144
G05
X108565Y-110107G85X108565Y-111144
G05
X193876Y-148392G85X192978Y-147873
G05
X196396Y-144027G85X195498Y-143509
G05
X198775Y-79151G85X198775Y-80188
G05
X203815Y-79151G85X203815Y-80188
G05
X84475Y-111144G85X84475Y-110107
G05
X89515Y-111144G85X89515Y-110107
G05
X168686Y-133848G85X169584Y-134367
G05
X171206Y-129484G85X172104Y-130002
G05
X84475Y-92094G85X84475Y-91057
G05
X89515Y-92094G85X89515Y-91057
G05
X160675Y-105344G85X160675Y-106381
G05
X165715Y-105344G85X165715Y-106381
G05
X179725Y-108763G85X179725Y-107726
G05
X184765Y-108763G85X184765Y-107726
G05
X210374Y-157917G85X209476Y-157398
G05
X212894Y-153552G85X211996Y-153034
G05
X103525Y-72007G85X103525Y-73044
G05
X108565Y-72007G85X108565Y-73044
G05
X103525Y-129157G85X103525Y-130194
G05
X108565Y-129157G85X108565Y-130194
G05
X206444Y-144649G85X207342Y-145168
G05
X208964Y-140285G85X209862Y-140803
G05
X84475Y-130194G85X84475Y-129157
G05
X89515Y-130194G85X89515Y-129157
G05
X160675Y-86294G85X160675Y-87332
G05
X165715Y-86294G85X165715Y-87332
G05
X203401Y-131894G85X202503Y-131375
G05
X205921Y-127529G85X205023Y-127011
G05
X141625Y-83913G85X141625Y-84950
G05
X146665Y-83913G85X146665Y-84950
G05
X179725Y-89713G85X179725Y-88676
G05
X184765Y-89713G85X184765Y-88676
G05
X141625Y-102963G85X141625Y-104000
G05
X146665Y-102963G85X146665Y-104000
G05
X219899Y-141419G85X219001Y-140900
G05
X222419Y-137054G85X221521Y-136536
G05
X122575Y-86294G85X122575Y-87332
G05
X127615Y-86294G85X127615Y-87332
G05
X141625Y-123050G85X141625Y-122013
G05
X146665Y-123050G85X146665Y-122013
G05
T0
M30
