<?xml version="1.0" encoding="utf-8"?>
<!-- Generator: Adobe Illustrator 16.0.0, SVG Export Plug-In . SVG Version: 6.00 Build 0)  -->
<!DOCTYPE svg PUBLIC "-//W3C//DTD SVG 1.1//EN" "http://www.w3.org/Graphics/SVG/1.1/DTD/svg11.dtd">
<svg version="1.1" id="レイヤー_1" xmlns="http://www.w3.org/2000/svg" xmlns:xlink="http://www.w3.org/1999/xlink" x="0px"
	 y="0px" width="1190.55px" height="841.89px" viewBox="0 0 1190.55 841.89" enable-background="new 0 0 1190.55 841.89"
	 xml:space="preserve">
<g>
	<polyline fill="none" stroke="#E71F19" stroke-width="0.9921" stroke-miterlimit="10" points="206.701,293.557 206.701,253.836 
		246.421,253.836 246.421,293.557 206.701,293.557 	"/>
	<polyline fill="none" stroke="#E71F19" stroke-width="0.9921" stroke-miterlimit="10" points="152.701,293.557 152.701,253.836 
		192.421,253.836 192.421,293.557 152.701,293.557 	"/>
	<polyline fill="none" stroke="#E71F19" stroke-width="0.9921" stroke-miterlimit="10" points="220.201,361.835 220.201,401.557 
		259.921,401.557 259.921,361.835 220.201,361.835 	"/>
	<polyline fill="none" stroke="#E71F19" stroke-width="0.9921" stroke-miterlimit="10" points="58.201,361.835 58.201,401.557 
		97.921,401.557 97.921,361.835 58.201,361.835 	"/>
	<polyline fill="none" stroke="#E71F19" stroke-width="0.9921" stroke-miterlimit="10" points="51.48,131.556 51.48,91.837 
		91.14,91.837 91.14,131.556 51.48,131.556 	"/>
	<polyline fill="none" stroke="#E71F19" stroke-width="0.9921" stroke-miterlimit="10" points="112.201,361.835 112.201,401.557 
		151.921,401.557 151.921,361.835 112.201,361.835 	"/>
	<polyline fill="none" stroke="#E71F19" stroke-width="0.9921" stroke-miterlimit="10" points="166.201,361.835 166.201,401.557 
		205.921,401.557 205.921,361.835 166.201,361.835 	"/>
	<polyline fill="none" stroke="#E71F19" stroke-width="0.9921" stroke-miterlimit="10" points="58.201,347.556 58.201,307.836 
		97.921,307.836 97.921,347.556 58.201,347.556 	"/>
	<polyline fill="none" stroke="#E71F19" stroke-width="0.9921" stroke-miterlimit="10" points="112.201,347.556 112.201,307.836 
		151.921,307.836 151.921,347.556 112.201,347.556 	"/>
	<polyline fill="none" stroke="#E71F19" stroke-width="0.9921" stroke-miterlimit="10" points="166.201,347.556 166.201,307.836 
		205.921,307.836 205.921,347.556 166.201,347.556 	"/>
	<polyline fill="none" stroke="#E71F19" stroke-width="0.9921" stroke-miterlimit="10" points="220.201,347.556 220.201,307.836 
		259.921,307.836 259.921,347.556 220.201,347.556 	"/>
	<polyline fill="none" stroke="#E71F19" stroke-width="0.9921" stroke-miterlimit="10" points="44.701,253.836 44.701,293.557 
		84.421,293.557 84.421,253.836 44.701,253.836 	"/>
	<polyline fill="none" stroke="#E71F19" stroke-width="0.9921" stroke-miterlimit="10" points="98.701,253.836 98.701,293.557 
		138.421,293.557 138.421,253.836 98.701,253.836 	"/>
	<polyline fill="none" stroke="#E71F19" stroke-width="0.9921" stroke-miterlimit="10" points="37.98,239.557 37.98,199.838 
		77.64,199.838 77.64,239.557 37.98,239.557 	"/>
	<polyline fill="none" stroke="#E71F19" stroke-width="0.9921" stroke-miterlimit="10" points="91.98,239.557 91.98,199.838 
		131.64,199.838 131.64,239.557 91.98,239.557 	"/>
	<polyline fill="none" stroke="#E71F19" stroke-width="0.9921" stroke-miterlimit="10" points="145.98,239.557 145.98,199.838 
		185.64,199.838 185.64,239.557 145.98,239.557 	"/>
	<polyline fill="none" stroke="#E71F19" stroke-width="0.9921" stroke-miterlimit="10" points="199.98,239.557 199.98,199.838 
		239.64,199.838 239.64,239.557 199.98,239.557 	"/>
	<polyline fill="none" stroke="#E71F19" stroke-width="0.9921" stroke-miterlimit="10" points="44.701,185.557 44.701,145.837 
		84.421,145.837 84.421,185.557 44.701,185.557 	"/>
	<polyline fill="none" stroke="#E71F19" stroke-width="0.9921" stroke-miterlimit="10" points="98.701,185.557 98.701,145.837 
		138.421,145.837 138.421,185.557 98.701,185.557 	"/>
	<polyline fill="none" stroke="#E71F19" stroke-width="0.9921" stroke-miterlimit="10" points="152.701,185.557 152.701,145.837 
		192.421,145.837 192.421,185.557 152.701,185.557 	"/>
	<polyline fill="none" stroke="#E71F19" stroke-width="0.9921" stroke-miterlimit="10" points="206.701,185.557 206.701,145.837 
		246.421,145.837 246.421,185.557 206.701,185.557 	"/>
	<polyline fill="none" stroke="#E71F19" stroke-width="0.9921" stroke-miterlimit="10" points="105.48,91.837 105.48,131.556 
		145.14,131.556 145.14,91.837 105.48,91.837 	"/>
	<polyline fill="none" stroke="#E71F19" stroke-width="0.9921" stroke-miterlimit="10" points="159.48,91.837 159.48,131.556 
		199.14,131.556 199.14,91.837 159.48,91.837 	"/>
	<polyline fill="none" stroke="#E71F19" stroke-width="0.9921" stroke-miterlimit="10" points="213.48,91.837 213.48,131.556 
		253.14,131.556 253.14,91.837 213.48,91.837 	"/>
	<polyline fill="none" stroke="#E71F19" stroke-width="0.9921" stroke-miterlimit="10" points="78.48,77.558 78.48,37.837 
		118.14,37.837 118.14,77.558 78.48,77.558 	"/>
	<polyline fill="none" stroke="#E71F19" stroke-width="0.9921" stroke-miterlimit="10" points="132.48,77.558 132.48,37.837 
		172.14,37.837 172.14,77.558 132.48,77.558 	"/>
	<polyline fill="none" stroke="#E71F19" stroke-width="0.9921" stroke-miterlimit="10" points="186.48,77.558 186.48,37.837 
		226.14,37.837 226.14,77.558 186.48,77.558 	"/>
	<polygon fill="none" stroke="#E71F19" stroke-width="0.9921" stroke-miterlimit="10" points="267.06,33.397 301.381,53.198 
		281.581,87.577 247.201,67.718 	"/>
	<polyline fill="none" stroke="#E71F19" stroke-width="0.9921" stroke-miterlimit="10" points="274.201,361.835 274.201,401.557 
		313.92,401.557 313.92,361.835 274.201,361.835 	"/>
	<polyline fill="none" stroke="#E71F19" stroke-width="0.9921" stroke-miterlimit="10" points="274.201,347.556 274.201,307.836 
		313.92,307.836 313.92,347.556 274.201,347.556 	"/>
	<polyline fill="none" stroke="#E71F19" stroke-width="0.9921" stroke-miterlimit="10" points="260.701,253.836 260.701,293.557 
		300.42,293.557 300.42,253.836 260.701,253.836 	"/>
	<polyline fill="none" stroke="#E71F19" stroke-width="0.9921" stroke-miterlimit="10" points="301.321,161.316 266.941,141.517 
		286.801,107.138 321.18,126.997 301.321,161.316 	"/>
	<polygon fill="none" stroke="#E71F19" stroke-width="0.9921" stroke-miterlimit="10" points="313.801,60.397 348.18,80.198 
		328.32,114.577 293.94,94.718 	"/>
	<polyline fill="none" stroke="#E71F19" stroke-width="0.9921" stroke-miterlimit="10" points="300.42,178.236 300.42,217.957 
		260.701,217.957 260.701,178.236 300.42,178.236 	"/>
	<path fill="none" stroke="#E71F19" stroke-width="0.9921" stroke-miterlimit="10" d="M294.061-13.403"/>
</g>
<g>
	<circle fill="none" stroke="#E71F19" stroke-width="0.9921" stroke-miterlimit="10" cx="106.087" cy="751.52" r="2.764"/>
	<circle fill="none" stroke="#E71F19" stroke-width="0.9921" stroke-miterlimit="10" cx="146.406" cy="643.52" r="2.764"/>
	<circle fill="none" stroke="#E71F19" stroke-width="0.9921" stroke-miterlimit="10" cx="247.207" cy="642.08" r="2.764"/>
	<circle fill="none" stroke="#E71F19" stroke-width="0.9921" stroke-miterlimit="10" cx="268.087" cy="498.439" r="2.764"/>
	<circle fill="none" stroke="#E71F19" stroke-width="0.9921" stroke-miterlimit="10" cx="98.886" cy="481.52" r="2.764"/>
	<circle fill="none" stroke="#E71F19" stroke-width="0.9921" stroke-miterlimit="10" cx="268.806" cy="751.52" r="2.764"/>
</g>
<g>
	<circle fill="none" stroke="#E71F19" stroke-width="0.9921" stroke-miterlimit="10" cx="105.21" cy="354.726" r="2.764"/>
	<circle fill="none" stroke="#E71F19" stroke-width="0.9921" stroke-miterlimit="10" cx="145.531" cy="246.727" r="2.764"/>
	<circle fill="none" stroke="#E71F19" stroke-width="0.9921" stroke-miterlimit="10" cx="246.331" cy="245.287" r="2.764"/>
	<circle fill="none" stroke="#E71F19" stroke-width="0.9921" stroke-miterlimit="10" cx="98.01" cy="84.727" r="2.764"/>
	<circle fill="none" stroke="#E71F19" stroke-width="0.9921" stroke-miterlimit="10" cx="267.21" cy="101.646" r="2.764"/>
	<circle fill="none" stroke="#E71F19" stroke-width="0.9921" stroke-miterlimit="10" cx="267.931" cy="354.726" r="2.764"/>
</g>
<g>
	<circle fill="none" stroke="#E71F19" stroke-width="0.9921" stroke-miterlimit="10" cx="741.797" cy="86.968" r="2.764"/>
	<circle fill="none" stroke="#E71F19" stroke-width="0.9921" stroke-miterlimit="10" cx="701.477" cy="194.968" r="2.764"/>
	<circle fill="none" stroke="#E71F19" stroke-width="0.9921" stroke-miterlimit="10" cx="748.996" cy="356.969" r="2.764"/>
</g>
<path fill="none" stroke="#E71F19" stroke-width="0.9921" stroke-miterlimit="10" d="M17.21,643.359
	c0.207,2.066,0.498,4.133,0.816,5.684l31.254,151.568c0.629,3.055,3.695,5.553,6.814,5.553h261.027c3.117,0,5.668-2.551,5.668-5.67
	V543.357c0-3.119,1.275-7.879,2.834-10.58l30.748-53.295c1.559-2.701,0.617-6.176-2.09-7.723l-75.092-42.854
	c-2.707-1.546-7.475-2.811-10.592-2.811H87.306c-3.119,0-7.727,1.508-10.242,3.352l-34.01,24.93
	c-0.25,0.184-0.496,0.389-0.736,0.613h37.826v34.365H38.357c-0.328,2.932-1.271,6.494-2.377,8.74l-16.596,33.746
	c-0.506,1.029-0.979,2.336-1.373,3.732h93.797v107.785H17.21z"/>
<g>
	<circle fill="none" stroke="#E71F19" stroke-width="0.9921" stroke-miterlimit="10" cx="1074.809" cy="491.575" r="2.764"/>
	<circle fill="none" stroke="#E71F19" stroke-width="0.9921" stroke-miterlimit="10" cx="1034.49" cy="599.575" r="2.764"/>
	<circle fill="none" stroke="#E71F19" stroke-width="0.9921" stroke-miterlimit="10" cx="933.689" cy="601.015" r="2.764"/>
	<circle fill="none" stroke="#E71F19" stroke-width="0.9921" stroke-miterlimit="10" cx="912.809" cy="744.655" r="2.764"/>
	<circle fill="none" stroke="#E71F19" stroke-width="0.9921" stroke-miterlimit="10" cx="1082.01" cy="761.575" r="2.764"/>
	<circle fill="none" stroke="#E71F19" stroke-width="0.9921" stroke-miterlimit="10" cx="912.091" cy="491.575" r="2.764"/>
</g>
<path fill="none" stroke="#E71F19" stroke-width="0.9921" stroke-miterlimit="10" d="M1163.686,599.735
	c-0.207-2.066-0.498-4.133-0.816-5.684l-31.254-151.568c-0.629-3.055-3.695-5.553-6.814-5.553H863.774
	c-3.117,0-5.668,2.551-5.668,5.67l-0.001,257.137c0,3.119-1.275,7.879-2.834,10.58l-30.748,53.295
	c-1.559,2.701-0.617,6.176,2.09,7.723l75.092,42.854c2.707,1.546,7.475,2.811,10.592,2.811h181.293
	c3.119,0,7.727-1.508,10.242-3.352l34.01-24.93c0.25-0.184,0.496-0.389,0.736-0.613h-37.826v-34.365h41.787
	c0.328-2.932,1.271-6.494,2.377-8.74l16.596-33.746c0.506-1.029,0.979-2.336,1.373-3.732h-93.797V599.735H1163.686z"/>
<line fill="none" stroke="#E71F19" stroke-width="0.9921" stroke-miterlimit="10" x1="691.502" y1="32.324" x2="691.501" y2="412.393"/>
<path fill="none" stroke="#E71F19" stroke-width="0.9921" stroke-miterlimit="10" d="M17.151,252.25
	c-0.63-3.054-1.145-8.104-1.145-11.222v-95.223c0-3.118,1.126-7.958,2.502-10.757l16.596-33.744
	c1.376-2.798,2.502-7.639,2.502-10.757V66.605c0-3.118,2.058-7.178,4.572-9.021l34.011-24.93c2.515-1.843,7.124-3.352,10.242-3.352
	h181.291c3.118,0,7.885,1.265,10.593,2.81l75.091,42.855c2.708,1.545,3.649,5.02,2.091,7.721l-30.748,53.296
	c-1.558,2.701-2.833,7.462-2.833,10.58v257.136c0,3.118-2.551,5.669-5.669,5.669H55.22c-3.118,0-6.185-2.499-6.814-5.552
	L17.151,252.25z"/>
<g>
	<polyline fill="none" stroke="#E71F19" stroke-width="0.9921" stroke-miterlimit="10" points="972.668,148.39 972.668,188.11 
		932.947,188.11 932.947,148.39 972.668,148.39 	"/>
	<polyline fill="none" stroke="#E71F19" stroke-width="0.9921" stroke-miterlimit="10" points="1026.668,148.39 1026.668,188.11 
		986.947,188.11 986.947,148.39 1026.668,148.39 	"/>
	<polyline fill="none" stroke="#E71F19" stroke-width="0.9921" stroke-miterlimit="10" points="959.168,80.111 959.168,40.389 
		919.447,40.389 919.447,80.111 959.168,80.111 	"/>
	<polyline fill="none" stroke="#E71F19" stroke-width="0.9921" stroke-miterlimit="10" points="1121.168,80.111 1121.168,40.389 
		1081.447,40.389 1081.447,80.111 1121.168,80.111 	"/>
	<polyline fill="none" stroke="#E71F19" stroke-width="0.9921" stroke-miterlimit="10" points="1127.889,310.391 1127.889,350.109 
		1088.229,350.109 1088.229,310.391 1127.889,310.391 	"/>
	<polyline fill="none" stroke="#E71F19" stroke-width="0.9921" stroke-miterlimit="10" points="1067.168,80.111 1067.168,40.389 
		1027.447,40.389 1027.447,80.111 1067.168,80.111 	"/>
	<polyline fill="none" stroke="#E71F19" stroke-width="0.9921" stroke-miterlimit="10" points="1013.168,80.111 1013.168,40.389 
		973.447,40.389 973.447,80.111 1013.168,80.111 	"/>
	<polyline fill="none" stroke="#E71F19" stroke-width="0.9921" stroke-miterlimit="10" points="1121.168,94.39 1121.168,134.11 
		1081.447,134.11 1081.447,94.39 1121.168,94.39 	"/>
	<polyline fill="none" stroke="#E71F19" stroke-width="0.9921" stroke-miterlimit="10" points="1067.168,94.39 1067.168,134.11 
		1027.447,134.11 1027.447,94.39 1067.168,94.39 	"/>
	<polyline fill="none" stroke="#E71F19" stroke-width="0.9921" stroke-miterlimit="10" points="1013.168,94.39 1013.168,134.11 
		973.447,134.11 973.447,94.39 1013.168,94.39 	"/>
	<polyline fill="none" stroke="#E71F19" stroke-width="0.9921" stroke-miterlimit="10" points="959.168,94.39 959.168,134.11 
		919.447,134.11 919.447,94.39 959.168,94.39 	"/>
	<polyline fill="none" stroke="#E71F19" stroke-width="0.9921" stroke-miterlimit="10" points="1134.668,188.11 1134.668,148.39 
		1094.947,148.39 1094.947,188.11 1134.668,188.11 	"/>
	<polyline fill="none" stroke="#E71F19" stroke-width="0.9921" stroke-miterlimit="10" points="1080.668,188.11 1080.668,148.39 
		1040.947,148.39 1040.947,188.11 1080.668,188.11 	"/>
	<polyline fill="none" stroke="#E71F19" stroke-width="0.9921" stroke-miterlimit="10" points="1141.389,202.39 1141.389,242.108 
		1101.729,242.108 1101.729,202.39 1141.389,202.39 	"/>
	<polyline fill="none" stroke="#E71F19" stroke-width="0.9921" stroke-miterlimit="10" points="1087.389,202.39 1087.389,242.108 
		1047.729,242.108 1047.729,202.39 1087.389,202.39 	"/>
	<polyline fill="none" stroke="#E71F19" stroke-width="0.9921" stroke-miterlimit="10" points="1033.389,202.39 1033.389,242.108 
		993.729,242.108 993.729,202.39 1033.389,202.39 	"/>
	<polyline fill="none" stroke="#E71F19" stroke-width="0.9921" stroke-miterlimit="10" points="979.389,202.39 979.389,242.108 
		939.729,242.108 939.729,202.39 979.389,202.39 	"/>
	<polyline fill="none" stroke="#E71F19" stroke-width="0.9921" stroke-miterlimit="10" points="1134.668,256.39 1134.668,296.109 
		1094.947,296.109 1094.947,256.39 1134.668,256.39 	"/>
	<polyline fill="none" stroke="#E71F19" stroke-width="0.9921" stroke-miterlimit="10" points="1080.668,256.39 1080.668,296.109 
		1040.947,296.109 1040.947,256.39 1080.668,256.39 	"/>
	<polyline fill="none" stroke="#E71F19" stroke-width="0.9921" stroke-miterlimit="10" points="1026.668,256.39 1026.668,296.109 
		986.947,296.109 986.947,256.39 1026.668,256.39 	"/>
	<polyline fill="none" stroke="#E71F19" stroke-width="0.9921" stroke-miterlimit="10" points="972.668,256.39 972.668,296.109 
		932.947,296.109 932.947,256.39 972.668,256.39 	"/>
	<polyline fill="none" stroke="#E71F19" stroke-width="0.9921" stroke-miterlimit="10" points="1073.889,350.109 1073.889,310.391 
		1034.229,310.391 1034.229,350.109 1073.889,350.109 	"/>
	<polyline fill="none" stroke="#E71F19" stroke-width="0.9921" stroke-miterlimit="10" points="1019.889,350.109 1019.889,310.391 
		980.229,310.391 980.229,350.109 1019.889,350.109 	"/>
	<polyline fill="none" stroke="#E71F19" stroke-width="0.9921" stroke-miterlimit="10" points="965.889,350.109 965.889,310.391 
		926.229,310.391 926.229,350.109 965.889,350.109 	"/>
	<polyline fill="none" stroke="#E71F19" stroke-width="0.9921" stroke-miterlimit="10" points="1100.889,364.389 1100.889,404.109 
		1061.229,404.109 1061.229,364.389 1100.889,364.389 	"/>
	<polyline fill="none" stroke="#E71F19" stroke-width="0.9921" stroke-miterlimit="10" points="1046.889,364.389 1046.889,404.109 
		1007.229,404.109 1007.229,364.389 1046.889,364.389 	"/>
	<polyline fill="none" stroke="#E71F19" stroke-width="0.9921" stroke-miterlimit="10" points="992.889,364.389 992.889,404.109 
		953.229,404.109 953.229,364.389 992.889,364.389 	"/>
	<polyline fill="none" stroke="#E71F19" stroke-width="0.9921" stroke-miterlimit="10" points="905.168,80.111 905.168,40.389 
		865.449,40.389 865.449,80.111 905.168,80.111 	"/>
	<polyline fill="none" stroke="#E71F19" stroke-width="0.9921" stroke-miterlimit="10" points="905.168,94.39 905.168,134.11 
		865.449,134.11 865.449,94.39 905.168,94.39 	"/>
	<polyline fill="none" stroke="#E71F19" stroke-width="0.9921" stroke-miterlimit="10" points="918.668,188.11 918.668,148.39 
		878.949,148.39 878.949,188.11 918.668,188.11 	"/>
	<polygon fill="none" stroke="#E71F19" stroke-width="0.9921" stroke-miterlimit="10" points="878.049,280.63 912.428,300.43 
		892.568,334.809 858.189,314.949 	"/>
	<polygon fill="none" stroke="#E71F19" stroke-width="0.9921" stroke-miterlimit="10" points="912.309,408.549 932.168,374.229 
		851.048,327.37 831.188,361.749 	"/>
	<polygon fill="none" stroke="#E71F19" stroke-width="0.9921" stroke-miterlimit="10" points="918.668,242.108 925.389,242.108 
		925.389,202.39 885.729,202.39 885.729,223.99 878.949,223.989 878.949,263.71 918.668,263.71 	"/>
	<path fill="none" stroke="#E71F19" stroke-width="0.9921" stroke-miterlimit="10" d="M885.309,455.35"/>
</g>
<g>
	<circle fill="none" stroke="#E71F19" stroke-width="0.9921" stroke-miterlimit="10" cx="1074.158" cy="87.22" r="2.764"/>
	<circle fill="none" stroke="#E71F19" stroke-width="0.9921" stroke-miterlimit="10" cx="1033.838" cy="195.22" r="2.764"/>
	<circle fill="none" stroke="#E71F19" stroke-width="0.9921" stroke-miterlimit="10" cx="933.039" cy="196.659" r="2.764"/>
	<circle fill="none" stroke="#E71F19" stroke-width="0.9921" stroke-miterlimit="10" cx="1081.359" cy="357.22" r="2.764"/>
	<circle fill="none" stroke="#E71F19" stroke-width="0.9921" stroke-miterlimit="10" cx="912.158" cy="340.3" r="2.764"/>
	<circle fill="none" stroke="#E71F19" stroke-width="0.9921" stroke-miterlimit="10" cx="911.438" cy="87.22" r="2.764"/>
</g>
<path fill="none" stroke="#E71F19" stroke-width="0.9921" stroke-miterlimit="10" d="M1162.218,189.696
	c0.63,3.054,1.146,8.104,1.146,11.222v95.223c0,3.118-1.127,7.958-2.502,10.757l-16.596,33.744
	c-1.377,2.798-2.502,7.639-2.502,10.757v23.942c0,3.118-2.059,7.178-4.572,9.021l-34.012,24.93
	c-2.514,1.843-7.123,3.352-10.241,3.352H911.647c-3.118,0-7.886-1.265-10.593-2.81l-75.092-42.856
	c-2.708-1.545-3.648-5.02-2.091-7.721l30.748-53.296c1.558-2.701,2.833-7.462,2.833-10.58V38.245c0-3.118,2.551-5.669,5.67-5.669
	h261.026c3.118,0,6.185,2.499,6.814,5.552L1162.218,189.696z"/>
<g>
	<polyline fill="none" stroke="#E71F19" stroke-width="0.9921" stroke-miterlimit="10" points="437.68,638.647 437.68,598.929 
		398.019,598.929 398.019,638.647 437.68,638.647 	"/>
	<polyline fill="none" stroke="#E71F19" stroke-width="0.9921" stroke-miterlimit="10" points="484.959,544.929 484.959,584.649 
		445.239,584.649 445.239,544.929 484.959,544.929 	"/>
	<polyline fill="none" stroke="#E71F19" stroke-width="0.9921" stroke-miterlimit="10" points="538.959,544.929 538.959,584.649 
		499.239,584.649 499.239,544.929 538.959,544.929 	"/>
	<polyline fill="none" stroke="#E71F19" stroke-width="0.9921" stroke-miterlimit="10" points="471.459,476.649 471.459,436.929 
		431.739,436.929 431.739,476.649 471.459,476.649 	"/>
	<polyline fill="none" stroke="#E71F19" stroke-width="0.9921" stroke-miterlimit="10" points="633.459,476.649 633.459,436.929 
		593.738,436.929 593.738,476.649 633.459,476.649 	"/>
	<polyline fill="none" stroke="#E71F19" stroke-width="0.9921" stroke-miterlimit="10" points="640.18,706.931 640.18,746.649 
		600.52,746.649 600.52,706.931 640.18,706.931 	"/>
	<polyline fill="none" stroke="#E71F19" stroke-width="0.9921" stroke-miterlimit="10" points="579.459,476.649 579.459,436.929 
		539.739,436.929 539.739,476.649 579.459,476.649 	"/>
	<polyline fill="none" stroke="#E71F19" stroke-width="0.9921" stroke-miterlimit="10" points="525.459,476.649 525.459,436.929 
		485.739,436.929 485.739,476.649 525.459,476.649 	"/>
	<polyline fill="none" stroke="#E71F19" stroke-width="0.9921" stroke-miterlimit="10" points="633.459,490.929 633.459,530.649 
		593.738,530.649 593.738,490.929 633.459,490.929 	"/>
	<polyline fill="none" stroke="#E71F19" stroke-width="0.9921" stroke-miterlimit="10" points="579.459,490.929 579.459,530.649 
		539.739,530.649 539.739,490.929 579.459,490.929 	"/>
	<polyline fill="none" stroke="#E71F19" stroke-width="0.9921" stroke-miterlimit="10" points="525.459,490.929 525.459,530.649 
		485.739,530.649 485.739,490.929 525.459,490.929 	"/>
	<polyline fill="none" stroke="#E71F19" stroke-width="0.9921" stroke-miterlimit="10" points="471.459,490.929 471.459,530.649 
		431.739,530.649 431.739,490.929 471.459,490.929 	"/>
	<polyline fill="none" stroke="#E71F19" stroke-width="0.9921" stroke-miterlimit="10" points="646.959,584.649 646.959,544.929 
		607.238,544.929 607.238,584.649 646.959,584.649 	"/>
	<polyline fill="none" stroke="#E71F19" stroke-width="0.9921" stroke-miterlimit="10" points="592.959,584.649 592.959,544.929 
		553.239,544.929 553.239,584.649 592.959,584.649 	"/>
	<polyline fill="none" stroke="#E71F19" stroke-width="0.9921" stroke-miterlimit="10" points="653.68,598.929 653.68,638.647 
		614.02,638.647 614.02,598.929 653.68,598.929 	"/>
	<polyline fill="none" stroke="#E71F19" stroke-width="0.9921" stroke-miterlimit="10" points="599.68,598.929 599.68,638.647 
		560.02,638.647 560.02,598.929 599.68,598.929 	"/>
	<polyline fill="none" stroke="#E71F19" stroke-width="0.9921" stroke-miterlimit="10" points="545.68,598.929 545.68,638.647 
		506.02,638.647 506.02,598.929 545.68,598.929 	"/>
	<polyline fill="none" stroke="#E71F19" stroke-width="0.9921" stroke-miterlimit="10" points="491.68,598.929 491.68,638.647 
		452.02,638.647 452.02,598.929 491.68,598.929 	"/>
	<polyline fill="none" stroke="#E71F19" stroke-width="0.9921" stroke-miterlimit="10" points="646.959,652.929 646.959,692.649 
		607.238,692.649 607.238,652.929 646.959,652.929 	"/>
	<polyline fill="none" stroke="#E71F19" stroke-width="0.9921" stroke-miterlimit="10" points="592.959,652.929 592.959,692.649 
		553.239,692.649 553.239,652.929 592.959,652.929 	"/>
	<polyline fill="none" stroke="#E71F19" stroke-width="0.9921" stroke-miterlimit="10" points="538.959,652.929 538.959,692.649 
		499.239,692.649 499.239,652.929 538.959,652.929 	"/>
	<polyline fill="none" stroke="#E71F19" stroke-width="0.9921" stroke-miterlimit="10" points="484.959,652.929 484.959,692.649 
		445.239,692.649 445.239,652.929 484.959,652.929 	"/>
	<polyline fill="none" stroke="#E71F19" stroke-width="0.9921" stroke-miterlimit="10" points="586.18,746.649 586.18,706.931 
		546.52,706.931 546.52,746.649 586.18,746.649 	"/>
	<polyline fill="none" stroke="#E71F19" stroke-width="0.9921" stroke-miterlimit="10" points="532.18,746.649 532.18,706.931 
		492.52,706.931 492.52,746.649 532.18,746.649 	"/>
	<polyline fill="none" stroke="#E71F19" stroke-width="0.9921" stroke-miterlimit="10" points="478.18,746.649 478.18,706.931 
		438.52,706.931 438.52,746.649 478.18,746.649 	"/>
	<polyline fill="none" stroke="#E71F19" stroke-width="0.9921" stroke-miterlimit="10" points="613.18,760.929 613.18,800.649 
		573.52,800.649 573.52,760.929 613.18,760.929 	"/>
	<polyline fill="none" stroke="#E71F19" stroke-width="0.9921" stroke-miterlimit="10" points="559.18,760.929 559.18,800.649 
		519.52,800.649 519.52,760.929 559.18,760.929 	"/>
	<polyline fill="none" stroke="#E71F19" stroke-width="0.9921" stroke-miterlimit="10" points="505.18,760.929 505.18,800.649 
		465.52,800.649 465.52,760.929 505.18,760.929 	"/>
	<polyline fill="none" stroke="#E71F19" stroke-width="0.9921" stroke-miterlimit="10" points="417.459,476.649 417.459,436.929 
		377.74,436.929 377.74,476.649 417.459,476.649 	"/>
	<polyline fill="none" stroke="#E71F19" stroke-width="0.9921" stroke-miterlimit="10" points="417.459,490.929 417.459,530.649 
		377.74,530.649 377.74,490.929 417.459,490.929 	"/>
	<polyline fill="none" stroke="#E71F19" stroke-width="0.9921" stroke-miterlimit="10" points="430.959,584.649 430.959,544.929 
		391.24,544.929 391.24,584.649 430.959,584.649 	"/>
	<polygon fill="none" stroke="#E71F19" stroke-width="0.9921" stroke-miterlimit="10" points="390.339,677.169 424.719,696.97 
		404.859,731.349 370.48,711.489 	"/>
	<polygon fill="none" stroke="#E71F19" stroke-width="0.9921" stroke-miterlimit="10" points="386.74,737.409 421.059,757.269 
		401.259,791.589 366.88,771.79 	"/>
	<path fill="none" stroke="#E71F19" stroke-width="0.9921" stroke-miterlimit="10" d="M397.599,851.89"/>
</g>
<g>
	<circle fill="none" stroke="#E71F19" stroke-width="0.9921" stroke-miterlimit="10" cx="585.573" cy="86.966" r="2.764"/>
	<circle fill="none" stroke="#E71F19" stroke-width="0.9921" stroke-miterlimit="10" cx="545.254" cy="194.966" r="2.764"/>
	<circle fill="none" stroke="#E71F19" stroke-width="0.9921" stroke-miterlimit="10" cx="444.454" cy="196.405" r="2.764"/>
	<circle fill="none" stroke="#E71F19" stroke-width="0.9921" stroke-miterlimit="10" cx="423.573" cy="340.046" r="2.764"/>
	<circle fill="none" stroke="#E71F19" stroke-width="0.9921" stroke-miterlimit="10" cx="592.773" cy="356.966" r="2.764"/>
	<circle fill="none" stroke="#E71F19" stroke-width="0.9921" stroke-miterlimit="10" cx="422.854" cy="86.966" r="2.764"/>
</g>
<g>
	<circle fill="none" stroke="#E71F19" stroke-width="0.9921" stroke-miterlimit="10" cx="586.449" cy="483.759" r="2.764"/>
	<circle fill="none" stroke="#E71F19" stroke-width="0.9921" stroke-miterlimit="10" cx="546.129" cy="591.759" r="2.764"/>
	<circle fill="none" stroke="#E71F19" stroke-width="0.9921" stroke-miterlimit="10" cx="445.33" cy="593.198" r="2.764"/>
	<circle fill="none" stroke="#E71F19" stroke-width="0.9921" stroke-miterlimit="10" cx="593.65" cy="753.759" r="2.764"/>
	<circle fill="none" stroke="#E71F19" stroke-width="0.9921" stroke-miterlimit="10" cx="424.45" cy="736.839" r="2.764"/>
	<circle fill="none" stroke="#E71F19" stroke-width="0.9921" stroke-miterlimit="10" cx="423.729" cy="483.759" r="2.764"/>
</g>
<path fill="none" stroke="#E71F19" stroke-width="0.9921" stroke-miterlimit="10" d="M674.45,195.126
	c-0.207-2.066-0.498-4.133-0.816-5.684L642.38,37.874c-0.629-3.055-3.695-5.553-6.814-5.553H374.538
	c-3.117,0-5.668,2.551-5.668,5.67v257.137c0,3.119-1.275,7.879-2.834,10.58l-30.748,53.295c-1.559,2.701-0.617,6.176,2.09,7.723
	l75.092,42.854c2.707,1.546,7.475,2.811,10.592,2.811h181.292c3.119,0,7.727-1.508,10.242-3.352l34.01-24.93
	c0.25-0.184,0.496-0.389,0.736-0.613h-37.826V349.13h41.787c0.328-2.932,1.271-6.494,2.377-8.74l16.597-33.746
	c0.506-1.029,0.979-2.336,1.373-3.732h-93.797V195.126H674.45z"/>
<path fill="none" stroke="#E71F19" stroke-width="0.9921" stroke-miterlimit="10" d="M674.51,586.235
	c0.629,3.053,1.145,8.104,1.145,11.221v95.225c0,3.119-1.126,7.959-2.502,10.756l-16.596,33.744
	c-1.376,2.799-2.502,7.639-2.502,10.756v23.943c0,3.119-2.058,7.178-4.572,9.021l-34.012,24.93
	c-2.515,1.844-7.123,3.352-10.241,3.352H423.938c-3.118,0-7.885-1.266-10.593-2.811l-75.092-42.854
	c-2.708-1.547-3.649-5.021-2.091-7.721l30.748-53.297c1.558-2.701,2.833-7.461,2.833-10.58V434.784c0-3.118,2.551-5.669,5.669-5.669
	H636.44c3.118,0,6.185,2.498,6.813,5.553L674.51,586.235z"/>
<g>
	<path fill="none" stroke="#E71F19" stroke-width="0.9921" stroke-miterlimit="10" d="M691.502,32.324h100.286
		c3.118,0,6.185,2.499,6.813,5.552l31.254,151.569c0.629,3.054,1.145,8.104,1.145,11.222v95.224c0,3.118-1.126,7.958-2.502,10.757
		l-16.596,33.744c-1.376,2.798-2.502,7.639-2.502,10.757v23.942c0,3.118-2.058,7.178-4.572,9.021l-34.011,24.93
		c-2.515,1.843-7.123,3.352-10.241,3.352h-69.075"/>
</g>
<g>
	<circle fill="none" stroke="#E71F19" stroke-width="0.9921" stroke-miterlimit="10" cx="741.797" cy="491.574" r="2.764"/>
	<circle fill="none" stroke="#E71F19" stroke-width="0.9921" stroke-miterlimit="10" cx="701.477" cy="599.574" r="2.764"/>
	<circle fill="none" stroke="#E71F19" stroke-width="0.9921" stroke-miterlimit="10" cx="748.996" cy="761.575" r="2.764"/>
</g>
<line fill="none" stroke="#E71F19" stroke-width="0.9921" stroke-miterlimit="10" x1="691.502" y1="436.93" x2="691.501" y2="816.999"/>
<g>
	<path fill="none" stroke="#E71F19" stroke-width="0.9921" stroke-miterlimit="10" d="M691.502,436.93h100.286
		c3.118,0,6.185,2.499,6.813,5.553l31.254,151.568c0.629,3.054,1.145,8.104,1.145,11.222v95.225c0,3.118-1.126,7.958-2.502,10.756
		l-16.596,33.745c-1.376,2.798-2.502,7.638-2.502,10.756v23.943c0,3.118-2.058,7.177-4.572,9.021l-34.011,24.93
		c-2.515,1.844-7.123,3.352-10.241,3.352h-69.075"/>
</g>
</svg>
