M48
;DRILL file {KiCad (5.0.0)} date 08/02/18 22:52:41
;FORMAT={3:3/ absolute / metric / suppress leading zeros}
FMAT,2
METRIC,TZ
T1C0.400
T2C0.500
T3C0.762
T4C0.800
T5C0.813
T6C0.991
T7C1.092
T8C1.300
T9C1.500
T10C1.513
T11C0.991
T12C1.700
T13C1.900
T14C4.000
T15C5.000
%
G90
G05
M71
T1
X79883Y-67183
X79883Y-70739
X79883Y-85979
X79883Y-104140
X79883Y-118999
X80264Y-84836
X80518Y-109474
X80518Y-128397
X80645Y-80010
X80772Y-91059
X81026Y-65913
X81534Y-61595
X81915Y-89789
X82042Y-123317
X82677Y-104648
X83185Y-67183
X83185Y-100076
X83312Y-61722
X83312Y-65786
X83439Y-124206
X84074Y-59436
X91059Y-140843
X92837Y-51308
X93091Y-118110
X93091Y-126873
X93599Y-63119
X93599Y-82169
X93599Y-101219
X95377Y-85344
X95377Y-104013
X96393Y-141097
X97028Y-138303
X97917Y-121793
X99060Y-116586
X99949Y-120269
X101219Y-140716
X103759Y-48387
X110109Y-59690
X112395Y-112649
X112776Y-122047
X113030Y-140716
X117348Y-96393
X117348Y-102616
X117475Y-136779
X118110Y-65532
X118237Y-58420
X118237Y-61468
X118872Y-140589
X119888Y-134493
X120015Y-103886
X121031Y-139954
X121158Y-45085
X121412Y-55880
X121412Y-59944
X121666Y-122428
X123063Y-138303
X128270Y-55880
X128524Y-82677
X131572Y-59944
X133223Y-56769
X133985Y-60960
X134239Y-46609
X135128Y-53340
X135636Y-138430
X138049Y-76200
X138557Y-57277
X138938Y-55880
X139827Y-52451
X140081Y-75057
X140335Y-133858
X140843Y-56261
X140843Y-140716
X141224Y-120015
X142748Y-43053
X143256Y-139954
X144399Y-47752
X145669Y-138303
X147193Y-55626
X149479Y-54610
X153035Y-114554
X153162Y-55880
X153543Y-58420
X153797Y-43180
X155575Y-122555
X157607Y-64389
X157734Y-56896
X157861Y-126365
X157861Y-140208
X159893Y-135001
X162941Y-130429
X162941Y-132207
X162941Y-134220
X163068Y-140589
X163449Y-137541
X166243Y-135871
X167513Y-122682
X167513Y-140589
X167894Y-55880
X168783Y-65151
X168910Y-139065
X169291Y-58420
X172593Y-63500
X172593Y-68834
X173990Y-105029
X174117Y-68453
X175133Y-58166
X175133Y-63881
X175387Y-141097
X176149Y-70485
X176149Y-72898
X176403Y-57912
X178816Y-67691
X182499Y-126365
X183388Y-141605
X185547Y-131064
X186563Y-85344
X187833Y-145415
X188976Y-103505
X189230Y-83947
X189738Y-130937
X189992Y-126619
X190373Y-51308
X192659Y-150241
X192913Y-82804
X193675Y-145923
X194183Y-100457
X194183Y-107442
X194310Y-81661
X194310Y-89281
X197104Y-147955
X197612Y-141859
X197993Y-122428
X198755Y-133477
X199136Y-139827
X199136Y-143383
X200177Y-137287
X201295Y-138557
X201930Y-135001
X202311Y-133731
X203962Y-73660
X205486Y-91948
X205740Y-112395
X205867Y-131445
X206375Y-118618
X206502Y-69088
X206502Y-73660
X206502Y-108966
X207518Y-112776
X207899Y-78486
X207899Y-92202
X208026Y-88138
X208026Y-97409
X208407Y-113792
X208661Y-74041
X212344Y-156845
X221107Y-138684
X180615Y-120396
X183875Y-120396
X123465Y-61595
X126725Y-61595
X180615Y-63881
X183875Y-63881
X123465Y-99695
X126725Y-99695
X204290Y-142173
X205920Y-139350
X180615Y-82931
X183875Y-82931
X218725Y-129741
X221548Y-131371
X111030Y-47159
X113030Y-47159
X115030Y-47159
X192987Y-125064
X194617Y-122241
X193442Y-116205
X196702Y-116205
X152527Y-106320
X152527Y-109580
X173990Y-75459
X173990Y-78719
X135763Y-125497
X135763Y-128757
X116713Y-127910
X116713Y-131170
X123465Y-121031
X126725Y-121031
X161565Y-61595
X164825Y-61595
X104542Y-106807
X107802Y-106807
X104542Y-104394
X107802Y-104394
X97663Y-75459
X97663Y-78719
X97663Y-94382
X97663Y-97642
X97663Y-56282
X97663Y-59542
X152400Y-91334
X152400Y-94594
X171450Y-91842
X171450Y-95102
X161565Y-102235
X164825Y-102235
X142515Y-59182
X145775Y-59182
X142515Y-78232
X145775Y-78232
X180615Y-102108
X183875Y-102108
X114427Y-94382
X114427Y-97642
X133477Y-105939
X133477Y-109199
X173863Y-111146
X173863Y-114406
X116713Y-56282
X116713Y-59542
X177359Y-126312
X180182Y-127942
X104415Y-66294
X107675Y-66294
X192913Y-101748
X192913Y-105008
X95377Y-56282
X95377Y-59542
X104415Y-85344
X107675Y-85344
X123465Y-80645
X126725Y-80645
X193442Y-113665
X196702Y-113665
X111030Y-49318
X113030Y-49318
X115030Y-49318
X133477Y-89810
X133477Y-93070
X183462Y-139669
X185092Y-136846
X173990Y-91842
X173990Y-95102
X116713Y-113432
X116713Y-116692
X155194Y-113538
X155194Y-116798
X142896Y-116332
X146156Y-116332
X142515Y-97282
X145775Y-97282
X192913Y-73173
X192913Y-76433
X173609Y-54377
X173609Y-57637
X95377Y-94382
X95377Y-97642
X95377Y-112924
X95377Y-116184
X180615Y-66294
X183875Y-66294
X190627Y-101748
X190627Y-105008
X116586Y-75459
X116586Y-78719
X114427Y-127910
X114427Y-131170
X104288Y-125857
X107548Y-125857
X161565Y-80645
X164825Y-80645
X123465Y-118745
X126725Y-118745
X114427Y-75459
X114427Y-78719
X192913Y-88159
X192913Y-91419
X171577Y-111146
X171577Y-114406
X190627Y-88159
X190627Y-91419
X97663Y-112924
X97663Y-116184
X114427Y-56282
X114427Y-59542
X142896Y-118745
X146156Y-118745
X180668Y-139796
X182298Y-136973
X114427Y-113432
X114427Y-116692
X104288Y-123444
X107548Y-123444
X95377Y-75459
X95377Y-78719
X133477Y-70633
X133477Y-73893
X161565Y-99695
X164825Y-99695
X152527Y-74062
X152527Y-77322
X171450Y-75459
X171450Y-78719
X190627Y-73173
X190627Y-76433
X202469Y-158443
X205292Y-160073
T2
X117491Y-43688
X119491Y-43688
T3
X141518Y-39624
X146518Y-39624
X160314Y-39624
X165314Y-39624
X174411Y-45720
X176911Y-45720
X179411Y-45720
X93639Y-48133
X96139Y-48133
X98639Y-48133
T4
X114427Y-72009
X114427Y-82169
X192913Y-84709
X192913Y-94869
X171577Y-107696
X171577Y-117856
X190627Y-84709
X190627Y-94869
X97663Y-109474
X97663Y-119634
X114427Y-52832
X114427Y-62992
X102997Y-46609
X113003Y-44845
X139446Y-118745
X149606Y-118745
X178943Y-142784
X184023Y-133985
X114427Y-109982
X114427Y-120142
X100838Y-123444
X110998Y-123444
X95377Y-72009
X95377Y-82169
X133477Y-67183
X133477Y-77343
X158115Y-99695
X168275Y-99695
X152527Y-70612
X152527Y-80772
X171450Y-72009
X171450Y-82169
X190627Y-69723
X190627Y-79883
X199481Y-156718
X208280Y-161798
X177165Y-120396
X187325Y-120396
X120015Y-61595
X130175Y-61595
X177165Y-63881
X187325Y-63881
X120015Y-99695
X130175Y-99695
X202565Y-145161
X207645Y-136362
X177165Y-82931
X187325Y-82931
X215737Y-128016
X224536Y-133096
X191262Y-128052
X196342Y-119253
X189992Y-116205
X200152Y-116205
X152527Y-102870
X152527Y-113030
X173990Y-72009
X173990Y-82169
X135763Y-122047
X135763Y-132207
X116713Y-124460
X116713Y-134620
X120015Y-121031
X130175Y-121031
X158115Y-61595
X168275Y-61595
X101092Y-106807
X111252Y-106807
X101092Y-104394
X111252Y-104394
X97663Y-72009
X97663Y-82169
X97663Y-90932
X97663Y-101092
X97663Y-52832
X97663Y-62992
X152400Y-87884
X152400Y-98044
X171450Y-88392
X171450Y-98552
X133731Y-41148
X133731Y-51308
X158115Y-102235
X168275Y-102235
X139065Y-59182
X149225Y-59182
X139065Y-78232
X149225Y-78232
X177165Y-102108
X187325Y-102108
X114427Y-90932
X114427Y-101092
X133477Y-102489
X133477Y-112649
X173863Y-107696
X173863Y-117856
X116713Y-52832
X116713Y-62992
X174371Y-124587
X183170Y-129667
X100965Y-66294
X111125Y-66294
X192913Y-98298
X192913Y-108458
X95377Y-52832
X95377Y-62992
X100965Y-85344
X111125Y-85344
X120015Y-80645
X130175Y-80645
X189992Y-113665
X200152Y-113665
X133477Y-86360
X133477Y-96520
X181737Y-142657
X186817Y-133858
X173990Y-88392
X173990Y-98552
X116713Y-109982
X116713Y-120142
X155194Y-110088
X155194Y-120248
X139446Y-116332
X149606Y-116332
X139065Y-97282
X149225Y-97282
X192913Y-69723
X192913Y-79883
X173609Y-50927
X173609Y-61087
X95377Y-90932
X95377Y-101092
X95377Y-109474
X95377Y-119634
X177165Y-66294
X187325Y-66294
X190627Y-98298
X190627Y-108458
X116586Y-72009
X116586Y-82169
X114427Y-124460
X114427Y-134620
X100838Y-125857
X110998Y-125857
X158115Y-80645
X168275Y-80645
X120015Y-118745
X130175Y-118745
T5
X136525Y-39370
X136525Y-41910
X136525Y-44450
X136525Y-46990
X136525Y-49530
X136525Y-52070
X136525Y-54610
X136525Y-57150
X136525Y-59690
X136525Y-62230
X136525Y-64770
X136525Y-67310
X151765Y-39370
X151765Y-41910
X151765Y-44450
X151765Y-46990
X151765Y-49530
X151765Y-52070
X151765Y-54610
X151765Y-57150
X151765Y-59690
X151765Y-62230
X151765Y-64770
X151765Y-67310
X155575Y-39370
X155575Y-41910
X155575Y-44450
X155575Y-46990
X155575Y-49530
X155575Y-52070
X155575Y-54610
X155575Y-57150
X155575Y-59690
X155575Y-62230
X155575Y-64770
X155575Y-67310
X170815Y-39370
X170815Y-41910
X170815Y-44450
X170815Y-46990
X170815Y-49530
X170815Y-52070
X170815Y-54610
X170815Y-57150
X170815Y-59690
X170815Y-62230
X170815Y-64770
X170815Y-67310
T6
X150495Y-124333
X153035Y-124333
X123825Y-96393
X126365Y-96393
X142875Y-94012
X145415Y-94012
X85725Y-82106
X88265Y-82106
X180975Y-60674
X183515Y-60674
X195281Y-125762
X196551Y-123562
X85725Y-120206
X88265Y-120206
X202254Y-151785
X203524Y-149585
X104775Y-139256
X107315Y-139256
X180975Y-98774
X183515Y-98774
X161925Y-58420
X164465Y-58420
X142875Y-113062
X145415Y-113062
X85725Y-139256
X88265Y-139256
X200025Y-70199
X202565Y-70199
X104775Y-101156
X107315Y-101156
X123825Y-134493
X126365Y-134493
X123825Y-115443
X126365Y-115443
X161925Y-77343
X164465Y-77343
X104775Y-63055
X107315Y-63055
X85725Y-101156
X88265Y-101156
X200025Y-108299
X202565Y-108299
X104775Y-120206
X107315Y-120206
X142875Y-74962
X145415Y-74962
X85725Y-63055
X88265Y-63055
X200025Y-89249
X202565Y-89249
X161925Y-115443
X164465Y-115443
X185756Y-142260
X187026Y-140060
X180975Y-117824
X183515Y-117824
X123825Y-77343
X126365Y-77343
X142875Y-55912
X145415Y-55912
X180975Y-79724
X183515Y-79724
X161925Y-96393
X164465Y-96393
X211779Y-135287
X213049Y-133087
X142875Y-132112
X145415Y-132112
X215815Y-148616
X217085Y-146416
X178056Y-137815
X179326Y-135615
X123825Y-58293
X126365Y-58293
X104775Y-82106
X107315Y-82106
T7
X191072Y-56504
X195072Y-48004
X195072Y-51004
X195072Y-55004
X199072Y-56504
T8
X140518Y-42124
X147518Y-42124
X159314Y-42124
X166314Y-42124
T9
X140335Y-105442
X147955Y-105442
X140335Y-48292
X147955Y-48292
X83185Y-131636
X90805Y-131636
X102235Y-93536
X109855Y-93536
X170187Y-136205
X173997Y-129606
X140335Y-124492
X147955Y-124492
X197485Y-100679
X205105Y-100679
X121285Y-69723
X128905Y-69723
X217108Y-141297
X220918Y-134698
X178435Y-110204
X186055Y-110204
X102235Y-74486
X109855Y-74486
X178435Y-53054
X186055Y-53054
X102235Y-112586
X109855Y-112586
X159385Y-88773
X167005Y-88773
X191448Y-137481
X195258Y-130882
X197485Y-81629
X205105Y-81629
X121285Y-107823
X128905Y-107823
X207583Y-157795
X211393Y-151196
X83185Y-93536
X90805Y-93536
X178435Y-91154
X186055Y-91154
X191085Y-148270
X194895Y-141671
X159385Y-69723
X167005Y-69723
X83185Y-112586
X90805Y-112586
X102235Y-55436
X109855Y-55436
X140335Y-86392
X147955Y-86392
X197485Y-62579
X205105Y-62579
X147955Y-131953
X155575Y-131953
X140335Y-67342
X147955Y-67342
X178435Y-72104
X186055Y-72104
X207946Y-147006
X211756Y-140407
X121285Y-126873
X128905Y-126873
X159385Y-107823
X167005Y-107823
X83185Y-55436
X90805Y-55436
X102235Y-131636
X109855Y-131636
X159385Y-50673
X167005Y-50673
X83185Y-74486
X90805Y-74486
X200610Y-131772
X204420Y-125173
X121285Y-50673
X128905Y-50673
X121285Y-88773
X128905Y-88773
T11
X193072Y-46204
X193072Y-53204
X197072Y-46204
X197072Y-53204
T12
X100965Y-57976
X111125Y-57976
X139065Y-88932
X149225Y-88932
X196215Y-65119
X206375Y-65119
X146685Y-129413
X156845Y-129413
X139065Y-69882
X149225Y-69882
X177165Y-74644
X187325Y-74644
X209510Y-149376
X214590Y-140577
X120015Y-129413
X130175Y-129413
X158115Y-110363
X168275Y-110363
X81915Y-57976
X92075Y-57976
X100965Y-134176
X111125Y-134176
X158115Y-53213
X168275Y-53213
X81915Y-77026
X92075Y-77026
X197775Y-131602
X202855Y-122803
X120015Y-53213
X130175Y-53213
X120015Y-91313
X130175Y-91313
X139065Y-107982
X149225Y-107982
X139065Y-50832
X149225Y-50832
X81915Y-134176
X92075Y-134176
X100965Y-96076
X111125Y-96076
X171752Y-138575
X176832Y-129776
X139065Y-127032
X149225Y-127032
X196215Y-103219
X206375Y-103219
X120015Y-72263
X130175Y-72263
X214273Y-141127
X219353Y-132328
X177165Y-112744
X187325Y-112744
X100965Y-77026
X111125Y-77026
X177165Y-55594
X187325Y-55594
X100965Y-115126
X111125Y-115126
X158115Y-91313
X168275Y-91313
X193013Y-139851
X198093Y-131052
X196215Y-84169
X206375Y-84169
X120015Y-110363
X130175Y-110363
X204748Y-157625
X209828Y-148826
X81915Y-96076
X92075Y-96076
X177165Y-93694
X187325Y-93694
X188250Y-148100
X193330Y-139301
X158115Y-72263
X168275Y-72263
X81915Y-115126
X92075Y-115126
T13
X100545Y-57976
X111545Y-57976
X138645Y-88932
X149645Y-88932
X195795Y-65119
X206795Y-65119
X146265Y-129413
X157265Y-129413
X138645Y-69882
X149645Y-69882
X176745Y-74644
X187745Y-74644
X209301Y-149739
X214801Y-140213
X119595Y-129413
X130595Y-129413
X157695Y-110363
X168695Y-110363
X81495Y-57976
X92495Y-57976
X100545Y-134176
X111545Y-134176
X157695Y-53213
X168695Y-53213
X81495Y-77026
X92495Y-77026
X197565Y-131965
X203065Y-122439
X119595Y-53213
X130595Y-53213
X119595Y-91313
X130595Y-91313
X138645Y-107982
X149645Y-107982
X138645Y-50832
X149645Y-50832
X81495Y-134176
X92495Y-134176
X100545Y-96076
X111545Y-96076
X171542Y-138938
X177042Y-129412
X138645Y-127032
X149645Y-127032
X195795Y-103219
X206795Y-103219
X119595Y-72263
X130595Y-72263
X214063Y-141490
X219563Y-131964
X176745Y-112744
X187745Y-112744
X100545Y-77026
X111545Y-77026
X176745Y-55594
X187745Y-55594
X100545Y-115126
X111545Y-115126
X157695Y-91313
X168695Y-91313
X192803Y-140214
X198303Y-130688
X195795Y-84169
X206795Y-84169
X119595Y-110363
X130595Y-110363
X204538Y-157988
X210038Y-148462
X81495Y-96076
X92495Y-96076
X176745Y-93694
X187745Y-93694
X188040Y-148463
X193540Y-138937
X157695Y-72263
X168695Y-72263
X81495Y-115126
X92495Y-115126
T14
X106045Y-57976
X144145Y-88932
X201295Y-65119
X151765Y-129413
X144145Y-69882
X182245Y-74644
X212051Y-144976
X125095Y-129413
X163195Y-110363
X86995Y-57976
X106045Y-134176
X163195Y-53213
X86995Y-77026
X200315Y-127202
X125095Y-53213
X125095Y-91313
X144145Y-107982
X144145Y-50832
X86995Y-134176
X106045Y-96076
X174292Y-134175
X144145Y-127032
X201295Y-103219
X125095Y-72263
X216813Y-136727
X182245Y-112744
X106045Y-77026
X182245Y-55594
X106045Y-115126
X163195Y-91313
X195553Y-135451
X201295Y-84169
X125095Y-110363
X207288Y-153225
X86995Y-96076
X182245Y-93694
X190790Y-143700
X163195Y-72263
X86995Y-115126
T15
X96520Y-124968
X96520Y-67564
X185801Y-124714
X135128Y-117348
X191770Y-65024
X128397Y-42672
X134620Y-81788
T10
X179725Y-70663G85X179725Y-69626
G05
X184765Y-70663G85X184765Y-69626
G05
X206444Y-144649G85X207342Y-145168
G05
X208964Y-140285G85X209862Y-140803
G05
X122575Y-125432G85X122575Y-124394
G05
X127615Y-125432G85X127615Y-124394
G05
X160675Y-105344G85X160675Y-106381
G05
X165715Y-105344G85X165715Y-106381
G05
X84475Y-53994G85X84475Y-52957
G05
X89515Y-53994G85X89515Y-52957
G05
X103525Y-129157G85X103525Y-130194
G05
X108565Y-129157G85X108565Y-130194
G05
X160675Y-48195G85X160675Y-49232
G05
X165715Y-48195G85X165715Y-49232
G05
X84475Y-73044G85X84475Y-72007
G05
X89515Y-73044G85X89515Y-72007
G05
X203401Y-131894G85X202503Y-131375
G05
X205921Y-127529G85X205023Y-127011
G05
X122575Y-49232G85X122575Y-48195
G05
X127615Y-49232G85X127615Y-48195
G05
X122575Y-86294G85X122575Y-87332
G05
X127615Y-86294G85X127615Y-87332
G05
X141625Y-102963G85X141625Y-104000
G05
X146665Y-102963G85X146665Y-104000
G05
X141625Y-45813G85X141625Y-46850
G05
X146665Y-45813G85X146665Y-46850
G05
X84475Y-130194G85X84475Y-129157
G05
X89515Y-130194G85X89515Y-129157
G05
X103525Y-91057G85X103525Y-92094
G05
X108565Y-91057G85X108565Y-92094
G05
X168686Y-133848G85X169584Y-134367
G05
X171206Y-129484G85X172104Y-130002
G05
X141625Y-123050G85X141625Y-122013
G05
X146665Y-123050G85X146665Y-122013
G05
X198775Y-98201G85X198775Y-99238
G05
X203815Y-98201G85X203815Y-99238
G05
X122575Y-68282G85X122575Y-67245
G05
X127615Y-68282G85X127615Y-67245
G05
X219899Y-141419G85X219001Y-140900
G05
X222419Y-137054G85X221521Y-136536
G05
X179725Y-108763G85X179725Y-107726
G05
X184765Y-108763G85X184765Y-107726
G05
X103525Y-72007G85X103525Y-73044
G05
X108565Y-72007G85X108565Y-73044
G05
X179725Y-50576G85X179725Y-51613
G05
X184765Y-50576G85X184765Y-51613
G05
X103525Y-110107G85X103525Y-111144
G05
X108565Y-110107G85X108565Y-111144
G05
X160675Y-86294G85X160675Y-87332
G05
X165715Y-86294G85X165715Y-87332
G05
X189946Y-135124G85X190844Y-135643
G05
X192466Y-130760G85X193364Y-131278
G05
X198775Y-79151G85X198775Y-80188
G05
X203815Y-79151G85X203815Y-80188
G05
X122575Y-105344G85X122575Y-106381
G05
X127615Y-105344G85X127615Y-106381
G05
X210374Y-157917G85X209476Y-157398
G05
X212894Y-153552G85X211996Y-153034
G05
X84475Y-92094G85X84475Y-91057
G05
X89515Y-92094G85X89515Y-91057
G05
X179725Y-89713G85X179725Y-88676
G05
X184765Y-89713G85X184765Y-88676
G05
X193876Y-148392G85X192978Y-147873
G05
X196396Y-144027G85X195498Y-143509
G05
X160675Y-67245G85X160675Y-68282
G05
X165715Y-67245G85X165715Y-68282
G05
X84475Y-111144G85X84475Y-110107
G05
X89515Y-111144G85X89515Y-110107
G05
X103525Y-52957G85X103525Y-53994
G05
X108565Y-52957G85X108565Y-53994
G05
X141625Y-83913G85X141625Y-84950
G05
X146665Y-83913G85X146665Y-84950
G05
X198775Y-60101G85X198775Y-61138
G05
X203815Y-60101G85X203815Y-61138
G05
X149245Y-134432G85X149245Y-133395
G05
X154285Y-134432G85X154285Y-133395
G05
X141625Y-64863G85X141625Y-65900
G05
X146665Y-64863G85X146665Y-65900
G05
T0
M30
