<?xml version="1.0" encoding="utf-8"?>
<!-- Generator: Adobe Illustrator 24.1.1, SVG Export Plug-In . SVG Version: 6.00 Build 0)  -->
<svg version="1.1" id="レイヤー_1" xmlns="http://www.w3.org/2000/svg" xmlns:xlink="http://www.w3.org/1999/xlink" x="0px"
	 y="0px" viewBox="0 0 850.39 850.39" style="enable-background:new 0 0 850.39 850.39;" xml:space="preserve">
<style type="text/css">
	.st0{fill:none;stroke:#000000;stroke-width:0.7087;stroke-linecap:round;stroke-linejoin:round;stroke-miterlimit:10;}
	.st1{fill:none;stroke:#000000;stroke-width:0.7087;}
	.st2{fill:none;stroke:#000000;stroke-width:0.7087;stroke-linejoin:round;stroke-miterlimit:10;}
</style>
<g>
	<path class="st0" d="M603.01,18.61c-2.03,0.23-4.05,0.54-5.57,0.88L446.86,53.34c-3.04,0.68-5.53,3.79-5.53,6.91v261.07
		c0,3.12,2.55,5.67,5.67,5.67h257.14c3.12,0,7.88,1.28,10.58,2.83l53.31,30.75c2.7,1.56,6.17,0.62,7.72-2.09l42.85-75.11
		c1.55-2.71,2.81-7.47,2.81-10.59l0-190.6c0-3.12-1.43-7.79-3.17-10.37l-16.47-24.44c-1.74-2.59-5.72-4.7-8.84-4.7
		c0,0-0.33,0-0.33,0v41.67h-34.47l0-41.67h-4.88c-3.12,0-7.75-1.47-10.3-3.27l-25.28-17.89c-1.2-0.85-2.87-1.63-4.63-2.21v96.72
		H602.97V18.61"/>
	<path class="st0" d="M498.74,110.29c0,1.53-1.24,2.76-2.76,2.76c-1.53,0-2.76-1.24-2.76-2.76c0-1.53,1.24-2.76,2.76-2.76
		C497.5,107.52,498.74,108.76,498.74,110.29z"/>
	<path class="st0" d="M606.74,150.61c0,1.53-1.24,2.76-2.76,2.76c-1.53,0-2.76-1.24-2.76-2.76c0-1.53,1.24-2.76,2.76-2.76
		C605.5,147.84,606.74,149.08,606.74,150.61z"/>
	<circle class="st0" cx="586.33" cy="39.73" r="2.76"/>
	<path class="st0" d="M498.74,273.01c0,1.53-1.24,2.76-2.76,2.76c-1.53,0-2.76-1.24-2.76-2.76s1.24-2.76,2.76-2.76
		C497.5,270.24,498.74,271.48,498.74,273.01z"/>
	<path class="st0" d="M608.18,251.41c0,1.53-1.24,2.76-2.76,2.76c-1.53,0-2.76-1.24-2.76-2.76c0-1.53,1.24-2.76,2.76-2.76
		C606.94,248.64,608.18,249.88,608.18,251.41z"/>
	<path class="st0" d="M751.82,272.29c0,1.53-1.24,2.76-2.76,2.76c-1.53,0-2.76-1.24-2.76-2.76c0-1.53,1.24-2.76,2.76-2.76
		C750.58,269.52,751.82,270.76,751.82,272.29z"/>
	<path class="st0" d="M768.73,103.09c0,1.53-1.24,2.76-2.76,2.76c-1.53,0-2.76-1.24-2.76-2.76c0-1.53,1.24-2.76,2.76-2.76
		C767.5,100.32,768.73,101.56,768.73,103.09z"/>
</g>
<g>
	<path class="st0" d="M603.01,493.32c-2.03,0.23-4.05,0.54-5.57,0.88l-150.58,33.85c-3.04,0.68-5.53,3.79-5.53,6.91v261.07
		c0,3.12,2.55,5.67,5.67,5.67h257.14c3.12,0,7.88,1.28,10.58,2.83l53.31,30.75c2.7,1.56,6.17,0.62,7.72-2.09l42.85-75.11
		c1.55-2.71,2.81-7.47,2.81-10.59l0-190.6c0-3.12-1.43-7.79-3.17-10.37l-16.47-24.44c-1.74-2.59-5.72-4.7-8.84-4.7
		c0,0-0.33,0-0.33,0v41.67h-34.47l0-41.67h-4.88c-3.12,0-7.75-1.47-10.3-3.27l-25.28-17.89c-1.2-0.85-2.87-1.63-4.63-2.21v96.72
		H602.97v-97.42"/>
	<path class="st0" d="M498.74,585c0,1.53-1.24,2.76-2.76,2.76c-1.53,0-2.76-1.24-2.76-2.76c0-1.53,1.24-2.76,2.76-2.76
		C497.5,582.23,498.74,583.47,498.74,585z"/>
	<path class="st0" d="M606.74,625.32c0,1.53-1.24,2.76-2.76,2.76c-1.53,0-2.76-1.24-2.76-2.76c0-1.53,1.24-2.76,2.76-2.76
		C605.5,622.55,606.74,623.79,606.74,625.32z"/>
	<circle class="st0" cx="586.33" cy="514.44" r="2.76"/>
	<path class="st0" d="M498.74,747.72c0,1.53-1.24,2.76-2.76,2.76c-1.53,0-2.76-1.24-2.76-2.76c0-1.53,1.24-2.76,2.76-2.76
		C497.5,744.95,498.74,746.19,498.74,747.72z"/>
	<path class="st0" d="M608.18,726.12c0,1.53-1.24,2.76-2.76,2.76c-1.53,0-2.76-1.24-2.76-2.76c0-1.53,1.24-2.76,2.76-2.76
		C606.94,723.35,608.18,724.59,608.18,726.12z"/>
	<path class="st0" d="M751.82,747c0,1.53-1.24,2.76-2.76,2.76c-1.53,0-2.76-1.24-2.76-2.76c0-1.53,1.24-2.76,2.76-2.76
		C750.58,744.23,751.82,745.47,751.82,747z"/>
	<path class="st0" d="M768.73,577.8c0,1.53-1.24,2.76-2.76,2.76c-1.53,0-2.76-1.24-2.76-2.76c0-1.53,1.24-2.76,2.76-2.76
		C767.5,575.03,768.73,576.27,768.73,577.8z"/>
</g>
<g>
	<path class="st0" d="M90.92,456.95c0,1.53-1.24,2.76-2.76,2.76c-1.53,0-2.76-1.24-2.76-2.76c0-1.53,1.24-2.76,2.76-2.76
		C89.68,454.19,90.92,455.43,90.92,456.95z"/>
	<circle class="st0" cx="178.51" cy="386.39" r="2.76"/>
	<path class="st0" d="M360.91,449.75c0,1.53-1.24,2.76-2.76,2.76c-1.53,0-2.76-1.24-2.76-2.76c0-1.53,1.24-2.76,2.76-2.76
		C359.68,446.99,360.91,448.23,360.91,449.75z"/>
	<path class="st0" d="M413.58,466.56c0,3.12-2.55,5.67-5.67,5.67H39.18c-3.12,0-5.67-2.55-5.67-5.67v-59.64
		c0-3.12,2.49-6.23,5.53-6.91l150.58-33.85c3.04-0.68,8.08-1.24,11.2-1.24h98.73c3.12,0,7.75,1.47,10.3,3.27l25.28,17.89
		c2.55,1.8,7.18,3.27,10.3,3.27h39.68c3.12,0,7.1,2.12,8.84,4.7l16.47,24.44c1.74,2.59,3.17,7.25,3.17,10.37L413.58,466.56z"/>
</g>
<g>
	<path class="st0" d="M498.74,456.95c0,1.53-1.24,2.76-2.76,2.76c-1.53,0-2.76-1.24-2.76-2.76c0-1.53,1.24-2.76,2.76-2.76
		C497.5,454.19,498.74,455.43,498.74,456.95z"/>
	<circle class="st0" cx="586.33" cy="386.39" r="2.76"/>
	<path class="st0" d="M768.73,449.75c0,1.53-1.24,2.76-2.76,2.76c-1.53,0-2.76-1.24-2.76-2.76c0-1.53,1.24-2.76,2.76-2.76
		C767.5,446.99,768.73,448.23,768.73,449.75z"/>
	<path class="st0" d="M821.4,466.56c0,3.12-2.55,5.67-5.67,5.67H447c-3.12,0-5.67-2.55-5.67-5.67v-59.64c0-3.12,2.49-6.23,5.53-6.91
		l150.58-33.85c3.04-0.68,8.08-1.24,11.2-1.24h98.73c3.12,0,7.75,1.47,10.3,3.27l25.28,17.89c2.55,1.8,7.18,3.27,10.3,3.27h39.68
		c3.12,0,7.09,2.12,8.84,4.7l16.47,24.44c1.74,2.59,3.17,7.25,3.17,10.37L821.4,466.56z"/>
</g>
<g>
	<g>
		<line class="st0" x1="243.04" y1="265.78" x2="243.04" y2="259.06"/>
		<polyline class="st0" points="149.32,211.78 189.04,211.78 189.04,251.5 149.32,251.5 149.32,211.78 		"/>
		<polyline class="st0" points="149.32,157.78 189.04,157.78 189.04,197.5 149.32,197.5 149.32,157.78 		"/>
		<polyline class="st0" points="81.04,225.28 41.32,225.28 41.32,265 81.04,265 81.04,225.28 		"/>
		<polyline class="st0" points="81.04,63.28 41.32,63.28 41.32,103 81.04,103 81.04,63.28 		"/>
		<polyline class="st0" points="311.32,56.56 351.04,56.56 351.04,96.22 311.32,96.22 311.32,56.56 		"/>
		<polyline class="st0" points="81.04,117.28 41.32,117.28 41.32,157 81.04,157 81.04,117.28 		"/>
		<polyline class="st0" points="81.04,171.28 41.32,171.28 41.32,211 81.04,211 81.04,171.28 		"/>
		<polyline class="st0" points="95.32,63.28 135.04,63.28 135.04,103 95.32,103 95.32,63.28 		"/>
		<polyline class="st0" points="95.32,117.28 135.04,117.28 135.04,157 95.32,157 95.32,117.28 		"/>
		<polyline class="st0" points="95.32,171.28 135.04,171.28 135.04,211 95.32,211 95.32,171.28 		"/>
		<polyline class="st0" points="95.32,225.28 135.04,225.28 135.04,265 95.32,265 95.32,225.28 		"/>
		<polyline class="st0" points="189.04,49.78 149.32,49.78 149.32,89.5 189.04,89.5 189.04,49.78 		"/>
		<polyline class="st0" points="189.04,103.78 149.32,103.78 149.32,143.5 189.04,143.5 189.04,103.78 		"/>
		<polyline class="st0" points="203.32,43.06 243.04,43.06 243.04,82.72 203.32,82.72 203.32,43.06 		"/>
		<polyline class="st0" points="203.32,97.06 243.04,97.06 243.04,136.72 203.32,136.72 203.32,97.06 		"/>
		<polyline class="st0" points="203.32,151.06 243.04,151.06 243.04,190.72 203.32,190.72 203.32,151.06 		"/>
		<polyline class="st0" points="203.32,205.06 243.04,205.06 243.04,244.72 203.32,244.72 203.32,205.06 		"/>
		<polyline class="st0" points="257.32,49.78 297.04,49.78 297.04,89.5 257.32,89.5 257.32,49.78 		"/>
		<polyline class="st0" points="257.32,103.78 297.04,103.78 297.04,143.5 257.32,143.5 257.32,103.78 		"/>
		<polyline class="st0" points="257.32,157.78 297.04,157.78 297.04,197.5 257.32,197.5 257.32,157.78 		"/>
		<polyline class="st0" points="257.32,211.78 297.04,211.78 297.04,251.5 257.32,251.5 257.32,211.78 		"/>
		<polyline class="st0" points="351.04,110.56 311.32,110.56 311.32,150.22 351.04,150.22 351.04,110.56 		"/>
		<polyline class="st0" points="351.04,164.56 311.32,164.56 311.32,204.22 351.04,204.22 351.04,164.56 		"/>
		<polyline class="st0" points="351.04,218.56 311.32,218.56 311.32,258.22 351.04,258.22 351.04,218.56 		"/>
		<polyline class="st0" points="365.32,83.56 405.04,83.56 405.04,123.22 365.32,123.22 365.32,83.56 		"/>
		<polyline class="st0" points="365.32,137.56 405.04,137.56 405.04,177.22 365.32,177.22 365.32,137.56 		"/>
		<polyline class="st0" points="365.32,191.56 405.04,191.56 405.04,231.22 365.32,231.22 365.32,191.56 		"/>
		<polyline class="st0" points="81.04,279.28 41.32,279.28 41.32,319 81.04,319 81.04,279.28 		"/>
		<polyline class="st0" points="95.32,279.28 135.04,279.28 135.04,319 95.32,319 95.32,279.28 		"/>
		<polyline class="st0" points="189.04,265.78 149.32,265.78 149.32,305.5 189.04,305.5 189.04,265.78 		"/>
		<polyline class="st0" points="281.56,306.4 301.36,272.02 335.74,291.88 315.88,326.26 281.56,306.4 		"/>
		<polyline class="st0" points="243.04,259.06 203.32,259.06 203.32,298.72 224.92,298.72 224.92,305.5 264.64,305.5 264.64,265.78 
			243.04,265.78 		"/>
	</g>
	<path class="st0" d="M360.2,360.58c2.7,1.56,6.17,0.62,7.72-2.09l42.85-75.11c1.55-2.71,2.81-7.48,2.81-10.59l0-190.6
		c0-3.12-1.43-7.79-3.17-10.37l-16.47-24.44c-1.74-2.59-5.72-4.7-8.84-4.7h-39.68c-3.12,0-7.75-1.47-10.3-3.27l-25.28-17.89
		c-2.55-1.8-7.18-3.27-10.3-3.27h-98.73c-3.12,0-8.16,0.56-11.2,1.24L39.04,53.34c-3.04,0.68-5.53,3.79-5.53,6.91v261.07
		c0,3.12,2.55,5.67,5.67,5.67h257.14c3.12,0,7.88,1.27,10.58,2.83L360.2,360.58z"/>
	<path class="st0" d="M90.92,110.29c0,1.53-1.24,2.76-2.76,2.76c-1.53,0-2.76-1.24-2.76-2.76c0-1.53,1.24-2.76,2.76-2.76
		C89.68,107.52,90.92,108.76,90.92,110.29z"/>
	<path class="st0" d="M198.92,150.61c0,1.53-1.24,2.76-2.76,2.76s-2.76-1.24-2.76-2.76c0-1.53,1.24-2.76,2.76-2.76
		S198.92,149.08,198.92,150.61z"/>
	<path class="st0" d="M181.28,39.73c0,1.53-1.24,2.76-2.76,2.76c-1.53,0-2.76-1.24-2.76-2.76c0-1.53,1.24-2.76,2.76-2.76
		C180.04,36.96,181.28,38.2,181.28,39.73z"/>
	<circle class="st0" cx="88.15" cy="273.01" r="2.76"/>
	<path class="st0" d="M200.36,251.41c0,1.53-1.24,2.76-2.76,2.76c-1.53,0-2.76-1.24-2.76-2.76c0-1.53,1.24-2.76,2.76-2.76
		C199.12,248.64,200.36,249.88,200.36,251.41z"/>
	<path class="st0" d="M344,272.29c0,1.53-1.24,2.76-2.76,2.76c-1.53,0-2.76-1.24-2.76-2.76c0-1.53,1.24-2.76,2.76-2.76
		C342.76,269.52,344,270.76,344,272.29z"/>
	<path class="st0" d="M360.91,103.09c0,1.53-1.24,2.76-2.76,2.76c-1.53,0-2.76-1.24-2.76-2.76c0-1.53,1.24-2.76,2.76-2.76
		C359.68,100.32,360.91,101.56,360.91,103.09z"/>
	<polygon class="st1" points="409.49,272.14 405.15,279.65 405.99,281.61 403.16,286.52 401.04,286.77 370.94,338.96 371.78,340.91 
		368.95,345.82 366.83,346.07 362.58,353.39 328.21,333.54 328.89,332.37 322.14,328.47 335.03,306.13 337.49,307.55 357.33,273.18 
		354.89,271.77 367.78,249.43 374.53,253.33 375.12,252.3 	"/>
</g>
<g>
	<g>
		<line class="st0" x1="243.04" y1="740.49" x2="243.04" y2="733.77"/>
		<polyline class="st0" points="149.32,686.49 189.04,686.49 189.04,726.21 149.32,726.21 149.32,686.49 		"/>
		<polyline class="st0" points="149.32,632.49 189.04,632.49 189.04,672.21 149.32,672.21 149.32,632.49 		"/>
		<polyline class="st0" points="81.04,699.99 41.32,699.99 41.32,739.71 81.04,739.71 81.04,699.99 		"/>
		<polyline class="st0" points="81.04,537.99 41.32,537.99 41.32,577.71 81.04,577.71 81.04,537.99 		"/>
		<polyline class="st0" points="311.32,531.27 351.04,531.27 351.04,570.93 311.32,570.93 311.32,531.27 		"/>
		<polyline class="st0" points="81.04,591.99 41.32,591.99 41.32,631.71 81.04,631.71 81.04,591.99 		"/>
		<polyline class="st0" points="81.04,645.99 41.32,645.99 41.32,685.71 81.04,685.71 81.04,645.99 		"/>
		<polyline class="st0" points="95.32,537.99 135.04,537.99 135.04,577.71 95.32,577.71 95.32,537.99 		"/>
		<polyline class="st0" points="95.32,591.99 135.04,591.99 135.04,631.71 95.32,631.71 95.32,591.99 		"/>
		<polyline class="st0" points="95.32,645.99 135.04,645.99 135.04,685.71 95.32,685.71 95.32,645.99 		"/>
		<polyline class="st0" points="95.32,699.99 135.04,699.99 135.04,739.71 95.32,739.71 95.32,699.99 		"/>
		<polyline class="st0" points="189.04,524.49 149.32,524.49 149.32,564.21 189.04,564.21 189.04,524.49 		"/>
		<polyline class="st0" points="189.04,578.49 149.32,578.49 149.32,618.21 189.04,618.21 189.04,578.49 		"/>
		<polyline class="st0" points="203.32,517.77 243.04,517.77 243.04,557.43 203.32,557.43 203.32,517.77 		"/>
		<polyline class="st0" points="203.32,571.77 243.04,571.77 243.04,611.43 203.32,611.43 203.32,571.77 		"/>
		<polyline class="st0" points="203.32,625.77 243.04,625.77 243.04,665.43 203.32,665.43 203.32,625.77 		"/>
		<polyline class="st0" points="203.32,679.77 243.04,679.77 243.04,719.43 203.32,719.43 203.32,679.77 		"/>
		<polyline class="st0" points="257.32,524.49 297.04,524.49 297.04,564.21 257.32,564.21 257.32,524.49 		"/>
		<polyline class="st0" points="257.32,578.49 297.04,578.49 297.04,618.21 257.32,618.21 257.32,578.49 		"/>
		<polyline class="st0" points="257.32,632.49 297.04,632.49 297.04,672.21 257.32,672.21 257.32,632.49 		"/>
		<polyline class="st0" points="257.32,686.49 297.04,686.49 297.04,726.21 257.32,726.21 257.32,686.49 		"/>
		<polyline class="st0" points="351.04,585.27 311.32,585.27 311.32,624.93 351.04,624.93 351.04,585.27 		"/>
		<polyline class="st0" points="351.04,639.27 311.32,639.27 311.32,678.93 351.04,678.93 351.04,639.27 		"/>
		<polyline class="st0" points="351.04,693.27 311.32,693.27 311.32,732.93 351.04,732.93 351.04,693.27 		"/>
		<polyline class="st0" points="365.32,558.27 405.04,558.27 405.04,597.93 365.32,597.93 365.32,558.27 		"/>
		<polyline class="st0" points="365.32,612.27 405.04,612.27 405.04,651.93 365.32,651.93 365.32,612.27 		"/>
		<polyline class="st0" points="365.32,666.27 405.04,666.27 405.04,705.93 365.32,705.93 365.32,666.27 		"/>
		<polyline class="st0" points="81.04,753.99 41.32,753.99 41.32,793.71 81.04,793.71 81.04,753.99 		"/>
		<polyline class="st0" points="95.32,753.99 135.04,753.99 135.04,793.71 95.32,793.71 95.32,753.99 		"/>
		<polyline class="st0" points="189.04,740.49 149.32,740.49 149.32,780.21 189.04,780.21 189.04,740.49 		"/>
		<polyline class="st0" points="281.56,781.11 301.36,746.73 335.74,766.59 315.88,800.97 281.56,781.11 		"/>
		<polyline class="st0" points="243.04,733.77 203.32,733.77 203.32,773.43 224.92,773.43 224.92,780.21 264.64,780.21 
			264.64,740.49 243.04,740.49 		"/>
	</g>
	<path class="st0" d="M360.2,835.29c2.7,1.56,6.17,0.62,7.72-2.09l42.85-75.11c1.55-2.71,2.81-7.48,2.81-10.59l0-190.59
		c0-3.12-1.43-7.79-3.17-10.37l-16.47-24.44c-1.74-2.59-5.72-4.7-8.84-4.7h-39.68c-3.12,0-7.75-1.47-10.3-3.27l-25.28-17.89
		c-2.55-1.8-7.18-3.28-10.3-3.28h-98.73c-3.12,0-8.16,0.56-11.2,1.24L39.04,528.05c-3.04,0.68-5.53,3.79-5.53,6.91v261.07
		c0,3.12,2.55,5.67,5.67,5.67h257.14c3.12,0,7.88,1.28,10.58,2.83L360.2,835.29z"/>
	<path class="st0" d="M90.92,585c0,1.53-1.24,2.76-2.76,2.76c-1.53,0-2.76-1.24-2.76-2.76c0-1.53,1.24-2.76,2.76-2.76
		C89.68,582.23,90.92,583.47,90.92,585z"/>
	<circle class="st0" cx="196.15" cy="625.32" r="2.76"/>
	<path class="st0" d="M181.28,514.44c0,1.53-1.24,2.76-2.76,2.76c-1.53,0-2.76-1.24-2.76-2.76c0-1.53,1.24-2.76,2.76-2.76
		C180.04,511.67,181.28,512.91,181.28,514.44z"/>
	<path class="st0" d="M90.92,747.72c0,1.53-1.24,2.76-2.76,2.76c-1.53,0-2.76-1.24-2.76-2.76c0-1.53,1.24-2.76,2.76-2.76
		C89.68,744.95,90.92,746.19,90.92,747.72z"/>
	<path class="st0" d="M200.36,726.12c0,1.53-1.24,2.76-2.76,2.76c-1.53,0-2.76-1.24-2.76-2.76c0-1.53,1.24-2.76,2.76-2.76
		C199.12,723.35,200.36,724.59,200.36,726.12z"/>
	<path class="st0" d="M344,747c0,1.53-1.24,2.76-2.76,2.76c-1.53,0-2.76-1.24-2.76-2.76c0-1.53,1.24-2.76,2.76-2.76
		C342.76,744.23,344,745.47,344,747z"/>
	<path class="st0" d="M360.91,577.8c0,1.53-1.24,2.76-2.76,2.76c-1.53,0-2.76-1.24-2.76-2.76c0-1.53,1.24-2.76,2.76-2.76
		C359.68,575.03,360.91,576.27,360.91,577.8z"/>
	<polygon class="st1" points="409.58,746.71 405.24,754.22 406.08,756.18 403.25,761.09 401.13,761.34 371.03,813.52 371.87,815.48 
		369.04,820.39 366.92,820.64 362.66,827.95 328.3,808.11 328.98,806.93 322.23,803.04 335.12,780.7 337.58,782.11 357.42,747.75 
		354.97,746.34 367.86,724 374.62,727.9 375.21,726.87 	"/>
</g>
<g>
	<g>
		<line class="st0" x1="227.88" y1="1108.66" x2="227.88" y2="1101.94"/>
		<polyline class="st0" points="134.16,1054.66 173.88,1054.66 173.88,1094.38 134.16,1094.38 134.16,1054.66 		"/>
		<polyline class="st0" points="134.16,1000.66 173.88,1000.66 173.88,1040.38 134.16,1040.38 134.16,1000.66 		"/>
		<polyline class="st0" points="65.88,1068.16 26.16,1068.16 26.16,1107.88 65.88,1107.88 65.88,1068.16 		"/>
		<polyline class="st0" points="65.88,906.16 26.16,906.16 26.16,945.88 65.88,945.88 65.88,906.16 		"/>
		<polyline class="st0" points="296.16,899.44 335.88,899.44 335.88,939.1 296.16,939.1 296.16,899.44 		"/>
		<polyline class="st0" points="65.88,960.16 26.16,960.16 26.16,999.88 65.88,999.88 65.88,960.16 		"/>
		<polyline class="st0" points="65.88,1014.16 26.16,1014.16 26.16,1053.88 65.88,1053.88 65.88,1014.16 		"/>
		<polyline class="st0" points="80.16,906.16 119.88,906.16 119.88,945.88 80.16,945.88 80.16,906.16 		"/>
		<polyline class="st0" points="80.16,960.16 119.88,960.16 119.88,999.88 80.16,999.88 80.16,960.16 		"/>
		<polyline class="st0" points="80.16,1014.16 119.88,1014.16 119.88,1053.88 80.16,1053.88 80.16,1014.16 		"/>
		<polyline class="st0" points="80.16,1068.16 119.88,1068.16 119.88,1107.88 80.16,1107.88 80.16,1068.16 		"/>
		<polyline class="st0" points="173.88,892.66 134.16,892.66 134.16,932.38 173.88,932.38 173.88,892.66 		"/>
		<polyline class="st0" points="173.88,946.66 134.16,946.66 134.16,986.38 173.88,986.38 173.88,946.66 		"/>
		<polyline class="st0" points="188.16,885.94 227.88,885.94 227.88,925.6 188.16,925.6 188.16,885.94 		"/>
		<polyline class="st0" points="188.16,939.94 227.88,939.94 227.88,979.6 188.16,979.6 188.16,939.94 		"/>
		<polyline class="st0" points="188.16,993.94 227.88,993.94 227.88,1033.6 188.16,1033.6 188.16,993.94 		"/>
		<polyline class="st0" points="188.16,1047.94 227.88,1047.94 227.88,1087.6 188.16,1087.6 188.16,1047.94 		"/>
		<polyline class="st0" points="242.16,892.66 281.88,892.66 281.88,932.38 242.16,932.38 242.16,892.66 		"/>
		<polyline class="st0" points="242.16,946.66 281.88,946.66 281.88,986.38 242.16,986.38 242.16,946.66 		"/>
		<polyline class="st0" points="242.16,1000.66 281.88,1000.66 281.88,1040.38 242.16,1040.38 242.16,1000.66 		"/>
		<polyline class="st0" points="242.16,1054.66 281.88,1054.66 281.88,1094.38 242.16,1094.38 242.16,1054.66 		"/>
		<polyline class="st0" points="335.88,953.44 296.16,953.44 296.16,993.1 335.88,993.1 335.88,953.44 		"/>
		<polyline class="st0" points="335.88,1007.44 296.16,1007.44 296.16,1047.1 335.88,1047.1 335.88,1007.44 		"/>
		<polyline class="st0" points="335.88,1061.43 296.16,1061.43 296.16,1101.1 335.88,1101.1 335.88,1061.43 		"/>
		<polyline class="st0" points="350.16,926.44 389.88,926.44 389.88,966.1 350.16,966.1 350.16,926.44 		"/>
		<polyline class="st0" points="350.16,980.44 389.88,980.44 389.88,1020.1 350.16,1020.1 350.16,980.44 		"/>
		<polyline class="st0" points="350.16,1034.44 389.88,1034.44 389.88,1074.1 350.16,1074.1 350.16,1034.44 		"/>
		<polyline class="st0" points="65.88,1122.16 26.16,1122.16 26.16,1161.88 65.88,1161.88 65.88,1122.16 		"/>
		<polyline class="st0" points="80.16,1122.16 119.88,1122.16 119.88,1161.88 80.16,1161.88 80.16,1122.16 		"/>
		<polyline class="st0" points="173.88,1108.66 134.16,1108.66 134.16,1148.38 173.88,1148.38 173.88,1108.66 		"/>
		<polyline class="st0" points="266.4,1149.28 286.2,1114.9 320.58,1134.76 300.72,1169.14 266.4,1149.28 		"/>
		<polyline class="st0" points="227.88,1101.94 188.16,1101.94 188.16,1141.6 209.76,1141.6 209.76,1148.38 249.48,1148.38 
			249.48,1108.66 227.88,1108.66 		"/>
	</g>
	<path class="st0" d="M75.75,953.17c0,1.53-1.24,2.76-2.76,2.76c-1.53,0-2.76-1.24-2.76-2.76c0-1.53,1.24-2.76,2.76-2.76
		C74.51,950.4,75.75,951.64,75.75,953.17z"/>
	<circle class="st0" cx="180.99" cy="993.49" r="2.76"/>
	<path class="st0" d="M166.11,882.61c0,1.53-1.24,2.76-2.76,2.76c-1.53,0-2.76-1.24-2.76-2.76c0-1.53,1.24-2.76,2.76-2.76
		C164.87,879.84,166.11,881.08,166.11,882.61z"/>
	<circle class="st0" cx="72.99" cy="1115.89" r="2.76"/>
	<path class="st0" d="M185.19,1094.29c0,1.53-1.24,2.76-2.76,2.76c-1.53,0-2.76-1.24-2.76-2.76c0-1.53,1.24-2.76,2.76-2.76
		C183.95,1091.52,185.19,1092.76,185.19,1094.29z"/>
	<path class="st0" d="M328.83,1115.17c0,1.53-1.24,2.76-2.76,2.76c-1.53,0-2.76-1.24-2.76-2.76c0-1.53,1.24-2.76,2.76-2.76
		C327.59,1112.4,328.83,1113.64,328.83,1115.17z"/>
	<path class="st0" d="M345.75,945.97c0,1.53-1.24,2.76-2.76,2.76c-1.53,0-2.76-1.24-2.76-2.76c0-1.53,1.24-2.76,2.76-2.76
		C344.51,943.2,345.75,944.44,345.75,945.97z"/>
	<path class="st2" d="M335.1,948.82"/>
	<path class="st0" d="M409.44,1107.85c0,1.53-1.24,2.76-2.76,2.76c-1.53,0-2.76-1.24-2.76-2.76c0-1.53,1.24-2.76,2.76-2.76
		C408.2,1105.08,409.44,1106.32,409.44,1107.85z"/>
	<path class="st0" d="M398.41,1073.68c0,3.12,1.69,7.58,3.76,9.91l45.58,51.37c2.07,2.33,2.48,6.45,0.92,9.15l-48.87,84.41
		c-1.56,2.7-5.05,3.63-7.75,2.07l-100.33-57.88c-2.7-1.56-7.46-2.83-10.58-2.83l0,0H24.01c-3.12,0-5.67-2.55-5.67-5.67V903.13
		c0-3.12,2.49-6.23,5.53-6.91l150.58-33.85c3.04-0.68,8.08-1.24,11.2-1.24h98.73c3.12,0,7.75,1.47,10.3,3.28l25.28,17.89
		c2.55,1.8,7.18,3.27,10.3,3.27h39.68c3.12,0,7.1,2.12,8.84,4.7l16.47,24.44c1.74,2.59,3.17,7.25,3.17,10.37l0,148.73"/>
	<polygon class="st1" points="441.09,1142.01 436.75,1149.53 437.59,1151.48 434.76,1156.39 432.64,1156.64 402.54,1208.83 
		403.38,1210.78 400.55,1215.69 398.43,1215.94 394.18,1223.26 359.81,1203.41 360.49,1202.24 353.74,1198.34 366.63,1176 
		369.09,1177.42 388.93,1143.05 386.48,1141.64 399.38,1119.3 406.13,1123.2 406.72,1122.17 	"/>
	<polygon class="st1" points="394.32,1115.01 389.98,1122.53 390.82,1124.48 387.99,1129.39 385.87,1129.64 355.77,1181.83 
		356.61,1183.78 353.78,1188.69 351.66,1188.94 347.41,1196.26 313.04,1176.41 313.72,1175.24 306.97,1171.34 319.86,1149 
		322.32,1150.42 342.16,1116.05 339.71,1114.64 352.6,1092.3 359.36,1096.2 359.95,1095.17 	"/>
</g>
<g>
	<path class="st0" d="M540.03,947.12c0,1.53-1.24,2.76-2.76,2.76c-1.53,0-2.76-1.24-2.76-2.76c0-1.53,1.24-2.76,2.76-2.76
		C538.79,944.36,540.03,945.6,540.03,947.12z"/>
	<path class="st0" d="M648.03,987.44c0,1.53-1.24,2.76-2.76,2.76c-1.53,0-2.76-1.24-2.76-2.76c0-1.53,1.24-2.76,2.76-2.76
		C646.79,984.68,648.03,985.92,648.03,987.44z"/>
	<circle class="st0" cx="627.63" cy="876.56" r="2.76"/>
	<path class="st0" d="M540.03,1109.84c0,1.53-1.24,2.76-2.76,2.76c-1.53,0-2.76-1.24-2.76-2.76c0-1.53,1.24-2.76,2.76-2.76
		C538.79,1107.08,540.03,1108.32,540.03,1109.84z"/>
	<circle class="st0" cx="646.71" cy="1088.24" r="2.76"/>
	<path class="st0" d="M793.11,1109.13c0,1.53-1.24,2.76-2.76,2.76c-1.53,0-2.76-1.24-2.76-2.76s1.24-2.76,2.76-2.76
		C791.87,1106.36,793.11,1107.6,793.11,1109.13z"/>
	<circle class="st0" cx="807.27" cy="939.92" r="2.76"/>
	<path class="st2" d="M799.38,942.77"/>
	<path class="st0" d="M873.72,1101.81c0,1.53-1.24,2.76-2.76,2.76c-1.53,0-2.76-1.24-2.76-2.76c0-1.53,1.24-2.76,2.76-2.76
		C872.49,1099.04,873.72,1100.28,873.72,1101.81z"/>
	<path class="st0" d="M862.69,1067.64c0,3.12,1.69,7.58,3.76,9.91l45.58,51.37c2.07,2.33,2.48,6.45,0.92,9.15l-48.87,84.41
		c-1.56,2.7-5.05,3.63-7.75,2.07l-100.33-57.88c-2.7-1.56-7.46-2.83-10.58-2.83H488.29c-3.12,0-5.67-2.55-5.67-5.67V897.09
		c0-3.12,2.49-6.23,5.53-6.91l150.58-33.85c1.52-0.34,3.54-0.65,5.57-0.88h-0.04v97.42h110.07v-96.72c1.75,0.58,3.42,1.36,4.63,2.21
		l25.28,17.89c2.55,1.8,7.18,3.28,10.3,3.28h4.88l0,41.67h34.47v-41.67h0.33c3.12,0,7.09,2.12,8.84,4.7l16.47,24.44
		c1.74,2.58,3.17,7.25,3.17,10.37l0,148.67"/>
</g>
</svg>
