<?xml version="1.0" encoding="utf-8"?>
<!-- Generator: Adobe Illustrator 16.0.0, SVG Export Plug-In . SVG Version: 6.00 Build 0)  -->
<!DOCTYPE svg PUBLIC "-//W3C//DTD SVG 1.1//EN" "http://www.w3.org/Graphics/SVG/1.1/DTD/svg11.dtd">
<svg version="1.1" id="レイヤー_1" xmlns="http://www.w3.org/2000/svg" xmlns:xlink="http://www.w3.org/1999/xlink" x="0px"
	 y="0px" width="935.611px" height="1267.154px" viewBox="0 0 935.611 1267.154" enable-background="new 0 0 935.611 1267.154"
	 xml:space="preserve">
<g>
	
		<path fill="none" stroke="#000000" stroke-width="0.7087" stroke-linecap="round" stroke-linejoin="round" stroke-miterlimit="10" d="
		M603.008,18.614c-2.03,0.226-4.052,0.536-5.572,0.878l-150.577,33.85c-3.042,0.684-5.531,3.795-5.531,6.913v261.068
		c0,3.118,2.551,5.669,5.67,5.669h257.136c3.118,0,7.879,1.275,10.579,2.833l53.307,30.754c2.7,1.558,6.175,0.617,7.72-2.091
		l42.85-75.107c1.545-2.708,2.81-7.475,2.81-10.593l0.005-190.596c0-3.118-1.426-7.785-3.168-10.371l-16.469-24.438
		c-1.742-2.585-5.719-4.701-8.837-4.701c0,0-0.333,0-0.332,0v41.669h-34.47l0.001-41.669h-4.884c-3.118,0-7.752-1.474-10.297-3.274
		l-25.282-17.886c-1.203-0.852-2.873-1.629-4.628-2.213v96.723h-110.07V18.613"/>
	
		<circle fill="none" stroke="#000000" stroke-width="0.7087" stroke-linecap="round" stroke-linejoin="round" stroke-miterlimit="10" cx="495.972" cy="110.288" r="2.764"/>
	
		<circle fill="none" stroke="#000000" stroke-width="0.7087" stroke-linecap="round" stroke-linejoin="round" stroke-miterlimit="10" cx="603.972" cy="150.607" r="2.764"/>
	
		<circle fill="none" stroke="#000000" stroke-width="0.7087" stroke-linecap="round" stroke-linejoin="round" stroke-miterlimit="10" cx="586.333" cy="39.728" r="2.764"/>
	
		<circle fill="none" stroke="#000000" stroke-width="0.7087" stroke-linecap="round" stroke-linejoin="round" stroke-miterlimit="10" cx="495.972" cy="273.007" r="2.764"/>
	
		<circle fill="none" stroke="#000000" stroke-width="0.7087" stroke-linecap="round" stroke-linejoin="round" stroke-miterlimit="10" cx="605.413" cy="251.408" r="2.764"/>
	
		<circle fill="none" stroke="#000000" stroke-width="0.7087" stroke-linecap="round" stroke-linejoin="round" stroke-miterlimit="10" cx="749.052" cy="272.289" r="2.764"/>
	
		<circle fill="none" stroke="#000000" stroke-width="0.7087" stroke-linecap="round" stroke-linejoin="round" stroke-miterlimit="10" cx="765.971" cy="103.087" r="2.764"/>
</g>
<g>
	
		<path fill="none" stroke="#000000" stroke-width="0.7087" stroke-linecap="round" stroke-linejoin="round" stroke-miterlimit="10" d="
		M603.008,493.322c-2.03,0.227-4.052,0.537-5.572,0.879l-150.577,33.85c-3.042,0.685-5.531,3.795-5.531,6.914v261.068
		c0,3.117,2.551,5.668,5.67,5.668h257.136c3.118,0,7.879,1.275,10.579,2.834l53.307,30.754c2.7,1.557,6.175,0.617,7.72-2.092
		l42.85-75.107c1.545-2.707,2.81-7.475,2.81-10.592l0.005-190.596c0-3.119-1.426-7.785-3.168-10.371l-16.469-24.438
		c-1.742-2.586-5.719-4.701-8.837-4.701c0,0-0.333,0-0.332,0v41.669h-34.47l0.001-41.669h-4.884c-3.118,0-7.752-1.474-10.297-3.274
		l-25.282-17.886c-1.203-0.852-2.873-1.63-4.628-2.214v96.723h-110.07v-97.419"/>
	
		<circle fill="none" stroke="#000000" stroke-width="0.7087" stroke-linecap="round" stroke-linejoin="round" stroke-miterlimit="10" cx="495.972" cy="584.997" r="2.764"/>
	
		<circle fill="none" stroke="#000000" stroke-width="0.7087" stroke-linecap="round" stroke-linejoin="round" stroke-miterlimit="10" cx="603.972" cy="625.316" r="2.764"/>
	
		<circle fill="none" stroke="#000000" stroke-width="0.7087" stroke-linecap="round" stroke-linejoin="round" stroke-miterlimit="10" cx="586.333" cy="514.437" r="2.764"/>
	
		<circle fill="none" stroke="#000000" stroke-width="0.7087" stroke-linecap="round" stroke-linejoin="round" stroke-miterlimit="10" cx="495.972" cy="747.716" r="2.764"/>
	
		<circle fill="none" stroke="#000000" stroke-width="0.7087" stroke-linecap="round" stroke-linejoin="round" stroke-miterlimit="10" cx="605.413" cy="726.117" r="2.764"/>
	
		<circle fill="none" stroke="#000000" stroke-width="0.7087" stroke-linecap="round" stroke-linejoin="round" stroke-miterlimit="10" cx="749.052" cy="746.998" r="2.764"/>
	
		<circle fill="none" stroke="#000000" stroke-width="0.7087" stroke-linecap="round" stroke-linejoin="round" stroke-miterlimit="10" cx="765.971" cy="577.796" r="2.764"/>
</g>
<g>
	
		<circle fill="none" stroke="#000000" stroke-width="0.7087" stroke-linecap="round" stroke-linejoin="round" stroke-miterlimit="10" cx="88.152" cy="456.955" r="2.764"/>
	
		<circle fill="none" stroke="#000000" stroke-width="0.7087" stroke-linecap="round" stroke-linejoin="round" stroke-miterlimit="10" cx="178.512" cy="386.395" r="2.764"/>
	
		<circle fill="none" stroke="#000000" stroke-width="0.7087" stroke-linecap="round" stroke-linejoin="round" stroke-miterlimit="10" cx="358.15" cy="449.754" r="2.764"/>
	
		<path fill="none" stroke="#000000" stroke-width="0.7087" stroke-linecap="round" stroke-linejoin="round" stroke-miterlimit="10" d="
		M413.581,466.563c0,3.118-2.551,5.669-5.669,5.669H39.176c-3.118,0-5.669-2.551-5.669-5.669v-59.641
		c0-3.118,2.489-6.229,5.531-6.913l150.577-33.85c3.042-0.684,8.083-1.244,11.201-1.244h98.731c3.118,0,7.752,1.474,10.297,3.274
		l25.282,17.886c2.545,1.801,7.179,3.274,10.297,3.274h39.684c3.118,0,7.095,2.116,8.838,4.702l16.468,24.438
		c1.743,2.585,3.168,7.252,3.168,10.37L413.581,466.563z"/>
</g>
<g>
	
		<circle fill="none" stroke="#000000" stroke-width="0.7087" stroke-linecap="round" stroke-linejoin="round" stroke-miterlimit="10" cx="495.972" cy="456.955" r="2.764"/>
	
		<circle fill="none" stroke="#000000" stroke-width="0.7087" stroke-linecap="round" stroke-linejoin="round" stroke-miterlimit="10" cx="586.333" cy="386.395" r="2.764"/>
	
		<circle fill="none" stroke="#000000" stroke-width="0.7087" stroke-linecap="round" stroke-linejoin="round" stroke-miterlimit="10" cx="765.971" cy="449.754" r="2.764"/>
	
		<path fill="none" stroke="#000000" stroke-width="0.7087" stroke-linecap="round" stroke-linejoin="round" stroke-miterlimit="10" d="
		M821.402,466.563c0,3.118-2.552,5.669-5.67,5.669H446.998c-3.119,0-5.67-2.551-5.67-5.669v-59.641c0-3.118,2.489-6.229,5.531-6.913
		l150.577-33.85c3.042-0.684,8.083-1.244,11.2-1.244h98.732c3.117,0,7.752,1.474,10.297,3.274l25.282,17.886
		c2.546,1.801,7.179,3.274,10.298,3.274h39.684c3.117,0,7.095,2.116,8.838,4.702l16.467,24.438c1.743,2.585,3.169,7.252,3.169,10.37
		L821.402,466.563z"/>
</g>
<g>
	<g>
		
			<line fill="none" stroke="#000000" stroke-width="0.7087" stroke-linecap="round" stroke-linejoin="round" stroke-miterlimit="10" x1="243.042" y1="265.779" x2="243.042" y2="259.059"/>
		
			<polyline fill="none" stroke="#000000" stroke-width="0.7087" stroke-linecap="round" stroke-linejoin="round" stroke-miterlimit="10" points="
			149.322,211.778 189.042,211.778 189.042,251.499 149.322,251.499 149.322,211.778 		"/>
		
			<polyline fill="none" stroke="#000000" stroke-width="0.7087" stroke-linecap="round" stroke-linejoin="round" stroke-miterlimit="10" points="
			149.322,157.778 189.042,157.778 189.042,197.498 149.322,197.498 149.322,157.778 		"/>
		
			<polyline fill="none" stroke="#000000" stroke-width="0.7087" stroke-linecap="round" stroke-linejoin="round" stroke-miterlimit="10" points="
			81.042,225.278 41.322,225.278 41.322,264.999 81.042,264.999 81.042,225.278 		"/>
		
			<polyline fill="none" stroke="#000000" stroke-width="0.7087" stroke-linecap="round" stroke-linejoin="round" stroke-miterlimit="10" points="
			81.042,63.278 41.322,63.278 41.322,102.998 81.042,102.998 81.042,63.278 		"/>
		
			<polyline fill="none" stroke="#000000" stroke-width="0.7087" stroke-linecap="round" stroke-linejoin="round" stroke-miterlimit="10" points="
			311.323,56.558 351.042,56.558 351.042,96.218 311.323,96.218 311.323,56.558 		"/>
		
			<polyline fill="none" stroke="#000000" stroke-width="0.7087" stroke-linecap="round" stroke-linejoin="round" stroke-miterlimit="10" points="
			81.042,117.278 41.322,117.278 41.322,156.998 81.042,156.998 81.042,117.278 		"/>
		
			<polyline fill="none" stroke="#000000" stroke-width="0.7087" stroke-linecap="round" stroke-linejoin="round" stroke-miterlimit="10" points="
			81.042,171.278 41.322,171.278 41.322,210.998 81.042,210.998 81.042,171.278 		"/>
		
			<polyline fill="none" stroke="#000000" stroke-width="0.7087" stroke-linecap="round" stroke-linejoin="round" stroke-miterlimit="10" points="
			95.322,63.278 135.042,63.278 135.042,102.998 95.322,102.998 95.322,63.278 		"/>
		
			<polyline fill="none" stroke="#000000" stroke-width="0.7087" stroke-linecap="round" stroke-linejoin="round" stroke-miterlimit="10" points="
			95.322,117.278 135.042,117.278 135.042,156.998 95.322,156.998 95.322,117.278 		"/>
		
			<polyline fill="none" stroke="#000000" stroke-width="0.7087" stroke-linecap="round" stroke-linejoin="round" stroke-miterlimit="10" points="
			95.322,171.278 135.042,171.278 135.042,210.998 95.322,210.998 95.322,171.278 		"/>
		
			<polyline fill="none" stroke="#000000" stroke-width="0.7087" stroke-linecap="round" stroke-linejoin="round" stroke-miterlimit="10" points="
			95.322,225.278 135.042,225.278 135.042,264.999 95.322,264.999 95.322,225.278 		"/>
		
			<polyline fill="none" stroke="#000000" stroke-width="0.7087" stroke-linecap="round" stroke-linejoin="round" stroke-miterlimit="10" points="
			189.042,49.778 149.322,49.778 149.322,89.498 189.042,89.498 189.042,49.778 		"/>
		
			<polyline fill="none" stroke="#000000" stroke-width="0.7087" stroke-linecap="round" stroke-linejoin="round" stroke-miterlimit="10" points="
			189.042,103.778 149.322,103.778 149.322,143.498 189.042,143.498 189.042,103.778 		"/>
		
			<polyline fill="none" stroke="#000000" stroke-width="0.7087" stroke-linecap="round" stroke-linejoin="round" stroke-miterlimit="10" points="
			203.322,43.058 243.042,43.058 243.042,82.718 203.322,82.718 203.322,43.058 		"/>
		
			<polyline fill="none" stroke="#000000" stroke-width="0.7087" stroke-linecap="round" stroke-linejoin="round" stroke-miterlimit="10" points="
			203.322,97.058 243.042,97.058 243.042,136.718 203.322,136.718 203.322,97.058 		"/>
		
			<polyline fill="none" stroke="#000000" stroke-width="0.7087" stroke-linecap="round" stroke-linejoin="round" stroke-miterlimit="10" points="
			203.322,151.058 243.042,151.058 243.042,190.718 203.322,190.718 203.322,151.058 		"/>
		
			<polyline fill="none" stroke="#000000" stroke-width="0.7087" stroke-linecap="round" stroke-linejoin="round" stroke-miterlimit="10" points="
			203.322,205.058 243.042,205.058 243.042,244.717 203.322,244.717 203.322,205.058 		"/>
		
			<polyline fill="none" stroke="#000000" stroke-width="0.7087" stroke-linecap="round" stroke-linejoin="round" stroke-miterlimit="10" points="
			257.323,49.778 297.042,49.778 297.042,89.498 257.323,89.498 257.323,49.778 		"/>
		
			<polyline fill="none" stroke="#000000" stroke-width="0.7087" stroke-linecap="round" stroke-linejoin="round" stroke-miterlimit="10" points="
			257.323,103.778 297.042,103.778 297.042,143.498 257.323,143.498 257.323,103.778 		"/>
		
			<polyline fill="none" stroke="#000000" stroke-width="0.7087" stroke-linecap="round" stroke-linejoin="round" stroke-miterlimit="10" points="
			257.323,157.778 297.042,157.778 297.042,197.498 257.323,197.498 257.323,157.778 		"/>
		
			<polyline fill="none" stroke="#000000" stroke-width="0.7087" stroke-linecap="round" stroke-linejoin="round" stroke-miterlimit="10" points="
			257.323,211.778 297.042,211.778 297.042,251.499 257.323,251.499 257.323,211.778 		"/>
		
			<polyline fill="none" stroke="#000000" stroke-width="0.7087" stroke-linecap="round" stroke-linejoin="round" stroke-miterlimit="10" points="
			351.042,110.558 311.323,110.558 311.323,150.218 351.042,150.218 351.042,110.558 		"/>
		
			<polyline fill="none" stroke="#000000" stroke-width="0.7087" stroke-linecap="round" stroke-linejoin="round" stroke-miterlimit="10" points="
			351.042,164.558 311.323,164.558 311.323,204.218 351.042,204.218 351.042,164.558 		"/>
		
			<polyline fill="none" stroke="#000000" stroke-width="0.7087" stroke-linecap="round" stroke-linejoin="round" stroke-miterlimit="10" points="
			351.042,218.557 311.323,218.557 311.323,258.219 351.042,258.219 351.042,218.557 		"/>
		
			<polyline fill="none" stroke="#000000" stroke-width="0.7087" stroke-linecap="round" stroke-linejoin="round" stroke-miterlimit="10" points="
			365.323,83.558 405.042,83.558 405.042,123.218 365.323,123.218 365.323,83.558 		"/>
		
			<polyline fill="none" stroke="#000000" stroke-width="0.7087" stroke-linecap="round" stroke-linejoin="round" stroke-miterlimit="10" points="
			365.323,137.558 405.042,137.558 405.042,177.218 365.323,177.218 365.323,137.558 		"/>
		
			<polyline fill="none" stroke="#000000" stroke-width="0.7087" stroke-linecap="round" stroke-linejoin="round" stroke-miterlimit="10" points="
			365.323,191.558 405.042,191.558 405.042,231.217 365.323,231.217 365.323,191.558 		"/>
		
			<polyline fill="none" stroke="#000000" stroke-width="0.7087" stroke-linecap="round" stroke-linejoin="round" stroke-miterlimit="10" points="
			81.042,279.28 41.322,279.28 41.322,318.999 81.042,318.999 81.042,279.28 		"/>
		
			<polyline fill="none" stroke="#000000" stroke-width="0.7087" stroke-linecap="round" stroke-linejoin="round" stroke-miterlimit="10" points="
			95.322,279.28 135.042,279.28 135.042,318.999 95.322,318.999 95.322,279.28 		"/>
		
			<polyline fill="none" stroke="#000000" stroke-width="0.7087" stroke-linecap="round" stroke-linejoin="round" stroke-miterlimit="10" points="
			189.042,265.78 149.322,265.78 149.322,305.499 189.042,305.499 189.042,265.78 		"/>
		
			<polyline fill="none" stroke="#000000" stroke-width="0.7087" stroke-linecap="round" stroke-linejoin="round" stroke-miterlimit="10" points="
			281.562,306.399 301.362,272.018 335.743,291.879 315.882,326.258 281.562,306.399 		"/>
		
			<polyline fill="none" stroke="#000000" stroke-width="0.7087" stroke-linecap="round" stroke-linejoin="round" stroke-miterlimit="10" points="
			243.042,259.059 203.322,259.059 203.322,298.719 224.922,298.719 224.922,305.499 264.642,305.499 264.642,265.78 
			243.042,265.78 		"/>
	</g>
	
		<path fill="none" stroke="#000000" stroke-width="0.7087" stroke-linecap="round" stroke-linejoin="round" stroke-miterlimit="10" d="
		M360.198,360.58c2.701,1.558,6.175,0.617,7.72-2.091l42.85-75.106c1.545-2.708,2.81-7.476,2.81-10.594l0.005-190.595
		c0-3.118-1.426-7.785-3.168-10.371l-16.468-24.438c-1.743-2.585-5.72-4.701-8.838-4.701h-39.684c-3.118,0-7.752-1.474-10.297-3.274
		l-25.282-17.886c-2.545-1.801-7.179-3.274-10.297-3.274h-98.731c-3.118,0-8.159,0.56-11.201,1.244L39.039,53.342
		c-3.042,0.684-5.531,3.795-5.531,6.913v261.068c0,3.118,2.551,5.669,5.669,5.669h257.136c3.118,0,7.879,1.275,10.58,2.833
		L360.198,360.58z"/>
	
		<circle fill="none" stroke="#000000" stroke-width="0.7087" stroke-linecap="round" stroke-linejoin="round" stroke-miterlimit="10" cx="88.152" cy="110.288" r="2.764"/>
	
		<circle fill="none" stroke="#000000" stroke-width="0.7087" stroke-linecap="round" stroke-linejoin="round" stroke-miterlimit="10" cx="196.152" cy="150.607" r="2.764"/>
	
		<circle fill="none" stroke="#000000" stroke-width="0.7087" stroke-linecap="round" stroke-linejoin="round" stroke-miterlimit="10" cx="178.512" cy="39.728" r="2.764"/>
	
		<circle fill="none" stroke="#000000" stroke-width="0.7087" stroke-linecap="round" stroke-linejoin="round" stroke-miterlimit="10" cx="88.152" cy="273.007" r="2.764"/>
	
		<circle fill="none" stroke="#000000" stroke-width="0.7087" stroke-linecap="round" stroke-linejoin="round" stroke-miterlimit="10" cx="197.592" cy="251.408" r="2.764"/>
	
		<circle fill="none" stroke="#000000" stroke-width="0.7087" stroke-linecap="round" stroke-linejoin="round" stroke-miterlimit="10" cx="341.232" cy="272.289" r="2.764"/>
	
		<circle fill="none" stroke="#000000" stroke-width="0.7087" stroke-linecap="round" stroke-linejoin="round" stroke-miterlimit="10" cx="358.151" cy="103.087" r="2.764"/>
	<polygon fill="none" stroke="#000000" stroke-width="0.7087" stroke-linejoin="round" stroke-miterlimit="10" points="
		370.907,259.604 375.124,252.299 409.483,272.135 362.657,353.24 328.299,333.402 332.498,326.131 330.645,325.061 335.32,316.961 
		337.174,318.031 366.229,267.707 364.376,266.637 369.053,258.535 	"/>
</g>
<g>
	<g>
		
			<line fill="none" stroke="#000000" stroke-width="0.7087" stroke-linecap="round" stroke-linejoin="round" stroke-miterlimit="10" x1="243.042" y1="740.488" x2="243.042" y2="733.767"/>
		
			<polyline fill="none" stroke="#000000" stroke-width="0.7087" stroke-linecap="round" stroke-linejoin="round" stroke-miterlimit="10" points="
			149.322,686.486 189.042,686.486 189.042,726.207 149.322,726.207 149.322,686.486 		"/>
		
			<polyline fill="none" stroke="#000000" stroke-width="0.7087" stroke-linecap="round" stroke-linejoin="round" stroke-miterlimit="10" points="
			149.322,632.486 189.042,632.486 189.042,672.207 149.322,672.207 149.322,632.486 		"/>
		
			<polyline fill="none" stroke="#000000" stroke-width="0.7087" stroke-linecap="round" stroke-linejoin="round" stroke-miterlimit="10" points="
			81.042,699.986 41.322,699.986 41.322,739.707 81.042,739.707 81.042,699.986 		"/>
		
			<polyline fill="none" stroke="#000000" stroke-width="0.7087" stroke-linecap="round" stroke-linejoin="round" stroke-miterlimit="10" points="
			81.042,537.986 41.322,537.986 41.322,577.707 81.042,577.707 81.042,537.986 		"/>
		
			<polyline fill="none" stroke="#000000" stroke-width="0.7087" stroke-linecap="round" stroke-linejoin="round" stroke-miterlimit="10" points="
			311.323,531.267 351.042,531.267 351.042,570.927 311.323,570.927 311.323,531.267 		"/>
		
			<polyline fill="none" stroke="#000000" stroke-width="0.7087" stroke-linecap="round" stroke-linejoin="round" stroke-miterlimit="10" points="
			81.042,591.986 41.322,591.986 41.322,631.707 81.042,631.707 81.042,591.986 		"/>
		
			<polyline fill="none" stroke="#000000" stroke-width="0.7087" stroke-linecap="round" stroke-linejoin="round" stroke-miterlimit="10" points="
			81.042,645.986 41.322,645.986 41.322,685.707 81.042,685.707 81.042,645.986 		"/>
		
			<polyline fill="none" stroke="#000000" stroke-width="0.7087" stroke-linecap="round" stroke-linejoin="round" stroke-miterlimit="10" points="
			95.322,537.986 135.042,537.986 135.042,577.707 95.322,577.707 95.322,537.986 		"/>
		
			<polyline fill="none" stroke="#000000" stroke-width="0.7087" stroke-linecap="round" stroke-linejoin="round" stroke-miterlimit="10" points="
			95.322,591.986 135.042,591.986 135.042,631.707 95.322,631.707 95.322,591.986 		"/>
		
			<polyline fill="none" stroke="#000000" stroke-width="0.7087" stroke-linecap="round" stroke-linejoin="round" stroke-miterlimit="10" points="
			95.322,645.986 135.042,645.986 135.042,685.707 95.322,685.707 95.322,645.986 		"/>
		
			<polyline fill="none" stroke="#000000" stroke-width="0.7087" stroke-linecap="round" stroke-linejoin="round" stroke-miterlimit="10" points="
			95.322,699.986 135.042,699.986 135.042,739.707 95.322,739.707 95.322,699.986 		"/>
		
			<polyline fill="none" stroke="#000000" stroke-width="0.7087" stroke-linecap="round" stroke-linejoin="round" stroke-miterlimit="10" points="
			189.042,524.486 149.322,524.486 149.322,564.207 189.042,564.207 189.042,524.486 		"/>
		
			<polyline fill="none" stroke="#000000" stroke-width="0.7087" stroke-linecap="round" stroke-linejoin="round" stroke-miterlimit="10" points="
			189.042,578.486 149.322,578.486 149.322,618.207 189.042,618.207 189.042,578.486 		"/>
		
			<polyline fill="none" stroke="#000000" stroke-width="0.7087" stroke-linecap="round" stroke-linejoin="round" stroke-miterlimit="10" points="
			203.322,517.767 243.042,517.767 243.042,557.427 203.322,557.427 203.322,517.767 		"/>
		
			<polyline fill="none" stroke="#000000" stroke-width="0.7087" stroke-linecap="round" stroke-linejoin="round" stroke-miterlimit="10" points="
			203.322,571.767 243.042,571.767 243.042,611.427 203.322,611.427 203.322,571.767 		"/>
		
			<polyline fill="none" stroke="#000000" stroke-width="0.7087" stroke-linecap="round" stroke-linejoin="round" stroke-miterlimit="10" points="
			203.322,625.767 243.042,625.767 243.042,665.427 203.322,665.427 203.322,625.767 		"/>
		
			<polyline fill="none" stroke="#000000" stroke-width="0.7087" stroke-linecap="round" stroke-linejoin="round" stroke-miterlimit="10" points="
			203.322,679.767 243.042,679.767 243.042,719.425 203.322,719.425 203.322,679.767 		"/>
		
			<polyline fill="none" stroke="#000000" stroke-width="0.7087" stroke-linecap="round" stroke-linejoin="round" stroke-miterlimit="10" points="
			257.323,524.486 297.042,524.486 297.042,564.207 257.323,564.207 257.323,524.486 		"/>
		
			<polyline fill="none" stroke="#000000" stroke-width="0.7087" stroke-linecap="round" stroke-linejoin="round" stroke-miterlimit="10" points="
			257.323,578.486 297.042,578.486 297.042,618.207 257.323,618.207 257.323,578.486 		"/>
		
			<polyline fill="none" stroke="#000000" stroke-width="0.7087" stroke-linecap="round" stroke-linejoin="round" stroke-miterlimit="10" points="
			257.323,632.486 297.042,632.486 297.042,672.207 257.323,672.207 257.323,632.486 		"/>
		
			<polyline fill="none" stroke="#000000" stroke-width="0.7087" stroke-linecap="round" stroke-linejoin="round" stroke-miterlimit="10" points="
			257.323,686.486 297.042,686.486 297.042,726.207 257.323,726.207 257.323,686.486 		"/>
		
			<polyline fill="none" stroke="#000000" stroke-width="0.7087" stroke-linecap="round" stroke-linejoin="round" stroke-miterlimit="10" points="
			351.042,585.267 311.323,585.267 311.323,624.927 351.042,624.927 351.042,585.267 		"/>
		
			<polyline fill="none" stroke="#000000" stroke-width="0.7087" stroke-linecap="round" stroke-linejoin="round" stroke-miterlimit="10" points="
			351.042,639.267 311.323,639.267 311.323,678.927 351.042,678.927 351.042,639.267 		"/>
		
			<polyline fill="none" stroke="#000000" stroke-width="0.7087" stroke-linecap="round" stroke-linejoin="round" stroke-miterlimit="10" points="
			351.042,693.265 311.323,693.265 311.323,732.927 351.042,732.927 351.042,693.265 		"/>
		
			<polyline fill="none" stroke="#000000" stroke-width="0.7087" stroke-linecap="round" stroke-linejoin="round" stroke-miterlimit="10" points="
			365.323,558.267 405.042,558.267 405.042,597.927 365.323,597.927 365.323,558.267 		"/>
		
			<polyline fill="none" stroke="#000000" stroke-width="0.7087" stroke-linecap="round" stroke-linejoin="round" stroke-miterlimit="10" points="
			365.323,612.267 405.042,612.267 405.042,651.927 365.323,651.927 365.323,612.267 		"/>
		
			<polyline fill="none" stroke="#000000" stroke-width="0.7087" stroke-linecap="round" stroke-linejoin="round" stroke-miterlimit="10" points="
			365.323,666.267 405.042,666.267 405.042,705.925 365.323,705.925 365.323,666.267 		"/>
		
			<polyline fill="none" stroke="#000000" stroke-width="0.7087" stroke-linecap="round" stroke-linejoin="round" stroke-miterlimit="10" points="
			81.042,753.988 41.322,753.988 41.322,793.707 81.042,793.707 81.042,753.988 		"/>
		
			<polyline fill="none" stroke="#000000" stroke-width="0.7087" stroke-linecap="round" stroke-linejoin="round" stroke-miterlimit="10" points="
			95.322,753.988 135.042,753.988 135.042,793.707 95.322,793.707 95.322,753.988 		"/>
		
			<polyline fill="none" stroke="#000000" stroke-width="0.7087" stroke-linecap="round" stroke-linejoin="round" stroke-miterlimit="10" points="
			189.042,740.488 149.322,740.488 149.322,780.207 189.042,780.207 189.042,740.488 		"/>
		
			<polyline fill="none" stroke="#000000" stroke-width="0.7087" stroke-linecap="round" stroke-linejoin="round" stroke-miterlimit="10" points="
			281.562,781.107 301.362,746.726 335.743,766.587 315.882,800.966 281.562,781.107 		"/>
		
			<polyline fill="none" stroke="#000000" stroke-width="0.7087" stroke-linecap="round" stroke-linejoin="round" stroke-miterlimit="10" points="
			243.042,733.767 203.322,733.767 203.322,773.427 224.922,773.427 224.922,780.207 264.642,780.207 264.642,740.488 
			243.042,740.488 		"/>
	</g>
	
		<path fill="none" stroke="#000000" stroke-width="0.7087" stroke-linecap="round" stroke-linejoin="round" stroke-miterlimit="10" d="
		M360.198,835.289c2.701,1.558,6.175,0.617,7.72-2.092l42.85-75.106c1.545-2.708,2.81-7.476,2.81-10.594l0.005-190.595
		c0-3.119-1.426-7.785-3.168-10.371l-16.468-24.438c-1.743-2.586-5.72-4.701-8.838-4.701h-39.684c-3.118,0-7.752-1.474-10.297-3.274
		l-25.282-17.886c-2.545-1.801-7.179-3.275-10.297-3.275h-98.731c-3.118,0-8.159,0.561-11.201,1.244L39.039,528.05
		c-3.042,0.685-5.531,3.795-5.531,6.914v261.067c0,3.118,2.551,5.669,5.669,5.669h257.136c3.118,0,7.879,1.275,10.58,2.834
		L360.198,835.289z"/>
	
		<circle fill="none" stroke="#000000" stroke-width="0.7087" stroke-linecap="round" stroke-linejoin="round" stroke-miterlimit="10" cx="88.152" cy="584.997" r="2.764"/>
	
		<circle fill="none" stroke="#000000" stroke-width="0.7087" stroke-linecap="round" stroke-linejoin="round" stroke-miterlimit="10" cx="196.152" cy="625.316" r="2.764"/>
	
		<circle fill="none" stroke="#000000" stroke-width="0.7087" stroke-linecap="round" stroke-linejoin="round" stroke-miterlimit="10" cx="178.512" cy="514.437" r="2.764"/>
	
		<circle fill="none" stroke="#000000" stroke-width="0.7087" stroke-linecap="round" stroke-linejoin="round" stroke-miterlimit="10" cx="88.152" cy="747.716" r="2.764"/>
	
		<circle fill="none" stroke="#000000" stroke-width="0.7087" stroke-linecap="round" stroke-linejoin="round" stroke-miterlimit="10" cx="197.592" cy="726.117" r="2.764"/>
	
		<circle fill="none" stroke="#000000" stroke-width="0.7087" stroke-linecap="round" stroke-linejoin="round" stroke-miterlimit="10" cx="341.232" cy="746.998" r="2.764"/>
	
		<circle fill="none" stroke="#000000" stroke-width="0.7087" stroke-linecap="round" stroke-linejoin="round" stroke-miterlimit="10" cx="358.151" cy="577.796" r="2.764"/>
	<polygon fill="none" stroke="#000000" stroke-width="0.7087" stroke-linejoin="round" stroke-miterlimit="10" points="
		370.907,734.311 375.124,727.006 409.483,746.842 362.657,827.948 328.299,808.11 332.498,800.838 330.645,799.768 335.32,791.668 
		337.174,792.739 366.229,742.415 364.376,741.344 369.053,733.243 	"/>
</g>
<g>
	<g>
		
			<line fill="none" stroke="#000000" stroke-width="0.7087" stroke-linecap="round" stroke-linejoin="round" stroke-miterlimit="10" x1="227.875" y1="1108.658" x2="227.875" y2="1101.937"/>
		
			<polyline fill="none" stroke="#000000" stroke-width="0.7087" stroke-linecap="round" stroke-linejoin="round" stroke-miterlimit="10" points="
			134.155,1054.656 173.876,1054.656 173.876,1094.376 134.155,1094.376 134.155,1054.656 		"/>
		
			<polyline fill="none" stroke="#000000" stroke-width="0.7087" stroke-linecap="round" stroke-linejoin="round" stroke-miterlimit="10" points="
			134.155,1000.656 173.876,1000.656 173.876,1040.376 134.155,1040.376 134.155,1000.656 		"/>
		
			<polyline fill="none" stroke="#000000" stroke-width="0.7087" stroke-linecap="round" stroke-linejoin="round" stroke-miterlimit="10" points="
			65.876,1068.156 26.155,1068.156 26.155,1107.876 65.876,1107.876 65.876,1068.156 		"/>
		
			<polyline fill="none" stroke="#000000" stroke-width="0.7087" stroke-linecap="round" stroke-linejoin="round" stroke-miterlimit="10" points="
			65.876,906.156 26.155,906.156 26.155,945.876 65.876,945.876 65.876,906.156 		"/>
		
			<polyline fill="none" stroke="#000000" stroke-width="0.7087" stroke-linecap="round" stroke-linejoin="round" stroke-miterlimit="10" points="
			296.156,899.437 335.875,899.437 335.875,939.097 296.156,939.097 296.156,899.437 		"/>
		
			<polyline fill="none" stroke="#000000" stroke-width="0.7087" stroke-linecap="round" stroke-linejoin="round" stroke-miterlimit="10" points="
			65.876,960.156 26.155,960.156 26.155,999.876 65.876,999.876 65.876,960.156 		"/>
		
			<polyline fill="none" stroke="#000000" stroke-width="0.7087" stroke-linecap="round" stroke-linejoin="round" stroke-miterlimit="10" points="
			65.876,1014.156 26.155,1014.156 26.155,1053.876 65.876,1053.876 65.876,1014.156 		"/>
		
			<polyline fill="none" stroke="#000000" stroke-width="0.7087" stroke-linecap="round" stroke-linejoin="round" stroke-miterlimit="10" points="
			80.155,906.156 119.876,906.156 119.876,945.876 80.155,945.876 80.155,906.156 		"/>
		
			<polyline fill="none" stroke="#000000" stroke-width="0.7087" stroke-linecap="round" stroke-linejoin="round" stroke-miterlimit="10" points="
			80.155,960.156 119.876,960.156 119.876,999.876 80.155,999.876 80.155,960.156 		"/>
		
			<polyline fill="none" stroke="#000000" stroke-width="0.7087" stroke-linecap="round" stroke-linejoin="round" stroke-miterlimit="10" points="
			80.155,1014.156 119.876,1014.156 119.876,1053.876 80.155,1053.876 80.155,1014.156 		"/>
		
			<polyline fill="none" stroke="#000000" stroke-width="0.7087" stroke-linecap="round" stroke-linejoin="round" stroke-miterlimit="10" points="
			80.155,1068.156 119.876,1068.156 119.876,1107.876 80.155,1107.876 80.155,1068.156 		"/>
		
			<polyline fill="none" stroke="#000000" stroke-width="0.7087" stroke-linecap="round" stroke-linejoin="round" stroke-miterlimit="10" points="
			173.876,892.656 134.155,892.656 134.155,932.376 173.876,932.376 173.876,892.656 		"/>
		
			<polyline fill="none" stroke="#000000" stroke-width="0.7087" stroke-linecap="round" stroke-linejoin="round" stroke-miterlimit="10" points="
			173.876,946.656 134.155,946.656 134.155,986.376 173.876,986.376 173.876,946.656 		"/>
		
			<polyline fill="none" stroke="#000000" stroke-width="0.7087" stroke-linecap="round" stroke-linejoin="round" stroke-miterlimit="10" points="
			188.155,885.937 227.875,885.937 227.875,925.597 188.155,925.597 188.155,885.937 		"/>
		
			<polyline fill="none" stroke="#000000" stroke-width="0.7087" stroke-linecap="round" stroke-linejoin="round" stroke-miterlimit="10" points="
			188.155,939.937 227.875,939.937 227.875,979.597 188.155,979.597 188.155,939.937 		"/>
		
			<polyline fill="none" stroke="#000000" stroke-width="0.7087" stroke-linecap="round" stroke-linejoin="round" stroke-miterlimit="10" points="
			188.155,993.937 227.875,993.937 227.875,1033.597 188.155,1033.597 188.155,993.937 		"/>
		
			<polyline fill="none" stroke="#000000" stroke-width="0.7087" stroke-linecap="round" stroke-linejoin="round" stroke-miterlimit="10" points="
			188.155,1047.937 227.875,1047.937 227.875,1087.595 188.155,1087.595 188.155,1047.937 		"/>
		
			<polyline fill="none" stroke="#000000" stroke-width="0.7087" stroke-linecap="round" stroke-linejoin="round" stroke-miterlimit="10" points="
			242.156,892.656 281.875,892.656 281.875,932.376 242.156,932.376 242.156,892.656 		"/>
		
			<polyline fill="none" stroke="#000000" stroke-width="0.7087" stroke-linecap="round" stroke-linejoin="round" stroke-miterlimit="10" points="
			242.156,946.656 281.875,946.656 281.875,986.376 242.156,986.376 242.156,946.656 		"/>
		
			<polyline fill="none" stroke="#000000" stroke-width="0.7087" stroke-linecap="round" stroke-linejoin="round" stroke-miterlimit="10" points="
			242.156,1000.656 281.875,1000.656 281.875,1040.376 242.156,1040.376 242.156,1000.656 		"/>
		
			<polyline fill="none" stroke="#000000" stroke-width="0.7087" stroke-linecap="round" stroke-linejoin="round" stroke-miterlimit="10" points="
			242.156,1054.656 281.875,1054.656 281.875,1094.376 242.156,1094.376 242.156,1054.656 		"/>
		
			<polyline fill="none" stroke="#000000" stroke-width="0.7087" stroke-linecap="round" stroke-linejoin="round" stroke-miterlimit="10" points="
			335.875,953.437 296.156,953.437 296.156,993.097 335.875,993.097 335.875,953.437 		"/>
		
			<polyline fill="none" stroke="#000000" stroke-width="0.7087" stroke-linecap="round" stroke-linejoin="round" stroke-miterlimit="10" points="
			335.875,1007.437 296.156,1007.437 296.156,1047.097 335.875,1047.097 335.875,1007.437 		"/>
		
			<polyline fill="none" stroke="#000000" stroke-width="0.7087" stroke-linecap="round" stroke-linejoin="round" stroke-miterlimit="10" points="
			335.875,1061.435 296.156,1061.435 296.156,1101.097 335.875,1101.097 335.875,1061.435 		"/>
		
			<polyline fill="none" stroke="#000000" stroke-width="0.7087" stroke-linecap="round" stroke-linejoin="round" stroke-miterlimit="10" points="
			350.156,926.437 389.875,926.437 389.875,966.097 350.156,966.097 350.156,926.437 		"/>
		
			<polyline fill="none" stroke="#000000" stroke-width="0.7087" stroke-linecap="round" stroke-linejoin="round" stroke-miterlimit="10" points="
			350.156,980.437 389.875,980.437 389.875,1020.097 350.156,1020.097 350.156,980.437 		"/>
		
			<polyline fill="none" stroke="#000000" stroke-width="0.7087" stroke-linecap="round" stroke-linejoin="round" stroke-miterlimit="10" points="
			350.156,1034.437 389.875,1034.437 389.875,1074.095 350.156,1074.095 350.156,1034.437 		"/>
		
			<polyline fill="none" stroke="#000000" stroke-width="0.7087" stroke-linecap="round" stroke-linejoin="round" stroke-miterlimit="10" points="
			65.876,1122.158 26.155,1122.158 26.155,1161.876 65.876,1161.876 65.876,1122.158 		"/>
		
			<polyline fill="none" stroke="#000000" stroke-width="0.7087" stroke-linecap="round" stroke-linejoin="round" stroke-miterlimit="10" points="
			80.155,1122.158 119.876,1122.158 119.876,1161.876 80.155,1161.876 80.155,1122.158 		"/>
		
			<polyline fill="none" stroke="#000000" stroke-width="0.7087" stroke-linecap="round" stroke-linejoin="round" stroke-miterlimit="10" points="
			173.876,1108.658 134.155,1108.658 134.155,1148.376 173.876,1148.376 173.876,1108.658 		"/>
		
			<polyline fill="none" stroke="#000000" stroke-width="0.7087" stroke-linecap="round" stroke-linejoin="round" stroke-miterlimit="10" points="
			266.396,1149.277 286.195,1114.896 320.576,1134.757 300.716,1169.136 266.396,1149.277 		"/>
		
			<polyline fill="none" stroke="#000000" stroke-width="0.7087" stroke-linecap="round" stroke-linejoin="round" stroke-miterlimit="10" points="
			227.875,1101.937 188.155,1101.937 188.155,1141.597 209.756,1141.597 209.756,1148.376 249.476,1148.376 249.476,1108.658 
			227.875,1108.658 		"/>
	</g>
	
		<circle fill="none" stroke="#000000" stroke-width="0.7087" stroke-linecap="round" stroke-linejoin="round" stroke-miterlimit="10" cx="72.986" cy="953.167" r="2.764"/>
	
		<circle fill="none" stroke="#000000" stroke-width="0.7087" stroke-linecap="round" stroke-linejoin="round" stroke-miterlimit="10" cx="180.986" cy="993.486" r="2.764"/>
	
		<circle fill="none" stroke="#000000" stroke-width="0.7087" stroke-linecap="round" stroke-linejoin="round" stroke-miterlimit="10" cx="163.346" cy="882.607" r="2.764"/>
	
		<circle fill="none" stroke="#000000" stroke-width="0.7087" stroke-linecap="round" stroke-linejoin="round" stroke-miterlimit="10" cx="72.986" cy="1115.886" r="2.764"/>
	
		<circle fill="none" stroke="#000000" stroke-width="0.7087" stroke-linecap="round" stroke-linejoin="round" stroke-miterlimit="10" cx="182.426" cy="1094.287" r="2.764"/>
	
		<circle fill="none" stroke="#000000" stroke-width="0.7087" stroke-linecap="round" stroke-linejoin="round" stroke-miterlimit="10" cx="326.065" cy="1115.167" r="2.764"/>
	
		<circle fill="none" stroke="#000000" stroke-width="0.7087" stroke-linecap="round" stroke-linejoin="round" stroke-miterlimit="10" cx="342.984" cy="945.966" r="2.764"/>
	<path fill="none" stroke="#000000" stroke-width="0.7087" stroke-linejoin="round" stroke-miterlimit="10" d="M335.097,948.816"/>
	
		<circle fill="none" stroke="#000000" stroke-width="0.7087" stroke-linecap="round" stroke-linejoin="round" stroke-miterlimit="10" cx="406.677" cy="1107.847" r="2.764"/>
	<polygon fill="none" stroke="#000000" stroke-width="0.7087" stroke-linejoin="round" stroke-miterlimit="10" points="
		355.742,1102.482 359.959,1095.177 394.318,1115.013 347.492,1196.119 313.134,1176.281 317.333,1169.009 315.479,1167.939 
		320.155,1159.839 322.009,1160.91 351.063,1110.585 349.211,1109.515 353.888,1101.414 	"/>
	<polygon fill="none" stroke="#000000" stroke-width="0.7087" stroke-linejoin="round" stroke-miterlimit="10" points="
		402.513,1129.482 406.729,1122.177 441.089,1142.013 394.263,1223.119 359.904,1203.281 364.104,1196.009 362.25,1194.939 
		366.926,1186.839 368.779,1187.91 397.834,1137.585 395.981,1136.515 400.658,1128.414 	"/>
	
		<path fill="none" stroke="#000000" stroke-width="0.7087" stroke-linecap="round" stroke-linejoin="round" stroke-miterlimit="10" d="
		M398.41,1073.683c0,3.117,1.693,7.576,3.763,9.908l45.581,51.369c2.07,2.332,2.484,6.447,0.922,9.146l-48.868,84.408
		c-1.563,2.697-5.051,3.631-7.752,2.072l-100.328-57.883c-2.701-1.557-7.462-2.832-10.58-2.832l-0.001-0.002H24.01
		c-3.118,0-5.669-2.551-5.669-5.669V903.134c0-3.119,2.489-6.229,5.531-6.914l150.577-33.85c3.042-0.684,8.083-1.244,11.201-1.244
		h98.731c3.118,0,7.752,1.475,10.297,3.275l25.282,17.886c2.545,1.801,7.179,3.274,10.297,3.274h39.684
		c3.118,0,7.095,2.115,8.838,4.701l16.468,24.438c1.743,2.586,3.168,7.252,3.168,10.371l-0.004,148.733"/>
</g>
<g>
	
		<circle fill="none" stroke="#000000" stroke-width="0.7087" stroke-linecap="round" stroke-linejoin="round" stroke-miterlimit="10" cx="537.267" cy="947.125" r="2.764"/>
	
		<circle fill="none" stroke="#000000" stroke-width="0.7087" stroke-linecap="round" stroke-linejoin="round" stroke-miterlimit="10" cx="645.267" cy="987.445" r="2.764"/>
	
		<circle fill="none" stroke="#000000" stroke-width="0.7087" stroke-linecap="round" stroke-linejoin="round" stroke-miterlimit="10" cx="627.627" cy="876.565" r="2.764"/>
	
		<circle fill="none" stroke="#000000" stroke-width="0.7087" stroke-linecap="round" stroke-linejoin="round" stroke-miterlimit="10" cx="537.267" cy="1109.844" r="2.764"/>
	
		<circle fill="none" stroke="#000000" stroke-width="0.7087" stroke-linecap="round" stroke-linejoin="round" stroke-miterlimit="10" cx="646.708" cy="1088.245" r="2.764"/>
	
		<circle fill="none" stroke="#000000" stroke-width="0.7087" stroke-linecap="round" stroke-linejoin="round" stroke-miterlimit="10" cx="790.347" cy="1109.125" r="2.764"/>
	
		<circle fill="none" stroke="#000000" stroke-width="0.7087" stroke-linecap="round" stroke-linejoin="round" stroke-miterlimit="10" cx="807.266" cy="939.924" r="2.764"/>
	<path fill="none" stroke="#000000" stroke-width="0.7087" stroke-linejoin="round" stroke-miterlimit="10" d="M799.378,942.773"/>
	
		<circle fill="none" stroke="#000000" stroke-width="0.7087" stroke-linecap="round" stroke-linejoin="round" stroke-miterlimit="10" cx="870.958" cy="1101.806" r="2.764"/>
	
		<path fill="none" stroke="#000000" stroke-width="0.7087" stroke-linecap="round" stroke-linejoin="round" stroke-miterlimit="10" d="
		M862.692,1067.64c0,3.119,1.693,7.578,3.763,9.91l45.581,51.367c2.069,2.332,2.484,6.449,0.923,9.146l-48.869,84.408
		c-1.562,2.697-5.05,3.631-7.751,2.072l-100.329-57.881c-2.701-1.559-7.463-2.834-10.581-2.834H488.292
		c-3.119,0-5.67-2.551-5.67-5.669V897.092c0-3.118,2.489-6.229,5.531-6.913l150.577-33.85c1.521-0.343,3.542-0.653,5.572-0.879
		h-0.041v97.418h110.07v-96.723c1.755,0.584,3.425,1.362,4.628,2.214l25.282,17.886c2.545,1.801,7.179,3.275,10.297,3.275h4.884
		l-0.001,41.668h34.47v-41.668h0.332c3.118,0,7.095,2.115,8.837,4.701l16.469,24.438c1.742,2.585,3.168,7.252,3.168,10.37
		l-0.003,148.672"/>
</g>
</svg>
