<?xml version="1.0" encoding="UTF-8" standalone="no"?>
<svg
   xmlns:dc="http://purl.org/dc/elements/1.1/"
   xmlns:cc="http://creativecommons.org/ns#"
   xmlns:rdf="http://www.w3.org/1999/02/22-rdf-syntax-ns#"
   xmlns:svg="http://www.w3.org/2000/svg"
   xmlns="http://www.w3.org/2000/svg"
   version="1.1"
   id="レイヤー_1"
   x="0px"
   y="0px"
   viewBox="0 0 1133.8583 1133.8583"
   xml:space="preserve"
   width="300mm"
   height="300mm"><metadata
   id="metadata1581"><rdf:RDF><cc:Work
       rdf:about=""><dc:format>image/svg+xml</dc:format><dc:type
         rdf:resource="http://purl.org/dc/dcmitype/StillImage" /><dc:title></dc:title></cc:Work></rdf:RDF></metadata><defs
   id="defs1579" />
<style
   type="text/css"
   id="style1226">
	.st0{fill:none;stroke:#000000;stroke-width:0.7087;stroke-linecap:round;stroke-linejoin:round;stroke-miterlimit:10;}
	.st1{fill:none;stroke:#000000;stroke-width:0.7087;}
	.st2{fill:none;stroke:#000000;stroke-width:0.7087;stroke-linejoin:round;stroke-miterlimit:10;}
</style>
<g
   id="g1244"
   transform="matrix(1.25,0,0,1.25,66.795229,28.604308)">
	<path
   class="st0"
   d="m 603.01,18.61 c -2.03,0.23 -4.05,0.54 -5.57,0.88 L 446.86,53.34 c -3.04,0.68 -5.53,3.79 -5.53,6.91 v 261.07 c 0,3.12 2.55,5.67 5.67,5.67 h 257.14 c 3.12,0 7.88,1.28 10.58,2.83 l 53.31,30.75 c 2.7,1.56 6.17,0.62 7.72,-2.09 l 42.85,-75.11 c 1.55,-2.71 2.81,-7.47 2.81,-10.59 V 82.18 c 0,-3.12 -1.43,-7.79 -3.17,-10.37 L 801.77,47.37 c -1.74,-2.59 -5.72,-4.7 -8.84,-4.7 0,0 -0.33,0 -0.33,0 V 84.34 H 758.13 V 42.67 h -4.88 c -3.12,0 -7.75,-1.47 -10.3,-3.27 L 717.67,21.51 c -1.2,-0.85 -2.87,-1.63 -4.63,-2.21 v 96.72 H 602.97 V 18.61"
   id="path1228" />
	<path
   class="st0"
   d="m 498.74,110.29 c 0,1.53 -1.24,2.76 -2.76,2.76 -1.53,0 -2.76,-1.24 -2.76,-2.76 0,-1.53 1.24,-2.76 2.76,-2.76 1.52,-0.01 2.76,1.23 2.76,2.76 z"
   id="path1230" />
	<path
   class="st0"
   d="m 606.74,150.61 c 0,1.53 -1.24,2.76 -2.76,2.76 -1.53,0 -2.76,-1.24 -2.76,-2.76 0,-1.53 1.24,-2.76 2.76,-2.76 1.52,-0.01 2.76,1.23 2.76,2.76 z"
   id="path1232" />
	<circle
   class="st0"
   cx="586.33002"
   cy="39.73"
   r="2.76"
   id="circle1234" />
	<path
   class="st0"
   d="m 498.74,273.01 c 0,1.53 -1.24,2.76 -2.76,2.76 -1.53,0 -2.76,-1.24 -2.76,-2.76 0,-1.52 1.24,-2.76 2.76,-2.76 1.52,-0.01 2.76,1.23 2.76,2.76 z"
   id="path1236" />
	<path
   class="st0"
   d="m 608.18,251.41 c 0,1.53 -1.24,2.76 -2.76,2.76 -1.53,0 -2.76,-1.24 -2.76,-2.76 0,-1.53 1.24,-2.76 2.76,-2.76 1.52,-0.01 2.76,1.23 2.76,2.76 z"
   id="path1238" />
	<path
   class="st0"
   d="m 751.82,272.29 c 0,1.53 -1.24,2.76 -2.76,2.76 -1.53,0 -2.76,-1.24 -2.76,-2.76 0,-1.53 1.24,-2.76 2.76,-2.76 1.52,-0.01 2.76,1.23 2.76,2.76 z"
   id="path1240" />
	<path
   class="st0"
   d="m 768.73,103.09 c 0,1.53 -1.24,2.76 -2.76,2.76 -1.53,0 -2.76,-1.24 -2.76,-2.76 0,-1.53 1.24,-2.76 2.76,-2.76 1.53,-0.01 2.76,1.23 2.76,2.76 z"
   id="path1242" />
</g>
<g
   id="g1262"
   transform="matrix(1.25,0,0,1.25,66.795229,30.423812)">
	<path
   class="st0"
   d="m 603.01,493.32 c -2.03,0.23 -4.05,0.54 -5.57,0.88 l -150.58,33.85 c -3.04,0.68 -5.53,3.79 -5.53,6.91 v 261.07 c 0,3.12 2.55,5.67 5.67,5.67 h 257.14 c 3.12,0 7.88,1.28 10.58,2.83 l 53.31,30.75 c 2.7,1.56 6.17,0.62 7.72,-2.09 l 42.85,-75.11 c 1.55,-2.71 2.81,-7.47 2.81,-10.59 v -190.6 c 0,-3.12 -1.43,-7.79 -3.17,-10.37 l -16.47,-24.44 c -1.74,-2.59 -5.72,-4.7 -8.84,-4.7 0,0 -0.33,0 -0.33,0 v 41.67 h -34.47 v -41.67 h -4.88 c -3.12,0 -7.75,-1.47 -10.3,-3.27 l -25.28,-17.89 c -1.2,-0.85 -2.87,-1.63 -4.63,-2.21 v 96.72 H 602.97 v -97.42"
   id="path1246" />
	<path
   class="st0"
   d="m 498.74,585 c 0,1.53 -1.24,2.76 -2.76,2.76 -1.53,0 -2.76,-1.24 -2.76,-2.76 0,-1.53 1.24,-2.76 2.76,-2.76 1.52,-0.01 2.76,1.23 2.76,2.76 z"
   id="path1248" />
	<path
   class="st0"
   d="m 606.74,625.32 c 0,1.53 -1.24,2.76 -2.76,2.76 -1.53,0 -2.76,-1.24 -2.76,-2.76 0,-1.53 1.24,-2.76 2.76,-2.76 1.52,-0.01 2.76,1.23 2.76,2.76 z"
   id="path1250" />
	<circle
   class="st0"
   cx="586.33002"
   cy="514.44"
   r="2.76"
   id="circle1252" />
	<path
   class="st0"
   d="m 498.74,747.72 c 0,1.53 -1.24,2.76 -2.76,2.76 -1.53,0 -2.76,-1.24 -2.76,-2.76 0,-1.53 1.24,-2.76 2.76,-2.76 1.52,-0.01 2.76,1.23 2.76,2.76 z"
   id="path1254" />
	<path
   class="st0"
   d="m 608.18,726.12 c 0,1.53 -1.24,2.76 -2.76,2.76 -1.53,0 -2.76,-1.24 -2.76,-2.76 0,-1.53 1.24,-2.76 2.76,-2.76 1.52,-0.01 2.76,1.23 2.76,2.76 z"
   id="path1256" />
	<path
   class="st0"
   d="m 751.82,747 c 0,1.53 -1.24,2.76 -2.76,2.76 -1.53,0 -2.76,-1.24 -2.76,-2.76 0,-1.53 1.24,-2.76 2.76,-2.76 1.52,-0.01 2.76,1.23 2.76,2.76 z"
   id="path1258" />
	<path
   class="st0"
   d="m 768.73,577.8 c 0,1.53 -1.24,2.76 -2.76,2.76 -1.53,0 -2.76,-1.24 -2.76,-2.76 0,-1.53 1.24,-2.76 2.76,-2.76 1.53,-0.01 2.76,1.23 2.76,2.76 z"
   id="path1260" />
</g>
<g
   id="g1272"
   transform="matrix(1.25,0,0,1.25,26.745135,29.884713)">
	<path
   class="st0"
   d="m 90.92,456.95 c 0,1.53 -1.24,2.76 -2.76,2.76 -1.53,0 -2.76,-1.24 -2.76,-2.76 0,-1.53 1.24,-2.76 2.76,-2.76 1.52,0 2.76,1.24 2.76,2.76 z"
   id="path1264" />
	<circle
   class="st0"
   cx="178.50999"
   cy="386.39001"
   r="2.76"
   id="circle1266" />
	<path
   class="st0"
   d="m 360.91,449.75 c 0,1.53 -1.24,2.76 -2.76,2.76 -1.53,0 -2.76,-1.24 -2.76,-2.76 0,-1.53 1.24,-2.76 2.76,-2.76 1.53,0 2.76,1.24 2.76,2.76 z"
   id="path1268" />
	<path
   class="st0"
   d="m 413.58,466.56 c 0,3.12 -2.55,5.67 -5.67,5.67 H 39.18 c -3.12,0 -5.67,-2.55 -5.67,-5.67 v -59.64 c 0,-3.12 2.49,-6.23 5.53,-6.91 l 150.58,-33.85 c 3.04,-0.68 8.08,-1.24 11.2,-1.24 h 98.73 c 3.12,0 7.75,1.47 10.3,3.27 l 25.28,17.89 c 2.55,1.8 7.18,3.27 10.3,3.27 h 39.68 c 3.12,0 7.1,2.12 8.84,4.7 l 16.47,24.44 c 1.74,2.59 3.17,7.25 3.17,10.37 z"
   id="path1270" />
</g>
<g
   id="g1282"
   transform="matrix(1.25,0,0,1.25,66.795229,29.884713)">
	<path
   class="st0"
   d="m 498.74,456.95 c 0,1.53 -1.24,2.76 -2.76,2.76 -1.53,0 -2.76,-1.24 -2.76,-2.76 0,-1.53 1.24,-2.76 2.76,-2.76 1.52,0 2.76,1.24 2.76,2.76 z"
   id="path1274" />
	<circle
   class="st0"
   cx="586.33002"
   cy="386.39001"
   r="2.76"
   id="circle1276" />
	<path
   class="st0"
   d="m 768.73,449.75 c 0,1.53 -1.24,2.76 -2.76,2.76 -1.53,0 -2.76,-1.24 -2.76,-2.76 0,-1.53 1.24,-2.76 2.76,-2.76 1.53,0 2.76,1.24 2.76,2.76 z"
   id="path1278" />
	<path
   class="st0"
   d="m 821.4,466.56 c 0,3.12 -2.55,5.67 -5.67,5.67 H 447 c -3.12,0 -5.67,-2.55 -5.67,-5.67 v -59.64 c 0,-3.12 2.49,-6.23 5.53,-6.91 l 150.58,-33.85 c 3.04,-0.68 8.08,-1.24 11.2,-1.24 h 98.73 c 3.12,0 7.75,1.47 10.3,3.27 l 25.28,17.89 c 2.55,1.8 7.18,3.27 10.3,3.27 h 39.68 c 3.12,0 7.09,2.12 8.84,4.7 l 16.47,24.44 c 1.74,2.59 3.17,7.25 3.17,10.37 z"
   id="path1280" />
</g>
<g
   id="g1370"
   transform="matrix(1.25,0,0,1.25,26.751385,28.823058)">
	<g
   id="g1350">
		<line
   class="st0"
   x1="243.03999"
   y1="265.78"
   x2="243.03999"
   y2="259.06"
   id="line1284" />
		<polyline
   class="st0"
   points="149.32,211.78 189.04,211.78 189.04,251.5 149.32,251.5 149.32,211.78   "
   id="polyline1286" />
		<polyline
   class="st0"
   points="149.32,157.78 189.04,157.78 189.04,197.5 149.32,197.5 149.32,157.78   "
   id="polyline1288" />
		<polyline
   class="st0"
   points="81.04,225.28 41.32,225.28 41.32,265 81.04,265 81.04,225.28   "
   id="polyline1290" />
		<polyline
   class="st0"
   points="81.04,63.28 41.32,63.28 41.32,103 81.04,103 81.04,63.28   "
   id="polyline1292" />
		<polyline
   class="st0"
   points="311.32,56.56 351.04,56.56 351.04,96.22 311.32,96.22 311.32,56.56   "
   id="polyline1294" />
		<polyline
   class="st0"
   points="81.04,117.28 41.32,117.28 41.32,157 81.04,157 81.04,117.28   "
   id="polyline1296" />
		<polyline
   class="st0"
   points="81.04,171.28 41.32,171.28 41.32,211 81.04,211 81.04,171.28   "
   id="polyline1298" />
		<polyline
   class="st0"
   points="95.32,63.28 135.04,63.28 135.04,103 95.32,103 95.32,63.28   "
   id="polyline1300" />
		<polyline
   class="st0"
   points="95.32,117.28 135.04,117.28 135.04,157 95.32,157 95.32,117.28   "
   id="polyline1302" />
		<polyline
   class="st0"
   points="95.32,171.28 135.04,171.28 135.04,211 95.32,211 95.32,171.28   "
   id="polyline1304" />
		<polyline
   class="st0"
   points="95.32,225.28 135.04,225.28 135.04,265 95.32,265 95.32,225.28   "
   id="polyline1306" />
		<polyline
   class="st0"
   points="189.04,49.78 149.32,49.78 149.32,89.5 189.04,89.5 189.04,49.78   "
   id="polyline1308" />
		<polyline
   class="st0"
   points="189.04,103.78 149.32,103.78 149.32,143.5 189.04,143.5 189.04,103.78   "
   id="polyline1310" />
		<polyline
   class="st0"
   points="203.32,43.06 243.04,43.06 243.04,82.72 203.32,82.72 203.32,43.06   "
   id="polyline1312" />
		<polyline
   class="st0"
   points="203.32,97.06 243.04,97.06 243.04,136.72 203.32,136.72 203.32,97.06   "
   id="polyline1314" />
		<polyline
   class="st0"
   points="203.32,151.06 243.04,151.06 243.04,190.72 203.32,190.72 203.32,151.06   "
   id="polyline1316" />
		<polyline
   class="st0"
   points="203.32,205.06 243.04,205.06 243.04,244.72 203.32,244.72 203.32,205.06   "
   id="polyline1318" />
		<polyline
   class="st0"
   points="257.32,49.78 297.04,49.78 297.04,89.5 257.32,89.5 257.32,49.78   "
   id="polyline1320" />
		<polyline
   class="st0"
   points="257.32,103.78 297.04,103.78 297.04,143.5 257.32,143.5 257.32,103.78   "
   id="polyline1322" />
		<polyline
   class="st0"
   points="257.32,157.78 297.04,157.78 297.04,197.5 257.32,197.5 257.32,157.78   "
   id="polyline1324" />
		<polyline
   class="st0"
   points="257.32,211.78 297.04,211.78 297.04,251.5 257.32,251.5 257.32,211.78   "
   id="polyline1326" />
		<polyline
   class="st0"
   points="351.04,110.56 311.32,110.56 311.32,150.22 351.04,150.22 351.04,110.56   "
   id="polyline1328" />
		<polyline
   class="st0"
   points="351.04,164.56 311.32,164.56 311.32,204.22 351.04,204.22 351.04,164.56   "
   id="polyline1330" />
		<polyline
   class="st0"
   points="351.04,218.56 311.32,218.56 311.32,258.22 351.04,258.22 351.04,218.56   "
   id="polyline1332" />
		<polyline
   class="st0"
   points="365.32,83.56 405.04,83.56 405.04,123.22 365.32,123.22 365.32,83.56   "
   id="polyline1334" />
		<polyline
   class="st0"
   points="365.32,137.56 405.04,137.56 405.04,177.22 365.32,177.22 365.32,137.56   "
   id="polyline1336" />
		<polyline
   class="st0"
   points="365.32,191.56 405.04,191.56 405.04,231.22 365.32,231.22 365.32,191.56   "
   id="polyline1338" />
		<polyline
   class="st0"
   points="81.04,279.28 41.32,279.28 41.32,319 81.04,319 81.04,279.28   "
   id="polyline1340" />
		<polyline
   class="st0"
   points="95.32,279.28 135.04,279.28 135.04,319 95.32,319 95.32,279.28   "
   id="polyline1342" />
		<polyline
   class="st0"
   points="189.04,265.78 149.32,265.78 149.32,305.5 189.04,305.5 189.04,265.78   "
   id="polyline1344" />
		<polyline
   class="st0"
   points="281.56,306.4 301.36,272.02 335.74,291.88 315.88,326.26 281.56,306.4   "
   id="polyline1346" />
		<polyline
   class="st0"
   points="243.04,259.06 203.32,259.06 203.32,298.72 224.92,298.72 224.92,305.5 264.64,305.5 264.64,265.78     243.04,265.78   "
   id="polyline1348" />
	</g>
	<path
   class="st0"
   d="m 360.2,360.58 c 2.7,1.56 6.17,0.62 7.72,-2.09 l 42.85,-75.11 c 1.55,-2.71 2.81,-7.48 2.81,-10.59 V 82.19 c 0,-3.12 -1.43,-7.79 -3.17,-10.37 L 393.94,47.38 c -1.74,-2.59 -5.72,-4.7 -8.84,-4.7 h -39.68 c -3.12,0 -7.75,-1.47 -10.3,-3.27 L 309.84,21.52 c -2.55,-1.8 -7.18,-3.27 -10.3,-3.27 h -98.73 c -3.12,0 -8.16,0.56 -11.2,1.24 L 39.04,53.34 c -3.04,0.68 -5.53,3.79 -5.53,6.91 v 261.07 c 0,3.12 2.55,5.67 5.67,5.67 h 257.14 c 3.12,0 7.88,1.27 10.58,2.83 z"
   id="path1352" />
	<path
   class="st0"
   d="m 90.92,110.29 c 0,1.53 -1.24,2.76 -2.76,2.76 -1.53,0 -2.76,-1.24 -2.76,-2.76 0,-1.53 1.24,-2.76 2.76,-2.76 1.52,-0.01 2.76,1.23 2.76,2.76 z"
   id="path1354" />
	<path
   class="st0"
   d="m 198.92,150.61 c 0,1.53 -1.24,2.76 -2.76,2.76 -1.52,0 -2.76,-1.24 -2.76,-2.76 0,-1.53 1.24,-2.76 2.76,-2.76 1.52,0 2.76,1.23 2.76,2.76 z"
   id="path1356" />
	<path
   class="st0"
   d="m 181.28,39.73 c 0,1.53 -1.24,2.76 -2.76,2.76 -1.53,0 -2.76,-1.24 -2.76,-2.76 0,-1.53 1.24,-2.76 2.76,-2.76 1.52,-0.01 2.76,1.23 2.76,2.76 z"
   id="path1358" />
	<circle
   class="st0"
   cx="88.150002"
   cy="273.01001"
   r="2.76"
   id="circle1360" />
	<path
   class="st0"
   d="m 200.36,251.41 c 0,1.53 -1.24,2.76 -2.76,2.76 -1.53,0 -2.76,-1.24 -2.76,-2.76 0,-1.53 1.24,-2.76 2.76,-2.76 1.52,-0.01 2.76,1.23 2.76,2.76 z"
   id="path1362" />
	<path
   class="st0"
   d="m 344,272.29 c 0,1.53 -1.24,2.76 -2.76,2.76 -1.53,0 -2.76,-1.24 -2.76,-2.76 0,-1.53 1.24,-2.76 2.76,-2.76 1.52,-0.01 2.76,1.23 2.76,2.76 z"
   id="path1364" />
	<path
   class="st0"
   d="m 360.91,103.09 c 0,1.53 -1.24,2.76 -2.76,2.76 -1.53,0 -2.76,-1.24 -2.76,-2.76 0,-1.53 1.24,-2.76 2.76,-2.76 1.53,-0.01 2.76,1.23 2.76,2.76 z"
   id="path1366" />
	<polygon
   class="st1"
   points="337.44,307.51 357.31,273.17 356.59,272.75 355.86,270.04 366.79,251.14 369.5,250.42 374.53,253.33 375.12,252.3 409.47,272.17 405.13,279.68 406.94,282.2 404.1,287.11 401.01,286.8 370.86,338.95 372.66,341.46 369.82,346.37 366.75,346.07 362.49,353.38 328.14,333.5 328.82,332.32 323.79,329.42 323.07,326.71 333.99,307.81 336.7,307.09 "
   id="polygon1368" />
</g>
<g
   id="g1458"
   transform="matrix(1.25,0,0,1.25,26.751385,30.636312)">
	<g
   id="g1438">
		<line
   class="st0"
   x1="243.03999"
   y1="740.48999"
   x2="243.03999"
   y2="733.77002"
   id="line1372" />
		<polyline
   class="st0"
   points="149.32,686.49 189.04,686.49 189.04,726.21 149.32,726.21 149.32,686.49   "
   id="polyline1374" />
		<polyline
   class="st0"
   points="149.32,632.49 189.04,632.49 189.04,672.21 149.32,672.21 149.32,632.49   "
   id="polyline1376" />
		<polyline
   class="st0"
   points="81.04,699.99 41.32,699.99 41.32,739.71 81.04,739.71 81.04,699.99   "
   id="polyline1378" />
		<polyline
   class="st0"
   points="81.04,537.99 41.32,537.99 41.32,577.71 81.04,577.71 81.04,537.99   "
   id="polyline1380" />
		<polyline
   class="st0"
   points="311.32,531.27 351.04,531.27 351.04,570.93 311.32,570.93 311.32,531.27   "
   id="polyline1382" />
		<polyline
   class="st0"
   points="81.04,591.99 41.32,591.99 41.32,631.71 81.04,631.71 81.04,591.99   "
   id="polyline1384" />
		<polyline
   class="st0"
   points="81.04,645.99 41.32,645.99 41.32,685.71 81.04,685.71 81.04,645.99   "
   id="polyline1386" />
		<polyline
   class="st0"
   points="95.32,537.99 135.04,537.99 135.04,577.71 95.32,577.71 95.32,537.99   "
   id="polyline1388" />
		<polyline
   class="st0"
   points="95.32,591.99 135.04,591.99 135.04,631.71 95.32,631.71 95.32,591.99   "
   id="polyline1390" />
		<polyline
   class="st0"
   points="95.32,645.99 135.04,645.99 135.04,685.71 95.32,685.71 95.32,645.99   "
   id="polyline1392" />
		<polyline
   class="st0"
   points="95.32,699.99 135.04,699.99 135.04,739.71 95.32,739.71 95.32,699.99   "
   id="polyline1394" />
		<polyline
   class="st0"
   points="189.04,524.49 149.32,524.49 149.32,564.21 189.04,564.21 189.04,524.49   "
   id="polyline1396" />
		<polyline
   class="st0"
   points="189.04,578.49 149.32,578.49 149.32,618.21 189.04,618.21 189.04,578.49   "
   id="polyline1398" />
		<polyline
   class="st0"
   points="203.32,517.77 243.04,517.77 243.04,557.43 203.32,557.43 203.32,517.77   "
   id="polyline1400" />
		<polyline
   class="st0"
   points="203.32,571.77 243.04,571.77 243.04,611.43 203.32,611.43 203.32,571.77   "
   id="polyline1402" />
		<polyline
   class="st0"
   points="203.32,625.77 243.04,625.77 243.04,665.43 203.32,665.43 203.32,625.77   "
   id="polyline1404" />
		<polyline
   class="st0"
   points="203.32,679.77 243.04,679.77 243.04,719.43 203.32,719.43 203.32,679.77   "
   id="polyline1406" />
		<polyline
   class="st0"
   points="257.32,524.49 297.04,524.49 297.04,564.21 257.32,564.21 257.32,524.49   "
   id="polyline1408" />
		<polyline
   class="st0"
   points="257.32,578.49 297.04,578.49 297.04,618.21 257.32,618.21 257.32,578.49   "
   id="polyline1410" />
		<polyline
   class="st0"
   points="257.32,632.49 297.04,632.49 297.04,672.21 257.32,672.21 257.32,632.49   "
   id="polyline1412" />
		<polyline
   class="st0"
   points="257.32,686.49 297.04,686.49 297.04,726.21 257.32,726.21 257.32,686.49   "
   id="polyline1414" />
		<polyline
   class="st0"
   points="351.04,585.27 311.32,585.27 311.32,624.93 351.04,624.93 351.04,585.27   "
   id="polyline1416" />
		<polyline
   class="st0"
   points="351.04,639.27 311.32,639.27 311.32,678.93 351.04,678.93 351.04,639.27   "
   id="polyline1418" />
		<polyline
   class="st0"
   points="351.04,693.27 311.32,693.27 311.32,732.93 351.04,732.93 351.04,693.27   "
   id="polyline1420" />
		<polyline
   class="st0"
   points="365.32,558.27 405.04,558.27 405.04,597.93 365.32,597.93 365.32,558.27   "
   id="polyline1422" />
		<polyline
   class="st0"
   points="365.32,612.27 405.04,612.27 405.04,651.93 365.32,651.93 365.32,612.27   "
   id="polyline1424" />
		<polyline
   class="st0"
   points="365.32,666.27 405.04,666.27 405.04,705.93 365.32,705.93 365.32,666.27   "
   id="polyline1426" />
		<polyline
   class="st0"
   points="81.04,753.99 41.32,753.99 41.32,793.71 81.04,793.71 81.04,753.99   "
   id="polyline1428" />
		<polyline
   class="st0"
   points="95.32,753.99 135.04,753.99 135.04,793.71 95.32,793.71 95.32,753.99   "
   id="polyline1430" />
		<polyline
   class="st0"
   points="189.04,740.49 149.32,740.49 149.32,780.21 189.04,780.21 189.04,740.49   "
   id="polyline1432" />
		<polyline
   class="st0"
   points="281.56,781.11 301.36,746.73 335.74,766.59 315.88,800.97 281.56,781.11   "
   id="polyline1434" />
		<polyline
   class="st0"
   points="243.04,733.77 203.32,733.77 203.32,773.43 224.92,773.43 224.92,780.21 264.64,780.21     264.64,740.49 243.04,740.49   "
   id="polyline1436" />
	</g>
	<path
   class="st0"
   d="m 360.2,835.29 c 2.7,1.56 6.17,0.62 7.72,-2.09 l 42.85,-75.11 c 1.55,-2.71 2.81,-7.48 2.81,-10.59 V 556.91 c 0,-3.12 -1.43,-7.79 -3.17,-10.37 L 393.94,522.1 c -1.74,-2.59 -5.72,-4.7 -8.84,-4.7 h -39.68 c -3.12,0 -7.75,-1.47 -10.3,-3.27 l -25.28,-17.89 c -2.55,-1.8 -7.18,-3.28 -10.3,-3.28 h -98.73 c -3.12,0 -8.16,0.56 -11.2,1.24 L 39.04,528.05 c -3.04,0.68 -5.53,3.79 -5.53,6.91 v 261.07 c 0,3.12 2.55,5.67 5.67,5.67 h 257.14 c 3.12,0 7.88,1.28 10.58,2.83 z"
   id="path1440" />
	<path
   class="st0"
   d="m 90.92,585 c 0,1.53 -1.24,2.76 -2.76,2.76 -1.53,0 -2.76,-1.24 -2.76,-2.76 0,-1.53 1.24,-2.76 2.76,-2.76 1.52,-0.01 2.76,1.23 2.76,2.76 z"
   id="path1442" />
	<circle
   class="st0"
   cx="196.14999"
   cy="625.32001"
   r="2.76"
   id="circle1444" />
	<path
   class="st0"
   d="m 181.28,514.44 c 0,1.53 -1.24,2.76 -2.76,2.76 -1.53,0 -2.76,-1.24 -2.76,-2.76 0,-1.53 1.24,-2.76 2.76,-2.76 1.52,-0.01 2.76,1.23 2.76,2.76 z"
   id="path1446" />
	<path
   class="st0"
   d="m 90.92,747.72 c 0,1.53 -1.24,2.76 -2.76,2.76 -1.53,0 -2.76,-1.24 -2.76,-2.76 0,-1.53 1.24,-2.76 2.76,-2.76 1.52,-0.01 2.76,1.23 2.76,2.76 z"
   id="path1448" />
	<path
   class="st0"
   d="m 200.36,726.12 c 0,1.53 -1.24,2.76 -2.76,2.76 -1.53,0 -2.76,-1.24 -2.76,-2.76 0,-1.53 1.24,-2.76 2.76,-2.76 1.52,-0.01 2.76,1.23 2.76,2.76 z"
   id="path1450" />
	<path
   class="st0"
   d="m 344,747 c 0,1.53 -1.24,2.76 -2.76,2.76 -1.53,0 -2.76,-1.24 -2.76,-2.76 0,-1.53 1.24,-2.76 2.76,-2.76 1.52,-0.01 2.76,1.23 2.76,2.76 z"
   id="path1452" />
	<path
   class="st0"
   d="m 360.91,577.8 c 0,1.53 -1.24,2.76 -2.76,2.76 -1.53,0 -2.76,-1.24 -2.76,-2.76 0,-1.53 1.24,-2.76 2.76,-2.76 1.53,-0.01 2.76,1.23 2.76,2.76 z"
   id="path1454" />
	<polygon
   class="st1"
   points="334.08,782.38 336.79,781.65 337.53,782.08 357.4,747.73 356.67,747.31 355.95,744.6 366.87,725.71 369.58,724.98 374.62,727.9 375.21,726.87 409.56,746.74 405.22,754.25 407.03,756.77 404.19,761.67 401.1,761.36 370.95,813.52 372.74,816.03 369.91,820.93 366.83,820.63 362.57,827.94 328.23,808.07 328.91,806.89 323.88,803.98 323.16,801.27 "
   id="polygon1456" />
</g>
<g
   id="g1552"
   transform="matrix(1.25,0,0,1.25,13.701754,82.278989)">
	<g
   id="g1526">
		<line
   class="st0"
   x1="227.88"
   y1="1108.66"
   x2="227.88"
   y2="1101.9399"
   id="line1460" />
		<polyline
   class="st0"
   points="134.16,1054.66 173.88,1054.66 173.88,1094.38 134.16,1094.38 134.16,1054.66   "
   id="polyline1462" />
		<polyline
   class="st0"
   points="134.16,1000.66 173.88,1000.66 173.88,1040.38 134.16,1040.38 134.16,1000.66   "
   id="polyline1464" />
		<polyline
   class="st0"
   points="65.88,1068.16 26.16,1068.16 26.16,1107.88 65.88,1107.88 65.88,1068.16   "
   id="polyline1466" />
		<polyline
   class="st0"
   points="65.88,906.16 26.16,906.16 26.16,945.88 65.88,945.88 65.88,906.16   "
   id="polyline1468" />
		<polyline
   class="st0"
   points="296.16,899.44 335.88,899.44 335.88,939.1 296.16,939.1 296.16,899.44   "
   id="polyline1470" />
		<polyline
   class="st0"
   points="65.88,960.16 26.16,960.16 26.16,999.88 65.88,999.88 65.88,960.16   "
   id="polyline1472" />
		<polyline
   class="st0"
   points="65.88,1014.16 26.16,1014.16 26.16,1053.88 65.88,1053.88 65.88,1014.16   "
   id="polyline1474" />
		<polyline
   class="st0"
   points="80.16,906.16 119.88,906.16 119.88,945.88 80.16,945.88 80.16,906.16   "
   id="polyline1476" />
		<polyline
   class="st0"
   points="80.16,960.16 119.88,960.16 119.88,999.88 80.16,999.88 80.16,960.16   "
   id="polyline1478" />
		<polyline
   class="st0"
   points="80.16,1014.16 119.88,1014.16 119.88,1053.88 80.16,1053.88 80.16,1014.16   "
   id="polyline1480" />
		<polyline
   class="st0"
   points="80.16,1068.16 119.88,1068.16 119.88,1107.88 80.16,1107.88 80.16,1068.16   "
   id="polyline1482" />
		<polyline
   class="st0"
   points="173.88,892.66 134.16,892.66 134.16,932.38 173.88,932.38 173.88,892.66   "
   id="polyline1484" />
		<polyline
   class="st0"
   points="173.88,946.66 134.16,946.66 134.16,986.38 173.88,986.38 173.88,946.66   "
   id="polyline1486" />
		<polyline
   class="st0"
   points="188.16,885.94 227.88,885.94 227.88,925.6 188.16,925.6 188.16,885.94   "
   id="polyline1488" />
		<polyline
   class="st0"
   points="188.16,939.94 227.88,939.94 227.88,979.6 188.16,979.6 188.16,939.94   "
   id="polyline1490" />
		<polyline
   class="st0"
   points="188.16,993.94 227.88,993.94 227.88,1033.6 188.16,1033.6 188.16,993.94   "
   id="polyline1492" />
		<polyline
   class="st0"
   points="188.16,1047.94 227.88,1047.94 227.88,1087.6 188.16,1087.6 188.16,1047.94   "
   id="polyline1494" />
		<polyline
   class="st0"
   points="242.16,892.66 281.88,892.66 281.88,932.38 242.16,932.38 242.16,892.66   "
   id="polyline1496" />
		<polyline
   class="st0"
   points="242.16,946.66 281.88,946.66 281.88,986.38 242.16,986.38 242.16,946.66   "
   id="polyline1498" />
		<polyline
   class="st0"
   points="242.16,1000.66 281.88,1000.66 281.88,1040.38 242.16,1040.38 242.16,1000.66   "
   id="polyline1500" />
		<polyline
   class="st0"
   points="242.16,1054.66 281.88,1054.66 281.88,1094.38 242.16,1094.38 242.16,1054.66   "
   id="polyline1502" />
		<polyline
   class="st0"
   points="335.88,953.44 296.16,953.44 296.16,993.1 335.88,993.1 335.88,953.44   "
   id="polyline1504" />
		<polyline
   class="st0"
   points="335.88,1007.44 296.16,1007.44 296.16,1047.1 335.88,1047.1 335.88,1007.44   "
   id="polyline1506" />
		<polyline
   class="st0"
   points="335.88,1061.43 296.16,1061.43 296.16,1101.1 335.88,1101.1 335.88,1061.43   "
   id="polyline1508" />
		<polyline
   class="st0"
   points="350.16,926.44 389.88,926.44 389.88,966.1 350.16,966.1 350.16,926.44   "
   id="polyline1510" />
		<polyline
   class="st0"
   points="350.16,980.44 389.88,980.44 389.88,1020.1 350.16,1020.1 350.16,980.44   "
   id="polyline1512" />
		<polyline
   class="st0"
   points="350.16,1034.44 389.88,1034.44 389.88,1074.1 350.16,1074.1 350.16,1034.44   "
   id="polyline1514" />
		<polyline
   class="st0"
   points="65.88,1122.16 26.16,1122.16 26.16,1161.88 65.88,1161.88 65.88,1122.16   "
   id="polyline1516" />
		<polyline
   class="st0"
   points="80.16,1122.16 119.88,1122.16 119.88,1161.88 80.16,1161.88 80.16,1122.16   "
   id="polyline1518" />
		<polyline
   class="st0"
   points="173.88,1108.66 134.16,1108.66 134.16,1148.38 173.88,1148.38 173.88,1108.66   "
   id="polyline1520" />
		<polyline
   class="st0"
   points="266.4,1149.28 286.2,1114.9 320.58,1134.76 300.72,1169.14 266.4,1149.28   "
   id="polyline1522" />
		<polyline
   class="st0"
   points="227.88,1101.94 188.16,1101.94 188.16,1141.6 209.76,1141.6 209.76,1148.38 249.48,1148.38     249.48,1108.66 227.88,1108.66   "
   id="polyline1524" />
	</g>
	<path
   class="st0"
   d="m 75.75,953.17 c 0,1.53 -1.24,2.76 -2.76,2.76 -1.53,0 -2.76,-1.24 -2.76,-2.76 0,-1.53 1.24,-2.76 2.76,-2.76 1.52,-0.01 2.76,1.23 2.76,2.76 z"
   id="path1528" />
	<circle
   class="st0"
   cx="180.99001"
   cy="993.48999"
   r="2.76"
   id="circle1530" />
	<path
   class="st0"
   d="m 166.11,882.61 c 0,1.53 -1.24,2.76 -2.76,2.76 -1.53,0 -2.76,-1.24 -2.76,-2.76 0,-1.53 1.24,-2.76 2.76,-2.76 1.52,-0.01 2.76,1.23 2.76,2.76 z"
   id="path1532" />
	<circle
   class="st0"
   cx="72.989998"
   cy="1115.89"
   r="2.76"
   id="circle1534" />
	<path
   class="st0"
   d="m 185.19,1094.29 c 0,1.53 -1.24,2.76 -2.76,2.76 -1.53,0 -2.76,-1.24 -2.76,-2.76 0,-1.53 1.24,-2.76 2.76,-2.76 1.52,-0.01 2.76,1.23 2.76,2.76 z"
   id="path1536" />
	<path
   class="st0"
   d="m 328.83,1115.17 c 0,1.53 -1.24,2.76 -2.76,2.76 -1.53,0 -2.76,-1.24 -2.76,-2.76 0,-1.53 1.24,-2.76 2.76,-2.76 1.52,-0.01 2.76,1.23 2.76,2.76 z"
   id="path1538" />
	<path
   class="st0"
   d="m 345.75,945.97 c 0,1.53 -1.24,2.76 -2.76,2.76 -1.53,0 -2.76,-1.24 -2.76,-2.76 0,-1.53 1.24,-2.76 2.76,-2.76 1.52,-0.01 2.76,1.23 2.76,2.76 z"
   id="path1540" />
	<path
   class="st2"
   d="M 335.1,948.82"
   id="path1542" />
	<path
   class="st0"
   d="m 409.44,1107.85 c 0,1.53 -1.24,2.76 -2.76,2.76 -1.53,0 -2.76,-1.24 -2.76,-2.76 0,-1.53 1.24,-2.76 2.76,-2.76 1.52,-0.01 2.76,1.23 2.76,2.76 z"
   id="path1544" />
	<path
   class="st0"
   d="m 398.41,1073.68 c 0,3.12 1.69,7.58 3.76,9.91 l 45.58,51.37 c 2.07,2.33 2.48,6.45 0.92,9.15 l -48.87,84.41 c -1.56,2.7 -5.05,3.63 -7.75,2.07 l -100.33,-57.88 c -2.7,-1.56 -7.46,-2.83 -10.58,-2.83 v 0 H 24.01 c -3.12,0 -5.67,-2.55 -5.67,-5.67 V 903.13 c 0,-3.12 2.49,-6.23 5.53,-6.91 l 150.58,-33.85 c 3.04,-0.68 8.08,-1.24 11.2,-1.24 h 98.73 c 3.12,0 7.75,1.47 10.3,3.28 l 25.28,17.89 c 2.55,1.8 7.18,3.27 10.3,3.27 h 39.68 c 3.12,0 7.1,2.12 8.84,4.7 l 16.47,24.44 c 1.74,2.59 3.17,7.25 3.17,10.37 v 148.73"
   id="path1546" />
	<polygon
   class="st1"
   points="312.97,1176.37 313.65,1175.19 308.62,1172.29 307.9,1169.58 318.82,1150.68 321.53,1149.96 322.27,1150.38 342.14,1116.04 341.41,1115.62 340.69,1112.91 351.61,1094.01 354.32,1093.29 359.36,1096.2 359.95,1095.17 394.3,1115.04 389.96,1122.55 391.77,1125.08 388.93,1129.98 385.84,1129.67 355.69,1181.82 357.48,1184.33 354.65,1189.24 351.57,1188.94 347.31,1196.25 "
   id="polygon1548" />
	<polygon
   class="st1"
   points="359.74,1203.37 360.42,1202.19 355.39,1199.29 354.67,1196.58 365.59,1177.68 368.3,1176.96 369.04,1177.38 388.91,1143.04 388.18,1142.62 387.46,1139.91 398.38,1121.01 401.1,1120.29 406.13,1123.2 406.72,1122.17 441.07,1142.04 436.73,1149.55 438.54,1152.08 435.7,1156.98 432.61,1156.67 402.46,1208.82 404.25,1211.33 401.42,1216.24 398.35,1215.94 394.09,1223.25 "
   id="polygon1550" />
</g>
<g
   id="g1574"
   transform="matrix(1.25,0,0,1.25,-16.823152,89.603989)">
	<path
   class="st0"
   d="m 540.03,947.12 c 0,1.53 -1.24,2.76 -2.76,2.76 -1.53,0 -2.76,-1.24 -2.76,-2.76 0,-1.53 1.24,-2.76 2.76,-2.76 1.52,0 2.76,1.24 2.76,2.76 z"
   id="path1554" />
	<path
   class="st0"
   d="m 648.03,987.44 c 0,1.53 -1.24,2.76 -2.76,2.76 -1.53,0 -2.76,-1.24 -2.76,-2.76 0,-1.53 1.24,-2.76 2.76,-2.76 1.52,0 2.76,1.24 2.76,2.76 z"
   id="path1556" />
	<circle
   class="st0"
   cx="627.63"
   cy="876.56"
   r="2.76"
   id="circle1558" />
	<path
   class="st0"
   d="m 540.03,1109.84 c 0,1.53 -1.24,2.76 -2.76,2.76 -1.53,0 -2.76,-1.24 -2.76,-2.76 0,-1.53 1.24,-2.76 2.76,-2.76 1.52,0 2.76,1.24 2.76,2.76 z"
   id="path1560" />
	<circle
   class="st0"
   cx="646.71002"
   cy="1088.24"
   r="2.76"
   id="circle1562" />
	<path
   class="st0"
   d="m 793.11,1109.13 c 0,1.53 -1.24,2.76 -2.76,2.76 -1.53,0 -2.76,-1.24 -2.76,-2.76 0,-1.52 1.24,-2.76 2.76,-2.76 1.52,-0.01 2.76,1.23 2.76,2.76 z"
   id="path1564" />
	<circle
   class="st0"
   cx="807.27002"
   cy="939.91998"
   r="2.76"
   id="circle1566" />
	<path
   class="st2"
   d="M 799.38,942.77"
   id="path1568" />
	<path
   class="st0"
   d="m 873.72,1101.81 c 0,1.53 -1.24,2.76 -2.76,2.76 -1.53,0 -2.76,-1.24 -2.76,-2.76 0,-1.53 1.24,-2.76 2.76,-2.76 1.53,-0.01 2.76,1.23 2.76,2.76 z"
   id="path1570" />
	<path
   class="st0"
   d="m 862.69,1067.64 c 0,3.12 1.69,7.58 3.76,9.91 l 45.58,51.37 c 2.07,2.33 2.48,6.45 0.92,9.15 l -48.87,84.41 c -1.56,2.7 -5.05,3.63 -7.75,2.07 L 756,1166.67 c -2.7,-1.56 -7.46,-2.83 -10.58,-2.83 H 488.29 c -3.12,0 -5.67,-2.55 -5.67,-5.67 V 897.09 c 0,-3.12 2.49,-6.23 5.53,-6.91 l 150.58,-33.85 c 1.52,-0.34 3.54,-0.65 5.57,-0.88 h -0.04 v 97.42 h 110.07 v -96.72 c 1.75,0.58 3.42,1.36 4.63,2.21 l 25.28,17.89 c 2.55,1.8 7.18,3.28 10.3,3.28 h 4.88 v 41.67 h 34.47 v -41.67 h 0.33 c 3.12,0 7.09,2.12 8.84,4.7 l 16.47,24.44 c 1.74,2.58 3.17,7.25 3.17,10.37 v 148.67"
   id="path1572" />
</g>
</svg>
