G04 #@! TF.FileFunction,Soldermask,Top*
%FSLAX46Y46*%
G04 Gerber Fmt 4.6, Leading zero omitted, Abs format (unit mm)*
G04 Created by KiCad (PCBNEW 4.0.7) date 06/24/18 16:56:43*
%MOMM*%
%LPD*%
G01*
G04 APERTURE LIST*
%ADD10C,0.100000*%
%ADD11C,4.400000*%
%ADD12C,2.300000*%
%ADD13C,2.800000*%
%ADD14O,2.700000X3.737000*%
%ADD15C,2.100000*%
%ADD16C,1.924000*%
%ADD17C,2.000000*%
%ADD18C,2.000000*%
%ADD19O,2.000000X2.000000*%
%ADD20C,5.400000*%
%ADD21R,1.924000X1.924000*%
%ADD22C,1.390600*%
%ADD23C,2.152600*%
%ADD24C,1.900000*%
%ADD25R,1.600000X2.000000*%
%ADD26R,2.000000X1.600000*%
%ADD27C,2.305000*%
%ADD28R,2.305000X2.305000*%
%ADD29R,1.300000X1.200000*%
%ADD30C,2.700000*%
%ADD31R,2.000000X2.000000*%
%ADD32R,1.800000X2.200000*%
%ADD33R,2.200000X1.800000*%
G04 APERTURE END LIST*
D10*
D11*
X144145000Y-127031750D03*
D12*
X149645000Y-127031750D03*
X138645000Y-127031750D03*
D13*
X148083558Y-124644959D02*
X146926540Y-123266079D01*
X141363460Y-123266079D02*
X140206442Y-124644959D01*
D14*
X141625000Y-122531750D03*
X146665000Y-122531750D03*
D15*
X139065000Y-127031750D03*
X149225000Y-127031750D03*
D11*
X125095000Y-110363000D03*
D12*
X119595000Y-110363000D03*
X130595000Y-110363000D03*
D13*
X121156442Y-107976209D02*
X122313460Y-106597329D01*
X127876540Y-106597329D02*
X129033558Y-107976209D01*
D14*
X127615000Y-105863000D03*
X122575000Y-105863000D03*
D15*
X130175000Y-110363000D03*
X120015000Y-110363000D03*
D11*
X125095000Y-91313000D03*
D12*
X119595000Y-91313000D03*
X130595000Y-91313000D03*
D13*
X121156442Y-88926209D02*
X122313460Y-87547329D01*
X127876540Y-87547329D02*
X129033558Y-88926209D01*
D14*
X127615000Y-86813000D03*
X122575000Y-86813000D03*
D15*
X130175000Y-91313000D03*
X120015000Y-91313000D03*
D11*
X86995000Y-115125500D03*
D12*
X92495000Y-115125500D03*
X81495000Y-115125500D03*
D13*
X90933558Y-112738709D02*
X89776540Y-111359829D01*
X84213460Y-111359829D02*
X83056442Y-112738709D01*
D14*
X84475000Y-110625500D03*
X89515000Y-110625500D03*
D15*
X81915000Y-115125500D03*
X92075000Y-115125500D03*
D11*
X86995000Y-57975500D03*
D12*
X92495000Y-57975500D03*
X81495000Y-57975500D03*
D13*
X90933558Y-55588709D02*
X89776540Y-54209829D01*
X84213460Y-54209829D02*
X83056442Y-55588709D01*
D14*
X84475000Y-53475500D03*
X89515000Y-53475500D03*
D15*
X81915000Y-57975500D03*
X92075000Y-57975500D03*
D11*
X182245000Y-55594250D03*
D12*
X176745000Y-55594250D03*
X187745000Y-55594250D03*
D13*
X178306442Y-53207459D02*
X179463460Y-51828579D01*
X185026540Y-51828579D02*
X186183558Y-53207459D01*
D14*
X184765000Y-51094250D03*
X179725000Y-51094250D03*
D15*
X187325000Y-55594250D03*
X177165000Y-55594250D03*
D16*
X170815000Y-39370000D03*
X170815000Y-41910000D03*
X170815000Y-44450000D03*
X170815000Y-46990000D03*
X170815000Y-49530000D03*
X170815000Y-52070000D03*
X170815000Y-54610000D03*
X170815000Y-57150000D03*
X170815000Y-59690000D03*
X170815000Y-62230000D03*
X170815000Y-64770000D03*
X170815000Y-67310000D03*
X155575000Y-67310000D03*
X155575000Y-64770000D03*
X155575000Y-62230000D03*
X155575000Y-59690000D03*
X155575000Y-57150000D03*
X155575000Y-54610000D03*
X155575000Y-52070000D03*
X155575000Y-49530000D03*
X155575000Y-46990000D03*
X155575000Y-44450000D03*
X155575000Y-41910000D03*
X155575000Y-39370000D03*
D17*
X102997000Y-46609000D03*
D18*
X113002647Y-44844735D02*
X113002647Y-44844735D01*
D17*
X133731000Y-41148000D03*
D19*
X133731000Y-51308000D03*
D20*
X134620000Y-81788000D03*
X191770000Y-65024000D03*
X185801000Y-124714000D03*
X96520000Y-67564000D03*
X96520000Y-124968000D03*
D21*
X119491000Y-43688000D03*
X117491000Y-43688000D03*
D22*
X197072000Y-46204000D03*
X193072000Y-46204000D03*
D23*
X195072000Y-51004000D03*
X191072000Y-56504000D03*
X195072000Y-55004000D03*
X199072000Y-56504000D03*
X195072000Y-48004000D03*
D22*
X193072000Y-53204000D03*
X197072000Y-53204000D03*
D16*
X160314000Y-39624000D03*
X165314000Y-39624000D03*
D24*
X159314000Y-42124000D03*
X166314000Y-42124000D03*
D16*
X96139000Y-48133000D03*
X93639000Y-48133000D03*
X98639000Y-48133000D03*
X176911000Y-45720000D03*
X174411000Y-45720000D03*
X179411000Y-45720000D03*
X146518000Y-39624000D03*
X141518000Y-39624000D03*
D24*
X147518000Y-42124000D03*
X140518000Y-42124000D03*
D20*
X135128000Y-117348000D03*
D25*
X95377000Y-59542000D03*
D17*
X95377000Y-52832000D03*
D19*
X95377000Y-62992000D03*
D25*
X95377000Y-56282000D03*
D26*
X104415000Y-66294000D03*
D17*
X111125000Y-66294000D03*
D19*
X100965000Y-66294000D03*
D26*
X107675000Y-66294000D03*
X126725000Y-61595000D03*
D17*
X120015000Y-61595000D03*
D19*
X130175000Y-61595000D03*
D26*
X123465000Y-61595000D03*
X142515000Y-59182000D03*
D17*
X149225000Y-59182000D03*
D19*
X139065000Y-59182000D03*
D26*
X145775000Y-59182000D03*
X164825000Y-61595000D03*
D17*
X158115000Y-61595000D03*
D19*
X168275000Y-61595000D03*
D26*
X161565000Y-61595000D03*
X180615000Y-63881000D03*
D17*
X187325000Y-63881000D03*
D19*
X177165000Y-63881000D03*
D26*
X183875000Y-63881000D03*
D25*
X192913000Y-76433000D03*
D17*
X192913000Y-69723000D03*
D19*
X192913000Y-79883000D03*
D25*
X192913000Y-73173000D03*
X95377000Y-78719000D03*
D17*
X95377000Y-72009000D03*
D19*
X95377000Y-82169000D03*
D25*
X95377000Y-75459000D03*
D26*
X104415000Y-85344000D03*
D17*
X111125000Y-85344000D03*
D19*
X100965000Y-85344000D03*
D26*
X107675000Y-85344000D03*
X123465000Y-80645000D03*
D17*
X130175000Y-80645000D03*
D19*
X120015000Y-80645000D03*
D26*
X126725000Y-80645000D03*
X164825000Y-121031000D03*
D17*
X158115000Y-121031000D03*
D19*
X168275000Y-121031000D03*
D26*
X161565000Y-121031000D03*
X142515000Y-78232000D03*
D17*
X149225000Y-78232000D03*
D19*
X139065000Y-78232000D03*
D26*
X145775000Y-78232000D03*
X161565000Y-80645000D03*
D17*
X168275000Y-80645000D03*
D19*
X158115000Y-80645000D03*
D26*
X164825000Y-80645000D03*
X180615000Y-82931000D03*
D17*
X187325000Y-82931000D03*
D19*
X177165000Y-82931000D03*
D26*
X183875000Y-82931000D03*
D25*
X192913000Y-91419000D03*
D17*
X192913000Y-84709000D03*
D19*
X192913000Y-94869000D03*
D25*
X192913000Y-88159000D03*
X95377000Y-97642000D03*
D17*
X95377000Y-90932000D03*
D19*
X95377000Y-101092000D03*
D25*
X95377000Y-94382000D03*
D26*
X107802000Y-104394000D03*
D17*
X101092000Y-104394000D03*
D19*
X111252000Y-104394000D03*
D26*
X104542000Y-104394000D03*
X123465000Y-99695000D03*
D17*
X130175000Y-99695000D03*
D19*
X120015000Y-99695000D03*
D26*
X126725000Y-99695000D03*
X142515000Y-97282000D03*
D17*
X149225000Y-97282000D03*
D19*
X139065000Y-97282000D03*
D26*
X145775000Y-97282000D03*
X161565000Y-99695000D03*
D17*
X168275000Y-99695000D03*
D19*
X158115000Y-99695000D03*
D26*
X164825000Y-99695000D03*
X180615000Y-102108000D03*
D17*
X187325000Y-102108000D03*
D19*
X177165000Y-102108000D03*
D26*
X183875000Y-102108000D03*
D25*
X192913000Y-101748000D03*
D17*
X192913000Y-108458000D03*
D19*
X192913000Y-98298000D03*
D25*
X192913000Y-105008000D03*
D26*
X107802000Y-106807000D03*
D17*
X101092000Y-106807000D03*
D19*
X111252000Y-106807000D03*
D26*
X104542000Y-106807000D03*
D25*
X114427000Y-116692000D03*
D17*
X114427000Y-109982000D03*
D19*
X114427000Y-120142000D03*
D25*
X114427000Y-113432000D03*
D26*
X123465000Y-118745000D03*
D17*
X130175000Y-118745000D03*
D19*
X120015000Y-118745000D03*
D26*
X126725000Y-118745000D03*
X142896000Y-116332000D03*
D17*
X149606000Y-116332000D03*
D19*
X139446000Y-116332000D03*
D26*
X146156000Y-116332000D03*
X164825000Y-118745000D03*
D17*
X158115000Y-118745000D03*
D19*
X168275000Y-118745000D03*
D26*
X161565000Y-118745000D03*
X180615000Y-120396000D03*
D17*
X187325000Y-120396000D03*
D19*
X177165000Y-120396000D03*
D26*
X183875000Y-120396000D03*
D10*
G36*
X180475180Y-138530005D02*
X181860820Y-139330005D01*
X180860820Y-141062055D01*
X179475180Y-140262055D01*
X180475180Y-138530005D01*
X180475180Y-138530005D01*
G37*
D17*
X184023000Y-133985000D03*
D18*
X178943000Y-142783818D02*
X178943000Y-142783818D01*
D10*
G36*
X182105180Y-135706763D02*
X183490820Y-136506763D01*
X182490820Y-138238813D01*
X181105180Y-137438813D01*
X182105180Y-135706763D01*
X182105180Y-135706763D01*
G37*
D26*
X107548000Y-123444000D03*
D17*
X100838000Y-123444000D03*
D19*
X110998000Y-123444000D03*
D26*
X104288000Y-123444000D03*
X107548000Y-125857000D03*
D17*
X100838000Y-125857000D03*
D19*
X110998000Y-125857000D03*
D26*
X104288000Y-125857000D03*
X123465000Y-121031000D03*
D17*
X130175000Y-121031000D03*
D19*
X120015000Y-121031000D03*
D26*
X126725000Y-121031000D03*
X142896000Y-118745000D03*
D17*
X149606000Y-118745000D03*
D19*
X139446000Y-118745000D03*
D26*
X146156000Y-118745000D03*
D20*
X128397000Y-42672000D03*
D27*
X85725000Y-63055500D03*
D28*
X88265000Y-63055500D03*
D27*
X104775000Y-63055500D03*
D28*
X107315000Y-63055500D03*
D27*
X123825000Y-58293000D03*
D28*
X126365000Y-58293000D03*
D27*
X142875000Y-55911750D03*
D28*
X145415000Y-55911750D03*
D27*
X161925000Y-58420000D03*
D28*
X164465000Y-58420000D03*
D27*
X180975000Y-60674250D03*
D28*
X183515000Y-60674250D03*
D27*
X200025000Y-70199250D03*
D28*
X202565000Y-70199250D03*
D27*
X85725000Y-82105500D03*
D28*
X88265000Y-82105500D03*
D27*
X104775000Y-82105500D03*
D28*
X107315000Y-82105500D03*
D27*
X123825000Y-77343000D03*
D28*
X126365000Y-77343000D03*
D27*
X142875000Y-74961750D03*
D28*
X145415000Y-74961750D03*
D27*
X161925000Y-77343000D03*
D28*
X164465000Y-77343000D03*
D27*
X180975000Y-79724250D03*
D28*
X183515000Y-79724250D03*
D27*
X200025000Y-89249250D03*
D28*
X202565000Y-89249250D03*
D27*
X85725000Y-101155500D03*
D28*
X88265000Y-101155500D03*
D27*
X104775000Y-101155500D03*
D28*
X107315000Y-101155500D03*
D27*
X123825000Y-96393000D03*
D28*
X126365000Y-96393000D03*
D27*
X142875000Y-94011750D03*
D28*
X145415000Y-94011750D03*
D27*
X161925000Y-96393000D03*
D28*
X164465000Y-96393000D03*
D27*
X180975000Y-98774250D03*
D28*
X183515000Y-98774250D03*
D27*
X200025000Y-108299250D03*
D28*
X202565000Y-108299250D03*
D27*
X85725000Y-120205500D03*
D28*
X88265000Y-120205500D03*
D27*
X104775000Y-120205500D03*
D28*
X107315000Y-120205500D03*
D27*
X123825000Y-115443000D03*
D28*
X126365000Y-115443000D03*
D27*
X142875000Y-113061750D03*
D28*
X145415000Y-113061750D03*
D27*
X161925000Y-115443000D03*
D28*
X164465000Y-115443000D03*
D27*
X180975000Y-117824250D03*
D28*
X183515000Y-117824250D03*
D27*
X178056409Y-137815102D03*
D10*
G36*
X179748253Y-137189742D02*
X177752065Y-136037242D01*
X178904565Y-134041054D01*
X180900753Y-135193554D01*
X179748253Y-137189742D01*
X179748253Y-137189742D01*
G37*
D27*
X85725000Y-139255500D03*
D28*
X88265000Y-139255500D03*
D27*
X104775000Y-139255500D03*
D28*
X107315000Y-139255500D03*
D27*
X123825000Y-134493000D03*
D28*
X126365000Y-134493000D03*
D27*
X142875000Y-132111750D03*
D28*
X145415000Y-132111750D03*
D16*
X136525000Y-39370000D03*
X136525000Y-41910000D03*
X136525000Y-44450000D03*
X136525000Y-46990000D03*
X136525000Y-49530000D03*
X136525000Y-52070000D03*
X136525000Y-54610000D03*
X136525000Y-57150000D03*
X136525000Y-59690000D03*
X136525000Y-62230000D03*
X136525000Y-64770000D03*
X136525000Y-67310000D03*
X151765000Y-67310000D03*
X151765000Y-64770000D03*
X151765000Y-62230000D03*
X151765000Y-59690000D03*
X151765000Y-57150000D03*
X151765000Y-54610000D03*
X151765000Y-52070000D03*
X151765000Y-49530000D03*
X151765000Y-46990000D03*
X151765000Y-44450000D03*
X151765000Y-41910000D03*
X151765000Y-39370000D03*
D27*
X153035000Y-124333000D03*
D28*
X150495000Y-124333000D03*
D10*
G36*
X206112820Y-140615995D02*
X204727180Y-139815995D01*
X205727180Y-138083945D01*
X207112820Y-138883945D01*
X206112820Y-140615995D01*
X206112820Y-140615995D01*
G37*
G36*
X202931025Y-146527025D02*
X201198975Y-145527025D01*
X202198975Y-143794975D01*
X203931025Y-144794975D01*
X202931025Y-146527025D01*
X202931025Y-146527025D01*
G37*
D18*
X207645000Y-136362182D02*
X207645000Y-136362182D01*
D10*
G36*
X204482820Y-143439237D02*
X203097180Y-142639237D01*
X204097180Y-140907187D01*
X205482820Y-141707187D01*
X204482820Y-143439237D01*
X204482820Y-143439237D01*
G37*
D29*
X162322000Y-123510000D03*
X162322000Y-125410000D03*
X164322000Y-124460000D03*
D11*
X86995000Y-77025500D03*
D12*
X92495000Y-77025500D03*
X81495000Y-77025500D03*
D13*
X90933558Y-74638709D02*
X89776540Y-73259829D01*
X84213460Y-73259829D02*
X83056442Y-74638709D01*
D14*
X84475000Y-72525500D03*
X89515000Y-72525500D03*
D15*
X81915000Y-77025500D03*
X92075000Y-77025500D03*
D11*
X86995000Y-96075500D03*
D12*
X92495000Y-96075500D03*
X81495000Y-96075500D03*
D13*
X90933558Y-93688709D02*
X89776540Y-92309829D01*
X84213460Y-92309829D02*
X83056442Y-93688709D01*
D14*
X84475000Y-91575500D03*
X89515000Y-91575500D03*
D15*
X81915000Y-96075500D03*
X92075000Y-96075500D03*
D11*
X106045000Y-57975500D03*
D12*
X100545000Y-57975500D03*
X111545000Y-57975500D03*
D13*
X102106442Y-55588709D02*
X103263460Y-54209829D01*
X108826540Y-54209829D02*
X109983558Y-55588709D01*
D14*
X108565000Y-53475500D03*
X103525000Y-53475500D03*
D15*
X111125000Y-57975500D03*
X100965000Y-57975500D03*
D11*
X106045000Y-77025500D03*
D12*
X100545000Y-77025500D03*
X111545000Y-77025500D03*
D13*
X102106442Y-74638709D02*
X103263460Y-73259829D01*
X108826540Y-73259829D02*
X109983558Y-74638709D01*
D14*
X108565000Y-72525500D03*
X103525000Y-72525500D03*
D15*
X111125000Y-77025500D03*
X100965000Y-77025500D03*
D11*
X106045000Y-96075500D03*
D12*
X100545000Y-96075500D03*
X111545000Y-96075500D03*
D13*
X102106442Y-93688709D02*
X103263460Y-92309829D01*
X108826540Y-92309829D02*
X109983558Y-93688709D01*
D14*
X108565000Y-91575500D03*
X103525000Y-91575500D03*
D15*
X111125000Y-96075500D03*
X100965000Y-96075500D03*
D11*
X106045000Y-115125500D03*
D12*
X100545000Y-115125500D03*
X111545000Y-115125500D03*
D13*
X102106442Y-112738709D02*
X103263460Y-111359829D01*
X108826540Y-111359829D02*
X109983558Y-112738709D01*
D14*
X108565000Y-110625500D03*
X103525000Y-110625500D03*
D15*
X111125000Y-115125500D03*
X100965000Y-115125500D03*
D11*
X125095000Y-53213000D03*
D12*
X130595000Y-53213000D03*
X119595000Y-53213000D03*
D13*
X129033558Y-50826209D02*
X127876540Y-49447329D01*
X122313460Y-49447329D02*
X121156442Y-50826209D01*
D14*
X122575000Y-48713000D03*
X127615000Y-48713000D03*
D15*
X120015000Y-53213000D03*
X130175000Y-53213000D03*
D11*
X125095000Y-72263000D03*
D12*
X130595000Y-72263000D03*
X119595000Y-72263000D03*
D13*
X129033558Y-69876209D02*
X127876540Y-68497329D01*
X122313460Y-68497329D02*
X121156442Y-69876209D01*
D14*
X122575000Y-67763000D03*
X127615000Y-67763000D03*
D15*
X120015000Y-72263000D03*
X130175000Y-72263000D03*
D11*
X144145000Y-50831750D03*
D12*
X138645000Y-50831750D03*
X149645000Y-50831750D03*
D13*
X140206442Y-48444959D02*
X141363460Y-47066079D01*
X146926540Y-47066079D02*
X148083558Y-48444959D01*
D14*
X146665000Y-46331750D03*
X141625000Y-46331750D03*
D15*
X149225000Y-50831750D03*
X139065000Y-50831750D03*
D11*
X144145000Y-69881750D03*
D12*
X138645000Y-69881750D03*
X149645000Y-69881750D03*
D13*
X140206442Y-67494959D02*
X141363460Y-66116079D01*
X146926540Y-66116079D02*
X148083558Y-67494959D01*
D14*
X146665000Y-65381750D03*
X141625000Y-65381750D03*
D15*
X149225000Y-69881750D03*
X139065000Y-69881750D03*
D11*
X144145000Y-88931750D03*
D12*
X138645000Y-88931750D03*
X149645000Y-88931750D03*
D13*
X140206442Y-86544959D02*
X141363460Y-85166079D01*
X146926540Y-85166079D02*
X148083558Y-86544959D01*
D14*
X146665000Y-84431750D03*
X141625000Y-84431750D03*
D15*
X149225000Y-88931750D03*
X139065000Y-88931750D03*
D11*
X144145000Y-107981750D03*
D12*
X138645000Y-107981750D03*
X149645000Y-107981750D03*
D13*
X140206442Y-105594959D02*
X141363460Y-104216079D01*
X146926540Y-104216079D02*
X148083558Y-105594959D01*
D14*
X146665000Y-103481750D03*
X141625000Y-103481750D03*
D15*
X149225000Y-107981750D03*
X139065000Y-107981750D03*
D11*
X163195000Y-53213000D03*
D12*
X157695000Y-53213000D03*
X168695000Y-53213000D03*
D13*
X159256442Y-50826209D02*
X160413460Y-49447329D01*
X165976540Y-49447329D02*
X167133558Y-50826209D01*
D14*
X165715000Y-48713000D03*
X160675000Y-48713000D03*
D15*
X168275000Y-53213000D03*
X158115000Y-53213000D03*
D11*
X163195000Y-72263000D03*
D12*
X157695000Y-72263000D03*
X168695000Y-72263000D03*
D13*
X159256442Y-69876209D02*
X160413460Y-68497329D01*
X165976540Y-68497329D02*
X167133558Y-69876209D01*
D14*
X165715000Y-67763000D03*
X160675000Y-67763000D03*
D15*
X168275000Y-72263000D03*
X158115000Y-72263000D03*
D11*
X163195000Y-91313000D03*
D12*
X157695000Y-91313000D03*
X168695000Y-91313000D03*
D13*
X159256442Y-88926209D02*
X160413460Y-87547329D01*
X165976540Y-87547329D02*
X167133558Y-88926209D01*
D14*
X165715000Y-86813000D03*
X160675000Y-86813000D03*
D15*
X168275000Y-91313000D03*
X158115000Y-91313000D03*
D11*
X163195000Y-110363000D03*
D12*
X157695000Y-110363000D03*
X168695000Y-110363000D03*
D13*
X159256442Y-107976209D02*
X160413460Y-106597329D01*
X165976540Y-106597329D02*
X167133558Y-107976209D01*
D14*
X165715000Y-105863000D03*
X160675000Y-105863000D03*
D15*
X168275000Y-110363000D03*
X158115000Y-110363000D03*
D11*
X182245000Y-74644250D03*
D12*
X187745000Y-74644250D03*
X176745000Y-74644250D03*
D13*
X186183558Y-72257459D02*
X185026540Y-70878579D01*
X179463460Y-70878579D02*
X178306442Y-72257459D01*
D14*
X179725000Y-70144250D03*
X184765000Y-70144250D03*
D15*
X177165000Y-74644250D03*
X187325000Y-74644250D03*
D11*
X182245000Y-93694250D03*
D12*
X187745000Y-93694250D03*
X176745000Y-93694250D03*
D13*
X186183558Y-91307459D02*
X185026540Y-89928579D01*
X179463460Y-89928579D02*
X178306442Y-91307459D01*
D14*
X179725000Y-89194250D03*
X184765000Y-89194250D03*
D15*
X177165000Y-93694250D03*
X187325000Y-93694250D03*
D11*
X182245000Y-112744250D03*
D12*
X187745000Y-112744250D03*
X176745000Y-112744250D03*
D13*
X186183558Y-110357459D02*
X185026540Y-108978579D01*
X179463460Y-108978579D02*
X178306442Y-110357459D01*
D14*
X179725000Y-108244250D03*
X184765000Y-108244250D03*
D15*
X177165000Y-112744250D03*
X187325000Y-112744250D03*
D11*
X201295000Y-65119250D03*
D12*
X195795000Y-65119250D03*
X206795000Y-65119250D03*
D13*
X197356442Y-62732459D02*
X198513460Y-61353579D01*
X204076540Y-61353579D02*
X205233558Y-62732459D01*
D14*
X203815000Y-60619250D03*
X198775000Y-60619250D03*
D15*
X206375000Y-65119250D03*
X196215000Y-65119250D03*
D11*
X201295000Y-84169250D03*
D12*
X195795000Y-84169250D03*
X206795000Y-84169250D03*
D13*
X197356442Y-81782459D02*
X198513460Y-80403579D01*
X204076540Y-80403579D02*
X205233558Y-81782459D01*
D14*
X203815000Y-79669250D03*
X198775000Y-79669250D03*
D15*
X206375000Y-84169250D03*
X196215000Y-84169250D03*
D11*
X201295000Y-103219250D03*
D12*
X195795000Y-103219250D03*
X206795000Y-103219250D03*
D13*
X197356442Y-100832459D02*
X198513460Y-99453579D01*
X204076540Y-99453579D02*
X205233558Y-100832459D01*
D14*
X203815000Y-98719250D03*
X198775000Y-98719250D03*
D15*
X206375000Y-103219250D03*
X196215000Y-103219250D03*
D11*
X200315000Y-127202300D03*
D12*
X203065000Y-122439160D03*
X197565000Y-131965440D03*
D13*
X204351301Y-124984805D02*
X204966937Y-126676251D01*
X202185397Y-131494020D02*
X200412743Y-131806586D01*
D30*
X203401148Y-131893934D02*
X202503080Y-131375434D01*
X205921148Y-127529166D02*
X205023080Y-127010666D01*
D15*
X197775000Y-131601709D03*
X202855000Y-122802891D03*
D11*
X86995000Y-134175500D03*
D12*
X92495000Y-134175500D03*
X81495000Y-134175500D03*
D13*
X90933558Y-131788709D02*
X89776540Y-130409829D01*
X84213460Y-130409829D02*
X83056442Y-131788709D01*
D14*
X84475000Y-129675500D03*
X89515000Y-129675500D03*
D15*
X81915000Y-134175500D03*
X92075000Y-134175500D03*
D11*
X106045000Y-134175500D03*
D12*
X100545000Y-134175500D03*
X111545000Y-134175500D03*
D13*
X102106442Y-131788709D02*
X103263460Y-130409829D01*
X108826540Y-130409829D02*
X109983558Y-131788709D01*
D14*
X108565000Y-129675500D03*
X103525000Y-129675500D03*
D15*
X111125000Y-134175500D03*
X100965000Y-134175500D03*
D11*
X125095000Y-129413000D03*
D12*
X130595000Y-129413000D03*
X119595000Y-129413000D03*
D13*
X129033558Y-127026209D02*
X127876540Y-125647329D01*
X122313460Y-125647329D02*
X121156442Y-127026209D01*
D14*
X122575000Y-124913000D03*
X127615000Y-124913000D03*
D15*
X120015000Y-129413000D03*
X130175000Y-129413000D03*
D11*
X174292000Y-134175250D03*
D12*
X171542000Y-138938390D03*
X177042000Y-129412110D03*
D13*
X170255699Y-136392745D02*
X169640063Y-134701299D01*
X172421603Y-129883530D02*
X174194257Y-129570964D01*
D30*
X171205852Y-129483616D02*
X172103920Y-130002116D01*
X168685852Y-133848384D02*
X169583920Y-134366884D01*
D15*
X176832000Y-129775841D03*
X171752000Y-138574659D03*
D11*
X190790000Y-143700300D03*
D12*
X193540000Y-138937160D03*
X188040000Y-148463440D03*
D13*
X194826301Y-141482805D02*
X195441937Y-143174251D01*
X192660397Y-147992020D02*
X190887743Y-148304586D01*
D30*
X193876148Y-148391934D02*
X192978080Y-147873434D01*
X196396148Y-144027166D02*
X195498080Y-143508666D01*
D15*
X188250000Y-148099709D03*
X193330000Y-139300891D03*
D11*
X195552500Y-135451250D03*
D12*
X192802500Y-140214390D03*
X198302500Y-130688110D03*
D13*
X191516199Y-137668745D02*
X190900563Y-135977299D01*
X193682103Y-131159530D02*
X195454757Y-130846964D01*
D30*
X192466352Y-130759616D02*
X193364420Y-131278116D01*
X189946352Y-135124384D02*
X190844420Y-135642884D01*
D15*
X198092500Y-131051841D03*
X193012500Y-139850659D03*
D11*
X151765000Y-129413000D03*
D12*
X157265000Y-129413000D03*
X146265000Y-129413000D03*
D13*
X155703558Y-131799791D02*
X154546540Y-133178671D01*
X148983460Y-133178671D02*
X147826442Y-131799791D01*
D14*
X149245000Y-133913000D03*
X154285000Y-133913000D03*
D15*
X146685000Y-129413000D03*
X156845000Y-129413000D03*
D11*
X216813000Y-136727350D03*
D12*
X219563000Y-131964210D03*
X214063000Y-141490490D03*
D13*
X220849301Y-134509855D02*
X221464937Y-136201301D01*
X218683397Y-141019070D02*
X216910743Y-141331636D01*
D30*
X219899148Y-141418984D02*
X219001080Y-140900484D01*
X222419148Y-137054216D02*
X221521080Y-136535716D01*
D15*
X214273000Y-141126759D03*
X219353000Y-132327941D03*
D11*
X212050500Y-144976300D03*
D12*
X209300500Y-149739440D03*
X214800500Y-140213160D03*
D13*
X208014199Y-147193795D02*
X207398563Y-145502349D01*
X210180103Y-140684580D02*
X211952757Y-140372014D01*
D30*
X208964352Y-140284666D02*
X209862420Y-140803166D01*
X206444352Y-144649434D02*
X207342420Y-145167934D01*
D15*
X214590500Y-140576891D03*
X209510500Y-149375709D03*
D11*
X207288000Y-153225350D03*
D12*
X210038000Y-148462210D03*
X204538000Y-157988490D03*
D13*
X211324301Y-151007855D02*
X211939937Y-152699301D01*
X209158397Y-157517070D02*
X207385743Y-157829636D01*
D30*
X210374148Y-157916984D02*
X209476080Y-157398484D01*
X212894148Y-153552216D02*
X211996080Y-153033716D01*
D15*
X204748000Y-157624759D03*
X209828000Y-148825941D03*
D21*
X112998000Y-47032000D03*
X110998000Y-47032000D03*
X108998000Y-47032000D03*
X112998000Y-49191000D03*
X110998000Y-49191000D03*
X108998000Y-49191000D03*
D27*
X196550591Y-123562448D03*
D10*
G36*
X194858747Y-124187808D02*
X196854935Y-125340308D01*
X195702435Y-127336496D01*
X193706247Y-126183996D01*
X194858747Y-124187808D01*
X194858747Y-124187808D01*
G37*
D27*
X213048591Y-133087498D03*
D10*
G36*
X211356747Y-133712858D02*
X213352935Y-134865358D01*
X212200435Y-136861546D01*
X210204247Y-135709046D01*
X211356747Y-133712858D01*
X211356747Y-133712858D01*
G37*
D27*
X187025591Y-140060448D03*
D10*
G36*
X185333747Y-140685808D02*
X187329935Y-141838308D01*
X186177435Y-143834496D01*
X184181247Y-142681996D01*
X185333747Y-140685808D01*
X185333747Y-140685808D01*
G37*
D27*
X203523591Y-149585498D03*
D10*
G36*
X201831747Y-150210858D02*
X203827935Y-151363358D01*
X202675435Y-153359546D01*
X200679247Y-152207046D01*
X201831747Y-150210858D01*
X201831747Y-150210858D01*
G37*
D26*
X196702000Y-113665000D03*
D17*
X189992000Y-113665000D03*
D19*
X200152000Y-113665000D03*
D26*
X193442000Y-113665000D03*
D10*
G36*
X219990995Y-129548180D02*
X219190995Y-130933820D01*
X217458945Y-129933820D01*
X218258945Y-128548180D01*
X219990995Y-129548180D01*
X219990995Y-129548180D01*
G37*
D17*
X224536000Y-133096000D03*
D18*
X215737182Y-128016000D02*
X215737182Y-128016000D01*
D10*
G36*
X222814237Y-131178180D02*
X222014237Y-132563820D01*
X220282187Y-131563820D01*
X221082187Y-130178180D01*
X222814237Y-131178180D01*
X222814237Y-131178180D01*
G37*
D26*
X196702000Y-116205000D03*
D17*
X189992000Y-116205000D03*
D19*
X200152000Y-116205000D03*
D26*
X193442000Y-116205000D03*
D10*
G36*
X203734995Y-158250180D02*
X202934995Y-159635820D01*
X201202945Y-158635820D01*
X202002945Y-157250180D01*
X203734995Y-158250180D01*
X203734995Y-158250180D01*
G37*
D17*
X208280000Y-161798000D03*
D18*
X199481182Y-156718000D02*
X199481182Y-156718000D01*
D10*
G36*
X206558237Y-159880180D02*
X205758237Y-161265820D01*
X204026187Y-160265820D01*
X204826187Y-158880180D01*
X206558237Y-159880180D01*
X206558237Y-159880180D01*
G37*
D27*
X215814909Y-148616152D03*
D10*
G36*
X217506753Y-147990792D02*
X215510565Y-146838292D01*
X216663065Y-144842104D01*
X218659253Y-145994604D01*
X217506753Y-147990792D01*
X217506753Y-147990792D01*
G37*
D25*
X97663000Y-56282000D03*
D31*
X97663000Y-62992000D03*
D19*
X97663000Y-52832000D03*
D25*
X97663000Y-59542000D03*
X97663000Y-75459000D03*
D31*
X97663000Y-82169000D03*
D19*
X97663000Y-72009000D03*
D25*
X97663000Y-78719000D03*
X97663000Y-94382000D03*
D31*
X97663000Y-101092000D03*
D19*
X97663000Y-90932000D03*
D25*
X97663000Y-97642000D03*
X95377000Y-112924000D03*
D31*
X95377000Y-119634000D03*
D19*
X95377000Y-109474000D03*
D25*
X95377000Y-116184000D03*
X114427000Y-56282000D03*
D31*
X114427000Y-62992000D03*
D19*
X114427000Y-52832000D03*
D25*
X114427000Y-59542000D03*
X114427000Y-75459000D03*
D31*
X114427000Y-82169000D03*
D19*
X114427000Y-72009000D03*
D25*
X114427000Y-78719000D03*
X114427000Y-94382000D03*
D31*
X114427000Y-101092000D03*
D19*
X114427000Y-90932000D03*
D25*
X114427000Y-97642000D03*
X116713000Y-113432000D03*
D31*
X116713000Y-120142000D03*
D19*
X116713000Y-109982000D03*
D25*
X116713000Y-116692000D03*
X116713000Y-56282000D03*
D31*
X116713000Y-62992000D03*
D19*
X116713000Y-52832000D03*
D25*
X116713000Y-59542000D03*
X116586000Y-75459000D03*
D31*
X116586000Y-82169000D03*
D19*
X116586000Y-72009000D03*
D25*
X116586000Y-78719000D03*
X133477000Y-89810000D03*
D31*
X133477000Y-96520000D03*
D19*
X133477000Y-86360000D03*
D25*
X133477000Y-93070000D03*
X133477000Y-105939000D03*
D31*
X133477000Y-112649000D03*
D19*
X133477000Y-102489000D03*
D25*
X133477000Y-109199000D03*
X133477000Y-70633000D03*
D31*
X133477000Y-77343000D03*
D19*
X133477000Y-67183000D03*
D25*
X133477000Y-73893000D03*
X152527000Y-74062000D03*
D31*
X152527000Y-80772000D03*
D19*
X152527000Y-70612000D03*
D25*
X152527000Y-77322000D03*
X152400000Y-91334000D03*
D31*
X152400000Y-98044000D03*
D19*
X152400000Y-87884000D03*
D25*
X152400000Y-94594000D03*
X152527000Y-106320000D03*
D31*
X152527000Y-113030000D03*
D19*
X152527000Y-102870000D03*
D25*
X152527000Y-109580000D03*
X173609000Y-54377000D03*
D31*
X173609000Y-61087000D03*
D19*
X173609000Y-50927000D03*
D25*
X173609000Y-57637000D03*
X171450000Y-75459000D03*
D31*
X171450000Y-82169000D03*
D19*
X171450000Y-72009000D03*
D25*
X171450000Y-78719000D03*
X171450000Y-91842000D03*
D31*
X171450000Y-98552000D03*
D19*
X171450000Y-88392000D03*
D25*
X171450000Y-95102000D03*
X171577000Y-111146000D03*
D31*
X171577000Y-117856000D03*
D19*
X171577000Y-107696000D03*
D25*
X171577000Y-114406000D03*
D26*
X183875000Y-66294000D03*
D31*
X177165000Y-66294000D03*
D19*
X187325000Y-66294000D03*
D26*
X180615000Y-66294000D03*
D25*
X173990000Y-75459000D03*
D31*
X173990000Y-82169000D03*
D19*
X173990000Y-72009000D03*
D25*
X173990000Y-78719000D03*
X173990000Y-91842000D03*
D31*
X173990000Y-98552000D03*
D19*
X173990000Y-88392000D03*
D25*
X173990000Y-95102000D03*
X173863000Y-111146000D03*
D31*
X173863000Y-117856000D03*
D19*
X173863000Y-107696000D03*
D25*
X173863000Y-114406000D03*
X190627000Y-73173000D03*
D31*
X190627000Y-79883000D03*
D19*
X190627000Y-69723000D03*
D25*
X190627000Y-76433000D03*
X190627000Y-88159000D03*
D31*
X190627000Y-94869000D03*
D19*
X190627000Y-84709000D03*
D25*
X190627000Y-91419000D03*
X190627000Y-101748000D03*
D31*
X190627000Y-108458000D03*
D19*
X190627000Y-98298000D03*
D25*
X190627000Y-105008000D03*
D10*
G36*
X192794180Y-123798005D02*
X194179820Y-124598005D01*
X193179820Y-126330055D01*
X191794180Y-125530055D01*
X192794180Y-123798005D01*
X192794180Y-123798005D01*
G37*
G36*
X195975975Y-117886975D02*
X197708025Y-118886975D01*
X196708025Y-120619025D01*
X194975975Y-119619025D01*
X195975975Y-117886975D01*
X195975975Y-117886975D01*
G37*
D18*
X191262000Y-128051818D02*
X191262000Y-128051818D01*
D10*
G36*
X194424180Y-120974763D02*
X195809820Y-121774763D01*
X194809820Y-123506813D01*
X193424180Y-122706813D01*
X194424180Y-120974763D01*
X194424180Y-120974763D01*
G37*
D25*
X97663000Y-112924000D03*
D31*
X97663000Y-119634000D03*
D19*
X97663000Y-109474000D03*
D25*
X97663000Y-116184000D03*
X114427000Y-127910000D03*
D31*
X114427000Y-134620000D03*
D19*
X114427000Y-124460000D03*
D25*
X114427000Y-131170000D03*
X116713000Y-127910000D03*
D31*
X116713000Y-134620000D03*
D19*
X116713000Y-124460000D03*
D25*
X116713000Y-131170000D03*
X135763000Y-125497000D03*
D31*
X135763000Y-132207000D03*
D19*
X135763000Y-122047000D03*
D25*
X135763000Y-128757000D03*
D10*
G36*
X178916005Y-128134820D02*
X179716005Y-126749180D01*
X181448055Y-127749180D01*
X180648055Y-129134820D01*
X178916005Y-128134820D01*
X178916005Y-128134820D01*
G37*
G36*
X173004975Y-124953025D02*
X174004975Y-123220975D01*
X175737025Y-124220975D01*
X174737025Y-125953025D01*
X173004975Y-124953025D01*
X173004975Y-124953025D01*
G37*
D18*
X183169818Y-129667000D02*
X183169818Y-129667000D01*
D10*
G36*
X176092763Y-126504820D02*
X176892763Y-125119180D01*
X178624813Y-126119180D01*
X177824813Y-127504820D01*
X176092763Y-126504820D01*
X176092763Y-126504820D01*
G37*
G36*
X183269180Y-138403005D02*
X184654820Y-139203005D01*
X183654820Y-140935055D01*
X182269180Y-140135055D01*
X183269180Y-138403005D01*
X183269180Y-138403005D01*
G37*
G36*
X186450975Y-132491975D02*
X188183025Y-133491975D01*
X187183025Y-135224025D01*
X185450975Y-134224025D01*
X186450975Y-132491975D01*
X186450975Y-132491975D01*
G37*
D18*
X181737000Y-142656818D02*
X181737000Y-142656818D01*
D10*
G36*
X184899180Y-135579763D02*
X186284820Y-136379763D01*
X185284820Y-138111813D01*
X183899180Y-137311813D01*
X184899180Y-135579763D01*
X184899180Y-135579763D01*
G37*
D32*
X79884000Y-64148000D03*
X83184000Y-64148000D03*
X83184000Y-68948000D03*
X79884000Y-68948000D03*
X79884000Y-83198000D03*
X83184000Y-83198000D03*
X83184000Y-87998000D03*
X79884000Y-87998000D03*
X79884000Y-102248000D03*
X83184000Y-102248000D03*
X83184000Y-107048000D03*
X79884000Y-107048000D03*
X79884000Y-121298000D03*
X83184000Y-121298000D03*
X83184000Y-126098000D03*
X79884000Y-126098000D03*
D33*
X94120000Y-141604000D03*
X94120000Y-138304000D03*
X98920000Y-138304000D03*
X98920000Y-141604000D03*
X116260333Y-141604000D03*
X116260333Y-138304000D03*
X121060333Y-138304000D03*
X121060333Y-141604000D03*
X138400667Y-141604000D03*
X138400667Y-138304000D03*
X143200667Y-138304000D03*
X143200667Y-141604000D03*
X160541000Y-141604000D03*
X160541000Y-138304000D03*
X165341000Y-138304000D03*
X165341000Y-141604000D03*
D10*
G36*
X201964365Y-140068833D02*
X200864365Y-141974089D01*
X199305519Y-141074089D01*
X200405519Y-139168833D01*
X201964365Y-140068833D01*
X201964365Y-140068833D01*
G37*
G36*
X199106481Y-138418833D02*
X198006481Y-140324089D01*
X196447635Y-139424089D01*
X197547635Y-137518833D01*
X199106481Y-138418833D01*
X199106481Y-138418833D01*
G37*
G36*
X201506481Y-134261911D02*
X200406481Y-136167167D01*
X198847635Y-135267167D01*
X199947635Y-133361911D01*
X201506481Y-134261911D01*
X201506481Y-134261911D01*
G37*
G36*
X204364365Y-135911911D02*
X203264365Y-137817167D01*
X201705519Y-136917167D01*
X202805519Y-135011911D01*
X204364365Y-135911911D01*
X204364365Y-135911911D01*
G37*
D32*
X208787000Y-115557000D03*
X205487000Y-115557000D03*
X205487000Y-110757000D03*
X208787000Y-110757000D03*
X208787000Y-94856000D03*
X205487000Y-94856000D03*
X205487000Y-90056000D03*
X208787000Y-90056000D03*
X208787000Y-76060000D03*
X205487000Y-76060000D03*
X205487000Y-71260000D03*
X208787000Y-71260000D03*
M02*
