M48
;DRILL file {KiCad 4.0.7} date 06/24/18 16:56:52
;FORMAT={3:3/ absolute / metric / suppress leading zeros}
FMAT,2
METRIC,TZ
T1C0.991
T2C1.700
T3C1.900
T4C4.000
T5C5.000
%
G90
G05
M71
T1
X193072Y-46204
X193072Y-53204
X197072Y-46204
X197072Y-53204
T2
X81915Y-57976
X81915Y-77026
X81915Y-96076
X81915Y-115126
X81915Y-134176
X92075Y-57976
X92075Y-77026
X92075Y-96076
X92075Y-115126
X92075Y-134176
X100965Y-57976
X100965Y-77026
X100965Y-96076
X100965Y-115126
X100965Y-134176
X111125Y-57976
X111125Y-77026
X111125Y-96076
X111125Y-115126
X111125Y-134176
X120015Y-53213
X120015Y-72263
X120015Y-91313
X120015Y-110363
X120015Y-129413
X130175Y-53213
X130175Y-72263
X130175Y-91313
X130175Y-110363
X130175Y-129413
X139065Y-50832
X139065Y-69882
X139065Y-88932
X139065Y-107982
X139065Y-127032
X146685Y-129413
X149225Y-50832
X149225Y-69882
X149225Y-88932
X149225Y-107982
X149225Y-127032
X156845Y-129413
X158115Y-53213
X158115Y-72263
X158115Y-91313
X158115Y-110363
X168275Y-53213
X168275Y-72263
X168275Y-91313
X168275Y-110363
X171752Y-138575
X176832Y-129776
X177165Y-55594
X177165Y-74644
X177165Y-93694
X177165Y-112744
X187325Y-55594
X187325Y-74644
X187325Y-93694
X187325Y-112744
X188250Y-148100
X193013Y-139851
X193330Y-139301
X196215Y-65119
X196215Y-84169
X196215Y-103219
X197775Y-131602
X198093Y-131052
X202855Y-122803
X204748Y-157625
X206375Y-65119
X206375Y-84169
X206375Y-103219
X209510Y-149376
X209828Y-148826
X214273Y-141127
X214590Y-140577
X219353Y-132328
T3
X81495Y-57976
X81495Y-77026
X81495Y-96076
X81495Y-115126
X81495Y-134176
X92495Y-57976
X92495Y-77026
X92495Y-96076
X92495Y-115126
X92495Y-134176
X100545Y-57976
X100545Y-77026
X100545Y-96076
X100545Y-115126
X100545Y-134176
X111545Y-57976
X111545Y-77026
X111545Y-96076
X111545Y-115126
X111545Y-134176
X119595Y-53213
X119595Y-72263
X119595Y-91313
X119595Y-110363
X119595Y-129413
X130595Y-53213
X130595Y-72263
X130595Y-91313
X130595Y-110363
X130595Y-129413
X138645Y-50832
X138645Y-69882
X138645Y-88932
X138645Y-107982
X138645Y-127032
X146265Y-129413
X149645Y-50832
X149645Y-69882
X149645Y-88932
X149645Y-107982
X149645Y-127032
X157265Y-129413
X157695Y-53213
X157695Y-72263
X157695Y-91313
X157695Y-110363
X168695Y-53213
X168695Y-72263
X168695Y-91313
X168695Y-110363
X171542Y-138938
X176745Y-55594
X176745Y-74644
X176745Y-93694
X176745Y-112744
X177042Y-129412
X187745Y-55594
X187745Y-74644
X187745Y-93694
X187745Y-112744
X188040Y-148463
X192803Y-140214
X193540Y-138937
X195795Y-65119
X195795Y-84169
X195795Y-103219
X197565Y-131965
X198303Y-130688
X203065Y-122439
X204538Y-157988
X206795Y-65119
X206795Y-84169
X206795Y-103219
X209301Y-149739
X210038Y-148462
X214063Y-141490
X214801Y-140213
X219563Y-131964
T4
X86995Y-57976
X86995Y-77026
X86995Y-96076
X86995Y-115126
X86995Y-134176
X106045Y-57976
X106045Y-77026
X106045Y-96076
X106045Y-115126
X106045Y-134176
X125095Y-53213
X125095Y-72263
X125095Y-91313
X125095Y-110363
X125095Y-129413
X144145Y-50832
X144145Y-69882
X144145Y-88932
X144145Y-107982
X144145Y-127032
X151765Y-129413
X163195Y-53213
X163195Y-72263
X163195Y-91313
X163195Y-110363
X174292Y-134175
X182245Y-55594
X182245Y-74644
X182245Y-93694
X182245Y-112744
X190790Y-143700
X195553Y-135451
X200315Y-127202
X201295Y-65119
X201295Y-84169
X201295Y-103219
X207288Y-153225
X212051Y-144976
X216813Y-136727
T5
X96520Y-67564
X96520Y-124968
X128397Y-42672
X134620Y-81788
X135128Y-117348
X185801Y-124714
X191770Y-65024
T0
M30
