M48
;DRILL file {KiCad (5.0.0)} date 11/09/18 01:30:15
;FORMAT={3:3/ absolute / metric / suppress leading zeros}
FMAT,2
METRIC,TZ
T1C0.400
T2C0.500
T3C0.600
T4C0.762
T5C0.800
T6C0.813
T7C0.991
T8C1.300
T9C1.500
T10C1.513
T11C1.200
T12C1.700
T13C1.900
T14C3.048
T15C3.988
T16C4.000
T17C5.000
%
G90
G05
M71
T1
X79883Y-67183
X79883Y-70739
X79883Y-85979
X79883Y-104140
X79883Y-118999
X80264Y-84836
X80518Y-109474
X80518Y-128397
X80645Y-80010
X80772Y-91059
X81026Y-65913
X81534Y-61595
X81915Y-89789
X82042Y-123317
X82677Y-104648
X83185Y-67183
X83185Y-100076
X83312Y-61722
X83312Y-65786
X83439Y-124206
X84074Y-59436
X91059Y-140843
X92837Y-51308
X93091Y-118110
X93091Y-126873
X93599Y-63119
X93599Y-82169
X93599Y-101219
X95377Y-85344
X95377Y-104013
X96393Y-141097
X97028Y-138303
X97917Y-121793
X98933Y-112903
X99822Y-117983
X99949Y-120269
X101219Y-140716
X103759Y-48387
X107315Y-117964
X110109Y-59690
X112649Y-121666
X113030Y-140716
X117475Y-136779
X118110Y-65532
X118237Y-58420
X118237Y-61468
X118237Y-96393
X118237Y-102743
X118872Y-140589
X119888Y-134493
X120015Y-103886
X121031Y-139954
X121158Y-45085
X121412Y-55880
X121412Y-59944
X121666Y-122428
X123063Y-138303
X128270Y-55880
X128397Y-102616
X131572Y-59944
X133223Y-56769
X134239Y-46609
X135128Y-53340
X135636Y-138430
X138049Y-76200
X138557Y-57277
X138938Y-55880
X139827Y-52451
X140081Y-75057
X140335Y-133858
X140843Y-56261
X140843Y-140716
X141224Y-120015
X142748Y-43053
X143256Y-139954
X144399Y-47752
X145415Y-59182
X145669Y-138303
X147193Y-55626
X148717Y-59182
X149479Y-54610
X151003Y-115189
X153162Y-55880
X153543Y-58420
X153797Y-43180
X155194Y-107442
X155575Y-122555
X157607Y-64389
X157734Y-56896
X157861Y-140208
X157884Y-122682
X159893Y-135001
X162941Y-130429
X162941Y-132207
X162941Y-134220
X163068Y-140589
X163449Y-137541
X166243Y-135871
X167513Y-140589
X167894Y-55880
X168656Y-85725
X168783Y-65151
X168910Y-139065
X169291Y-58420
X170180Y-127254
X170284Y-122682
X172593Y-63500
X172593Y-68834
X172720Y-85344
X173990Y-105029
X174498Y-68834
X175133Y-58166
X175133Y-63881
X175387Y-141097
X176149Y-70485
X176149Y-72898
X176403Y-57912
X176403Y-66802
X176673Y-131972
X178308Y-79140
X178689Y-77343
X178816Y-67691
X180975Y-66802
X182753Y-127127
X184150Y-65913
X184150Y-136271
X185674Y-128524
X186563Y-85344
X186817Y-136271
X187833Y-145415
X188214Y-127762
X188468Y-129451
X188576Y-115443
X188576Y-121920
X188976Y-103505
X189230Y-83947
X189251Y-133115
X189490Y-128656
X189738Y-130937
X190373Y-51308
X192913Y-82804
X194183Y-100457
X194183Y-107442
X194310Y-81661
X194310Y-89281
X198120Y-119507
X198755Y-133477
X199136Y-139827
X200177Y-137287
X200279Y-119634
X201295Y-138557
X201930Y-135001
X202311Y-133731
X203346Y-147319
X203962Y-73660
X205486Y-91948
X205740Y-112395
X205759Y-132715
X206375Y-118618
X206502Y-69088
X206502Y-73660
X206502Y-108966
X207518Y-112776
X207899Y-78486
X207899Y-92202
X208026Y-88138
X208026Y-97409
X208407Y-113792
X208661Y-74041
X208788Y-137776
X212344Y-156464
X213614Y-136906
X221107Y-138684
X162015Y-80518
X164415Y-80518
X152527Y-74062
X152527Y-77322
X192913Y-102158
X192913Y-104558
X133477Y-125730
X133477Y-128990
X142925Y-97282
X145325Y-97282
X173863Y-111146
X173863Y-114406
X104825Y-66294
X107225Y-66294
X173863Y-75840
X173863Y-79100
X162015Y-102235
X164415Y-102235
X177419Y-126619
X180242Y-128249
X123875Y-80645
X126275Y-80645
X114427Y-56282
X114427Y-59542
X173609Y-54377
X173609Y-57637
X190627Y-119888
X190627Y-123148
X95377Y-113374
X95377Y-115774
X116713Y-56282
X116713Y-59542
X183397Y-147672
X185475Y-148872
X200157Y-157251
X202236Y-158451
X104738Y-125857
X107138Y-125857
X161975Y-82931
X164375Y-82931
X97663Y-75459
X97663Y-78719
X190627Y-101748
X190627Y-105008
X123915Y-61595
X126315Y-61595
X116713Y-113432
X116713Y-116692
X95377Y-75909
X95377Y-78309
X190627Y-88159
X190627Y-91419
X114427Y-94382
X114427Y-97642
X104738Y-123444
X107138Y-123444
X133477Y-70633
X133477Y-73893
X193892Y-111379
X196292Y-111379
X104992Y-106807
X107392Y-106807
X111030Y-47159
X113030Y-47159
X115030Y-47159
X95377Y-56732
X95377Y-59132
X111030Y-49318
X113030Y-49318
X115030Y-49318
X181025Y-63881
X183425Y-63881
X97663Y-56282
X97663Y-59542
X116713Y-94382
X116713Y-97642
X142965Y-78232
X145365Y-78232
X114427Y-113411
X114427Y-116671
X155194Y-114009
X155194Y-116409
X133477Y-89958
X133477Y-93218
X152400Y-113988
X152400Y-116388
X133477Y-105939
X133477Y-109199
X180541Y-139506
X182171Y-136683
X204290Y-142173
X205920Y-139350
X192913Y-88609
X192913Y-91009
X192913Y-73623
X192913Y-76023
X173990Y-91842
X173990Y-95102
X123875Y-118745
X126275Y-118745
X171577Y-111146
X171577Y-114406
X95377Y-94832
X95377Y-97232
X171577Y-75861
X171577Y-79121
X123875Y-121031
X126275Y-121031
X116713Y-127910
X116713Y-131170
X181025Y-82931
X183425Y-82931
X181025Y-102108
X183425Y-102108
X123875Y-99695
X126275Y-99695
X171577Y-91863
X171577Y-95123
X104825Y-85344
X107225Y-85344
X152527Y-90424
X152527Y-93684
X104992Y-104394
X107392Y-104394
X97663Y-94382
X97663Y-97642
X114427Y-75459
X114427Y-78719
X116586Y-75459
X116586Y-78719
X193892Y-113665
X196292Y-113665
X181025Y-120396
X183425Y-120396
X161975Y-99695
X164375Y-99695
X136017Y-105918
X136017Y-109178
X142925Y-80645
X145325Y-80645
X114427Y-127910
X114427Y-131170
X190627Y-73173
X190627Y-76433
X143306Y-116332
X145706Y-116332
X143306Y-118745
X145706Y-118745
X97663Y-112924
X97663Y-116184
X216662Y-128524
X218740Y-129724
T2
X117491Y-43688
X119491Y-43688
T4
X174411Y-45720
X176911Y-45720
X179411Y-45720
X141518Y-39624
X146518Y-39624
X93639Y-48133
X96139Y-48133
X98639Y-48133
X160314Y-39624
X165314Y-39624
T5
X101092Y-106807
X111252Y-106807
X95377Y-52832
X95377Y-62992
X177165Y-63881
X187325Y-63881
X97663Y-52832
X97663Y-62992
X116713Y-90932
X116713Y-101092
X139065Y-78232
X149225Y-78232
X114427Y-109961
X114427Y-120121
X155194Y-110109
X155194Y-120269
X133477Y-86508
X133477Y-96668
X152400Y-110088
X152400Y-120248
X133477Y-102489
X133477Y-112649
X178816Y-142494
X183896Y-133695
X202565Y-145161
X207645Y-136362
X192913Y-84709
X192913Y-94869
X192913Y-69723
X192913Y-79883
X173990Y-88392
X173990Y-98552
X120015Y-118745
X130175Y-118745
X171577Y-107696
X171577Y-117856
X95377Y-90932
X95377Y-101092
X171577Y-72411
X171577Y-82571
X102997Y-46609
X113003Y-44845
X120015Y-121031
X130175Y-121031
X116713Y-124460
X116713Y-134620
X177165Y-82931
X187325Y-82931
X177165Y-102108
X187325Y-102108
X120015Y-99695
X130175Y-99695
X171577Y-88413
X171577Y-98573
X100965Y-85344
X111125Y-85344
X152527Y-86974
X152527Y-97134
X101092Y-104394
X111252Y-104394
X97663Y-90932
X97663Y-101092
X133731Y-41148
X133731Y-51308
X114427Y-72009
X114427Y-82169
X116586Y-72009
X116586Y-82169
X189992Y-113665
X200152Y-113665
X177165Y-120396
X187325Y-120396
X158115Y-99695
X168275Y-99695
X136017Y-102468
X136017Y-112628
X139065Y-80645
X149225Y-80645
X114427Y-124460
X114427Y-134620
X190627Y-69723
X190627Y-79883
X139446Y-116332
X149606Y-116332
X139446Y-118745
X149606Y-118745
X97663Y-109474
X97663Y-119634
X213319Y-126594
X222118Y-131674
X158115Y-80518
X168275Y-80518
X152527Y-70612
X152527Y-80772
X192913Y-98298
X192913Y-108458
X133477Y-122280
X133477Y-132440
X139065Y-97282
X149225Y-97282
X173863Y-107696
X173863Y-117856
X100965Y-66294
X111125Y-66294
X173863Y-72390
X173863Y-82550
X158115Y-102235
X168275Y-102235
X174431Y-124894
X183230Y-129974
X120015Y-80645
X130175Y-80645
X114427Y-52832
X114427Y-62992
X173609Y-50927
X173609Y-61087
X190627Y-116438
X190627Y-126598
X95377Y-109474
X95377Y-119634
X116713Y-52832
X116713Y-62992
X180019Y-145722
X188818Y-150802
X196814Y-155321
X205613Y-160401
X100838Y-125857
X110998Y-125857
X158115Y-82931
X168275Y-82931
X97663Y-72009
X97663Y-82169
X190627Y-98298
X190627Y-108458
X120015Y-61595
X130175Y-61595
X116713Y-109982
X116713Y-120142
X95377Y-72009
X95377Y-82169
X190627Y-84709
X190627Y-94869
X114427Y-90932
X114427Y-101092
X100838Y-123444
X110998Y-123444
X133477Y-67183
X133477Y-77343
X189992Y-111379
X200152Y-111379
T6
X155575Y-39370
X155575Y-41910
X155575Y-44450
X155575Y-46990
X155575Y-49530
X155575Y-52070
X155575Y-54610
X155575Y-57150
X155575Y-59690
X155575Y-62230
X155575Y-64770
X155575Y-67310
X170815Y-39370
X170815Y-41910
X170815Y-44450
X170815Y-46990
X170815Y-49530
X170815Y-52070
X170815Y-54610
X170815Y-57150
X170815Y-59690
X170815Y-62230
X170815Y-64770
X170815Y-67310
X136525Y-39370
X136525Y-41910
X136525Y-44450
X136525Y-46990
X136525Y-49530
X136525Y-52070
X136525Y-54610
X136525Y-57150
X136525Y-59690
X136525Y-62230
X136525Y-64770
X136525Y-67310
X151765Y-39370
X151765Y-41910
X151765Y-44450
X151765Y-46990
X151765Y-49530
X151765Y-52070
X151765Y-54610
X151765Y-57150
X151765Y-59690
X151765Y-62230
X151765Y-64770
X151765Y-67310
T7
X200025Y-108299
X202565Y-108299
X200025Y-89249
X202565Y-89249
X161925Y-77343
X164465Y-77343
X178056Y-137815
X179326Y-135615
X200025Y-70199
X202565Y-70199
X180975Y-79724
X183515Y-79724
X104775Y-63055
X107315Y-63055
X211779Y-135287
X213049Y-133087
X161925Y-96393
X164465Y-96393
X123825Y-115443
X126365Y-115443
X142875Y-132112
X145415Y-132112
X104775Y-101156
X107315Y-101156
X215815Y-148616
X217085Y-146416
X123825Y-96393
X126365Y-96393
X104775Y-120206
X107315Y-120206
X123825Y-134493
X126365Y-134493
X202254Y-151785
X203524Y-149585
X85725Y-63055
X88265Y-63055
X123825Y-77343
X126365Y-77343
X180975Y-60674
X183515Y-60674
X85725Y-101156
X88265Y-101156
X85725Y-120206
X88265Y-120206
X104775Y-139256
X107315Y-139256
X123825Y-58293
X126365Y-58293
X185756Y-142260
X187026Y-140060
X85725Y-82106
X88265Y-82106
X142875Y-74962
X145415Y-74962
X161925Y-115443
X164465Y-115443
X161925Y-58420
X164465Y-58420
X195281Y-125762
X196551Y-123562
X180975Y-98774
X183515Y-98774
X142875Y-113062
X145415Y-113062
X150495Y-124333
X153035Y-124333
X142875Y-55912
X145415Y-55912
X142875Y-94012
X145415Y-94012
X104775Y-82106
X107315Y-82106
X180975Y-117824
X183515Y-117824
X85725Y-139256
X88265Y-139256
T8
X140518Y-42124
X147518Y-42124
X159314Y-42124
X166314Y-42124
T9
X197485Y-81629
X205105Y-81629
X83185Y-93536
X90805Y-93536
X140335Y-48292
X147955Y-48292
X178435Y-91154
X186055Y-91154
X140335Y-67342
X147955Y-67342
X207583Y-157795
X211393Y-151196
X178435Y-110204
X186055Y-110204
X159385Y-50673
X167005Y-50673
X102235Y-55436
X109855Y-55436
X178435Y-72104
X186055Y-72104
X207946Y-147006
X211756Y-140407
X102235Y-112586
X109855Y-112586
X197485Y-100679
X205105Y-100679
X121285Y-126873
X128905Y-126873
X102235Y-93536
X109855Y-93536
X159385Y-107823
X167005Y-107823
X83185Y-74486
X90805Y-74486
X159385Y-88773
X167005Y-88773
X217108Y-141297
X220918Y-134698
X178435Y-53054
X186055Y-53054
X191448Y-137481
X195258Y-130882
X121285Y-88773
X128905Y-88773
X200610Y-131772
X204420Y-125173
X102235Y-131636
X109855Y-131636
X102235Y-74486
X109855Y-74486
X159385Y-69723
X167005Y-69723
X83185Y-55436
X90805Y-55436
X191085Y-148270
X194895Y-141671
X197485Y-62579
X205105Y-62579
X121285Y-69723
X128905Y-69723
X140335Y-105442
X147955Y-105442
X140335Y-124492
X147955Y-124492
X121285Y-107823
X128905Y-107823
X83185Y-131636
X90805Y-131636
X121285Y-50673
X128905Y-50673
X140335Y-86392
X147955Y-86392
X83185Y-112586
X90805Y-112586
X147955Y-131953
X155575Y-131953
X170187Y-136205
X173997Y-129606
T11
X193072Y-46204
X193072Y-53204
X197072Y-46204
X197072Y-53204
T12
X146685Y-129413
X156845Y-129413
X171752Y-138575
X176832Y-129776
X196215Y-84169
X206375Y-84169
X81915Y-96076
X92075Y-96076
X139065Y-50832
X149225Y-50832
X177165Y-93694
X187325Y-93694
X139065Y-69882
X149225Y-69882
X204748Y-157625
X209828Y-148826
X177165Y-112744
X187325Y-112744
X158115Y-53213
X168275Y-53213
X100965Y-57976
X111125Y-57976
X177165Y-74644
X187325Y-74644
X209510Y-149376
X214590Y-140577
X100965Y-115126
X111125Y-115126
X196215Y-103219
X206375Y-103219
X120015Y-129413
X130175Y-129413
X100965Y-96076
X111125Y-96076
X158115Y-110363
X168275Y-110363
X81915Y-77026
X92075Y-77026
X158115Y-91313
X168275Y-91313
X214273Y-141127
X219353Y-132328
X177165Y-55594
X187325Y-55594
X193013Y-139851
X198093Y-131052
X120015Y-91313
X130175Y-91313
X197775Y-131602
X202855Y-122803
X100965Y-134176
X111125Y-134176
X100965Y-77026
X111125Y-77026
X158115Y-72263
X168275Y-72263
X81915Y-57976
X92075Y-57976
X188250Y-148100
X193330Y-139301
X196215Y-65119
X206375Y-65119
X120015Y-72263
X130175Y-72263
X139065Y-107982
X149225Y-107982
X139065Y-127032
X149225Y-127032
X120015Y-110363
X130175Y-110363
X81915Y-134176
X92075Y-134176
X120015Y-53213
X130175Y-53213
X139065Y-88932
X149225Y-88932
X81915Y-115126
X92075Y-115126
T13
X195795Y-84169
X206795Y-84169
X81495Y-96076
X92495Y-96076
X138645Y-50832
X149645Y-50832
X176745Y-93694
X187745Y-93694
X138645Y-69882
X149645Y-69882
X204538Y-157988
X210038Y-148462
X176745Y-112744
X187745Y-112744
X157695Y-53213
X168695Y-53213
X100545Y-57976
X111545Y-57976
X176745Y-74644
X187745Y-74644
X209301Y-149739
X214801Y-140213
X100545Y-115126
X111545Y-115126
X195795Y-103219
X206795Y-103219
X119595Y-129413
X130595Y-129413
X100545Y-96076
X111545Y-96076
X157695Y-110363
X168695Y-110363
X81495Y-77026
X92495Y-77026
X157695Y-91313
X168695Y-91313
X214063Y-141490
X219563Y-131964
X176745Y-55594
X187745Y-55594
X192803Y-140214
X198303Y-130688
X119595Y-91313
X130595Y-91313
X197565Y-131965
X203065Y-122439
X100545Y-134176
X111545Y-134176
X100545Y-77026
X111545Y-77026
X157695Y-72263
X168695Y-72263
X81495Y-57976
X92495Y-57976
X188040Y-148463
X193540Y-138937
X195795Y-65119
X206795Y-65119
X119595Y-72263
X130595Y-72263
X138645Y-107982
X149645Y-107982
X138645Y-127032
X149645Y-127032
X119595Y-110363
X130595Y-110363
X81495Y-134176
X92495Y-134176
X119595Y-53213
X130595Y-53213
X138645Y-88932
X149645Y-88932
X81495Y-115126
X92495Y-115126
X146265Y-129413
X157265Y-129413
X171542Y-138938
X177042Y-129412
T14
X212131Y-158807
X224069Y-138130
X195633Y-149282
X207571Y-128605
T15
X198932Y-151187
X210870Y-130510
X182434Y-141662
X194372Y-120985
T16
X151765Y-129413
X174292Y-134175
X201295Y-84169
X86995Y-96076
X144145Y-50832
X182245Y-93694
X144145Y-69882
X207288Y-153225
X182245Y-112744
X163195Y-53213
X106045Y-57976
X182245Y-74644
X212051Y-144976
X106045Y-115126
X201295Y-103219
X125095Y-129413
X106045Y-96076
X163195Y-110363
X86995Y-77026
X163195Y-91313
X216813Y-136727
X182245Y-55594
X195553Y-135451
X125095Y-91313
X200315Y-127202
X106045Y-134176
X106045Y-77026
X163195Y-72263
X86995Y-57976
X190790Y-143700
X201295Y-65119
X125095Y-72263
X144145Y-107982
X144145Y-127032
X125095Y-110363
X86995Y-134176
X125095Y-53213
X144145Y-88932
X86995Y-115126
T17
X135128Y-117348
X185801Y-124714
X191770Y-65024
X128397Y-42672
X134620Y-81788
X96520Y-67564
X96520Y-124968
T3
X191072Y-56054G85X191072Y-56954
G05
X195072Y-47554G85X195072Y-48454
G05
X195072Y-50554G85X195072Y-51454
G05
X195072Y-54554G85X195072Y-55454
G05
X199072Y-56054G85X199072Y-56954
G05
T10
X210374Y-157917G85X209476Y-157398
G05
X212894Y-153552G85X211996Y-153034
G05
X179725Y-108763G85X179725Y-107726
G05
X184765Y-108763G85X184765Y-107726
G05
X160675Y-48195G85X160675Y-49232
G05
X165715Y-48195G85X165715Y-49232
G05
X103525Y-52957G85X103525Y-53994
G05
X108565Y-52957G85X108565Y-53994
G05
X179725Y-70663G85X179725Y-69626
G05
X184765Y-70663G85X184765Y-69626
G05
X206444Y-144649G85X207342Y-145168
G05
X208964Y-140285G85X209862Y-140803
G05
X103525Y-110107G85X103525Y-111144
G05
X108565Y-110107G85X108565Y-111144
G05
X198775Y-98201G85X198775Y-99238
G05
X203815Y-98201G85X203815Y-99238
G05
X122575Y-125432G85X122575Y-124394
G05
X127615Y-125432G85X127615Y-124394
G05
X103525Y-91057G85X103525Y-92094
G05
X108565Y-91057G85X108565Y-92094
G05
X160675Y-105344G85X160675Y-106381
G05
X165715Y-105344G85X165715Y-106381
G05
X84475Y-73044G85X84475Y-72007
G05
X89515Y-73044G85X89515Y-72007
G05
X160675Y-86294G85X160675Y-87332
G05
X165715Y-86294G85X165715Y-87332
G05
X219899Y-141419G85X219001Y-140900
G05
X222419Y-137054G85X221521Y-136536
G05
X179725Y-50576G85X179725Y-51613
G05
X184765Y-50576G85X184765Y-51613
G05
X189946Y-135124G85X190844Y-135643
G05
X192466Y-130760G85X193364Y-131278
G05
X122575Y-87332G85X122575Y-86294
G05
X127615Y-87332G85X127615Y-86294
G05
X203401Y-131894G85X202503Y-131375
G05
X205921Y-127529G85X205023Y-127011
G05
X103525Y-129157G85X103525Y-130194
G05
X108565Y-129157G85X108565Y-130194
G05
X103525Y-72007G85X103525Y-73044
G05
X108565Y-72007G85X108565Y-73044
G05
X160675Y-67245G85X160675Y-68282
G05
X165715Y-67245G85X165715Y-68282
G05
X84475Y-53994G85X84475Y-52957
G05
X89515Y-53994G85X89515Y-52957
G05
X193876Y-148392G85X192978Y-147873
G05
X196396Y-144027G85X195498Y-143509
G05
X198775Y-60101G85X198775Y-61138
G05
X203815Y-60101G85X203815Y-61138
G05
X122575Y-68282G85X122575Y-67245
G05
X127615Y-68282G85X127615Y-67245
G05
X141625Y-102963G85X141625Y-104000
G05
X146665Y-102963G85X146665Y-104000
G05
X141625Y-123050G85X141625Y-122013
G05
X146665Y-123050G85X146665Y-122013
G05
X122575Y-105344G85X122575Y-106381
G05
X127615Y-105344G85X127615Y-106381
G05
X84475Y-130194G85X84475Y-129157
G05
X89515Y-130194G85X89515Y-129157
G05
X122575Y-49232G85X122575Y-48195
G05
X127615Y-49232G85X127615Y-48195
G05
X141625Y-83913G85X141625Y-84950
G05
X146665Y-83913G85X146665Y-84950
G05
X84475Y-111144G85X84475Y-110107
G05
X89515Y-111144G85X89515Y-110107
G05
X149245Y-134432G85X149245Y-133395
G05
X154285Y-134432G85X154285Y-133395
G05
X168686Y-133848G85X169584Y-134367
G05
X171206Y-129484G85X172104Y-130002
G05
X198775Y-79151G85X198775Y-80188
G05
X203815Y-79151G85X203815Y-80188
G05
X84475Y-92094G85X84475Y-91057
G05
X89515Y-92094G85X89515Y-91057
G05
X141625Y-45813G85X141625Y-46850
G05
X146665Y-45813G85X146665Y-46850
G05
X179725Y-89713G85X179725Y-88676
G05
X184765Y-89713G85X184765Y-88676
G05
X141625Y-64863G85X141625Y-65900
G05
X146665Y-64863G85X146665Y-65900
G05
T0
M30
