G04 #@! TF.GenerationSoftware,KiCad,Pcbnew,(5.0.0)*
G04 #@! TF.CreationDate,2018-11-09T01:29:58+09:00*
G04 #@! TF.ProjectId,ergodash,6572676F646173682E6B696361645F70,2.0*
G04 #@! TF.SameCoordinates,Original*
G04 #@! TF.FileFunction,Profile,NP*
%FSLAX46Y46*%
G04 Gerber Fmt 4.6, Leading zero omitted, Abs format (unit mm)*
G04 Created by KiCad (PCBNEW (5.0.0)) date 11/09/18 01:29:58*
%MOMM*%
%LPD*%
G01*
G04 APERTURE LIST*
%ADD10C,0.150000*%
G04 APERTURE END LIST*
D10*
X198501000Y-149352000D02*
X195453000Y-154559000D01*
X199771000Y-147193000D02*
X207899000Y-132842000D01*
X198882000Y-146685000D02*
X199771000Y-147193000D01*
X198882000Y-146685000D02*
X207010000Y-132334000D01*
X207010000Y-132334000D02*
X207899000Y-132842000D01*
X194945000Y-153543000D02*
X197612000Y-148844000D01*
X212090000Y-125603000D02*
X209296000Y-130429000D01*
X208407000Y-129921000D02*
X209296000Y-130429000D01*
X197612000Y-148844000D02*
X198501000Y-149352000D01*
X214249000Y-125222000D02*
X227457000Y-132842000D01*
X211074000Y-163957000D02*
X227838000Y-135001000D01*
X214249000Y-125222000D02*
G75*
G03X212090000Y-125603000I-889000J-1270000D01*
G01*
X227838000Y-135001000D02*
G75*
G03X227457000Y-132842000I-1270000J889000D01*
G01*
X195961000Y-156591000D02*
X209042000Y-164211000D01*
X209042000Y-164211000D02*
G75*
G03X211074000Y-163957000I889000J1143000D01*
G01*
X195453000Y-154559000D02*
G75*
G03X195961000Y-156591000I1270000J-762000D01*
G01*
X192024000Y-154432000D02*
G75*
G03X194945000Y-153543000I1016000J1905000D01*
G01*
X172212000Y-143002000D02*
X192024000Y-154432000D01*
X210312000Y-126619000D02*
X208407000Y-129921000D01*
X210312000Y-122174000D02*
X210312000Y-126619000D01*
X172212000Y-37084000D02*
X187706000Y-46990000D01*
X163576000Y-37084000D02*
X172212000Y-37084000D01*
X79644666Y-143256000D02*
G75*
G03X79644666Y-143256000I-1666666J0D01*
G01*
X75478000Y-143256000D02*
X80478000Y-143256000D01*
X77978000Y-140756000D02*
X77978000Y-145756000D01*
X210312000Y-110236000D02*
X210312000Y-122174000D01*
X203708000Y-56642000D02*
X208026000Y-56642000D01*
X201422000Y-46990000D02*
X201422000Y-54356000D01*
X210312000Y-58928000D02*
X210312000Y-110236000D01*
X210312000Y-58928000D02*
G75*
G03X208026000Y-56642000I-2286000J0D01*
G01*
X201422000Y-54356000D02*
G75*
G03X203708000Y-56642000I2286000J0D01*
G01*
X191262000Y-44704000D02*
X199136000Y-44704000D01*
X188976000Y-46990000D02*
X187706000Y-46990000D01*
X201422000Y-46990000D02*
G75*
G03X199136000Y-44704000I-2286000J0D01*
G01*
X78232000Y-140716000D02*
X78232000Y-50546000D01*
X80518000Y-143002000D02*
X114808000Y-143002000D01*
X78232000Y-140716000D02*
G75*
G03X80518000Y-143002000I2286000J0D01*
G01*
X191262000Y-44704000D02*
G75*
G03X188976000Y-46990000I0J-2286000D01*
G01*
X80518000Y-48260000D02*
G75*
G03X78232000Y-50546000I0J-2286000D01*
G01*
X134620000Y-37084000D02*
X163576000Y-37084000D01*
X134620000Y-37084000D02*
X80518000Y-48260000D01*
X114808000Y-143002000D02*
X172212000Y-143002000D01*
M02*
