G04 #@! TF.GenerationSoftware,KiCad,Pcbnew,(5.0.0)*
G04 #@! TF.CreationDate,2018-11-09T01:29:58+09:00*
G04 #@! TF.ProjectId,ergodash,6572676F646173682E6B696361645F70,2.0*
G04 #@! TF.SameCoordinates,Original*
G04 #@! TF.FileFunction,Soldermask,Bot*
G04 #@! TF.FilePolarity,Negative*
%FSLAX46Y46*%
G04 Gerber Fmt 4.6, Leading zero omitted, Abs format (unit mm)*
G04 Created by KiCad (PCBNEW (5.0.0)) date 11/09/18 01:29:58*
%MOMM*%
%LPD*%
G01*
G04 APERTURE LIST*
%ADD10R,1.600000X1.800000*%
%ADD11C,2.000000*%
%ADD12O,2.000000X2.000000*%
%ADD13C,1.600000*%
%ADD14C,0.100000*%
%ADD15C,2.000000*%
%ADD16R,1.800000X1.600000*%
%ADD17C,1.610000*%
%ADD18O,1.700000X2.600000*%
%ADD19C,4.400000*%
%ADD20C,2.300000*%
%ADD21C,2.800000*%
%ADD22C,2.800000*%
%ADD23O,2.700000X3.737000*%
%ADD24C,2.100000*%
%ADD25C,4.387800*%
%ADD26C,3.448000*%
%ADD27C,2.700000*%
%ADD28C,2.700000*%
%ADD29R,2.800000X4.400000*%
%ADD30C,2.200000*%
%ADD31C,1.924000*%
%ADD32C,5.400000*%
%ADD33R,1.924000X1.924000*%
%ADD34C,2.305000*%
%ADD35R,2.305000X2.305000*%
%ADD36R,1.300000X1.200000*%
%ADD37R,1.600000X2.000000*%
%ADD38R,2.000000X2.000000*%
%ADD39R,1.800000X2.200000*%
%ADD40R,2.200000X1.800000*%
%ADD41C,1.800000*%
G04 APERTURE END LIST*
D10*
G04 #@! TO.C,R40*
X155194000Y-116409000D03*
D11*
X155194000Y-110109000D03*
D12*
X155194000Y-120269000D03*
D10*
X155194000Y-114009000D03*
G04 #@! TD*
G04 #@! TO.C,R25*
X192913000Y-102158000D03*
D11*
X192913000Y-108458000D03*
D12*
X192913000Y-98298000D03*
D10*
X192913000Y-104558000D03*
G04 #@! TD*
D13*
G04 #@! TO.C,R37*
X216662000Y-128524000D03*
D14*
G36*
X217841423Y-128281180D02*
X217041423Y-129666820D01*
X215482577Y-128766820D01*
X216282577Y-127381180D01*
X217841423Y-128281180D01*
X217841423Y-128281180D01*
G37*
D11*
X222117960Y-131674000D03*
X213319142Y-126594000D03*
D15*
X213319142Y-126594000D02*
X213319142Y-126594000D01*
D13*
X218740461Y-129724000D03*
D14*
G36*
X219919884Y-129481180D02*
X219119884Y-130866820D01*
X217561038Y-129966820D01*
X218361038Y-128581180D01*
X219919884Y-129481180D01*
X219919884Y-129481180D01*
G37*
G04 #@! TD*
D10*
G04 #@! TO.C,R13*
X152400000Y-116388000D03*
D11*
X152400000Y-110088000D03*
D12*
X152400000Y-120248000D03*
D10*
X152400000Y-113988000D03*
G04 #@! TD*
G04 #@! TO.C,R3*
X95377000Y-59132000D03*
D11*
X95377000Y-52832000D03*
D12*
X95377000Y-62992000D03*
D10*
X95377000Y-56732000D03*
G04 #@! TD*
D16*
G04 #@! TO.C,R4*
X104825000Y-66294000D03*
D11*
X111125000Y-66294000D03*
D12*
X100965000Y-66294000D03*
D16*
X107225000Y-66294000D03*
G04 #@! TD*
G04 #@! TO.C,R5*
X126315000Y-61595000D03*
D11*
X120015000Y-61595000D03*
D12*
X130175000Y-61595000D03*
D16*
X123915000Y-61595000D03*
G04 #@! TD*
G04 #@! TO.C,R6*
X145365000Y-78232000D03*
D11*
X139065000Y-78232000D03*
D12*
X149225000Y-78232000D03*
D16*
X142965000Y-78232000D03*
G04 #@! TD*
G04 #@! TO.C,R7*
X164415000Y-80518000D03*
D11*
X158115000Y-80518000D03*
D12*
X168275000Y-80518000D03*
D16*
X162015000Y-80518000D03*
G04 #@! TD*
G04 #@! TO.C,R8*
X181025000Y-63881000D03*
D11*
X187325000Y-63881000D03*
D12*
X177165000Y-63881000D03*
D16*
X183425000Y-63881000D03*
G04 #@! TD*
D10*
G04 #@! TO.C,R9*
X192913000Y-76023000D03*
D11*
X192913000Y-69723000D03*
D12*
X192913000Y-79883000D03*
D10*
X192913000Y-73623000D03*
G04 #@! TD*
G04 #@! TO.C,R10*
X95377000Y-78309000D03*
D11*
X95377000Y-72009000D03*
D12*
X95377000Y-82169000D03*
D10*
X95377000Y-75909000D03*
G04 #@! TD*
D16*
G04 #@! TO.C,R11*
X104825000Y-85344000D03*
D11*
X111125000Y-85344000D03*
D12*
X100965000Y-85344000D03*
D16*
X107225000Y-85344000D03*
G04 #@! TD*
G04 #@! TO.C,R12*
X123875000Y-80645000D03*
D11*
X130175000Y-80645000D03*
D12*
X120015000Y-80645000D03*
D16*
X126275000Y-80645000D03*
G04 #@! TD*
G04 #@! TO.C,R15*
X142925000Y-80645000D03*
D11*
X149225000Y-80645000D03*
D12*
X139065000Y-80645000D03*
D16*
X145325000Y-80645000D03*
G04 #@! TD*
G04 #@! TO.C,R16*
X161975000Y-82931000D03*
D11*
X168275000Y-82931000D03*
D12*
X158115000Y-82931000D03*
D16*
X164375000Y-82931000D03*
G04 #@! TD*
G04 #@! TO.C,R17*
X181025000Y-82931000D03*
D11*
X187325000Y-82931000D03*
D12*
X177165000Y-82931000D03*
D16*
X183425000Y-82931000D03*
G04 #@! TD*
D10*
G04 #@! TO.C,R18*
X192913000Y-91009000D03*
D11*
X192913000Y-84709000D03*
D12*
X192913000Y-94869000D03*
D10*
X192913000Y-88609000D03*
G04 #@! TD*
G04 #@! TO.C,R19*
X95377000Y-97232000D03*
D11*
X95377000Y-90932000D03*
D12*
X95377000Y-101092000D03*
D10*
X95377000Y-94832000D03*
G04 #@! TD*
D16*
G04 #@! TO.C,R20*
X107392000Y-104394000D03*
D11*
X101092000Y-104394000D03*
D12*
X111252000Y-104394000D03*
D16*
X104992000Y-104394000D03*
G04 #@! TD*
G04 #@! TO.C,R21*
X123875000Y-99695000D03*
D11*
X130175000Y-99695000D03*
D12*
X120015000Y-99695000D03*
D16*
X126275000Y-99695000D03*
G04 #@! TD*
G04 #@! TO.C,R22*
X142925000Y-97282000D03*
D11*
X149225000Y-97282000D03*
D12*
X139065000Y-97282000D03*
D16*
X145325000Y-97282000D03*
G04 #@! TD*
G04 #@! TO.C,R23*
X161975000Y-99695000D03*
D11*
X168275000Y-99695000D03*
D12*
X158115000Y-99695000D03*
D16*
X164375000Y-99695000D03*
G04 #@! TD*
G04 #@! TO.C,R24*
X181025000Y-102108000D03*
D11*
X187325000Y-102108000D03*
D12*
X177165000Y-102108000D03*
D16*
X183425000Y-102108000D03*
G04 #@! TD*
G04 #@! TO.C,R26*
X107392000Y-106807000D03*
D11*
X101092000Y-106807000D03*
D12*
X111252000Y-106807000D03*
D16*
X104992000Y-106807000D03*
G04 #@! TD*
D10*
G04 #@! TO.C,R27*
X95377000Y-115774000D03*
D11*
X95377000Y-109474000D03*
D12*
X95377000Y-119634000D03*
D10*
X95377000Y-113374000D03*
G04 #@! TD*
D16*
G04 #@! TO.C,R28*
X123875000Y-118745000D03*
D11*
X130175000Y-118745000D03*
D12*
X120015000Y-118745000D03*
D16*
X126275000Y-118745000D03*
G04 #@! TD*
G04 #@! TO.C,R29*
X143306000Y-116332000D03*
D11*
X149606000Y-116332000D03*
D12*
X139446000Y-116332000D03*
D16*
X145706000Y-116332000D03*
G04 #@! TD*
G04 #@! TO.C,R30*
X164415000Y-102235000D03*
D11*
X158115000Y-102235000D03*
D12*
X168275000Y-102235000D03*
D16*
X162015000Y-102235000D03*
G04 #@! TD*
G04 #@! TO.C,R31*
X181025000Y-120396000D03*
D11*
X187325000Y-120396000D03*
D12*
X177165000Y-120396000D03*
D16*
X183425000Y-120396000D03*
G04 #@! TD*
D13*
G04 #@! TO.C,R32*
X185475172Y-148872000D03*
D14*
G36*
X184295749Y-149114820D02*
X185095749Y-147729180D01*
X186654595Y-148629180D01*
X185854595Y-150014820D01*
X184295749Y-149114820D01*
X184295749Y-149114820D01*
G37*
D11*
X180019212Y-145722000D03*
X188818030Y-150802000D03*
D15*
X188818030Y-150802000D02*
X188818030Y-150802000D01*
D13*
X183396711Y-147672000D03*
D14*
G36*
X182217288Y-147914820D02*
X183017288Y-146529180D01*
X184576134Y-147429180D01*
X183776134Y-148814820D01*
X182217288Y-147914820D01*
X182217288Y-147914820D01*
G37*
G04 #@! TD*
D16*
G04 #@! TO.C,R33*
X107138000Y-123444000D03*
D11*
X100838000Y-123444000D03*
D12*
X110998000Y-123444000D03*
D16*
X104738000Y-123444000D03*
G04 #@! TD*
G04 #@! TO.C,R34*
X107138000Y-125857000D03*
D11*
X100838000Y-125857000D03*
D12*
X110998000Y-125857000D03*
D16*
X104738000Y-125857000D03*
G04 #@! TD*
G04 #@! TO.C,R35*
X123875000Y-121031000D03*
D11*
X130175000Y-121031000D03*
D12*
X120015000Y-121031000D03*
D16*
X126275000Y-121031000D03*
G04 #@! TD*
G04 #@! TO.C,R36*
X143306000Y-118745000D03*
D11*
X149606000Y-118745000D03*
D12*
X139446000Y-118745000D03*
D16*
X145706000Y-118745000D03*
G04 #@! TD*
G04 #@! TO.C,R14*
X196292000Y-111379000D03*
D11*
X189992000Y-111379000D03*
D12*
X200152000Y-111379000D03*
D16*
X193892000Y-111379000D03*
G04 #@! TD*
G04 #@! TO.C,R38*
X196292000Y-113665000D03*
D11*
X189992000Y-113665000D03*
D12*
X200152000Y-113665000D03*
D16*
X193892000Y-113665000D03*
G04 #@! TD*
D13*
G04 #@! TO.C,R39*
X200157040Y-157251000D03*
D14*
G36*
X201336463Y-157008180D02*
X200536463Y-158393820D01*
X198977617Y-157493820D01*
X199777617Y-156108180D01*
X201336463Y-157008180D01*
X201336463Y-157008180D01*
G37*
D11*
X205613000Y-160401000D03*
X196814182Y-155321000D03*
D15*
X196814182Y-155321000D02*
X196814182Y-155321000D01*
D13*
X202235501Y-158451000D03*
D14*
G36*
X203414924Y-158208180D02*
X202614924Y-159593820D01*
X201056078Y-158693820D01*
X201856078Y-157308180D01*
X203414924Y-158208180D01*
X203414924Y-158208180D01*
G37*
G04 #@! TD*
D17*
G04 #@! TO.C,J1*
X197072000Y-53204000D03*
X193072000Y-53204000D03*
D18*
X195072000Y-48004000D03*
X199072000Y-56504000D03*
X195072000Y-55004000D03*
X191072000Y-56504000D03*
X195072000Y-51004000D03*
D17*
X193072000Y-46204000D03*
X197072000Y-46204000D03*
G04 #@! TD*
D19*
G04 #@! TO.C,SW8*
X106045000Y-115125500D03*
D20*
X100545000Y-115125500D03*
X111545000Y-115125500D03*
D21*
X102684951Y-112049269D03*
D22*
X102106442Y-112738709D02*
X103263460Y-111359829D01*
D21*
X109405049Y-112049269D03*
D22*
X108826540Y-111359829D02*
X109983558Y-112738709D01*
D23*
X108565000Y-110625500D03*
X103525000Y-110625500D03*
D24*
X111125000Y-115125500D03*
X100965000Y-115125500D03*
G04 #@! TD*
D25*
G04 #@! TO.C,*
X198932460Y-151187411D03*
X210870460Y-130510189D03*
D26*
X212130687Y-158807411D03*
X224068687Y-138130189D03*
G04 #@! TD*
D25*
G04 #@! TO.C,*
X182434460Y-141662361D03*
X194372460Y-120985139D03*
D26*
X195632687Y-149282361D03*
X207570687Y-128605139D03*
G04 #@! TD*
D12*
G04 #@! TO.C,R2*
X133731000Y-51308000D03*
D11*
X133731000Y-41148000D03*
G04 #@! TD*
G04 #@! TO.C,R1*
X113002647Y-44844735D03*
D15*
X113002647Y-44844735D02*
X113002647Y-44844735D01*
D11*
X102997000Y-46609000D03*
G04 #@! TD*
D19*
G04 #@! TO.C,SW34*
X174292000Y-134175250D03*
D20*
X171542000Y-138938390D03*
X177042000Y-129412110D03*
D21*
X169947881Y-135547022D03*
D22*
X170255699Y-136392745D02*
X169640063Y-134701299D01*
D21*
X173307930Y-129727247D03*
D22*
X172421603Y-129883530D02*
X174194257Y-129570964D01*
D27*
X171654886Y-129742866D03*
D28*
X171205852Y-129483616D02*
X172103920Y-130002116D01*
D27*
X169134886Y-134107634D03*
D28*
X168685852Y-133848384D02*
X169583920Y-134366884D01*
D24*
X176832000Y-129775841D03*
X171752000Y-138574659D03*
G04 #@! TD*
D19*
G04 #@! TO.C,SW38*
X151765000Y-129413000D03*
D20*
X157265000Y-129413000D03*
X146265000Y-129413000D03*
D21*
X155125049Y-132489231D03*
D22*
X155703558Y-131799791D02*
X154546540Y-133178671D01*
D21*
X148404951Y-132489231D03*
D22*
X148983460Y-133178671D02*
X147826442Y-131799791D01*
D23*
X149245000Y-133913000D03*
X154285000Y-133913000D03*
D24*
X146685000Y-129413000D03*
X156845000Y-129413000D03*
G04 #@! TD*
D29*
G04 #@! TO.C,M1*
X170284000Y-122682000D03*
X157884000Y-122682000D03*
G04 #@! TD*
D30*
G04 #@! TO.C,SW29*
X166314000Y-42124000D03*
X159314000Y-42124000D03*
D31*
X165314000Y-39624000D03*
X160314000Y-39624000D03*
G04 #@! TD*
D30*
G04 #@! TO.C,SW37*
X140518000Y-42124000D03*
X147518000Y-42124000D03*
D31*
X141518000Y-39624000D03*
X146518000Y-39624000D03*
G04 #@! TD*
D19*
G04 #@! TO.C,SW33*
X144145000Y-127031750D03*
D20*
X149645000Y-127031750D03*
X138645000Y-127031750D03*
D21*
X147505049Y-123955519D03*
D22*
X148083558Y-124644959D02*
X146926540Y-123266079D01*
D21*
X140784951Y-123955519D03*
D22*
X141363460Y-123266079D02*
X140206442Y-124644959D01*
D23*
X141625000Y-122531750D03*
X146665000Y-122531750D03*
D24*
X139065000Y-127031750D03*
X149225000Y-127031750D03*
G04 #@! TD*
D19*
G04 #@! TO.C,SW12*
X125095000Y-110363000D03*
D20*
X119595000Y-110363000D03*
X130595000Y-110363000D03*
D21*
X121734951Y-107286769D03*
D22*
X121156442Y-107976209D02*
X122313460Y-106597329D01*
D21*
X128455049Y-107286769D03*
D22*
X127876540Y-106597329D02*
X129033558Y-107976209D01*
D23*
X127615000Y-105863000D03*
X122575000Y-105863000D03*
D24*
X130175000Y-110363000D03*
X120015000Y-110363000D03*
G04 #@! TD*
D19*
G04 #@! TO.C,SW11*
X125095000Y-91313000D03*
D20*
X130595000Y-91313000D03*
X119595000Y-91313000D03*
D21*
X128455049Y-88236769D03*
D22*
X129033558Y-88926209D02*
X127876540Y-87547329D01*
D21*
X121734951Y-88236769D03*
D22*
X122313460Y-87547329D02*
X121156442Y-88926209D01*
D23*
X122575000Y-86813000D03*
X127615000Y-86813000D03*
D24*
X120015000Y-91313000D03*
X130175000Y-91313000D03*
G04 #@! TD*
D19*
G04 #@! TO.C,SW4*
X86995000Y-115125500D03*
D20*
X92495000Y-115125500D03*
X81495000Y-115125500D03*
D21*
X90355049Y-112049269D03*
D22*
X90933558Y-112738709D02*
X89776540Y-111359829D01*
D21*
X83634951Y-112049269D03*
D22*
X84213460Y-111359829D02*
X83056442Y-112738709D01*
D23*
X84475000Y-110625500D03*
X89515000Y-110625500D03*
D24*
X81915000Y-115125500D03*
X92075000Y-115125500D03*
G04 #@! TD*
D19*
G04 #@! TO.C,SW1*
X86995000Y-57975500D03*
D20*
X92495000Y-57975500D03*
X81495000Y-57975500D03*
D21*
X90355049Y-54899269D03*
D22*
X90933558Y-55588709D02*
X89776540Y-54209829D01*
D21*
X83634951Y-54899269D03*
D22*
X84213460Y-54209829D02*
X83056442Y-55588709D01*
D23*
X84475000Y-53475500D03*
X89515000Y-53475500D03*
D24*
X81915000Y-57975500D03*
X92075000Y-57975500D03*
G04 #@! TD*
D19*
G04 #@! TO.C,SW21*
X182245000Y-55594250D03*
D20*
X176745000Y-55594250D03*
X187745000Y-55594250D03*
D21*
X178884951Y-52518019D03*
D22*
X178306442Y-53207459D02*
X179463460Y-51828579D01*
D21*
X185605049Y-52518019D03*
D22*
X185026540Y-51828579D02*
X186183558Y-53207459D01*
D23*
X184765000Y-51094250D03*
X179725000Y-51094250D03*
D24*
X187325000Y-55594250D03*
X177165000Y-55594250D03*
G04 #@! TD*
D31*
G04 #@! TO.C,U6*
X170815000Y-39370000D03*
X170815000Y-41910000D03*
X170815000Y-44450000D03*
X170815000Y-46990000D03*
X170815000Y-49530000D03*
X170815000Y-52070000D03*
X170815000Y-54610000D03*
X170815000Y-57150000D03*
X170815000Y-59690000D03*
X170815000Y-62230000D03*
X170815000Y-64770000D03*
X170815000Y-67310000D03*
X155575000Y-67310000D03*
X155575000Y-64770000D03*
X155575000Y-62230000D03*
X155575000Y-59690000D03*
X155575000Y-57150000D03*
X155575000Y-54610000D03*
X155575000Y-52070000D03*
X155575000Y-49530000D03*
X155575000Y-46990000D03*
X155575000Y-44450000D03*
X155575000Y-41910000D03*
X155575000Y-39370000D03*
G04 #@! TD*
D32*
G04 #@! TO.C,U1*
X134620000Y-81788000D03*
G04 #@! TD*
G04 #@! TO.C,U2*
X191770000Y-65024000D03*
G04 #@! TD*
G04 #@! TO.C,U4*
X185801000Y-124714000D03*
G04 #@! TD*
G04 #@! TO.C,U5*
X96520000Y-67564000D03*
G04 #@! TD*
G04 #@! TO.C,U7*
X96520000Y-124968000D03*
G04 #@! TD*
D33*
G04 #@! TO.C,W1*
X119491000Y-43688000D03*
X117491000Y-43688000D03*
G04 #@! TD*
D31*
G04 #@! TO.C,J2*
X96139000Y-48133000D03*
X93639000Y-48133000D03*
X98639000Y-48133000D03*
G04 #@! TD*
G04 #@! TO.C,J3*
X176911000Y-45720000D03*
X174411000Y-45720000D03*
X179411000Y-45720000D03*
G04 #@! TD*
D32*
G04 #@! TO.C,U8*
X135128000Y-117348000D03*
G04 #@! TD*
G04 #@! TO.C,U9*
X128397000Y-42672000D03*
G04 #@! TD*
D34*
G04 #@! TO.C,D35*
X85725000Y-63055500D03*
D35*
X88265000Y-63055500D03*
G04 #@! TD*
D34*
G04 #@! TO.C,D36*
X104775000Y-63055500D03*
D35*
X107315000Y-63055500D03*
G04 #@! TD*
D34*
G04 #@! TO.C,D37*
X123825000Y-58293000D03*
D35*
X126365000Y-58293000D03*
G04 #@! TD*
D34*
G04 #@! TO.C,D38*
X142875000Y-55911750D03*
D35*
X145415000Y-55911750D03*
G04 #@! TD*
D34*
G04 #@! TO.C,D39*
X161925000Y-58420000D03*
D35*
X164465000Y-58420000D03*
G04 #@! TD*
D34*
G04 #@! TO.C,D40*
X180975000Y-60674250D03*
D35*
X183515000Y-60674250D03*
G04 #@! TD*
D34*
G04 #@! TO.C,D41*
X200025000Y-70199250D03*
D35*
X202565000Y-70199250D03*
G04 #@! TD*
D34*
G04 #@! TO.C,D42*
X85725000Y-82105500D03*
D35*
X88265000Y-82105500D03*
G04 #@! TD*
D34*
G04 #@! TO.C,D43*
X104775000Y-82105500D03*
D35*
X107315000Y-82105500D03*
G04 #@! TD*
D34*
G04 #@! TO.C,D44*
X123825000Y-77343000D03*
D35*
X126365000Y-77343000D03*
G04 #@! TD*
D34*
G04 #@! TO.C,D45*
X142875000Y-74961750D03*
D35*
X145415000Y-74961750D03*
G04 #@! TD*
D34*
G04 #@! TO.C,D46*
X161925000Y-77343000D03*
D35*
X164465000Y-77343000D03*
G04 #@! TD*
D34*
G04 #@! TO.C,D47*
X180975000Y-79724250D03*
D35*
X183515000Y-79724250D03*
G04 #@! TD*
D34*
G04 #@! TO.C,D48*
X200025000Y-89249250D03*
D35*
X202565000Y-89249250D03*
G04 #@! TD*
D34*
G04 #@! TO.C,D49*
X85725000Y-101155500D03*
D35*
X88265000Y-101155500D03*
G04 #@! TD*
D34*
G04 #@! TO.C,D50*
X104775000Y-101155500D03*
D35*
X107315000Y-101155500D03*
G04 #@! TD*
D34*
G04 #@! TO.C,D51*
X123825000Y-96393000D03*
D35*
X126365000Y-96393000D03*
G04 #@! TD*
D34*
G04 #@! TO.C,D52*
X142875000Y-94011750D03*
D35*
X145415000Y-94011750D03*
G04 #@! TD*
D34*
G04 #@! TO.C,D53*
X161925000Y-96393000D03*
D35*
X164465000Y-96393000D03*
G04 #@! TD*
D34*
G04 #@! TO.C,D54*
X180975000Y-98774250D03*
D35*
X183515000Y-98774250D03*
G04 #@! TD*
D34*
G04 #@! TO.C,D55*
X200025000Y-108299250D03*
D35*
X202565000Y-108299250D03*
G04 #@! TD*
D34*
G04 #@! TO.C,D56*
X85725000Y-120205500D03*
D35*
X88265000Y-120205500D03*
G04 #@! TD*
D34*
G04 #@! TO.C,D57*
X104775000Y-120205500D03*
D35*
X107315000Y-120205500D03*
G04 #@! TD*
D34*
G04 #@! TO.C,D58*
X123825000Y-115443000D03*
D35*
X126365000Y-115443000D03*
G04 #@! TD*
D34*
G04 #@! TO.C,D59*
X142875000Y-113061750D03*
D35*
X145415000Y-113061750D03*
G04 #@! TD*
D34*
G04 #@! TO.C,D60*
X161925000Y-115443000D03*
D35*
X164465000Y-115443000D03*
G04 #@! TD*
D34*
G04 #@! TO.C,D61*
X180975000Y-117824250D03*
D35*
X183515000Y-117824250D03*
G04 #@! TD*
D34*
G04 #@! TO.C,D62*
X178056409Y-137815102D03*
X179326409Y-135615398D03*
D14*
G36*
X179748253Y-137189742D02*
X177752065Y-136037242D01*
X178904565Y-134041054D01*
X180900753Y-135193554D01*
X179748253Y-137189742D01*
X179748253Y-137189742D01*
G37*
G04 #@! TD*
D34*
G04 #@! TO.C,D63*
X85725000Y-139255500D03*
D35*
X88265000Y-139255500D03*
G04 #@! TD*
D34*
G04 #@! TO.C,D64*
X104775000Y-139255500D03*
D35*
X107315000Y-139255500D03*
G04 #@! TD*
D34*
G04 #@! TO.C,D65*
X123825000Y-134493000D03*
D35*
X126365000Y-134493000D03*
G04 #@! TD*
D34*
G04 #@! TO.C,D66*
X142875000Y-132111750D03*
D35*
X145415000Y-132111750D03*
G04 #@! TD*
D31*
G04 #@! TO.C,U3*
X136525000Y-39370000D03*
X136525000Y-41910000D03*
X136525000Y-44450000D03*
X136525000Y-46990000D03*
X136525000Y-49530000D03*
X136525000Y-52070000D03*
X136525000Y-54610000D03*
X136525000Y-57150000D03*
X136525000Y-59690000D03*
X136525000Y-62230000D03*
X136525000Y-64770000D03*
X136525000Y-67310000D03*
X151765000Y-67310000D03*
X151765000Y-64770000D03*
X151765000Y-62230000D03*
X151765000Y-59690000D03*
X151765000Y-57150000D03*
X151765000Y-54610000D03*
X151765000Y-52070000D03*
X151765000Y-49530000D03*
X151765000Y-46990000D03*
X151765000Y-44450000D03*
X151765000Y-41910000D03*
X151765000Y-39370000D03*
G04 #@! TD*
D34*
G04 #@! TO.C,D67*
X153035000Y-124333000D03*
D35*
X150495000Y-124333000D03*
G04 #@! TD*
D13*
G04 #@! TO.C,D68*
X205920000Y-139349970D03*
D14*
G36*
X206112820Y-140615995D02*
X204727180Y-139815995D01*
X205727180Y-138083945D01*
X207112820Y-138883945D01*
X206112820Y-140615995D01*
X206112820Y-140615995D01*
G37*
D11*
X202565000Y-145161000D03*
D14*
G36*
X202931025Y-146527025D02*
X201198975Y-145527025D01*
X202198975Y-143794975D01*
X203931025Y-144794975D01*
X202931025Y-146527025D01*
X202931025Y-146527025D01*
G37*
D11*
X207645000Y-136362182D03*
D15*
X207645000Y-136362182D02*
X207645000Y-136362182D01*
D13*
X204290000Y-142173212D03*
D14*
G36*
X204482820Y-143439237D02*
X203097180Y-142639237D01*
X204097180Y-140907187D01*
X205482820Y-141707187D01*
X204482820Y-143439237D01*
X204482820Y-143439237D01*
G37*
G04 #@! TD*
D36*
G04 #@! TO.C,Q1*
X163957000Y-133223000D03*
X163957000Y-131323000D03*
X161957000Y-132273000D03*
G04 #@! TD*
D19*
G04 #@! TO.C,SW2*
X86995000Y-77025500D03*
D20*
X92495000Y-77025500D03*
X81495000Y-77025500D03*
D21*
X90355049Y-73949269D03*
D22*
X90933558Y-74638709D02*
X89776540Y-73259829D01*
D21*
X83634951Y-73949269D03*
D22*
X84213460Y-73259829D02*
X83056442Y-74638709D01*
D23*
X84475000Y-72525500D03*
X89515000Y-72525500D03*
D24*
X81915000Y-77025500D03*
X92075000Y-77025500D03*
G04 #@! TD*
D19*
G04 #@! TO.C,SW3*
X86995000Y-96075500D03*
D20*
X92495000Y-96075500D03*
X81495000Y-96075500D03*
D21*
X90355049Y-92999269D03*
D22*
X90933558Y-93688709D02*
X89776540Y-92309829D01*
D21*
X83634951Y-92999269D03*
D22*
X84213460Y-92309829D02*
X83056442Y-93688709D01*
D23*
X84475000Y-91575500D03*
X89515000Y-91575500D03*
D24*
X81915000Y-96075500D03*
X92075000Y-96075500D03*
G04 #@! TD*
D19*
G04 #@! TO.C,SW5*
X106045000Y-57975500D03*
D20*
X100545000Y-57975500D03*
X111545000Y-57975500D03*
D21*
X102684951Y-54899269D03*
D22*
X102106442Y-55588709D02*
X103263460Y-54209829D01*
D21*
X109405049Y-54899269D03*
D22*
X108826540Y-54209829D02*
X109983558Y-55588709D01*
D23*
X108565000Y-53475500D03*
X103525000Y-53475500D03*
D24*
X111125000Y-57975500D03*
X100965000Y-57975500D03*
G04 #@! TD*
D19*
G04 #@! TO.C,SW6*
X106045000Y-77025500D03*
D20*
X100545000Y-77025500D03*
X111545000Y-77025500D03*
D21*
X102684951Y-73949269D03*
D22*
X102106442Y-74638709D02*
X103263460Y-73259829D01*
D21*
X109405049Y-73949269D03*
D22*
X108826540Y-73259829D02*
X109983558Y-74638709D01*
D23*
X108565000Y-72525500D03*
X103525000Y-72525500D03*
D24*
X111125000Y-77025500D03*
X100965000Y-77025500D03*
G04 #@! TD*
D19*
G04 #@! TO.C,SW7*
X106045000Y-96075500D03*
D20*
X100545000Y-96075500D03*
X111545000Y-96075500D03*
D21*
X102684951Y-92999269D03*
D22*
X102106442Y-93688709D02*
X103263460Y-92309829D01*
D21*
X109405049Y-92999269D03*
D22*
X108826540Y-92309829D02*
X109983558Y-93688709D01*
D23*
X108565000Y-91575500D03*
X103525000Y-91575500D03*
D24*
X111125000Y-96075500D03*
X100965000Y-96075500D03*
G04 #@! TD*
D19*
G04 #@! TO.C,SW9*
X125095000Y-53213000D03*
D20*
X130595000Y-53213000D03*
X119595000Y-53213000D03*
D21*
X128455049Y-50136769D03*
D22*
X129033558Y-50826209D02*
X127876540Y-49447329D01*
D21*
X121734951Y-50136769D03*
D22*
X122313460Y-49447329D02*
X121156442Y-50826209D01*
D23*
X122575000Y-48713000D03*
X127615000Y-48713000D03*
D24*
X120015000Y-53213000D03*
X130175000Y-53213000D03*
G04 #@! TD*
D19*
G04 #@! TO.C,SW10*
X125095000Y-72263000D03*
D20*
X130595000Y-72263000D03*
X119595000Y-72263000D03*
D21*
X128455049Y-69186769D03*
D22*
X129033558Y-69876209D02*
X127876540Y-68497329D01*
D21*
X121734951Y-69186769D03*
D22*
X122313460Y-68497329D02*
X121156442Y-69876209D01*
D23*
X122575000Y-67763000D03*
X127615000Y-67763000D03*
D24*
X120015000Y-72263000D03*
X130175000Y-72263000D03*
G04 #@! TD*
D19*
G04 #@! TO.C,SW13*
X144145000Y-50831750D03*
D20*
X138645000Y-50831750D03*
X149645000Y-50831750D03*
D21*
X140784951Y-47755519D03*
D22*
X140206442Y-48444959D02*
X141363460Y-47066079D01*
D21*
X147505049Y-47755519D03*
D22*
X146926540Y-47066079D02*
X148083558Y-48444959D01*
D23*
X146665000Y-46331750D03*
X141625000Y-46331750D03*
D24*
X149225000Y-50831750D03*
X139065000Y-50831750D03*
G04 #@! TD*
D19*
G04 #@! TO.C,SW14*
X144145000Y-69881750D03*
D20*
X138645000Y-69881750D03*
X149645000Y-69881750D03*
D21*
X140784951Y-66805519D03*
D22*
X140206442Y-67494959D02*
X141363460Y-66116079D01*
D21*
X147505049Y-66805519D03*
D22*
X146926540Y-66116079D02*
X148083558Y-67494959D01*
D23*
X146665000Y-65381750D03*
X141625000Y-65381750D03*
D24*
X149225000Y-69881750D03*
X139065000Y-69881750D03*
G04 #@! TD*
D19*
G04 #@! TO.C,SW15*
X144145000Y-88931750D03*
D20*
X138645000Y-88931750D03*
X149645000Y-88931750D03*
D21*
X140784951Y-85855519D03*
D22*
X140206442Y-86544959D02*
X141363460Y-85166079D01*
D21*
X147505049Y-85855519D03*
D22*
X146926540Y-85166079D02*
X148083558Y-86544959D01*
D23*
X146665000Y-84431750D03*
X141625000Y-84431750D03*
D24*
X149225000Y-88931750D03*
X139065000Y-88931750D03*
G04 #@! TD*
D19*
G04 #@! TO.C,SW16*
X144145000Y-107981750D03*
D20*
X138645000Y-107981750D03*
X149645000Y-107981750D03*
D21*
X140784951Y-104905519D03*
D22*
X140206442Y-105594959D02*
X141363460Y-104216079D01*
D21*
X147505049Y-104905519D03*
D22*
X146926540Y-104216079D02*
X148083558Y-105594959D01*
D23*
X146665000Y-103481750D03*
X141625000Y-103481750D03*
D24*
X149225000Y-107981750D03*
X139065000Y-107981750D03*
G04 #@! TD*
D19*
G04 #@! TO.C,SW17*
X163195000Y-53213000D03*
D20*
X157695000Y-53213000D03*
X168695000Y-53213000D03*
D21*
X159834951Y-50136769D03*
D22*
X159256442Y-50826209D02*
X160413460Y-49447329D01*
D21*
X166555049Y-50136769D03*
D22*
X165976540Y-49447329D02*
X167133558Y-50826209D01*
D23*
X165715000Y-48713000D03*
X160675000Y-48713000D03*
D24*
X168275000Y-53213000D03*
X158115000Y-53213000D03*
G04 #@! TD*
D19*
G04 #@! TO.C,SW18*
X163195000Y-72263000D03*
D20*
X157695000Y-72263000D03*
X168695000Y-72263000D03*
D21*
X159834951Y-69186769D03*
D22*
X159256442Y-69876209D02*
X160413460Y-68497329D01*
D21*
X166555049Y-69186769D03*
D22*
X165976540Y-68497329D02*
X167133558Y-69876209D01*
D23*
X165715000Y-67763000D03*
X160675000Y-67763000D03*
D24*
X168275000Y-72263000D03*
X158115000Y-72263000D03*
G04 #@! TD*
D19*
G04 #@! TO.C,SW19*
X163195000Y-91313000D03*
D20*
X157695000Y-91313000D03*
X168695000Y-91313000D03*
D21*
X159834951Y-88236769D03*
D22*
X159256442Y-88926209D02*
X160413460Y-87547329D01*
D21*
X166555049Y-88236769D03*
D22*
X165976540Y-87547329D02*
X167133558Y-88926209D01*
D23*
X165715000Y-86813000D03*
X160675000Y-86813000D03*
D24*
X168275000Y-91313000D03*
X158115000Y-91313000D03*
G04 #@! TD*
D19*
G04 #@! TO.C,SW20*
X163195000Y-110363000D03*
D20*
X157695000Y-110363000D03*
X168695000Y-110363000D03*
D21*
X159834951Y-107286769D03*
D22*
X159256442Y-107976209D02*
X160413460Y-106597329D01*
D21*
X166555049Y-107286769D03*
D22*
X165976540Y-106597329D02*
X167133558Y-107976209D01*
D23*
X165715000Y-105863000D03*
X160675000Y-105863000D03*
D24*
X168275000Y-110363000D03*
X158115000Y-110363000D03*
G04 #@! TD*
D19*
G04 #@! TO.C,SW22*
X182245000Y-74644250D03*
D20*
X187745000Y-74644250D03*
X176745000Y-74644250D03*
D21*
X185605049Y-71568019D03*
D22*
X186183558Y-72257459D02*
X185026540Y-70878579D01*
D21*
X178884951Y-71568019D03*
D22*
X179463460Y-70878579D02*
X178306442Y-72257459D01*
D23*
X179725000Y-70144250D03*
X184765000Y-70144250D03*
D24*
X177165000Y-74644250D03*
X187325000Y-74644250D03*
G04 #@! TD*
D19*
G04 #@! TO.C,SW23*
X182245000Y-93694250D03*
D20*
X187745000Y-93694250D03*
X176745000Y-93694250D03*
D21*
X185605049Y-90618019D03*
D22*
X186183558Y-91307459D02*
X185026540Y-89928579D01*
D21*
X178884951Y-90618019D03*
D22*
X179463460Y-89928579D02*
X178306442Y-91307459D01*
D23*
X179725000Y-89194250D03*
X184765000Y-89194250D03*
D24*
X177165000Y-93694250D03*
X187325000Y-93694250D03*
G04 #@! TD*
D19*
G04 #@! TO.C,SW24*
X182245000Y-112744250D03*
D20*
X187745000Y-112744250D03*
X176745000Y-112744250D03*
D21*
X185605049Y-109668019D03*
D22*
X186183558Y-110357459D02*
X185026540Y-108978579D01*
D21*
X178884951Y-109668019D03*
D22*
X179463460Y-108978579D02*
X178306442Y-110357459D01*
D23*
X179725000Y-108244250D03*
X184765000Y-108244250D03*
D24*
X177165000Y-112744250D03*
X187325000Y-112744250D03*
G04 #@! TD*
D19*
G04 #@! TO.C,SW25*
X201295000Y-65119250D03*
D20*
X195795000Y-65119250D03*
X206795000Y-65119250D03*
D21*
X197934951Y-62043019D03*
D22*
X197356442Y-62732459D02*
X198513460Y-61353579D01*
D21*
X204655049Y-62043019D03*
D22*
X204076540Y-61353579D02*
X205233558Y-62732459D01*
D23*
X203815000Y-60619250D03*
X198775000Y-60619250D03*
D24*
X206375000Y-65119250D03*
X196215000Y-65119250D03*
G04 #@! TD*
D19*
G04 #@! TO.C,SW26*
X201295000Y-84169250D03*
D20*
X195795000Y-84169250D03*
X206795000Y-84169250D03*
D21*
X197934951Y-81093019D03*
D22*
X197356442Y-81782459D02*
X198513460Y-80403579D01*
D21*
X204655049Y-81093019D03*
D22*
X204076540Y-80403579D02*
X205233558Y-81782459D01*
D23*
X203815000Y-79669250D03*
X198775000Y-79669250D03*
D24*
X206375000Y-84169250D03*
X196215000Y-84169250D03*
G04 #@! TD*
D19*
G04 #@! TO.C,SW27*
X201295000Y-103219250D03*
D20*
X195795000Y-103219250D03*
X206795000Y-103219250D03*
D21*
X197934951Y-100143019D03*
D22*
X197356442Y-100832459D02*
X198513460Y-99453579D01*
D21*
X204655049Y-100143019D03*
D22*
X204076540Y-99453579D02*
X205233558Y-100832459D01*
D23*
X203815000Y-98719250D03*
X198775000Y-98719250D03*
D24*
X206375000Y-103219250D03*
X196215000Y-103219250D03*
G04 #@! TD*
D19*
G04 #@! TO.C,SW28*
X200315000Y-127202300D03*
D20*
X203065000Y-122439160D03*
X197565000Y-131965440D03*
D21*
X204659119Y-125830528D03*
D22*
X204351301Y-124984805D02*
X204966937Y-126676251D01*
D21*
X201299070Y-131650303D03*
D22*
X202185397Y-131494020D02*
X200412743Y-131806586D01*
D27*
X202952114Y-131634684D03*
D28*
X203401148Y-131893934D02*
X202503080Y-131375434D01*
D27*
X205472114Y-127269916D03*
D28*
X205921148Y-127529166D02*
X205023080Y-127010666D01*
D24*
X197775000Y-131601709D03*
X202855000Y-122802891D03*
G04 #@! TD*
D19*
G04 #@! TO.C,SW30*
X86995000Y-134175500D03*
D20*
X92495000Y-134175500D03*
X81495000Y-134175500D03*
D21*
X90355049Y-131099269D03*
D22*
X90933558Y-131788709D02*
X89776540Y-130409829D01*
D21*
X83634951Y-131099269D03*
D22*
X84213460Y-130409829D02*
X83056442Y-131788709D01*
D23*
X84475000Y-129675500D03*
X89515000Y-129675500D03*
D24*
X81915000Y-134175500D03*
X92075000Y-134175500D03*
G04 #@! TD*
D19*
G04 #@! TO.C,SW31*
X106045000Y-134175500D03*
D20*
X100545000Y-134175500D03*
X111545000Y-134175500D03*
D21*
X102684951Y-131099269D03*
D22*
X102106442Y-131788709D02*
X103263460Y-130409829D01*
D21*
X109405049Y-131099269D03*
D22*
X108826540Y-130409829D02*
X109983558Y-131788709D01*
D23*
X108565000Y-129675500D03*
X103525000Y-129675500D03*
D24*
X111125000Y-134175500D03*
X100965000Y-134175500D03*
G04 #@! TD*
D19*
G04 #@! TO.C,SW32*
X125095000Y-129413000D03*
D20*
X130595000Y-129413000D03*
X119595000Y-129413000D03*
D21*
X128455049Y-126336769D03*
D22*
X129033558Y-127026209D02*
X127876540Y-125647329D01*
D21*
X121734951Y-126336769D03*
D22*
X122313460Y-125647329D02*
X121156442Y-127026209D01*
D23*
X122575000Y-124913000D03*
X127615000Y-124913000D03*
D24*
X120015000Y-129413000D03*
X130175000Y-129413000D03*
G04 #@! TD*
D19*
G04 #@! TO.C,SW35*
X190790000Y-143700300D03*
D20*
X193540000Y-138937160D03*
X188040000Y-148463440D03*
D21*
X195134119Y-142328528D03*
D22*
X194826301Y-141482805D02*
X195441937Y-143174251D01*
D21*
X191774070Y-148148303D03*
D22*
X192660397Y-147992020D02*
X190887743Y-148304586D01*
D27*
X193427114Y-148132684D03*
D28*
X193876148Y-148391934D02*
X192978080Y-147873434D01*
D27*
X195947114Y-143767916D03*
D28*
X196396148Y-144027166D02*
X195498080Y-143508666D01*
D24*
X188250000Y-148099709D03*
X193330000Y-139300891D03*
G04 #@! TD*
D19*
G04 #@! TO.C,SW36*
X195552500Y-135451250D03*
D20*
X192802500Y-140214390D03*
X198302500Y-130688110D03*
D21*
X191208381Y-136823022D03*
D22*
X191516199Y-137668745D02*
X190900563Y-135977299D01*
D21*
X194568430Y-131003247D03*
D22*
X193682103Y-131159530D02*
X195454757Y-130846964D01*
D27*
X192915386Y-131018866D03*
D28*
X192466352Y-130759616D02*
X193364420Y-131278116D01*
D27*
X190395386Y-135383634D03*
D28*
X189946352Y-135124384D02*
X190844420Y-135642884D01*
D24*
X198092500Y-131051841D03*
X193012500Y-139850659D03*
G04 #@! TD*
D19*
G04 #@! TO.C,SW39*
X216813000Y-136727350D03*
D20*
X219563000Y-131964210D03*
X214063000Y-141490490D03*
D21*
X221157119Y-135355578D03*
D22*
X220849301Y-134509855D02*
X221464937Y-136201301D01*
D21*
X217797070Y-141175353D03*
D22*
X218683397Y-141019070D02*
X216910743Y-141331636D01*
D27*
X219450114Y-141159734D03*
D28*
X219899148Y-141418984D02*
X219001080Y-140900484D01*
D27*
X221970114Y-136794966D03*
D28*
X222419148Y-137054216D02*
X221521080Y-136535716D01*
D24*
X214273000Y-141126759D03*
X219353000Y-132327941D03*
G04 #@! TD*
D19*
G04 #@! TO.C,SW40*
X212050500Y-144976300D03*
D20*
X209300500Y-149739440D03*
X214800500Y-140213160D03*
D21*
X207706381Y-146348072D03*
D22*
X208014199Y-147193795D02*
X207398563Y-145502349D01*
D21*
X211066430Y-140528297D03*
D22*
X210180103Y-140684580D02*
X211952757Y-140372014D01*
D27*
X209413386Y-140543916D03*
D28*
X208964352Y-140284666D02*
X209862420Y-140803166D01*
D27*
X206893386Y-144908684D03*
D28*
X206444352Y-144649434D02*
X207342420Y-145167934D01*
D24*
X214590500Y-140576891D03*
X209510500Y-149375709D03*
G04 #@! TD*
D19*
G04 #@! TO.C,SW41*
X207288000Y-153225350D03*
D20*
X210038000Y-148462210D03*
X204538000Y-157988490D03*
D21*
X211632119Y-151853578D03*
D22*
X211324301Y-151007855D02*
X211939937Y-152699301D01*
D21*
X208272070Y-157673353D03*
D22*
X209158397Y-157517070D02*
X207385743Y-157829636D01*
D27*
X209925114Y-157657734D03*
D28*
X210374148Y-157916984D02*
X209476080Y-157398484D01*
D27*
X212445114Y-153292966D03*
D28*
X212894148Y-153552216D02*
X211996080Y-153033716D01*
D24*
X204748000Y-157624759D03*
X209828000Y-148825941D03*
G04 #@! TD*
D33*
G04 #@! TO.C,J4*
X115030000Y-47159000D03*
X113030000Y-47159000D03*
X111030000Y-47159000D03*
G04 #@! TD*
G04 #@! TO.C,J5*
X115030000Y-49318000D03*
X113030000Y-49318000D03*
X111030000Y-49318000D03*
G04 #@! TD*
D34*
G04 #@! TO.C,D69*
X196550591Y-123562448D03*
X195280591Y-125762152D03*
D14*
G36*
X194858747Y-124187808D02*
X196854935Y-125340308D01*
X195702435Y-127336496D01*
X193706247Y-126183996D01*
X194858747Y-124187808D01*
X194858747Y-124187808D01*
G37*
G04 #@! TD*
D34*
G04 #@! TO.C,D70*
X213048591Y-133087498D03*
X211778591Y-135287202D03*
D14*
G36*
X211356747Y-133712858D02*
X213352935Y-134865358D01*
X212200435Y-136861546D01*
X210204247Y-135709046D01*
X211356747Y-133712858D01*
X211356747Y-133712858D01*
G37*
G04 #@! TD*
D34*
G04 #@! TO.C,D71*
X187025591Y-140060448D03*
X185755591Y-142260152D03*
D14*
G36*
X185333747Y-140685808D02*
X187329935Y-141838308D01*
X186177435Y-143834496D01*
X184181247Y-142681996D01*
X185333747Y-140685808D01*
X185333747Y-140685808D01*
G37*
G04 #@! TD*
D34*
G04 #@! TO.C,D72*
X203523591Y-149585498D03*
X202253591Y-151785202D03*
D14*
G36*
X201831747Y-150210858D02*
X203827935Y-151363358D01*
X202675435Y-153359546D01*
X200679247Y-152207046D01*
X201831747Y-150210858D01*
X201831747Y-150210858D01*
G37*
G04 #@! TD*
D34*
G04 #@! TO.C,D73*
X215814909Y-148616152D03*
X217084909Y-146416448D03*
D14*
G36*
X217506753Y-147990792D02*
X215510565Y-146838292D01*
X216663065Y-144842104D01*
X218659253Y-145994604D01*
X217506753Y-147990792D01*
X217506753Y-147990792D01*
G37*
G04 #@! TD*
D37*
G04 #@! TO.C,D1*
X97663000Y-56282000D03*
D38*
X97663000Y-62992000D03*
D12*
X97663000Y-52832000D03*
D37*
X97663000Y-59542000D03*
G04 #@! TD*
G04 #@! TO.C,D2*
X97663000Y-75459000D03*
D38*
X97663000Y-82169000D03*
D12*
X97663000Y-72009000D03*
D37*
X97663000Y-78719000D03*
G04 #@! TD*
G04 #@! TO.C,D3*
X97663000Y-94382000D03*
D38*
X97663000Y-101092000D03*
D12*
X97663000Y-90932000D03*
D37*
X97663000Y-97642000D03*
G04 #@! TD*
G04 #@! TO.C,D4*
X114427000Y-113411000D03*
D38*
X114427000Y-120121000D03*
D12*
X114427000Y-109961000D03*
D37*
X114427000Y-116671000D03*
G04 #@! TD*
G04 #@! TO.C,D5*
X114427000Y-56282000D03*
D38*
X114427000Y-62992000D03*
D12*
X114427000Y-52832000D03*
D37*
X114427000Y-59542000D03*
G04 #@! TD*
G04 #@! TO.C,D6*
X114427000Y-75459000D03*
D38*
X114427000Y-82169000D03*
D12*
X114427000Y-72009000D03*
D37*
X114427000Y-78719000D03*
G04 #@! TD*
G04 #@! TO.C,D7*
X114427000Y-94382000D03*
D38*
X114427000Y-101092000D03*
D12*
X114427000Y-90932000D03*
D37*
X114427000Y-97642000D03*
G04 #@! TD*
G04 #@! TO.C,D8*
X116713000Y-113432000D03*
D38*
X116713000Y-120142000D03*
D12*
X116713000Y-109982000D03*
D37*
X116713000Y-116692000D03*
G04 #@! TD*
G04 #@! TO.C,D9*
X116713000Y-56282000D03*
D38*
X116713000Y-62992000D03*
D12*
X116713000Y-52832000D03*
D37*
X116713000Y-59542000D03*
G04 #@! TD*
G04 #@! TO.C,D10*
X116586000Y-75459000D03*
D38*
X116586000Y-82169000D03*
D12*
X116586000Y-72009000D03*
D37*
X116586000Y-78719000D03*
G04 #@! TD*
G04 #@! TO.C,D11*
X116713000Y-94382000D03*
D38*
X116713000Y-101092000D03*
D12*
X116713000Y-90932000D03*
D37*
X116713000Y-97642000D03*
G04 #@! TD*
G04 #@! TO.C,D12*
X133477000Y-105939000D03*
D38*
X133477000Y-112649000D03*
D12*
X133477000Y-102489000D03*
D37*
X133477000Y-109199000D03*
G04 #@! TD*
G04 #@! TO.C,D13*
X133477000Y-70633000D03*
D38*
X133477000Y-77343000D03*
D12*
X133477000Y-67183000D03*
D37*
X133477000Y-73893000D03*
G04 #@! TD*
G04 #@! TO.C,D14*
X152527000Y-74062000D03*
D38*
X152527000Y-80772000D03*
D12*
X152527000Y-70612000D03*
D37*
X152527000Y-77322000D03*
G04 #@! TD*
G04 #@! TO.C,D15*
X133477000Y-89958000D03*
D38*
X133477000Y-96668000D03*
D12*
X133477000Y-86508000D03*
D37*
X133477000Y-93218000D03*
G04 #@! TD*
G04 #@! TO.C,D16*
X136017000Y-105918000D03*
D38*
X136017000Y-112628000D03*
D12*
X136017000Y-102468000D03*
D37*
X136017000Y-109178000D03*
G04 #@! TD*
G04 #@! TO.C,D17*
X173609000Y-54377000D03*
D38*
X173609000Y-61087000D03*
D12*
X173609000Y-50927000D03*
D37*
X173609000Y-57637000D03*
G04 #@! TD*
G04 #@! TO.C,D18*
X171577000Y-91863000D03*
D38*
X171577000Y-98573000D03*
D12*
X171577000Y-88413000D03*
D37*
X171577000Y-95123000D03*
G04 #@! TD*
G04 #@! TO.C,D19*
X152527000Y-90424000D03*
D38*
X152527000Y-97134000D03*
D12*
X152527000Y-86974000D03*
D37*
X152527000Y-93684000D03*
G04 #@! TD*
G04 #@! TO.C,D20*
X171577000Y-111146000D03*
D38*
X171577000Y-117856000D03*
D12*
X171577000Y-107696000D03*
D37*
X171577000Y-114406000D03*
G04 #@! TD*
G04 #@! TO.C,D21*
X173863000Y-75840000D03*
D38*
X173863000Y-82550000D03*
D12*
X173863000Y-72390000D03*
D37*
X173863000Y-79100000D03*
G04 #@! TD*
G04 #@! TO.C,D22*
X171577000Y-75861000D03*
D38*
X171577000Y-82571000D03*
D12*
X171577000Y-72411000D03*
D37*
X171577000Y-79121000D03*
G04 #@! TD*
G04 #@! TO.C,D23*
X173990000Y-91842000D03*
D38*
X173990000Y-98552000D03*
D12*
X173990000Y-88392000D03*
D37*
X173990000Y-95102000D03*
G04 #@! TD*
G04 #@! TO.C,D24*
X173863000Y-111146000D03*
D38*
X173863000Y-117856000D03*
D12*
X173863000Y-107696000D03*
D37*
X173863000Y-114406000D03*
G04 #@! TD*
G04 #@! TO.C,D25*
X190627000Y-73173000D03*
D38*
X190627000Y-79883000D03*
D12*
X190627000Y-69723000D03*
D37*
X190627000Y-76433000D03*
G04 #@! TD*
G04 #@! TO.C,D26*
X190627000Y-88159000D03*
D38*
X190627000Y-94869000D03*
D12*
X190627000Y-84709000D03*
D37*
X190627000Y-91419000D03*
G04 #@! TD*
G04 #@! TO.C,D27*
X190627000Y-101748000D03*
D38*
X190627000Y-108458000D03*
D12*
X190627000Y-98298000D03*
D37*
X190627000Y-105008000D03*
G04 #@! TD*
G04 #@! TO.C,D28*
X190627000Y-119888000D03*
D38*
X190627000Y-126598000D03*
D12*
X190627000Y-116438000D03*
D37*
X190627000Y-123148000D03*
G04 #@! TD*
G04 #@! TO.C,D29*
X97663000Y-112924000D03*
D38*
X97663000Y-119634000D03*
D12*
X97663000Y-109474000D03*
D37*
X97663000Y-116184000D03*
G04 #@! TD*
G04 #@! TO.C,D30*
X114427000Y-127910000D03*
D38*
X114427000Y-134620000D03*
D12*
X114427000Y-124460000D03*
D37*
X114427000Y-131170000D03*
G04 #@! TD*
G04 #@! TO.C,D31*
X116713000Y-127910000D03*
D38*
X116713000Y-134620000D03*
D12*
X116713000Y-124460000D03*
D37*
X116713000Y-131170000D03*
G04 #@! TD*
G04 #@! TO.C,D32*
X133477000Y-125730000D03*
D38*
X133477000Y-132440000D03*
D12*
X133477000Y-122280000D03*
D37*
X133477000Y-128990000D03*
G04 #@! TD*
D13*
G04 #@! TO.C,D33*
X177419000Y-126619000D03*
D14*
G36*
X178685025Y-126426180D02*
X177885025Y-127811820D01*
X176152975Y-126811820D01*
X176952975Y-125426180D01*
X178685025Y-126426180D01*
X178685025Y-126426180D01*
G37*
D11*
X183230030Y-129974000D03*
D14*
G36*
X184596055Y-129607975D02*
X183596055Y-131340025D01*
X181864005Y-130340025D01*
X182864005Y-128607975D01*
X184596055Y-129607975D01*
X184596055Y-129607975D01*
G37*
D11*
X174431212Y-124894000D03*
D15*
X174431212Y-124894000D02*
X174431212Y-124894000D01*
D13*
X180242242Y-128249000D03*
D14*
G36*
X181508267Y-128056180D02*
X180708267Y-129441820D01*
X178976217Y-128441820D01*
X179776217Y-127056180D01*
X181508267Y-128056180D01*
X181508267Y-128056180D01*
G37*
G04 #@! TD*
D13*
G04 #@! TO.C,D34*
X182171000Y-136682970D03*
D14*
G36*
X182363820Y-137948995D02*
X180978180Y-137148995D01*
X181978180Y-135416945D01*
X183363820Y-136216945D01*
X182363820Y-137948995D01*
X182363820Y-137948995D01*
G37*
D11*
X178816000Y-142494000D03*
D14*
G36*
X179182025Y-143860025D02*
X177449975Y-142860025D01*
X178449975Y-141127975D01*
X180182025Y-142127975D01*
X179182025Y-143860025D01*
X179182025Y-143860025D01*
G37*
D11*
X183896000Y-133695182D03*
D15*
X183896000Y-133695182D02*
X183896000Y-133695182D01*
D13*
X180541000Y-139506212D03*
D14*
G36*
X180733820Y-140772237D02*
X179348180Y-139972237D01*
X180348180Y-138240187D01*
X181733820Y-139040187D01*
X180733820Y-140772237D01*
X180733820Y-140772237D01*
G37*
G04 #@! TD*
D39*
G04 #@! TO.C,LED1*
X83184000Y-68948000D03*
X79884000Y-68948000D03*
X79884000Y-64148000D03*
X83184000Y-64148000D03*
G04 #@! TD*
G04 #@! TO.C,LED2*
X83184000Y-87998000D03*
X79884000Y-87998000D03*
X79884000Y-83198000D03*
X83184000Y-83198000D03*
G04 #@! TD*
G04 #@! TO.C,LED3*
X83184000Y-107048000D03*
X79884000Y-107048000D03*
X79884000Y-102248000D03*
X83184000Y-102248000D03*
G04 #@! TD*
G04 #@! TO.C,LED4*
X83184000Y-126098000D03*
X79884000Y-126098000D03*
X79884000Y-121298000D03*
X83184000Y-121298000D03*
G04 #@! TD*
D40*
G04 #@! TO.C,LED5*
X98920000Y-138304000D03*
X98920000Y-141604000D03*
X94120000Y-141604000D03*
X94120000Y-138304000D03*
G04 #@! TD*
G04 #@! TO.C,LED6*
X121060333Y-138304000D03*
X121060333Y-141604000D03*
X116260333Y-141604000D03*
X116260333Y-138304000D03*
G04 #@! TD*
G04 #@! TO.C,LED7*
X143200667Y-138304000D03*
X143200667Y-141604000D03*
X138400667Y-141604000D03*
X138400667Y-138304000D03*
G04 #@! TD*
G04 #@! TO.C,LED8*
X165341000Y-138304000D03*
X165341000Y-141604000D03*
X160541000Y-141604000D03*
X160541000Y-138304000D03*
G04 #@! TD*
D41*
G04 #@! TO.C,LED9*
X200177058Y-134764539D03*
D14*
G36*
X201506481Y-134261911D02*
X200406481Y-136167167D01*
X198847635Y-135267167D01*
X199947635Y-133361911D01*
X201506481Y-134261911D01*
X201506481Y-134261911D01*
G37*
D41*
X203034942Y-136414539D03*
D14*
G36*
X204364365Y-135911911D02*
X203264365Y-137817167D01*
X201705519Y-136917167D01*
X202805519Y-135011911D01*
X204364365Y-135911911D01*
X204364365Y-135911911D01*
G37*
D41*
X200634942Y-140571461D03*
D14*
G36*
X201964365Y-140068833D02*
X200864365Y-141974089D01*
X199305519Y-141074089D01*
X200405519Y-139168833D01*
X201964365Y-140068833D01*
X201964365Y-140068833D01*
G37*
D41*
X197777058Y-138921461D03*
D14*
G36*
X199106481Y-138418833D02*
X198006481Y-140324089D01*
X196447635Y-139424089D01*
X197547635Y-137518833D01*
X199106481Y-138418833D01*
X199106481Y-138418833D01*
G37*
G04 #@! TD*
D39*
G04 #@! TO.C,LED10*
X205487000Y-110757000D03*
X208787000Y-110757000D03*
X208787000Y-115557000D03*
X205487000Y-115557000D03*
G04 #@! TD*
G04 #@! TO.C,LED11*
X205487000Y-90056000D03*
X208787000Y-90056000D03*
X208787000Y-94856000D03*
X205487000Y-94856000D03*
G04 #@! TD*
G04 #@! TO.C,LED12*
X205487000Y-71260000D03*
X208787000Y-71260000D03*
X208787000Y-76060000D03*
X205487000Y-76060000D03*
G04 #@! TD*
M02*
